<svg version="1.1" xmlns="http://www.w3.org/2000/svg" viewBox="0 0 1050.6936075095293 779.4903717041016" width="1050.6936075095293" height="779.4903717041016">
  <!-- svg-source:excalidraw -->

  <defs>
    <style>
      @font-face {
        font-family: "Virgil";
        src: url("https://excalidraw.com/Virgil.woff2");
      }
      @font-face {
        font-family: "Cascadia";
        src: url("https://excalidraw.com/Cascadia.woff2");
      }
    </style>
  </defs>
  <rect x="0" y="0" width="1050.6936075095293" height="779.4903717041016" fill="#111111"></rect><g stroke-linecap="round" transform="translate(10 11.364486694335938) rotate(0 152.6290584873368 85.47884368896484)"><path d="M2.65 0.38 C90.57 0.31, 182.28 2.77, 306.28 -0.66 M0.51 -0.96 C107.57 -1.47, 216.72 -1.53, 306.27 -0.97 M308.7 3.41 C303.44 62.25, 304.2 127.73, 308.63 171.81 M304.29 1.5 C304.77 65.83, 305.94 127.2, 304.08 171.81 M306.12 171.74 C228.15 170.85, 147.48 167.54, -0.7 169.19 M305.82 172.15 C213.33 171.73, 121.21 171.01, 0.32 171.12 M1.73 173.61 C2.23 116.09, 4.91 64.51, 1.09 2.22 M1.99 171.1 C1.41 114.62, 4 60.28, 0.99 -0.77" stroke="#FFFFFF" stroke-width="1" fill="none"></path></g><g stroke-linecap="round" transform="translate(360.33636474609375 10) rotate(0 152.6290584873368 85.47884368896484)"><path d="M2.31 1.25 C118.25 -4.11, 230.44 -2.53, 302.66 -2.67 M-0.45 -0.75 C64.45 -1.57, 129.85 -1.91, 303.93 -1.41 M305.26 3.65 C309.43 66.13, 307.3 127.38, 308.92 167.28 M307.07 1.25 C303.22 50.96, 305.03 101.33, 306.39 172.23 M305.38 172.42 C240.98 171.2, 182.13 169.01, 1.15 173.61 M305.39 169.91 C192.77 166.63, 80.52 166.86, 0.3 171.28 M-2.9 173.53 C0.01 122.43, -3.32 76.68, -1 0.91 M0.5 171.18 C4.55 108.83, 3.21 45.73, 1.72 -0.89" stroke="#FFFFFF" stroke-width="1" fill="none"></path></g><g stroke-linecap="round" transform="translate(735.4354905348557 10.529185368464368) rotate(0 152.6290584873368 85.47884368896484)"><path d="M1.72 -1.88 C100.45 -6.49, 207.04 -2.53, 307.51 -0.75 M-1.35 -1.3 C74.3 2.62, 148.45 0.8, 305.71 -0.55 M304.16 1.15 C307.96 63.7, 311.2 122.67, 301.27 173.61 M304.52 -1.34 C303.64 39.03, 304.27 78.34, 305.1 169.79 M305.24 169.3 C232.3 175.64, 156.96 175.45, 0.81 169.45 M304.65 171.07 C199.91 170.76, 96.35 170.08, -1.16 169.7 M2.11 174.04 C-1.85 126.48, 4.35 74.8, -0.24 3.63 M1.81 171.5 C2.71 125.81, -0.62 84.58, -1.55 1.31" stroke="#FFFFFF" stroke-width="1" fill="none"></path></g><g stroke-linecap="round" transform="translate(144.58465148398136 43.26085153896156) rotate(0 17.90672782417795 16.50995491889512)"><path d="M9.33 3.12 C12.4 1.61, 16.74 0.88, 20.14 1.32 C23.54 1.76, 27 3.51, 29.73 5.76 C32.46 8, 36.45 11.54, 36.51 14.8 C36.58 18.05, 32.85 22.56, 30.11 25.28 C27.37 27.99, 23.29 30.34, 20.06 31.07 C16.83 31.8, 13.61 30.89, 10.72 29.67 C7.83 28.44, 4.17 26.51, 2.74 23.73 C1.31 20.94, -1.42 17.15, 2.14 12.95 C5.69 8.76, 19.07 -0.41, 24.07 -1.42 C29.08 -2.43, 32.58 6.03, 32.17 6.91 M19.75 -1.09 C23.36 -0.72, 31.2 2.38, 34.29 5.58 C37.38 8.77, 39.08 14.7, 38.27 18.07 C37.46 21.45, 32.21 23.58, 29.44 25.83 C26.66 28.08, 25.18 31, 21.63 31.55 C18.08 32.09, 11.46 30.64, 8.15 29.11 C4.84 27.58, 2.71 25.18, 1.75 22.38 C0.79 19.57, 1.36 15.93, 2.41 12.27 C3.45 8.62, 4.94 2.76, 8.03 0.47 C11.12 -1.82, 18.68 -1.73, 20.96 -1.46 C23.23 -1.2, 21.57 1.27, 21.67 2.04" stroke="#FFFFFF" stroke-width="2" fill="none"></path></g><g stroke-linecap="round" transform="translate(599.363859153753 31.77415368176503) rotate(0 17.90672782417795 16.50995491889512)"><path d="M30.1 1.72 C32.79 3.59, 32.7 7.49, 33.59 11.33 C34.48 15.18, 37.04 21.54, 35.44 24.78 C33.84 28.02, 27.87 29.66, 23.98 30.79 C20.08 31.92, 15.5 32.67, 12.09 31.56 C8.68 30.45, 5.8 27.35, 3.51 24.13 C1.22 20.91, -2.28 15.51, -1.65 12.25 C-1.02 8.99, 3.81 6.61, 7.28 4.57 C10.76 2.53, 14.15 -2.42, 19.21 0.01 C24.27 2.44, 36 14, 37.62 19.16 C39.24 24.31, 29.38 30.95, 28.93 30.94 M2.43 9.22 C4.8 6.41, 11.73 0.21, 15.85 -0.77 C19.97 -1.74, 23.84 1.28, 27.12 3.38 C30.4 5.48, 33.9 9.31, 35.53 11.83 C37.16 14.35, 38.65 15.61, 36.91 18.5 C35.18 21.38, 28.65 26.52, 25.12 29.17 C21.59 31.82, 19.58 34.29, 15.76 34.4 C11.93 34.52, 4.72 32.72, 2.18 29.85 C-0.37 26.97, 0.05 20.59, 0.5 17.16 C0.95 13.72, 3.95 11.33, 4.85 9.24 C5.76 7.16, 6.32 4.9, 5.93 4.66" stroke="#FFFFFF" stroke-width="2" fill="none"></path></g><g stroke-linecap="round" transform="translate(974.9302794887892 35.9769042545563) rotate(0 17.906727824177892 16.50995491889512)"><path d="M4.89 7.99 C7.11 4.91, 10.29 0.41, 13.54 -0.74 C16.79 -1.9, 21.22 -0.48, 24.39 1.05 C27.57 2.58, 30.85 4.83, 32.6 8.42 C34.35 12.01, 35.8 19.16, 34.89 22.59 C33.98 26.02, 30.24 27.43, 27.12 29.01 C24 30.6, 19.69 32.04, 16.16 32.12 C12.63 32.19, 8.87 32.06, 5.96 29.48 C3.06 26.9, -1.56 21.05, -1.26 16.65 C-0.96 12.25, 5.5 5.37, 7.76 3.06 C10.03 0.76, 12.38 2.89, 12.31 2.82 M28.95 2.38 C31.97 4.84, 32.81 10.29, 33.41 14.3 C34.01 18.31, 34.34 23.55, 32.56 26.43 C30.78 29.31, 26.38 30.88, 22.73 31.58 C19.07 32.27, 14.46 31.25, 10.64 30.63 C6.82 30, 1.54 30.85, -0.2 27.83 C-1.95 24.82, -1.28 16.3, 0.16 12.52 C1.59 8.75, 5.14 7.16, 8.42 5.2 C11.69 3.24, 16.25 1.3, 19.81 0.76 C23.37 0.21, 28.06 1.61, 29.75 1.92 C31.44 2.24, 30.4 2.37, 29.95 2.64" stroke="#FFFFFF" stroke-width="2" fill="none"></path></g><g stroke-linecap="round"><g transform="translate(160.69773543868456 61.65319404756087) rotate(0 2.7005663018420023 -5.1847634329481025)"><path d="M0.16 -0.66 C1.34 -2.84, 5.37 -10.31, 6.62 -11.98 M-1.22 1.61 C-0.21 0.08, 3.98 -8.48, 5.37 -10.89" stroke="#FFFFFF" stroke-width="1" fill="none"></path></g></g><g stroke-linecap="round"><g transform="translate(160.05119315011024 63.2724957008661) rotate(359.9680418032372 4.243427983956565 -0.19821556065346613)"><path d="M-0.66 -0.58 C0.31 -0.64, 5.41 -0.18, 6.87 -0.24 M1.2 1.73 C2.44 1.29, 8.08 -1.88, 9.14 -2.13" stroke="#FFFFFF" stroke-width="1" fill="none"></path></g></g><g stroke-linecap="round"><g transform="translate(615.4769431084561 50.16649619036434) rotate(0 3.2832892837494114 -5.63023203719149)"><path d="M0.52 0.8 C1.53 -1.37, 6.01 -9.89, 7.24 -12.06 M-0.67 0.17 C0.09 -1.96, 4.95 -9.06, 6.31 -11" stroke="#FFFFFF" stroke-width="1" fill="none"></path></g></g><g stroke-linecap="round"><g transform="translate(614.8304008198819 51.78579784366957) rotate(359.9680418032372 4.392592305737708 -0.8133338105409393)"><path d="M0.8 0.04 C1.77 -0.05, 5.82 0.31, 6.8 0 M-0.24 -0.99 C1.02 -1.47, 7.49 -1.75, 9.03 -1.76" stroke="#FFFFFF" stroke-width="1" fill="none"></path></g></g><g stroke-linecap="round"><g transform="translate(991.0433634434924 54.369246763155616) rotate(0 3.8500827298058766 -5.898118774078057)"><path d="M-0.78 -1.1 C0.07 -3.02, 4.81 -9.28, 6.26 -10.8 M1.01 0.94 C2.14 -1.41, 7.4 -10.57, 8.48 -12.74" stroke="#FFFFFF" stroke-width="1" fill="none"></path></g></g><g stroke-linecap="round"><g transform="translate(990.3968211549181 55.98854841646062) rotate(359.9680418032372 3.4808867640804237 -0.27753642771494924)"><path d="M-1.1 -0.94 C0.13 -0.81, 6.44 0.03, 8.06 0.02 M0.53 1.18 C1.56 1.04, 5.99 -1.57, 7.29 -1.74" stroke="#FFFFFF" stroke-width="1" fill="none"></path></g></g><g stroke-linecap="round" transform="translate(257.34577891092306 37.42199195263811) rotate(0 22.19097208772041 32.70248518190374)"><path d="M-1.78 -1.54 C12.29 -1.34, 28.73 -1.04, 45.89 1.2 M-0.97 -0.48 C15.19 -0.54, 32.79 -0.17, 45.14 0.01 M43.85 1.65 C44.69 14.26, 42.89 31.7, 43.5 65.26 M44.74 0.66 C44.07 16.14, 44.34 32.64, 44.41 65.85 M44.9 65.92 C31.45 65.29, 17.39 65.99, 0.39 64.73 M44.65 65.35 C33.55 66.41, 21.13 66.26, 0.29 64.73 M-0.9 65.23 C1.04 52.02, 0.33 34.55, -0.52 0.04 M0.06 64.69 C0.42 49.73, -0.25 34.63, 0.32 0.04" stroke="#FFFFFF" stroke-width="2" fill="none"></path></g><g stroke-linecap="round" transform="translate(394.1954399310554 82.99497239321772) rotate(0 22.19097208772041 32.70248518190374)"><path d="M-1.53 1.15 C13.44 -1.85, 28.7 1.72, 44.88 -0.62 M0.4 -0.55 C10.11 -0.83, 22.72 0.31, 45.33 0 M45.11 0.95 C46.8 23.76, 44.85 50.46, 43.56 67.22 M44.89 0.37 C44.69 24.35, 43.15 46.61, 43.97 65.45 M44.7 65.32 C29.61 67.55, 14.58 64.36, -1.72 65.59 M43.48 65.21 C34.49 65.46, 23.89 65.34, 0.3 64.68 M-1.49 64.53 C-0.56 42.04, 1.29 15.88, -1.73 0.5 M0 65.61 C0.42 44.62, 0.48 24.37, -0.96 1" stroke="#FFFFFF" stroke-width="2" fill="none"></path></g><g stroke-linecap="round" transform="translate(966.6776599205386 106.05462838968742) rotate(0 22.19097208772041 32.70248518190374)"><path d="M0.58 1.17 C11.99 -0.17, 19.74 -1.46, 43.55 -1.86 M-0.19 -0.72 C9.63 -0.62, 19.28 0.68, 43.74 -0.28 M45.78 -0.9 C42.32 22.83, 42.97 41.58, 44.41 64.67 M45.11 -0.64 C44.58 14.66, 44.12 29.51, 45.23 65.4 M46.08 65.9 C34.16 64.5, 23.66 64.8, -0.49 64.56 M44.29 65.54 C29.92 64.81, 16.89 65.53, -0.9 65.93 M1.93 65.8 C0.26 42.56, -0.55 15.43, -1 1.81 M-0.88 65.54 C-1.29 44.67, -0.74 21.69, 0.72 -0.94" stroke="#FFFFFF" stroke-width="2" fill="none"></path></g><g transform="translate(265.80102482364896 75.96079463833667) rotate(0 15.370850434089107 -2.0988906258648967)" stroke="none" fill="#FFFFFF"><path d="M 0.03734800537612237 0.32877885663059647 Q 0.03734800537612237 0.32877885663059647 -0.6360115264585591 0.44067483406831576 -1.3093710582932405 0.552570811506035 -0.6360115264585591 0.44067483406831576 0.03734800537612237 0.32877885663059647 -0.6360115264585591 0.44067483406831576 -1.3093710582932405 0.552570811506035 -1.9199011682005993 0.24730575655235565 -2.530431278107958 -0.057959298401323744 -2.8449302152585916 -0.6637845103317003 -3.159429152409225 -1.2696097222620768 -2.8359516262317093 -1.5929094003696163 -2.5124741000541935 -1.9162090784771557 -1.2688301208152921 -3.106918220704042 -0.025186141576390875 -4.297627362930928 1.4825321582283273 -5.151409715509733 2.9902504580330453 -6.0051920680885384 5.554441218439181 -6.329293707910831 8.118631978845317 -6.653395347733124 9.940136121639508 -5.657396328975318 11.761640264433701 -4.661397310217513 13.104891607727168 -4.138652728803164 14.448142951020637 -3.615908147388814 16.154170040436227 -4.255046451452247 17.86019712985182 -4.89418475551568 20.147991014546797 -4.877338412182469 22.43578489924177 -4.860492068849258 24.569304351027682 -4.379085211609727 26.702823802813597 -3.8976783543701963 28.33783688018581 -3.279545758244124 29.972849957558026 -2.6614131621180515 30.39557232623481 -3.3373091314175616 30.818294694911593 -4.013205100717071 31.613575994626782 -4.068497203393299 32.40885729434197 -4.123789306069527 32.92104416445834 -3.512893101812673 33.43323103457471 -2.9019968975558186 33.24006151220401 -2.1285532357923325 33.046891989833306 -1.3551095740288466 32.30762072683318 -1.0567682225583703 31.568349463833048 -0.7584268710878943 30.892453494533537 -1.1811492397646783 30.216557525234027 -1.6038716084414621 30.161265422557797 -2.399152908156649 30.10597331988157 -3.1944342078718355 30.716869524138424 -3.7066210779882054 31.327765728395278 -4.218807948104575 32.101209390158765 -4.025638425733874 32.87465305192225 -3.832468903363173 33.17299440339273 -3.093197640363046 33.471335754863205 -2.3539263773629195 31.363919457686816 -0.04367806015165976 29.256503160510427 2.2665702570596 27.073670757276588 1.386943576085182 24.890838354042746 0.5073168951107639 22.306973790357787 -0.12983286788205545 19.723109226672825 -0.7669826308748748 17.4672306880898 -0.10524029065544149 15.211352149506776 0.5565020495639919 13.444411890669706 0.5525307725360006 11.677471631832635 0.5485594955080093 9.87511481547549 -0.6706603343309641 8.072757999118345 -1.8898801641699374 6.478520379531416 -1.9671905228378967 4.884282759944487 -2.044500881505856 2.972384133753436 -1.12942297503182 1.0604855075623847 -0.21434506855778435 0.5489167564692534 0.05721689403640606 0.03734800537612215 0.32877885663059647 -0.6360115264585592 0.44067483406831576 -1.3093710582932405 0.552570811506035 -1.9199011682005993 0.24730575655235576 -2.530431278107958 -0.05795929840132352 -2.8449302152585916 -0.6637845103317004 -3.159429152409225 -1.2696097222620772 -2.6355157642115854 -2.317436498657356 -2.1116023760139453 -3.3652632750526354 -1.7240925400106462 -3.7587016283671346 -1.336582704007347 -4.152139981681634 -0.7918233994287313 -4.242665729030945 -0.24706409485011543 -4.333191476380255 0.24686513964254228 -4.086226859133926 0.7407943741352 -3.839262241887597 0.9952293590029209 -3.349139349815118 1.2496643438706418 -2.859016457742639 0.6435061746233821 -1.2651188005560212 Z"></path></g><g transform="translate(402.6506858437813 121.53377507891628) rotate(0 15.370850434089107 -2.0988906258648967)" stroke="none" fill="#FFFFFF"><path d="M 0.03734800537612237 0.32877885663059647 Q 0.03734800537612237 0.32877885663059647 -0.6360115264585591 0.44067483406831576 -1.3093710582932405 0.552570811506035 -0.6360115264585591 0.44067483406831576 0.03734800537612237 0.32877885663059647 -0.6360115264585591 0.44067483406831576 -1.3093710582932405 0.552570811506035 -1.9199011682005993 0.24730575655235565 -2.530431278107958 -0.057959298401323744 -2.8449302152585916 -0.6637845103317003 -3.159429152409225 -1.2696097222620768 -2.8359516262317093 -1.5929094003696163 -2.5124741000541935 -1.9162090784771557 -1.2688301208152921 -3.106918220704042 -0.025186141576390875 -4.297627362930928 1.4825321582283273 -5.151409715509733 2.9902504580330453 -6.0051920680885384 5.554441218439181 -6.329293707910831 8.118631978845317 -6.653395347733124 9.940136121639508 -5.657396328975318 11.761640264433701 -4.661397310217513 13.104891607727168 -4.138652728803164 14.448142951020637 -3.615908147388814 16.154170040436227 -4.255046451452247 17.86019712985182 -4.89418475551568 20.147991014546797 -4.877338412182469 22.43578489924177 -4.860492068849258 24.569304351027682 -4.379085211609727 26.702823802813597 -3.8976783543701963 28.33783688018581 -3.279545758244124 29.972849957558026 -2.6614131621180515 30.39557232623481 -3.3373091314175616 30.818294694911593 -4.013205100717071 31.613575994626782 -4.068497203393299 32.40885729434197 -4.123789306069527 32.92104416445834 -3.512893101812673 33.43323103457471 -2.9019968975558186 33.24006151220401 -2.1285532357923325 33.046891989833306 -1.3551095740288466 32.30762072683318 -1.0567682225583703 31.568349463833048 -0.7584268710878943 30.892453494533537 -1.1811492397646783 30.216557525234027 -1.6038716084414621 30.161265422557797 -2.399152908156649 30.10597331988157 -3.1944342078718355 30.716869524138424 -3.7066210779882054 31.327765728395278 -4.218807948104575 32.101209390158765 -4.025638425733874 32.87465305192225 -3.832468903363173 33.17299440339273 -3.093197640363046 33.471335754863205 -2.3539263773629195 31.363919457686816 -0.04367806015165976 29.256503160510427 2.2665702570596 27.073670757276588 1.386943576085182 24.890838354042746 0.5073168951107639 22.306973790357787 -0.12983286788205545 19.723109226672825 -0.7669826308748748 17.4672306880898 -0.10524029065544149 15.211352149506776 0.5565020495639919 13.444411890669706 0.5525307725360006 11.677471631832635 0.5485594955080093 9.87511481547549 -0.6706603343309641 8.072757999118345 -1.8898801641699374 6.478520379531416 -1.9671905228378967 4.884282759944487 -2.044500881505856 2.972384133753436 -1.12942297503182 1.0604855075623847 -0.21434506855778435 0.5489167564692534 0.05721689403640606 0.03734800537612215 0.32877885663059647 -0.6360115264585592 0.44067483406831576 -1.3093710582932405 0.552570811506035 -1.9199011682005993 0.24730575655235576 -2.530431278107958 -0.05795929840132352 -2.8449302152585916 -0.6637845103317004 -3.159429152409225 -1.2696097222620772 -2.6355157642115854 -2.317436498657356 -2.1116023760139453 -3.3652632750526354 -1.7240925400106462 -3.7587016283671346 -1.336582704007347 -4.152139981681634 -0.7918233994287313 -4.242665729030945 -0.24706409485011543 -4.333191476380255 0.24686513964254228 -4.086226859133926 0.7407943741352 -3.839262241887597 0.9952293590029209 -3.349139349815118 1.2496643438706418 -2.859016457742639 0.6435061746233821 -1.2651188005560212 Z"></path></g><g transform="translate(975.1329058332644 144.59343107538643) rotate(0 15.370850434089107 -2.0988906258648967)" stroke="none" fill="#FFFFFF"><path d="M 0.03734800537612237 0.32877885663059647 Q 0.03734800537612237 0.32877885663059647 -0.6360115264585591 0.44067483406831576 -1.3093710582932405 0.552570811506035 -0.6360115264585591 0.44067483406831576 0.03734800537612237 0.32877885663059647 -0.6360115264585591 0.44067483406831576 -1.3093710582932405 0.552570811506035 -1.9199011682005993 0.24730575655235565 -2.530431278107958 -0.057959298401323744 -2.8449302152585916 -0.6637845103317003 -3.159429152409225 -1.2696097222620768 -2.8359516262317093 -1.5929094003696163 -2.5124741000541935 -1.9162090784771557 -1.2688301208152921 -3.106918220704042 -0.025186141576390875 -4.297627362930928 1.4825321582283273 -5.151409715509733 2.9902504580330453 -6.0051920680885384 5.554441218439181 -6.329293707910831 8.118631978845317 -6.653395347733124 9.940136121639508 -5.657396328975318 11.761640264433701 -4.661397310217513 13.104891607727168 -4.138652728803164 14.448142951020637 -3.615908147388814 16.154170040436227 -4.255046451452247 17.86019712985182 -4.89418475551568 20.147991014546797 -4.877338412182469 22.43578489924177 -4.860492068849258 24.569304351027682 -4.379085211609727 26.702823802813597 -3.8976783543701963 28.33783688018581 -3.279545758244124 29.972849957558026 -2.6614131621180515 30.39557232623481 -3.3373091314175616 30.818294694911593 -4.013205100717071 31.613575994626782 -4.068497203393299 32.40885729434197 -4.123789306069527 32.92104416445834 -3.512893101812673 33.43323103457471 -2.9019968975558186 33.24006151220401 -2.1285532357923325 33.046891989833306 -1.3551095740288466 32.30762072683318 -1.0567682225583703 31.568349463833048 -0.7584268710878943 30.892453494533537 -1.1811492397646783 30.216557525234027 -1.6038716084414621 30.161265422557797 -2.399152908156649 30.10597331988157 -3.1944342078718355 30.716869524138424 -3.7066210779882054 31.327765728395278 -4.218807948104575 32.101209390158765 -4.025638425733874 32.87465305192225 -3.832468903363173 33.17299440339273 -3.093197640363046 33.471335754863205 -2.3539263773629195 31.363919457686816 -0.04367806015165976 29.256503160510427 2.2665702570596 27.073670757276588 1.386943576085182 24.890838354042746 0.5073168951107639 22.306973790357787 -0.12983286788205545 19.723109226672825 -0.7669826308748748 17.4672306880898 -0.10524029065544149 15.211352149506776 0.5565020495639919 13.444411890669706 0.5525307725360006 11.677471631832635 0.5485594955080093 9.87511481547549 -0.6706603343309641 8.072757999118345 -1.8898801641699374 6.478520379531416 -1.9671905228378967 4.884282759944487 -2.044500881505856 2.972384133753436 -1.12942297503182 1.0604855075623847 -0.21434506855778435 0.5489167564692534 0.05721689403640606 0.03734800537612215 0.32877885663059647 -0.6360115264585592 0.44067483406831576 -1.3093710582932405 0.552570811506035 -1.9199011682005993 0.24730575655235576 -2.530431278107958 -0.05795929840132352 -2.8449302152585916 -0.6637845103317004 -3.159429152409225 -1.2696097222620772 -2.6355157642115854 -2.317436498657356 -2.1116023760139453 -3.3652632750526354 -1.7240925400106462 -3.7587016283671346 -1.336582704007347 -4.152139981681634 -0.7918233994287313 -4.242665729030945 -0.24706409485011543 -4.333191476380255 0.24686513964254228 -4.086226859133926 0.7407943741352 -3.839262241887597 0.9952293590029209 -3.349139349815118 1.2496643438706418 -2.859016457742639 0.6435061746233821 -1.2651188005560212 Z"></path></g><g transform="translate(265.4272821358568 60.17016607907499) rotate(0 15.370850434089107 -2.0988906258648967)" stroke="none" fill="#FFFFFF"><path d="M 0.03734800537612237 0.32877885663059647 Q 0.03734800537612237 0.32877885663059647 -0.6360115264585591 0.44067483406831576 -1.3093710582932405 0.552570811506035 -0.6360115264585591 0.44067483406831576 0.03734800537612237 0.32877885663059647 -0.6360115264585591 0.44067483406831576 -1.3093710582932405 0.552570811506035 -1.9199011682005993 0.24730575655235565 -2.530431278107958 -0.057959298401323744 -2.8449302152585916 -0.6637845103317003 -3.159429152409225 -1.2696097222620768 -2.8359516262317093 -1.5929094003696163 -2.5124741000541935 -1.9162090784771557 -1.2688301208152921 -3.106918220704042 -0.025186141576390875 -4.297627362930928 1.4825321582283273 -5.151409715509733 2.9902504580330453 -6.0051920680885384 5.554441218439181 -6.329293707910831 8.118631978845317 -6.653395347733124 9.940136121639508 -5.657396328975318 11.761640264433701 -4.661397310217513 13.104891607727168 -4.138652728803164 14.448142951020637 -3.615908147388814 16.154170040436227 -4.255046451452247 17.86019712985182 -4.89418475551568 20.147991014546797 -4.877338412182469 22.43578489924177 -4.860492068849258 24.569304351027682 -4.379085211609727 26.702823802813597 -3.8976783543701963 28.33783688018581 -3.279545758244124 29.972849957558026 -2.6614131621180515 30.39557232623481 -3.3373091314175616 30.818294694911593 -4.013205100717071 31.613575994626782 -4.068497203393299 32.40885729434197 -4.123789306069527 32.92104416445834 -3.512893101812673 33.43323103457471 -2.9019968975558186 33.24006151220401 -2.1285532357923325 33.046891989833306 -1.3551095740288466 32.30762072683318 -1.0567682225583703 31.568349463833048 -0.7584268710878943 30.892453494533537 -1.1811492397646783 30.216557525234027 -1.6038716084414621 30.161265422557797 -2.399152908156649 30.10597331988157 -3.1944342078718355 30.716869524138424 -3.7066210779882054 31.327765728395278 -4.218807948104575 32.101209390158765 -4.025638425733874 32.87465305192225 -3.832468903363173 33.17299440339273 -3.093197640363046 33.471335754863205 -2.3539263773629195 31.363919457686816 -0.04367806015165976 29.256503160510427 2.2665702570596 27.073670757276588 1.386943576085182 24.890838354042746 0.5073168951107639 22.306973790357787 -0.12983286788205545 19.723109226672825 -0.7669826308748748 17.4672306880898 -0.10524029065544149 15.211352149506776 0.5565020495639919 13.444411890669706 0.5525307725360006 11.677471631832635 0.5485594955080093 9.87511481547549 -0.6706603343309641 8.072757999118345 -1.8898801641699374 6.478520379531416 -1.9671905228378967 4.884282759944487 -2.044500881505856 2.972384133753436 -1.12942297503182 1.0604855075623847 -0.21434506855778435 0.5489167564692534 0.05721689403640606 0.03734800537612215 0.32877885663059647 -0.6360115264585592 0.44067483406831576 -1.3093710582932405 0.552570811506035 -1.9199011682005993 0.24730575655235576 -2.530431278107958 -0.05795929840132352 -2.8449302152585916 -0.6637845103317004 -3.159429152409225 -1.2696097222620772 -2.6355157642115854 -2.317436498657356 -2.1116023760139453 -3.3652632750526354 -1.7240925400106462 -3.7587016283671346 -1.336582704007347 -4.152139981681634 -0.7918233994287313 -4.242665729030945 -0.24706409485011543 -4.333191476380255 0.24686513964254228 -4.086226859133926 0.7407943741352 -3.839262241887597 0.9952293590029209 -3.349139349815118 1.2496643438706418 -2.859016457742639 0.6435061746233821 -1.2651188005560212 Z"></path></g><g transform="translate(402.2769431559891 105.7431465196546) rotate(0 15.370850434089107 -2.0988906258648967)" stroke="none" fill="#FFFFFF"><path d="M 0.03734800537612237 0.32877885663059647 Q 0.03734800537612237 0.32877885663059647 -0.6360115264585591 0.44067483406831576 -1.3093710582932405 0.552570811506035 -0.6360115264585591 0.44067483406831576 0.03734800537612237 0.32877885663059647 -0.6360115264585591 0.44067483406831576 -1.3093710582932405 0.552570811506035 -1.9199011682005993 0.24730575655235565 -2.530431278107958 -0.057959298401323744 -2.8449302152585916 -0.6637845103317003 -3.159429152409225 -1.2696097222620768 -2.8359516262317093 -1.5929094003696163 -2.5124741000541935 -1.9162090784771557 -1.2688301208152921 -3.106918220704042 -0.025186141576390875 -4.297627362930928 1.4825321582283273 -5.151409715509733 2.9902504580330453 -6.0051920680885384 5.554441218439181 -6.329293707910831 8.118631978845317 -6.653395347733124 9.940136121639508 -5.657396328975318 11.761640264433701 -4.661397310217513 13.104891607727168 -4.138652728803164 14.448142951020637 -3.615908147388814 16.154170040436227 -4.255046451452247 17.86019712985182 -4.89418475551568 20.147991014546797 -4.877338412182469 22.43578489924177 -4.860492068849258 24.569304351027682 -4.379085211609727 26.702823802813597 -3.8976783543701963 28.33783688018581 -3.279545758244124 29.972849957558026 -2.6614131621180515 30.39557232623481 -3.3373091314175616 30.818294694911593 -4.013205100717071 31.613575994626782 -4.068497203393299 32.40885729434197 -4.123789306069527 32.92104416445834 -3.512893101812673 33.43323103457471 -2.9019968975558186 33.24006151220401 -2.1285532357923325 33.046891989833306 -1.3551095740288466 32.30762072683318 -1.0567682225583703 31.568349463833048 -0.7584268710878943 30.892453494533537 -1.1811492397646783 30.216557525234027 -1.6038716084414621 30.161265422557797 -2.399152908156649 30.10597331988157 -3.1944342078718355 30.716869524138424 -3.7066210779882054 31.327765728395278 -4.218807948104575 32.101209390158765 -4.025638425733874 32.87465305192225 -3.832468903363173 33.17299440339273 -3.093197640363046 33.471335754863205 -2.3539263773629195 31.363919457686816 -0.04367806015165976 29.256503160510427 2.2665702570596 27.073670757276588 1.386943576085182 24.890838354042746 0.5073168951107639 22.306973790357787 -0.12983286788205545 19.723109226672825 -0.7669826308748748 17.4672306880898 -0.10524029065544149 15.211352149506776 0.5565020495639919 13.444411890669706 0.5525307725360006 11.677471631832635 0.5485594955080093 9.87511481547549 -0.6706603343309641 8.072757999118345 -1.8898801641699374 6.478520379531416 -1.9671905228378967 4.884282759944487 -2.044500881505856 2.972384133753436 -1.12942297503182 1.0604855075623847 -0.21434506855778435 0.5489167564692534 0.05721689403640606 0.03734800537612215 0.32877885663059647 -0.6360115264585592 0.44067483406831576 -1.3093710582932405 0.552570811506035 -1.9199011682005993 0.24730575655235576 -2.530431278107958 -0.05795929840132352 -2.8449302152585916 -0.6637845103317004 -3.159429152409225 -1.2696097222620772 -2.6355157642115854 -2.317436498657356 -2.1116023760139453 -3.3652632750526354 -1.7240925400106462 -3.7587016283671346 -1.336582704007347 -4.152139981681634 -0.7918233994287313 -4.242665729030945 -0.24706409485011543 -4.333191476380255 0.24686513964254228 -4.086226859133926 0.7407943741352 -3.839262241887597 0.9952293590029209 -3.349139349815118 1.2496643438706418 -2.859016457742639 0.6435061746233821 -1.2651188005560212 Z"></path></g><g transform="translate(974.7591631454723 128.80280251612385) rotate(0 15.370850434089107 -2.0988906258648967)" stroke="none" fill="#FFFFFF"><path d="M 0.03734800537612237 0.32877885663059647 Q 0.03734800537612237 0.32877885663059647 -0.6360115264585591 0.44067483406831576 -1.3093710582932405 0.552570811506035 -0.6360115264585591 0.44067483406831576 0.03734800537612237 0.32877885663059647 -0.6360115264585591 0.44067483406831576 -1.3093710582932405 0.552570811506035 -1.9199011682005993 0.24730575655235565 -2.530431278107958 -0.057959298401323744 -2.8449302152585916 -0.6637845103317003 -3.159429152409225 -1.2696097222620768 -2.8359516262317093 -1.5929094003696163 -2.5124741000541935 -1.9162090784771557 -1.2688301208152921 -3.106918220704042 -0.025186141576390875 -4.297627362930928 1.4825321582283273 -5.151409715509733 2.9902504580330453 -6.0051920680885384 5.554441218439181 -6.329293707910831 8.118631978845317 -6.653395347733124 9.940136121639508 -5.657396328975318 11.761640264433701 -4.661397310217513 13.104891607727168 -4.138652728803164 14.448142951020637 -3.615908147388814 16.154170040436227 -4.255046451452247 17.86019712985182 -4.89418475551568 20.147991014546797 -4.877338412182469 22.43578489924177 -4.860492068849258 24.569304351027682 -4.379085211609727 26.702823802813597 -3.8976783543701963 28.33783688018581 -3.279545758244124 29.972849957558026 -2.6614131621180515 30.39557232623481 -3.3373091314175616 30.818294694911593 -4.013205100717071 31.613575994626782 -4.068497203393299 32.40885729434197 -4.123789306069527 32.92104416445834 -3.512893101812673 33.43323103457471 -2.9019968975558186 33.24006151220401 -2.1285532357923325 33.046891989833306 -1.3551095740288466 32.30762072683318 -1.0567682225583703 31.568349463833048 -0.7584268710878943 30.892453494533537 -1.1811492397646783 30.216557525234027 -1.6038716084414621 30.161265422557797 -2.399152908156649 30.10597331988157 -3.1944342078718355 30.716869524138424 -3.7066210779882054 31.327765728395278 -4.218807948104575 32.101209390158765 -4.025638425733874 32.87465305192225 -3.832468903363173 33.17299440339273 -3.093197640363046 33.471335754863205 -2.3539263773629195 31.363919457686816 -0.04367806015165976 29.256503160510427 2.2665702570596 27.073670757276588 1.386943576085182 24.890838354042746 0.5073168951107639 22.306973790357787 -0.12983286788205545 19.723109226672825 -0.7669826308748748 17.4672306880898 -0.10524029065544149 15.211352149506776 0.5565020495639919 13.444411890669706 0.5525307725360006 11.677471631832635 0.5485594955080093 9.87511481547549 -0.6706603343309641 8.072757999118345 -1.8898801641699374 6.478520379531416 -1.9671905228378967 4.884282759944487 -2.044500881505856 2.972384133753436 -1.12942297503182 1.0604855075623847 -0.21434506855778435 0.5489167564692534 0.05721689403640606 0.03734800537612215 0.32877885663059647 -0.6360115264585592 0.44067483406831576 -1.3093710582932405 0.552570811506035 -1.9199011682005993 0.24730575655235576 -2.530431278107958 -0.05795929840132352 -2.8449302152585916 -0.6637845103317004 -3.159429152409225 -1.2696097222620772 -2.6355157642115854 -2.317436498657356 -2.1116023760139453 -3.3652632750526354 -1.7240925400106462 -3.7587016283671346 -1.336582704007347 -4.152139981681634 -0.7918233994287313 -4.242665729030945 -0.24706409485011543 -4.333191476380255 0.24686513964254228 -4.086226859133926 0.7407943741352 -3.839262241887597 0.9952293590029209 -3.349139349815118 1.2496643438706418 -2.859016457742639 0.6435061746233821 -1.2651188005560212 Z"></path></g><g transform="translate(262.9519192278208 91.79882343216741) rotate(0 15.416885871468935 -1.352087648872839)" stroke="none" fill="#FFFFFF"><path d="M 1.5936331027612403 0.037518838723363146 Q 1.5936331027612403 0.037518838723363146 1.10117339120954 0.39531176249492617 0.6087136796578398 0.7531046862664892 1.10117339120954 0.39531176249492617 1.5936331027612403 0.037518838723363146 1.10117339120954 0.39531176249492617 0.6087136796578398 0.7531046862664892 -1.1102230246251565e-16 0.7531046862664892 -0.6087136796578401 0.7531046862664892 -1.10117339120954 0.3953117624949263 -1.59363310276124 0.03751883872336337 -1.6507640161525226 -0.1581094721432255 -1.707894929543805 -0.35373778300981434 -1.5798198356426996 -1.314973769613144 -1.4517447417415943 -2.2762097562164736 -0.1443686775057601 -3.5686915803842494 1.163007386730074 -4.861173404552025 3.146126219214848 -4.860011657003002 5.1292450516996215 -4.85884990945398 7.994869413631238 -3.581566708437369 10.860493775562855 -2.3042835074207577 13.005951661877699 -3.2641778606275214 15.151409548192545 -4.224072213834285 16.617292199303062 -4.881240686839993 18.083174850413577 -5.538409159845701 19.92104370543364 -5.653922089850786 21.758912560453698 -5.769435019855871 24.181196459168106 -5.856852508913748 26.603480357882518 -5.9442699979716265 28.98022012183292 -5.969120203428842 31.35695988578333 -5.993970408886058 31.826838999588382 -5.367707614277785 32.29671811339344 -4.741444819669513 32.30875026703336 -3.9585995624318047 32.320782420673275 -3.1757543051940957 31.870371740415468 -2.5353468656601015 31.41996106015766 -1.8949394261261077 31.297693548860945 -2.1508184855981702 31.17542603756423 -2.406697545070233 31.653744687977625 -2.8610934099532734 32.13206333839102 -3.315489274836314 32.51637525757367 -2.7684817763493266 32.90068717675633 -2.2214742778623386 32.8900791100119 -1.5530430371600563 32.879471043267465 -0.8846117964577739 32.477994911537394 -0.350074828346207 32.07651877980733 0.18446213976535986 31.70775722428533 -0.1902372931955798 31.338995668763328 -0.5649367261565195 30.232767139760455 -1.9796519223685394 29.12653861075758 -3.394367118580559 29.478861188330157 -4.084727619893612 29.831183765902736 -4.775088121206665 30.596787158857037 -4.895836889885516 31.362390551811338 -5.016585658564366 31.910088741205993 -4.468173848175119 32.45778693060065 -3.9197620377858717 32.336041374513286 -3.1543165204473915 32.214295818425924 -2.3888710031089113 31.52347714423067 -2.037447640448275 30.83265847003542 -1.6860242777876389 30.142297968722367 -2.0383468553602166 29.451937467409312 -2.3906694329327944 29.331188698730465 -3.156272825887095 29.210439930051614 -3.9218762188413954 29.75885174044086 -4.469574408236051 30.307263550830104 -5.017272597630707 31.072709068168585 -4.895527041543344 31.838154585507066 -4.773781485455981 32.1895779481677 -4.08296281126073 32.541001310828335 -3.3921441370654795 32.33653232460968 -3.353816705950897 32.13206333839102 -3.315489274836314 32.51637525757367 -2.7684817763493266 32.90068717675633 -2.221474277862339 32.8900791100119 -1.5530430371600565 32.879471043267465 -0.8846117964577742 32.477994911537394 -0.35007482834620707 32.07651877980733 0.18446213976536008 30.083973025176803 -1.130560496543195 28.091427270546273 -2.44558313285175 29.22433791457157 -3.909618904742046 30.357248558596872 -5.373654676632342 30.857104222190102 -5.683812542759201 31.35695988578333 -5.993970408886058 31.826838999588382 -5.367707614277786 32.29671811339344 -4.741444819669514 32.30875026703336 -3.958599562431805 32.320782420673275 -3.175754305194096 31.870371740415468 -2.5353468656601015 31.41996106015766 -1.8949394261261072 28.07806546584575 -1.6864542415182782 24.73616987153384 -1.477969056910449 22.89345480449659 -1.3678026376167955 21.050739737459338 -1.2576362183231422 19.421245635544977 -0.8841407733143972 17.791751533630617 -0.5106453283056522 14.795578841477278 0.9506627377639467 11.79940614932394 2.4119708038335457 9.486895503036582 2.1157456824270704 7.174384856749226 1.819520561020595 5.132016175930987 0.5020475666820798 3.0896474951127475 -0.8154254276564352 2.3987712123282763 -0.5845816053331248 1.707894929543805 -0.35373778300981434 1.6507640161525226 -0.1581094721432255 1.59363310276124 0.03751883872336337 1.10117339120954 0.3953117624949263 0.6087136796578401 0.7531046862664892 1.1102230246251565e-16 0.7531046862664892 -0.6087136796578398 0.7531046862664892 -1.10117339120954 0.39531176249492617 -1.5936331027612403 0.037518838723363146 -1.5936331027612403 -1.0076681748808474 -1.5936331027612403 -2.052855188485058 -1.4414546828467802 -2.521212206169134 -1.2892762629323204 -2.98956922385321 -0.8908679872420103 -3.2790297796515047 -0.4924597115517002 -3.568490335449799 1.1102230246251565e-16 -3.568490335449799 0.49245971155170043 -3.568490335449799 0.8908679872420103 -3.2790297796515047 1.2892762629323202 -2.9895692238532106 1.4414546828467802 -1.4760251925649237 Z"></path></g><g transform="translate(399.8015802479531 137.37180387274702) rotate(0 15.416885871468935 -1.352087648872839)" stroke="none" fill="#FFFFFF"><path d="M 1.5936331027612403 0.037518838723363146 Q 1.5936331027612403 0.037518838723363146 1.10117339120954 0.39531176249492617 0.6087136796578398 0.7531046862664892 1.10117339120954 0.39531176249492617 1.5936331027612403 0.037518838723363146 1.10117339120954 0.39531176249492617 0.6087136796578398 0.7531046862664892 -1.1102230246251565e-16 0.7531046862664892 -0.6087136796578401 0.7531046862664892 -1.10117339120954 0.3953117624949263 -1.59363310276124 0.03751883872336337 -1.6507640161525226 -0.1581094721432255 -1.707894929543805 -0.35373778300981434 -1.5798198356426996 -1.314973769613144 -1.4517447417415943 -2.2762097562164736 -0.1443686775057601 -3.5686915803842494 1.163007386730074 -4.861173404552025 3.146126219214848 -4.860011657003002 5.1292450516996215 -4.85884990945398 7.994869413631238 -3.581566708437369 10.860493775562855 -2.3042835074207577 13.005951661877699 -3.2641778606275214 15.151409548192545 -4.224072213834285 16.617292199303062 -4.881240686839993 18.083174850413577 -5.538409159845701 19.92104370543364 -5.653922089850786 21.758912560453698 -5.769435019855871 24.181196459168106 -5.856852508913748 26.603480357882518 -5.9442699979716265 28.98022012183292 -5.969120203428842 31.35695988578333 -5.993970408886058 31.826838999588382 -5.367707614277785 32.29671811339344 -4.741444819669513 32.30875026703336 -3.9585995624318047 32.320782420673275 -3.1757543051940957 31.870371740415468 -2.5353468656601015 31.41996106015766 -1.8949394261261077 31.297693548860945 -2.1508184855981702 31.17542603756423 -2.406697545070233 31.653744687977625 -2.8610934099532734 32.13206333839102 -3.315489274836314 32.51637525757367 -2.7684817763493266 32.90068717675633 -2.2214742778623386 32.8900791100119 -1.5530430371600563 32.879471043267465 -0.8846117964577739 32.477994911537394 -0.350074828346207 32.07651877980733 0.18446213976535986 31.70775722428533 -0.1902372931955798 31.338995668763328 -0.5649367261565195 30.232767139760455 -1.9796519223685394 29.12653861075758 -3.394367118580559 29.478861188330157 -4.084727619893612 29.831183765902736 -4.775088121206665 30.596787158857037 -4.895836889885516 31.362390551811338 -5.016585658564366 31.910088741205993 -4.468173848175119 32.45778693060065 -3.9197620377858717 32.336041374513286 -3.1543165204473915 32.214295818425924 -2.3888710031089113 31.52347714423067 -2.037447640448275 30.83265847003542 -1.6860242777876389 30.142297968722367 -2.0383468553602166 29.451937467409312 -2.3906694329327944 29.331188698730465 -3.156272825887095 29.210439930051614 -3.9218762188413954 29.75885174044086 -4.469574408236051 30.307263550830104 -5.017272597630707 31.072709068168585 -4.895527041543344 31.838154585507066 -4.773781485455981 32.1895779481677 -4.08296281126073 32.541001310828335 -3.3921441370654795 32.33653232460968 -3.353816705950897 32.13206333839102 -3.315489274836314 32.51637525757367 -2.7684817763493266 32.90068717675633 -2.221474277862339 32.8900791100119 -1.5530430371600565 32.879471043267465 -0.8846117964577742 32.477994911537394 -0.35007482834620707 32.07651877980733 0.18446213976536008 30.083973025176803 -1.130560496543195 28.091427270546273 -2.44558313285175 29.22433791457157 -3.909618904742046 30.357248558596872 -5.373654676632342 30.857104222190102 -5.683812542759201 31.35695988578333 -5.993970408886058 31.826838999588382 -5.367707614277786 32.29671811339344 -4.741444819669514 32.30875026703336 -3.958599562431805 32.320782420673275 -3.175754305194096 31.870371740415468 -2.5353468656601015 31.41996106015766 -1.8949394261261072 28.07806546584575 -1.6864542415182782 24.73616987153384 -1.477969056910449 22.89345480449659 -1.3678026376167955 21.050739737459338 -1.2576362183231422 19.421245635544977 -0.8841407733143972 17.791751533630617 -0.5106453283056522 14.795578841477278 0.9506627377639467 11.79940614932394 2.4119708038335457 9.486895503036582 2.1157456824270704 7.174384856749226 1.819520561020595 5.132016175930987 0.5020475666820798 3.0896474951127475 -0.8154254276564352 2.3987712123282763 -0.5845816053331248 1.707894929543805 -0.35373778300981434 1.6507640161525226 -0.1581094721432255 1.59363310276124 0.03751883872336337 1.10117339120954 0.3953117624949263 0.6087136796578401 0.7531046862664892 1.1102230246251565e-16 0.7531046862664892 -0.6087136796578398 0.7531046862664892 -1.10117339120954 0.39531176249492617 -1.5936331027612403 0.037518838723363146 -1.5936331027612403 -1.0076681748808474 -1.5936331027612403 -2.052855188485058 -1.4414546828467802 -2.521212206169134 -1.2892762629323204 -2.98956922385321 -0.8908679872420103 -3.2790297796515047 -0.4924597115517002 -3.568490335449799 1.1102230246251565e-16 -3.568490335449799 0.49245971155170043 -3.568490335449799 0.8908679872420103 -3.2790297796515047 1.2892762629323202 -2.9895692238532106 1.4414546828467802 -1.4760251925649237 Z"></path></g><g transform="translate(972.2838002374363 160.43145986921718) rotate(0 15.416885871468935 -1.352087648872839)" stroke="none" fill="#FFFFFF"><path d="M 1.5936331027612403 0.037518838723363146 Q 1.5936331027612403 0.037518838723363146 1.10117339120954 0.39531176249492617 0.6087136796578398 0.7531046862664892 1.10117339120954 0.39531176249492617 1.5936331027612403 0.037518838723363146 1.10117339120954 0.39531176249492617 0.6087136796578398 0.7531046862664892 -1.1102230246251565e-16 0.7531046862664892 -0.6087136796578401 0.7531046862664892 -1.10117339120954 0.3953117624949263 -1.59363310276124 0.03751883872336337 -1.6507640161525226 -0.1581094721432255 -1.707894929543805 -0.35373778300981434 -1.5798198356426996 -1.314973769613144 -1.4517447417415943 -2.2762097562164736 -0.1443686775057601 -3.5686915803842494 1.163007386730074 -4.861173404552025 3.146126219214848 -4.860011657003002 5.1292450516996215 -4.85884990945398 7.994869413631238 -3.581566708437369 10.860493775562855 -2.3042835074207577 13.005951661877699 -3.2641778606275214 15.151409548192545 -4.224072213834285 16.617292199303062 -4.881240686839993 18.083174850413577 -5.538409159845701 19.92104370543364 -5.653922089850786 21.758912560453698 -5.769435019855871 24.181196459168106 -5.856852508913748 26.603480357882518 -5.9442699979716265 28.98022012183292 -5.969120203428842 31.35695988578333 -5.993970408886058 31.826838999588382 -5.367707614277785 32.29671811339344 -4.741444819669513 32.30875026703336 -3.9585995624318047 32.320782420673275 -3.1757543051940957 31.870371740415468 -2.5353468656601015 31.41996106015766 -1.8949394261261077 31.297693548860945 -2.1508184855981702 31.17542603756423 -2.406697545070233 31.653744687977625 -2.8610934099532734 32.13206333839102 -3.315489274836314 32.51637525757367 -2.7684817763493266 32.90068717675633 -2.2214742778623386 32.8900791100119 -1.5530430371600563 32.879471043267465 -0.8846117964577739 32.477994911537394 -0.350074828346207 32.07651877980733 0.18446213976535986 31.70775722428533 -0.1902372931955798 31.338995668763328 -0.5649367261565195 30.232767139760455 -1.9796519223685394 29.12653861075758 -3.394367118580559 29.478861188330157 -4.084727619893612 29.831183765902736 -4.775088121206665 30.596787158857037 -4.895836889885516 31.362390551811338 -5.016585658564366 31.910088741205993 -4.468173848175119 32.45778693060065 -3.9197620377858717 32.336041374513286 -3.1543165204473915 32.214295818425924 -2.3888710031089113 31.52347714423067 -2.037447640448275 30.83265847003542 -1.6860242777876389 30.142297968722367 -2.0383468553602166 29.451937467409312 -2.3906694329327944 29.331188698730465 -3.156272825887095 29.210439930051614 -3.9218762188413954 29.75885174044086 -4.469574408236051 30.307263550830104 -5.017272597630707 31.072709068168585 -4.895527041543344 31.838154585507066 -4.773781485455981 32.1895779481677 -4.08296281126073 32.541001310828335 -3.3921441370654795 32.33653232460968 -3.353816705950897 32.13206333839102 -3.315489274836314 32.51637525757367 -2.7684817763493266 32.90068717675633 -2.221474277862339 32.8900791100119 -1.5530430371600565 32.879471043267465 -0.8846117964577742 32.477994911537394 -0.35007482834620707 32.07651877980733 0.18446213976536008 30.083973025176803 -1.130560496543195 28.091427270546273 -2.44558313285175 29.22433791457157 -3.909618904742046 30.357248558596872 -5.373654676632342 30.857104222190102 -5.683812542759201 31.35695988578333 -5.993970408886058 31.826838999588382 -5.367707614277786 32.29671811339344 -4.741444819669514 32.30875026703336 -3.958599562431805 32.320782420673275 -3.175754305194096 31.870371740415468 -2.5353468656601015 31.41996106015766 -1.8949394261261072 28.07806546584575 -1.6864542415182782 24.73616987153384 -1.477969056910449 22.89345480449659 -1.3678026376167955 21.050739737459338 -1.2576362183231422 19.421245635544977 -0.8841407733143972 17.791751533630617 -0.5106453283056522 14.795578841477278 0.9506627377639467 11.79940614932394 2.4119708038335457 9.486895503036582 2.1157456824270704 7.174384856749226 1.819520561020595 5.132016175930987 0.5020475666820798 3.0896474951127475 -0.8154254276564352 2.3987712123282763 -0.5845816053331248 1.707894929543805 -0.35373778300981434 1.6507640161525226 -0.1581094721432255 1.59363310276124 0.03751883872336337 1.10117339120954 0.3953117624949263 0.6087136796578401 0.7531046862664892 1.1102230246251565e-16 0.7531046862664892 -0.6087136796578398 0.7531046862664892 -1.10117339120954 0.39531176249492617 -1.5936331027612403 0.037518838723363146 -1.5936331027612403 -1.0076681748808474 -1.5936331027612403 -2.052855188485058 -1.4414546828467802 -2.521212206169134 -1.2892762629323204 -2.98956922385321 -0.8908679872420103 -3.2790297796515047 -0.4924597115517002 -3.568490335449799 1.1102230246251565e-16 -3.568490335449799 0.49245971155170043 -3.568490335449799 0.8908679872420103 -3.2790297796515047 1.2892762629323202 -2.9895692238532106 1.4414546828467802 -1.4760251925649237 Z"></path></g><g stroke-linecap="round" transform="translate(204.43251606182298 410.72894287109375) rotate(0 320.29808044433594 179.3807144165039)"><path d="M0.58 -1.17 C168.05 -0.38, 336.78 -0.32, 640.7 -1.07 M0.17 0.65 C238.79 0.44, 477.3 0.49, 639.99 0.7 M641.44 0.26 C640.07 89.87, 637.39 184.66, 638.48 357.07 M639.62 0.78 C639.95 105.46, 641.08 210.9, 640.33 359.7 M639.38 359.57 C440.91 352.11, 240.24 352.6, 0.47 360.07 M640.97 359.49 C433.92 353.4, 229.1 353.76, -0.55 359.2 M2.18 359.9 C-2.18 255.35, -4.84 148.73, 1.1 1.5 M-0.25 359.41 C2.13 218.58, 0.88 78.72, 0.22 -0.5" stroke="#FFFFFF" stroke-width="1" fill="none"></path></g><g stroke-linecap="round" transform="translate(486.8636989231511 477.6647186279297) rotate(0 37.577972412109375 34.64678955078125)"><path d="M43 0.53 C50.08 1.09, 58.03 7.15, 63.39 12.16 C68.76 17.16, 74.08 23.53, 75.2 30.55 C76.31 37.58, 74.21 48.41, 70.1 54.29 C66 60.16, 58.06 63.7, 50.57 65.79 C43.08 67.89, 32.65 68.35, 25.17 66.85 C17.69 65.35, 10.01 62.53, 5.67 56.79 C1.34 51.05, -1.37 39.62, -0.85 32.41 C-0.33 25.19, 3.83 18.4, 8.81 13.49 C13.8 8.57, 22.41 4.85, 29.06 2.93 C35.7 1.01, 44.01 1.8, 48.68 1.98 C53.35 2.15, 57.2 3.46, 57.06 4 M42.37 -2.26 C49.42 -1.76, 57.76 4.2, 63.29 9.2 C68.82 14.21, 73.9 20.82, 75.55 27.76 C77.21 34.7, 77.12 44.97, 73.24 50.84 C69.35 56.72, 59.89 59.8, 52.24 63 C44.6 66.2, 34.25 71.53, 27.36 70.03 C20.47 68.54, 15.09 60.01, 10.9 54.04 C6.7 48.07, 2.72 40.35, 2.17 34.23 C1.62 28.1, 3.5 22.96, 7.61 17.31 C11.72 11.67, 21.84 3, 26.84 0.36 C31.84 -2.28, 34.89 1.78, 37.61 1.49 C40.34 1.2, 42.98 -2.16, 43.19 -1.38" stroke="#FFFFFF" stroke-width="2" fill="none"></path></g><g stroke-linecap="round"><g transform="translate(519.889122580253 515.3385098610397) rotate(0 7.010859143294454 -11.989607334084894)"><path d="M-0.88 0.18 C1.6 -3.64, 12.27 -18.59, 14.9 -22.5 M0.86 -0.77 C3.16 -4.96, 11.64 -20.63, 13.85 -24.16" stroke="#FFFFFF" stroke-width="1" fill="none"></path></g></g><g stroke-linecap="round"><g transform="translate(520.3902290634874 518.0717001509129) rotate(359.9680418032372 7.943277584345651 -0.8779049899924303)"><path d="M0.18 -0.21 C2.95 -0.33, 14.39 -1.26, 17.07 -1.6 M-1.18 -1.36 C1.47 -1.21, 13.79 -0.15, 16.58 -0.15" stroke="#FFFFFF" stroke-width="1" fill="none"></path></g></g><g stroke-linecap="round"><g transform="translate(222.5169663166746 445.80379907116367) rotate(0 18.149196782106912 -0.011682761621159443)"><path d="M-0.21 0.88 C6.29 0.7, 31.8 -0.74, 38.07 -0.9 M-1.77 0.3 C4.62 0.31, 30.09 1.05, 37.04 0.67" stroke="#ff0000" stroke-width="1" fill="none"></path></g></g><g stroke-linecap="round"><g transform="translate(223.69343690490996 460.705759855477) rotate(0 19.097572279231997 -0.9738803365942204)"><path d="M0.88 -0.16 C7.23 -0.43, 31.94 -1.67, 38.31 -1.78 M-0.12 -1.3 C6.07 -1.41, 30.92 -0.98, 37.4 -0.67" stroke="#ff0000" stroke-width="1" fill="none"></path></g></g><g stroke-linecap="round"><g transform="translate(223.88951533628244 473.6469363260653) rotate(0 19.00643646864168 -0.859075823811736)"><path d="M-0.16 0.08 C6.11 -0.09, 31.01 0.11, 37.43 -0.1 M-1.71 -0.93 C4.96 -1.5, 33.15 -1.92, 39.72 -1.77" stroke="#ff0000" stroke-width="1" fill="none"></path></g></g><g transform="translate(536.242456512753 613.450857894693) rotate(0 1.9607843137255259 22.549019607843093)" stroke="none" fill="#FFFFFF"><path d="M -2.74942988245839 -1.1389999062041463 Q -2.74942988245839 -1.1389999062041463 -3.7907084669387148 -1.3347317945660255 -4.8319870514190395 -1.5304636829279048 -3.7907084669387148 -1.3347317945660255 -2.74942988245839 -1.1389999062041463 -3.7907084669387148 -1.3347317945660255 -4.8319870514190395 -1.5304636829279048 -6.473778028640698 -1.3897602290903937 -8.115569005862357 -1.2490567752528827 -9.6710018089863 -1.2506441200733194 -11.226434612110246 -1.252231464893756 -12.886646109446195 -1.2463321355681307 -14.546857606782144 -1.2404328062425054 -16.481606992437705 -0.933007481677502 -18.41635637809327 -0.6255821571124986 -20.78697732978937 0.739782711906861 -23.15759828148547 2.1051475809262206 -24.905853414980566 3.9318206005368186 -26.654108548475662 5.758493620147417 -27.881589154446495 7.533030681816372 -29.109069760417324 9.307567743485329 -29.93726453681461 11.129771486176756 -30.765459313211892 12.951975228868182 -31.250632355534783 14.687475643305225 -31.735805397857675 16.422976057742268 -32.122217735054846 18.023306785089066 -32.508630072252025 19.623637512435863 -32.41773877195509 21.277648226944322 -32.32684747165815 22.931658941452778 -31.798509138663235 24.925885788749234 -31.27017080566832 26.920112636045687 -30.353641160014295 29.47065221665582 -29.437111514360268 32.021191797265956 -28.503536415411062 33.851740637035 -27.569961316461853 35.682289476804044 -26.415720837320734 37.229505543131054 -25.26148035817961 38.77672160945806 -23.23562708369736 40.61904792702712 -21.209773809215108 42.46137424459618 -18.611068977264193 44.00467455722398 -16.012364145313278 45.54797486985177 -13.556673671593419 46.43080438228988 -11.10098319787356 47.313633894727985 -9.402847971305372 47.841266236079036 -7.704712744737183 48.368898577430095 -5.928631949932248 48.84875128458948 -4.152551155127313 49.328603991748864 -2.4441646670549697 49.713478942656764 -0.735778178982627 50.09835389356467 1.3006127554123479 50.110842365051134 3.3370036898073225 50.1233308365376 5.447643879850396 50.124497293051725 7.558284069893469 50.12566374956585 9.96372715404161 50.12503026546852 12.369170238189751 50.12439678137118 14.77495301046783 50.019302633845534 17.180735782745906 49.914208486319886 19.32711183394276 49.58700102951897 21.47348788513961 49.25979357271805 23.19504124114965 49.08499597055327 24.91659459715969 48.91019836838849 26.656448919071394 47.92550878666322 28.3963032409831 46.94081920493795 30.28087750718706 44.74930264600734 32.16545177339102 42.55778608707672 32.9827083692861 41.156296707807925 33.799964965181175 39.75480732853912 34.259568314005236 38.05045786757364 34.7191716628293 36.34610840660815 35.11176627545585 34.44324637209628 35.504360888082395 32.54038433758442 35.651432749999785 30.682595351629747 35.798504611917174 28.824806365675073 35.93323529450787 26.449478107925145 36.06796597709857 24.074149850175218 35.20660480105381 21.2300754763107 34.34524362500905 18.38600110244618 33.53149875043469 16.143245168458733 32.71775387586034 13.900489234471284 32.06994284175209 11.990598433140217 31.422131807643833 10.08070763180915 30.46162510732989 8.665377463267975 29.501118407015948 7.2500472947268 28.19249102076415 5.470055916641508 26.88386363451236 3.6900645385562165 25.665005115492235 2.2057473704354034 24.446146596472108 0.72143020231459 22.800342512435023 -0.5981723605096552 21.154538428397938 -1.9177749233339003 19.35440201954419 -3.177897712798473 17.554265610690443 -4.438020502263045 15.414490265884432 -4.7517635608868956 13.27471492107842 -5.065506619510746 11.358355874474555 -5.061945951010708 9.441996827870687 -5.05838528251067 6.883842704322056 -5.0533911765989314 4.325688580773425 -5.048397070687193 2.4906505031797024 -4.927181761661089 0.6556124255859792 -4.805966452634985 -0.9471411241608886 -4.312490853371695 -2.5498946739077564 -3.819015254108404 -1.00829283347201 -1.7479260689311833 0.5333090069637363 0.3231631162460372 -0.03401075030730605 0.7419509999145053 -0.6013305075783484 1.1607388835829733 -1.2735992091625217 0.9479249005651312 -1.945867910746695 0.7351109175472892 -2.1688474102136257 0.06614519247980405 -2.3918269096805567 -0.6028205325876811 -1.9816863307968222 -1.1764229245374562 -1.571545751913088 -1.7500253164872313 -0.8664170851770432 -1.7553696447552762 -0.1612884184409985 -1.7607139730233212 0.2574994652274695 -1.193394215752279 0.6762873488959376 -0.6260744584812367 0.4634733658780956 0.04619424310293668 0.2506593828602537 0.71846294468711 -0.4183063422072303 0.9414424441540412 -1.0872720672747143 1.1644219436209724 -1.6608744592244906 0.7542813647372378 -2.234476851174267 0.3441407858535033 -2.2398211794423126 -0.3609878808825401 -2.2451655077103583 -1.0661165476185834 -3.9309706562209197 -3.544877466875305 -5.616775804731481 -6.023638386132027 -3.97485638468968 -6.717100707146276 -2.3329369646478786 -7.410563028160526 -0.8024979901275648 -7.912456447820166 0.727940984392749 -8.414349867479807 2.5268148105878194 -8.545721490666399 4.32568863678289 -8.67709311385299 6.883956082534901 -8.672096073304846 9.442223528286913 -8.667099032756704 11.365734107414806 -8.662035817025878 13.289244686542697 -8.656972601295049 15.017982738946461 -8.57495077847518 16.746720791350228 -8.492928955655312 18.548064222052584 -7.84731036432341 20.34940765275494 -7.2016917729915075 21.87558933594591 -5.944923724692321 23.401771019136884 -4.688155676393135 25.27971453244328 -3.0651603659133793 27.15765804574967 -1.4421650554336236 28.41943007043871 0.10566402084304372 29.68120209512775 1.653493097119711 31.00547852586971 3.4896848898850434 32.329754956611666 5.325876682650376 33.45352391644868 7.159994938744668 34.577292876285696 8.99411319483896 35.21528095458304 10.882254903510917 35.85326903288038 12.770396612182875 36.69341245030236 15.121329161525788 37.533555867724345 17.4722617108687 38.127064029106705 19.482098220620863 38.720572190489065 21.491934730373025 39.12923146412224 23.442934126182728 39.537890737755426 25.39393352199243 39.33758892905004 27.213912737618713 39.13728712034465 29.033891953245 38.977484823019495 31.09764903287946 38.81768252569434 33.161406112513916 38.442879966405926 35.17866874629648 38.06807740711752 37.19593138007905 37.453477439659835 39.32073716054532 36.83887747220216 41.44554294101158 35.81888653194842 43.19822430749121 34.79889559169469 44.95090567397084 33.464964509753614 46.41715400220574 32.13103342781254 47.883402330440646 30.293004780594956 49.44886421502811 28.454976133377368 51.01432609961558 26.866815858841015 51.7815337907512 25.278655584304662 52.54874148188681 23.69642303062645 52.71474669906673 22.11419047694823 52.88075191624665 19.73643556650979 53.229595238780846 17.358680656071346 53.57843856131503 14.863924388348728 53.687804845660054 12.369168120626108 53.79717113000507 9.963642056494418 53.796515089551505 7.55811599236273 53.79585904909795 5.443201280730399 53.79558189881368 3.3282865690980685 53.79530474852942 0.8605363452850313 53.71540238491874 -1.607213878528006 53.63550002130806 -3.3599399471379527 53.25442034952847 -5.1126660157479 52.873340677748885 -6.955631985866004 52.37131321918429 -8.798597955984109 51.86928576061969 -10.53318117468893 51.32129337798955 -12.267764393393755 50.773300995359406 -15.045270103419472 49.7279128788845 -17.82277581344519 48.6825247624096 -20.65317410910238 47.00127788850798 -23.48357240475957 45.32003101460636 -24.98515911202235 44.03882095437824 -26.486745819285133 42.75761089415012 -27.57788634449666 41.59663574813712 -28.669026869708194 40.435660602124116 -29.720066610421497 38.91626257382818 -30.771106351134797 37.39686454553223 -31.79684905599245 35.33841214771556 -32.8225917608501 33.27995974989889 -33.77298979412664 30.561871105416003 -34.72338782740317 27.843782460933113 -35.2960680047863 25.488940157177773 -35.868748182169426 23.134097853422432 -35.89990429116882 20.957486822185356 -35.931060400168214 18.78087579094828 -35.55007555978242 17.133179496464116 -35.16909071939663 15.48548320197995 -34.580060082680276 13.513920885902188 -33.99102944596393 11.542358569824426 -32.981953469731394 9.445880892902021 -31.972877493498864 7.349403215979618 -30.648303545712558 5.469524484981386 -29.32372959792625 3.589645753983154 -28.156567398667242 2.3173833346201542 -26.989405199408235 1.0451209152571543 -25.83731421718536 -0.042730971104604554 -24.685223234962486 -1.1305828574663634 -23.134530843648506 -2.167412259234792 -21.583838452334522 -3.2042416610032207 -19.81671676067264 -3.8120427262224745 -18.04959506901076 -4.419843791441728 -16.298226312904447 -4.530881962474166 -14.546857556798138 -4.641920133506604 -12.886644500000394 -4.636020453879523 -11.226431443202648 -4.6301207742524415 -9.670922423920187 -4.631685902806677 -8.115413404637726 -4.633251031360911 -6.390771415234752 -4.628571554396618 -4.6661294258317785 -4.623892077432327 -3.4738846834259616 -4.247362854033982 -2.2816399410201447 -3.870833630635638 -1.131662412267802 -3.3084260887597923 0.01831511648454076 -2.7460185468839464 0.701093807978003 -1.7747639336119234 1.3838724994714653 -0.8035093203399002 1.487869899083679 -0.3200710846955462 1.5918672986958928 0.16336715094880783 1.3918450970469314 0.6156050370845567 1.1918228953979702 1.0678429232203057 0.7641827750131519 1.3161409583439987 0.3365426546283336 1.5644389934676914 -0.15537139345843762 1.5139557675018924 -0.6472854415452088 1.4634725415360936 -1.6983576620017995 0.16223631766597368 Z"></path></g><g transform="translate(526.4385349441255 665.411642208418) rotate(0 -36.76470588235293 43.62745098039204)" stroke="none" fill="#FFFFFF"><path d="M NaN NaN Q NaN NaN NaN NaN 1.9780793856731171 -2.3997086060582404 NaN NaN NaN NaN NaN NaN 1.9780793856731171 -2.3997086060582404 2.2999350314890474 -1.970961920901434 2.6217906773049773 -1.5422152357446275 2.6301663860011337 -1.0061698791931728 2.63854209469729 -0.470124522641718 2.330238630231609 -0.03153160138671485 2.021935165765928 0.4070613198682883 1.7845118259656907 0.45331890518009715 1.5470884861654532 0.499576490491906 0.4259013910323066 1.249228433517343 -0.69528570410084 1.9988803765427796 -2.625487859313279 4.536771580531289 -4.555690014525718 7.0746627845197985 -7.279329679901239 9.911237282482386 -10.00296934527676 12.747811780444973 -12.789837468218181 15.875638766382986 -15.576705591159602 19.003465752321 -19.183310176465877 22.66501449718453 -22.789914761772152 26.326563242048056 -25.822891855433074 29.358035608797344 -28.855868949093995 32.389507975546636 -31.81469559186943 35.23699325084415 -34.773522234644865 38.084478526141666 -37.65567914024754 40.517965844214096 -40.53783604585021 42.951453162286526 -43.02784481654545 45.059090812072526 -45.51785358724069 47.166728461858526 -47.91459886629721 49.5231194698705 -50.31134414535374 51.87951047788248 -52.62583379280426 54.403052550873014 -54.940323440254765 56.92659462386355 -56.972266978340144 59.83472993606643 -59.00421051642553 62.74286524826931 -61.06987604390458 65.88467530253368 -63.13554157138363 69.02648535679805 -64.29246172646143 71.4646948664886 -65.44938188153921 73.90290437617915 -66.798472380927 76.41740230027213 -68.14756288031478 78.93190022436511 -69.15114612108923 81.22731360739687 -70.15472936186369 83.52272699042864 -71.57210328129193 85.8805139135173 -72.98947720072016 88.23830083660597 -73.30404550626166 88.85266543136603 -73.61861381180316 89.46703002612608 -74.30054382054223 89.57365336938187 -74.98247382928132 89.68027671263768 -75.46956232820484 89.19125537530938 -75.95665082712837 88.70223403798109 -75.84732769084634 88.02073163444945 -75.73800455456431 87.33922923091781 -75.12239900115891 87.02709644385058 -74.50679344775351 86.71496365678334 -73.89242885299345 87.02953196232484 -73.2780642582334 87.34410026786634 -73.17144091497761 88.02603027660541 -73.0648175717218 88.7079602853445 -73.5538389090501 89.19504878426802 -74.0428602463784 89.68213728319155 -74.72436264991003 89.57281414690952 -75.40586505344167 89.4634910106275 -75.7179978405089 88.84788545722209 -76.03013062757614 88.23227990381669 -75.69603725477333 87.08410627817833 -75.36194388197052 85.93593265253996 -74.44312096584616 84.01081213294493 -73.52429804972179 82.08569161334991 -72.44495945382454 79.63084960704577 -71.36562085792727 77.17600760074166 -70.07607754331248 74.78568044707063 -68.78653422869769 72.39535329339961 -67.49245891506357 69.7482872379581 -66.19838360142946 67.1012211825166 -64.09641756272066 63.903042127153725 -61.99445152401187 60.704863071790854 -59.79797482607455 57.60859732863355 -57.60149812813722 54.51233158547624 -55.22846521915214 51.92087278208281 -52.85543231016707 49.32941397868939 -50.34877319303075 46.87476850597009 -47.84211407589444 44.42012303325079 -45.33777090201628 42.297896504469435 -42.83342772813812 40.17566997568809 -40.04764841633725 37.82922241446988 -37.261869104536395 35.48277485325168 -34.33552293152407 32.65952589316591 -31.409176758511734 29.83627693308015 -28.37932893587288 26.80350333333896 -25.349481113234027 23.77072973359777 -21.81764399653104 20.202889564246487 -18.285806879828048 16.635049394895205 -15.437896270255852 13.454534890691928 -12.589985660683656 10.274020386488653 -9.834845268716546 7.41595520168276 -7.079704876749437 4.557890016876867 -5.165820522029512 2.6459180654364833 -3.2519361673095872 0.7339461139961003 -1.885716208617315 -0.6687388953473347 -0.5194962499250428 -2.0714239046907696 0.4973502267745027 -2.277840967302138 1.5141967034740482 -2.484258029913506 1.7461380445735828 -2.4419833179858728 1.9780793856731171 -2.39970860605824 2.2999350314890474 -1.9709619209014337 2.6217906773049773 -1.5422152357446277 2.6301663860011337 -1.006169879193173 2.63854209469729 -0.47012452264171833 2.330238630231609 -0.031531601386715014 2.021935165765928 0.4070613198682883 NaN NaN NaN NaN NaN NaN NaN NaN NaN NaN NaN NaN NaN NaN NaN NaN NaN NaN NaN NaN NaN NaN NaN NaN NaN NaN Z"></path></g><g transform="translate(524.4777506304001 663.450857894693) rotate(0 -31.372549019607845 51.960784313725526)" stroke="none" fill="#FFFFFF"><path d="M -1.6622968334379167 2.7112986786948605 Q -1.6622968334379167 2.7112986786948605 -3.572390210419309 4.92232366261033 -5.482483587400702 7.1333486465258 -3.572390210419309 4.92232366261033 -1.6622968334379167 2.7112986786948605 -3.572390210419309 4.92232366261033 -5.482483587400702 7.1333486465258 -8.09598810694941 9.855663564171445 -10.709492626498117 12.577978481817091 -13.049994363964554 15.24924689729619 -15.390496101430994 17.92051531277529 -18.605827887706624 21.490049414130276 -21.821159673982255 25.059583515485265 -25.176200390879302 29.510960310117717 -28.531241107776353 33.96233710475017 -32.75810555833314 38.89016124196623 -36.984970008889924 43.817985379182296 -39.50954728020679 47.17152605120437 -42.03412455152366 50.52506672322643 -43.927988292603544 53.169387152090394 -45.82185203368343 55.81370758095436 -47.268622940311076 58.497324771194485 -48.715393846938724 61.18094196143462 -50.08485635566337 63.78270245598543 -51.454318864388014 66.38446295053623 -52.42718565941135 68.96130742367754 -53.400052454434686 71.53815189681883 -54.401647048069265 73.77218471470049 -55.40324164170385 76.00621753258214 -56.25139185197828 78.13336034399346 -57.09954206225272 80.26050315540478 -57.6363175766479 82.07358053325294 -58.17309309104307 83.8866579111011 -58.670597870844986 86.31232893206104 -59.168102650646894 88.73799995302099 -59.486225911349834 90.58420020017908 -59.804349172052774 92.43040044733716 -59.986515603291735 94.29552342672304 -60.168682034530704 96.1606464061089 -60.870410834416155 97.06537679960424 -61.57213963430161 97.97010719309958 -61.61631743251961 97.72855048814098 -61.66049523073761 97.48699378318238 -59.75591998379817 98.24549807064622 -57.851344736858735 99.00400235811004 -56.65565343510666 100.15876723619867 -55.45996213335458 101.3135321142873 -55.41209717523286 102.82079318428686 -55.36423221711114 104.3280542542864 -56.17476316121106 104.46343365268714 -56.98529410531098 104.59881305108789 -57.65504762554329 104.2575565939266 -58.32480114577561 103.9163001367653 -58.44239011435546 103.17387264408593 -58.55997908293531 102.43144515140656 -58.02845968583003 101.89992574638103 -57.49694028872476 101.36840634135548 -56.75451279429318 101.4859952988723 -56.01208529986159 101.60358425638911 -55.67082883272019 102.2733377715363 -55.329572365578784 102.9430912866835 -55.67082882274008 103.61284480691582 -56.01208527990137 104.28259832714814 -56.75451277258074 104.40018729572799 -57.496940265260115 104.51777626430784 -58.02845967028565 103.98625686720257 -58.55997907531118 103.45473747009729 -58.442390117794375 102.7123099756657 -58.32480116027756 101.96988248123411 -57.65504764513037 101.6286260140927 -56.98529412998317 101.28736954695131 -57.705923646563406 101.8440165967096 -58.426553163143645 102.40066364646786 -60.13312219592317 101.84361772792812 -61.8396912287027 101.28657180938836 -63.00776341118295 100.33750730162971 -64.17583559366321 99.38844279387106 -64.05490742139224 97.85156592628917 -63.93397924912129 96.31468905870726 -63.444468559356196 93.11897772310459 -62.954957869591105 89.92326638750191 -62.45374965822413 87.86413889215659 -61.95254144685716 85.80501139681127 -61.73028133608737 84.05228165055196 -61.508021225317584 82.29955190429266 -61.054515445007354 80.60680753641557 -60.60100966469712 78.91406316853848 -59.70281378369266 76.65769224298842 -58.80461790268819 74.40132131743836 -57.84398422310179 72.31596516586885 -56.88335054351539 70.23060901429932 -55.80301961709867 67.44499081511462 -54.722688690681956 64.65937261592993 -53.36396761547958 62.053718160048405 -52.005246540277206 59.44806370416688 -50.41689552655848 56.55320249811163 -48.828544512839755 53.65834129205639 -46.91578182233806 50.99573063252605 -45.00301913183637 48.333119972995696 -42.38389693879277 44.88620824268295 -39.76477474574918 41.4392965123702 -35.628206810572486 36.62836297858928 -31.49163887539579 31.81742944480836 -28.018379454368905 27.204001570142843 -24.545120033342016 22.59057369547732 -21.38649789444557 19.05182464803803 -18.227875755549125 15.513075600598738 -15.821600791806821 12.76402641481138 -13.415325828064518 10.014977229024021 -10.76453323495855 7.25853429306817 -8.113740641852583 4.502091357112319 -6.080421246186106 2.463519084651002 -4.047101850519628 0.42494681218968455 -2.7403913255766508 -0.48576660643477315 -1.433680800633674 -1.3964800250592309 -0.6596863921157764 -1.725184688468138 0.11430801640212129 -2.0538893518770456 0.7070155075693005 -1.8241660879256745 1.2997229987364798 -1.5944428239743034 1.6442054851249597 -1.060208077203023 1.9886879715134396 -0.5259733304317427 1.9533648518518938 0.10871338386401092 1.918041732190348 0.7434000981597645 1.5164052376008077 1.2361100273270067 1.1147687430112672 1.728819956494249 -0.27376404521332476 2.2200593175945547 Z"></path></g><g transform="translate(558.7914761205961 663.450857894693) rotate(0 19.117647058823536 51.470588235294144)" stroke="none" fill="#FFFFFF"><path d="M 2.91268013143786 -1.0429487594661266 Q 2.91268013143786 -1.0429487594661266 5.424011989373426 0.6031497121089434 7.9353438473089914 2.2492481836840135 5.424011989373426 0.6031497121089434 2.91268013143786 -1.0429487594661266 5.424011989373426 0.6031497121089434 7.9353438473089914 2.2492481836840135 10.764826096891133 5.118303702892295 13.594308346473275 7.987359222100577 16.228786636924124 12.055317224343904 18.863264927374974 16.123275226587232 21.36743062920346 19.555292866373254 23.871596331031945 22.987310506159275 26.618041025679616 27.83093934970006 29.364485720327288 32.674568193240844 31.457736321064285 38.242018431466235 33.55098692180128 43.809468669691626 35.224132953444375 50.5087530962514 36.89727898508747 57.208037522811175 37.54714085073391 62.11264951253551 38.19700271638035 67.01726150225984 38.689750992099064 70.67593366807239 39.18249926781779 74.33460583388492 39.57144149231169 77.8216913423918 39.96038371680559 81.30877685089868 40.01293896061894 83.42983929176111 40.065494204432284 85.55090173262354 39.949544985238894 87.43148574789518 39.833595766045505 89.3120697631668 39.22843499307117 91.98945358354217 38.62327422009683 94.66683740391754 37.71587784844132 96.5486922052708 36.808481476785815 98.43054700662405 36.24668343057209 99.82768374893159 35.684885384358374 101.22482049123913 35.15154815604213 101.74095711927086 34.61821092772589 102.2570937473026 34.660034334754585 101.5246581081268 34.70185774178328 100.792222468951 34.376251198989834 100.65136557459243 34.0506446561964 100.51050868023387 34.53476698846433 100.79452929741254 35.01888932073226 101.07854991459122 34.682519500003814 101.76501894879844 34.34614967927537 102.45148798300566 33.59307134454913 102.58285545610397 32.83999300982289 102.71422292920226 32.29106615260521 102.18218562163125 31.74213929538754 101.65014831406025 31.849915407594168 100.89333347484268 31.957691519800797 100.13651863562512 32.63331679562742 99.77886674077976 33.30894207145405 99.4212148459344 33.99541110566127 99.75758466666284 34.68188013986849 100.09395448739129 34.81324761296679 100.84703282211754 34.94461508606509 101.60011115684378 34.41257777849408 102.14903801406146 33.88054047092308 102.69796487127913 33.12372563170551 102.5901887590725 32.36691079248795 102.48241264686587 32.009258897642596 101.80678737103923 31.651607002797235 101.13116209521262 32.37508288898674 102.26966742009276 33.09855877517624 103.40817274497289 32.531683850031186 102.53298662698145 31.964808924886135 101.65780050899004 32.74211161840215 100.65739988636545 33.519414311918155 99.65699926374089 33.23253302765216 100.00193444860571 32.945651743386165 100.34686963347053 33.30335816988956 98.65070114230724 33.66106459639296 96.95453265114396 34.437265694078555 95.34611031709653 35.21346679176415 93.73768798304909 35.71074593162687 91.4517391399356 36.20802507148959 89.16579029682212 36.30509301896446 87.36367208410056 36.40216096643934 85.561553871379 36.36232468094317 83.60732077950021 36.322488395446996 81.65308768762142 35.94543156766149 78.24282772813966 35.568374739875985 74.8325677686579 35.07639935598792 71.1297574341784 34.58442397209984 67.42694709969892 33.976677505265656 62.71628691387174 33.36893103843146 58.00562672804457 31.76102614425605 51.53337427224925 30.153121250080638 45.061121816453934 28.141465539608234 39.758054721207664 26.12980982913583 34.454987625961394 23.515191782849936 29.860016931237546 20.90057373656404 25.2650462365137 18.286920097075157 21.685516956775643 15.673266457586275 18.105987677037582 13.316326511572274 14.366315378759069 10.959386565558274 10.626643080480555 8.30868991668438 7.925006425113948 5.657993267810485 5.223369769747341 4.0065030755392765 3.7765416175479096 2.3550128832680683 2.329713465348478 1.0380896295915862 2.00802228887789 -0.27883362408489587 1.6863311124073022 -0.7478076614638527 1.443353674203827 -1.2167816988428095 1.200376236000352 -1.4533711101872089 0.7281473363646424 -1.6899605215316083 0.25591843672893266 -1.6037961930862197 -0.2651865351481336 -1.517631864640831 -0.7862915070251999 -1.141625641253984 -1.1572281635931412 -0.7656194178671367 -1.5281648201610822 1.0735303567853616 -1.2855567898136044 Z"></path></g><g transform="translate(485.2620643558903 700.705759855477) rotate(0 -29.901960784313758 -26.960784313725526)" stroke="none" fill="#FFFFFF"><path d="M -61.47142345986644 -52.70329401281315 Q -61.47142345986644 -52.70329401281315 -61.382103074887105 -53.21607628772526 -61.29278268990777 -53.72885856263737 -61.382103074887105 -53.21607628772526 -61.47142345986644 -52.70329401281315 -61.382103074887105 -53.21607628772526 -61.29278268990777 -53.72885856263737 -60.91911512168505 -54.091206932435576 -60.54544755346233 -54.45355530223378 -60.03016111256379 -54.52706500542328 -59.51487467166524 -54.600574708612776 -58.74123793487925 -54.96227101024706 -57.967601198093256 -55.32396731188134 -57.350746874359444 -55.00966438384978 -56.733892550625626 -54.69536145581822 -56.62559108648138 -54.011573199014606 -56.51728962233713 -53.327784942211 -57.006827939219605 -52.838246564162674 -57.496366256102085 -52.348708186114344 -58.180154526437526 -52.45700956482199 -58.86394279677297 -52.56531094352963 -59.17824580187799 -53.182165227992556 -59.492548806983024 -53.79901951245547 -59.178245878951465 -54.41587383618929 -58.863942950919906 -55.0327281599231 -58.1801546941163 -55.14102962406735 -57.49636643731268 -55.2493310882116 -57.00682805926435 -54.759792771329124 -56.51728968121603 -54.27025445444665 -56.62559105992367 -53.5864661841112 -56.733892438631315 -52.90267791377576 -57.35074672309423 -52.58837490867073 -57.96760100755716 -52.274071903565705 -59.7195122337118 -52.48868295818943 -61.47142345986644 -52.70329401281315 -61.382103074887105 -53.21607628772526 -61.29278268990777 -53.72885856263737 -60.91911512168505 -54.091206932435576 -60.54544755346233 -54.45355530223378 -60.03016111256379 -54.52706500542328 -59.51487467166524 -54.600574708612776 -29.26830013878232 -27.774607528256293 0.9782743941006018 -0.9486403478998114 1.1636559051574769 -0.5705456246764165 1.349037416214352 -0.19245090145302135 1.276775706821955 0.22239867336512242 1.204513997429558 0.6372482481832662 0.9022105844906171 0.9303942372340704 0.5999071715516762 1.2235402262848747 0.1830316838937724 1.2830108254166366 -0.23384380376413139 1.3424814245483985 -30.852633631815287 -25.68040629413238 Z"></path></g><g transform="translate(591.1444172970668 702.6665441692026) rotate(0 30.392156862745082 -22.549019607843093)" stroke="none" fill="#FFFFFF"><path d="M 1.4589305680237543 -2.4094202836425644 Q 1.4589305680237543 -2.4094202836425644 2.926166593981221 -3.8240404417301797 4.393402619938687 -5.238660599817795 2.926166593981221 -3.8240404417301797 1.4589305680237543 -2.4094202836425644 2.926166593981221 -3.8240404417301797 4.393402619938687 -5.238660599817795 7.001697542815048 -8.063501975918106 9.609992465691409 -10.888343352018417 13.325516537526962 -15.505464083738607 17.041040609362515 -20.122584815458797 21.418263938474887 -25.15317372226184 25.795487267587255 -30.18376262906488 31.524113766815844 -35.01940654200298 37.252740266044434 -39.855050454941086 42.633170158967104 -42.30827329203384 48.01360005188978 -44.76149612912659 51.79123230777204 -45.400955323032605 55.5688645636543 -46.040414516938625 58.369243425903555 -46.664273698904395 61.16962228815281 -47.28813288087017 61.77648134093325 -46.96575559092821 62.383340393713695 -46.64337830098625 62.68481106390145 -46.025866793378135 62.98628173408921 -45.40835528577002 62.867212472283775 -44.731577967957875 62.74814321047834 -44.05480065014572 62.39543297900367 -43.91423089202149 62.04272274752901 -43.773661133897264 60.60357146372237 -43.3965539761946 59.16442017991572 -43.01944681849194 57.58477924315876 -43.17355881382777 56.00513830640181 -43.3276708091636 55.289010635118885 -43.69255952474343 54.57288296383596 -44.05744824032326 54.44715485185703 -44.85128390227907 54.3214267398781 -45.64511956423488 54.88975215112144 -46.21344063833797 55.45807756236479 -46.78176171244106 56.25191226480751 -46.656027542334876 57.045746967250224 -46.53029337222869 57.4106302177145 -45.814162916330304 57.77551346817878 -45.09803246043192 57.41062475259895 -44.38190478914899 57.04573603701912 -43.665777117866064 56.25190037506331 -43.540049005887134 55.4580647131075 -43.414320893908204 54.88974363900441 -43.98264630515155 54.321422564901326 -44.55097171639489 54.44715673500751 -45.34480641883761 54.57289090511369 -46.13864112128033 55.289021361012075 -46.503524371744604 56.005151816910455 -46.868407622208885 58.18692640522568 -47.05812200401695 60.3687009935409 -47.24783638582501 60.76916164084686 -47.267984633347595 61.169622288152816 -47.28813288087017 61.77648134093326 -46.96575559092821 62.383340393713695 -46.64337830098625 62.68481106390145 -46.025866793378135 62.98628173408921 -45.40835528577002 62.867212472283775 -44.731577967957875 62.74814321047834 -44.05480065014572 60.97577929262131 -43.176895469112814 59.20341537476429 -42.29899028807991 57.587733773585164 -42.14707476810707 55.97205217240604 -41.99515924813423 52.700326320072634 -41.49048615948194 49.42860046773923 -40.98581307082965 44.58148398387895 -38.84202080458367 39.734367500018664 -36.69822853833768 34.28237882631398 -32.12882740622338 28.8303901526093 -27.559426274109086 24.510987512030532 -22.57889700344149 20.19158487145176 -17.598367732773895 16.342654726192873 -12.876474125982034 12.493724580933984 -8.154580519190173 9.653420198002983 -5.194268936401866 6.813115815071983 -2.23395735361356 4.422937445828043 -0.5556508879266733 2.0327590765841026 1.1226555777602134 1.1598366654321384 1.4443467542308013 0.28691425428017414 1.766037930701389 -0.2595091443670715 1.6817182983439785 -0.8059325430143172 1.5973986659865682 -1.1984365222656466 1.2080030352175937 -1.590940501516976 0.8186074044486191 -1.6796018820179648 0.2728716711511241 -1.7682632625189536 -0.2728640621463709 -1.5192164104077115 -0.7664873967280905 -1.2701695582964692 -1.26011073130981 0.09438050486364258 -1.8347655074761873 Z"></path></g><g stroke-linecap="round" transform="translate(723.4973584735374 465.411642208418) rotate(0 46.56862745098033 68.62745098039204)"><path d="M-0.55 -1.17 C24.51 -1.79, 51.07 1, 92.27 -1.34 M0.99 -0.89 C29.85 0.05, 58.99 -0.76, 93.07 0.08 M91.56 0.36 C92.28 50.37, 91.67 100.86, 93.4 136.31 M93.8 -1 C92.81 26.95, 92.39 56.09, 93.35 136.83 M91.69 136.32 C76.01 138.05, 53.99 139.19, -0.13 138.63 M93.52 137.97 C68.9 137.85, 46.42 138.26, 0.89 137.05 M1.88 136.25 C0.18 90.45, 0.61 45.88, -0.84 0.39 M0.54 137.09 C-1.19 82.53, -0.85 27.77, 0.07 0.65" stroke="#FFFFFF" stroke-width="2" fill="none"></path></g><g transform="translate(740.1640251402041 540.9018382868499) rotate(0 33.33333333333337 0.9803921568627629)" stroke="none" fill="#FFFFFF"><path d="M 0.03734825009553122 3.9212749470406223 Q 0.03734825009553122 3.9212749470406223 -0.6360112817391506 4.033170924478341 -1.3093708135738322 4.145066901916061 -0.6360112817391506 4.033170924478341 0.03734825009553122 3.9212749470406223 -0.6360112817391506 4.033170924478341 -1.3093708135738322 4.145066901916061 -1.919900923481191 3.8398018469623816 -2.53043103338855 3.5345367920087023 -2.844929970539183 2.9287115800783257 -3.1594289076898163 2.3228863681479486 -2.7798186492183468 1.9995867435727797 -2.400208390746877 1.676287118997611 -0.5152997996574015 0.19702068046992682 1.3696087914320743 -1.2822457580577573 4.158312397164705 -3.1005513078658153 6.947016002897336 -4.918856857673873 9.321164462229815 -5.850860750993263 11.695312921562294 -6.782864644312653 14.740235217131177 -6.492819558578002 17.78515751270006 -6.202774472843353 21.06562168521041 -4.277843855212533 24.346085857720755 -2.3529132375817117 27.30479316254132 -1.2240990060842067 30.263500467361883 -0.0952847745867017 33.84162481940085 -1.3366120224669182 37.41974917143981 -2.5779392703471347 39.63494740073834 -2.7910103644855435 41.85014563003688 -3.0040814586239524 44.2439833166862 -2.66683785747142 46.63782100333551 -2.3295942563188885 49.40384309243153 -2.3127696448586734 52.169865181527555 -2.295945033398458 54.33241252478301 -1.4769865448120272 56.49495986803846 -0.6580280562255967 58.87238002958642 1.4135262208291683 61.249800191134376 3.4850804978839336 63.57380788085696 1.7269450780972357 65.89781557057954 -0.031190341689462053 66.32053793925633 -0.7070863109889771 66.7432603079331 -1.3829822802884921 67.53854160764828 -1.438274382964725 68.33382290736348 -1.493566485640958 68.84600977747985 -0.8826702813841045 69.35819664759623 -0.2717740771272509 69.16502712522554 0.5016695846362391 68.97185760285484 1.2751132463997292 68.2325863398547 1.5734545978702108 67.49331507685457 1.8717959493406924 66.81741910755505 1.449073580663911 66.14152313825555 1.0263512119871296 66.08623103557932 0.23106991227194035 66.03093893290308 -0.564211387443249 66.64183513715994 -1.0763982575596243 67.25273134141679 -1.5885851276759997 68.02617500318027 -1.3954156053053026 68.79961866494376 -1.2022460829346056 69.09796001641425 -0.46297481993447787 69.39630136788473 0.2762964430656498 69.07329194313392 1.9222484443216608 68.75028251838312 3.5682004455776717 65.66552216885266 5.6895550636273144 62.58076181932221 7.810909681676957 59.62433333477483 7.248217935549784 56.66790485022746 6.68552618942261 56.017988584494354 4.958519294461066 55.36807231876125 3.231512399499521 53.765153154052385 2.7622865247440624 52.16223398934352 2.293060649988604 48.98741917656814 2.2190271840384064 45.812604363792765 2.144993718088209 42.82409456558139 1.853292442045045 39.83558476737001 1.561591166001881 36.2857715279426 2.8858357605103615 32.7359582885152 4.210080355018842 29.749638111722277 4.333935144655662 26.763317934929358 4.4577899342924825 24.26828638070316 2.913287206883041 21.773254826476958 1.3687844794735995 19.479617217884993 -0.2553603911443476 17.185979609293025 -1.8795052617622947 15.204074188822903 -2.259703188655518 13.22216876835278 -2.6399011155487413 11.281304185501286 -1.8596146797976307 9.340439602649791 -1.0793282440465204 6.734250973050529 0.5621167666289114 4.128062343451267 2.203561777304343 2.4176350128807558 2.962839289203013 0.707207682310244 3.7221168011016825 0.3722779662028875 3.8216958740711524 0.037348250095531 3.9212749470406223 -0.6360112817391503 4.033170924478341 -1.3093708135738318 4.145066901916061 -1.9199009234811906 3.8398018469623816 -2.5304310333885494 3.5345367920087023 -2.844929970539183 2.9287115800783257 -3.1594289076898168 2.3228863681479486 -2.3789087432912455 0.7618460393508059 -1.598388578892674 -0.7991942894463369 -1.2108787428893748 -1.192632642760836 -0.8233689068860757 -1.5860709960753352 -0.2786096023074598 -1.6765967434246458 0.2661497022711561 -1.7671224907739564 0.7600789367638139 -1.5201578735276275 1.2540081712564717 -1.2731932562812986 1.5084431561241924 -0.7830703642088198 1.7628781409919134 -0.292947472136341 0.9001131955437223 1.8141637374521407 Z"></path></g><g transform="translate(739.3797114147139 507.7645833848892) rotate(0 33.33333333333326 0.9803921568627629)" stroke="none" fill="#FFFFFF"><path d="M 0.03734825009553122 3.9212749470406223 Q 0.03734825009553122 3.9212749470406223 -0.6360112817391506 4.033170924478341 -1.3093708135738322 4.145066901916061 -0.6360112817391506 4.033170924478341 0.03734825009553122 3.9212749470406223 -0.6360112817391506 4.033170924478341 -1.3093708135738322 4.145066901916061 -1.919900923481191 3.8398018469623816 -2.53043103338855 3.5345367920087023 -2.844929970539183 2.9287115800783257 -3.1594289076898163 2.3228863681479486 -2.7798186492183468 1.9995867435727797 -2.400208390746877 1.676287118997611 -0.5152997996574015 0.19702068046992682 1.3696087914320743 -1.2822457580577573 4.158312397164705 -3.1005513078658153 6.947016002897336 -4.918856857673873 9.321164462229815 -5.850860750993263 11.695312921562294 -6.782864644312653 14.740235217131177 -6.492819558578002 17.78515751270006 -6.202774472843353 21.06562168521041 -4.277843855212533 24.346085857720755 -2.3529132375817117 27.30479316254132 -1.2240990060842067 30.263500467361883 -0.0952847745867017 33.84162481940085 -1.3366120224669182 37.41974917143981 -2.5779392703471347 39.63494740073834 -2.7910103644855435 41.85014563003688 -3.0040814586239524 44.2439833166862 -2.66683785747142 46.63782100333551 -2.3295942563188885 49.40384309243153 -2.3127696448586734 52.169865181527555 -2.295945033398458 54.33241252478301 -1.4769865448120272 56.49495986803846 -0.6580280562255967 58.87238002958642 1.4135262208291683 61.249800191134376 3.4850804978839336 63.57380788085696 1.7269450780972357 65.89781557057954 -0.031190341689462053 66.32053793925633 -0.7070863109889771 66.7432603079331 -1.3829822802884921 67.53854160764828 -1.438274382964725 68.33382290736348 -1.493566485640958 68.84600977747985 -0.8826702813841045 69.35819664759623 -0.2717740771272509 69.16502712522554 0.5016695846362391 68.97185760285484 1.2751132463997292 68.2325863398547 1.5734545978702108 67.49331507685457 1.8717959493406924 66.81741910755505 1.449073580663911 66.14152313825555 1.0263512119871296 66.08623103557932 0.23106991227194035 66.03093893290308 -0.564211387443249 66.64183513715994 -1.0763982575596243 67.25273134141679 -1.5885851276759997 68.02617500318027 -1.3954156053053026 68.79961866494376 -1.2022460829346056 69.09796001641425 -0.46297481993447787 69.39630136788473 0.2762964430656498 69.07329194313392 1.9222484443216608 68.75028251838312 3.5682004455776717 65.66552216885266 5.6895550636273144 62.58076181932221 7.810909681676957 59.62433333477483 7.248217935549784 56.66790485022746 6.68552618942261 56.017988584494354 4.958519294461066 55.36807231876125 3.231512399499521 53.765153154052385 2.7622865247440624 52.16223398934352 2.293060649988604 48.98741917656814 2.2190271840384064 45.812604363792765 2.144993718088209 42.82409456558139 1.853292442045045 39.83558476737001 1.561591166001881 36.2857715279426 2.8858357605103615 32.7359582885152 4.210080355018842 29.749638111722277 4.333935144655662 26.763317934929358 4.4577899342924825 24.26828638070316 2.913287206883041 21.773254826476958 1.3687844794735995 19.479617217884993 -0.2553603911443476 17.185979609293025 -1.8795052617622947 15.204074188822903 -2.259703188655518 13.22216876835278 -2.6399011155487413 11.281304185501286 -1.8596146797976307 9.340439602649791 -1.0793282440465204 6.734250973050529 0.5621167666289114 4.128062343451267 2.203561777304343 2.4176350128807558 2.962839289203013 0.707207682310244 3.7221168011016825 0.3722779662028875 3.8216958740711524 0.037348250095531 3.9212749470406223 -0.6360112817391503 4.033170924478341 -1.3093708135738318 4.145066901916061 -1.9199009234811906 3.8398018469623816 -2.5304310333885494 3.5345367920087023 -2.844929970539183 2.9287115800783257 -3.1594289076898168 2.3228863681479486 -2.3789087432912455 0.7618460393508059 -1.598388578892674 -0.7991942894463369 -1.2108787428893748 -1.192632642760836 -0.8233689068860757 -1.5860709960753352 -0.2786096023074598 -1.6765967434246458 0.2661497022711561 -1.7671224907739564 0.7600789367638139 -1.5201578735276275 1.2540081712564717 -1.2731932562812986 1.5084431561241924 -0.7830703642088198 1.7628781409919134 -0.292947472136341 0.9001131955437223 1.8141637374521407 Z"></path></g><g transform="translate(735.2620643558903 575.2155637770456) rotate(0 32.35294117647061 1.4705882352941444)" stroke="none" fill="#FFFFFF"><path d="M 1.5936331027612403 3.114796880055959 Q 1.5936331027612403 3.114796880055959 1.10117339120954 3.472589803827522 0.6087136796578398 3.830382727599085 1.10117339120954 3.472589803827522 1.5936331027612403 3.114796880055959 1.10117339120954 3.472589803827522 0.6087136796578398 3.830382727599085 -1.1102230246251565e-16 3.830382727599085 -0.6087136796578401 3.830382727599085 -1.10117339120954 3.472589803827522 -1.59363310276124 3.1147968800559593 -1.6507640161525226 2.86325507871931 -1.707894929543805 2.611713277382661 -1.3552887994021496 1.3064757075913804 -1.0026826692604942 0.0012381378001000698 1.3466577350291455 -1.9560964043403388 3.6959981393187853 -3.9134309464807777 7.2811481080658 -3.831441789177352 10.866298076812814 -3.7494526318739254 15.27193204532077 -0.48702463217689407 19.677566013828727 2.7754033675201373 22.63365774678509 2.809187036471646 25.58974947974145 2.842970705423154 29.268100462456005 0.1764535980581412 32.94645144517056 -2.4900635093068715 35.55062424208697 -3.6556888230925724 38.15479703900338 -4.821314136878273 41.003058985880344 -5.1356861825227025 43.85132093275732 -5.450058228167131 46.5121181901039 -5.668982038803 49.17291544745048 -5.887905849438868 51.4878535719628 -5.488116700906782 53.80279169647513 -5.088327552374697 55.391068447587585 -4.810874021744548 56.979345198700045 -4.5334204911143985 58.504624451179 -5.010570491452144 60.02990370365796 -5.487720491789889 62.11626521912133 -5.740845326096887 64.20262673458471 -5.993970160403883 64.6725058483899 -5.3677073657957095 65.1423849621951 -4.741444571187537 65.15441711583517 -3.9585993139498306 65.16644926947527 -3.1757540567121243 64.71603858921759 -2.5353466171780346 64.26562790895991 -1.8949391776439448 64.49650102806886 -1.5510906496459607 64.72737414717781 -1.2072421216479765 65.13100658901902 -0.4556836273810203 65.53463903086025 0.2958748668859359 65.76890530403955 -0.22678066503450572 66.00317157721884 -0.7494361969549473 66.3874834964015 -0.2024286984679603 66.77179541558415 0.34457880001902674 66.76118734883971 1.0130100407213092 66.75057928209529 1.6814412814235915 66.34910315036521 2.215978249535159 65.94762701863515 2.7505152176467265 65.57897509746047 2.207419247412788 65.21032317628578 1.6643232771788494 64.10448521964523 -0.5748356193087728 62.99864726300466 -2.813994515796395 63.350969840577235 -3.5043550171094493 63.703292418149815 -4.194715518422504 64.46889581110412 -4.3154642871013555 65.23449920405841 -4.4362130557802075 65.78219739345306 -3.887801245390962 66.32989558284773 -3.339389435001716 66.20815002676036 -2.573943917663236 66.086404470673 -1.8084984003247553 65.39558579647775 -1.4570750376641173 64.7047671222825 -1.1056516750034793 64.01440662096945 -1.4579742525760553 63.324046119656394 -1.8102968301486313 63.20329735097754 -2.5759002231029315 63.08254858229869 -3.3415036160572313 63.63096039268794 -3.8892018054518886 64.17937220307718 -4.436899994846546 64.94481772041567 -4.315154438759185 65.71026323775415 -4.193408882671824 66.06168660041479 -3.5025902084765743 66.41310996307541 -2.8117715342813243 66.20814077014712 -1.7806038656181358 66.00317157721884 -0.7494361969549471 66.3874834964015 -0.20242869846796036 66.77179541558415 0.3445788000190264 66.76118734883971 1.0130100407213087 66.75057928209529 1.681441281423591 66.34910315036521 2.215978249535159 65.94762701863515 2.750515217646727 63.92572389181741 1.7536170451437427 61.90382076499967 0.7567188726407584 61.19354293617148 -0.7824591901395317 60.4832651073433 -2.321637252919822 61.843092025631975 -3.7915131086525857 63.20291894392064 -5.2613889643853495 63.702772839252674 -5.627679562394617 64.20262673458471 -5.993970160403883 64.6725058483899 -5.3677073657957095 65.1423849621951 -4.741444571187537 65.15441711583517 -3.9585993139498306 65.16644926947527 -3.1757540567121243 64.71603858921759 -2.5353466171780346 64.26562790895991 -1.8949391776439448 62.416472538385946 -1.3720619716094822 60.56731716781198 -0.8491847655750197 58.30392893175435 -0.43961232940721523 56.04054069569672 -0.03003989323941081 54.325095576945266 -0.2885179786440874 52.60965045819381 -0.546996064048764 51.03416351360447 -0.9442145583454382 49.45867656901512 -1.3414330526421123 46.75972038424524 -1.0982577690243391 44.06076419947537 -0.8550824854065661 41.87500192932957 -0.7617791654851229 39.68923965918378 -0.6684758455636797 37.51782335095609 0.23751439372899397 35.3464070427284 1.1435046330216676 30.200780786419323 4.09959860894791 25.055154530110244 7.055692584874152 20.874742181240027 6.64246793740637 16.69432983236981 6.229243289938588 13.873506485545 3.187060607429619 11.05268313872019 0.14487792492064955 8.666428292370007 -0.19711330036464503 6.280173446019825 -0.5391045256499396 4.549042643758691 0.12047763332683503 2.8179118414975557 0.7800597923036097 2.2629033855206804 1.6958865348431353 1.707894929543805 2.611713277382661 1.6507640161525226 2.86325507871931 1.59363310276124 3.1147968800559593 1.10117339120954 3.472589803827522 0.6087136796578401 3.830382727599085 1.1102230246251565e-16 3.830382727599085 -0.6087136796578398 3.830382727599085 -1.10117339120954 3.472589803827522 -1.5936331027612403 3.114796880055959 -1.5936331027612403 1.5573984400279794 -1.5936331027612403 0 -1.4414546828467802 -0.46835701768407617 -1.2892762629323204 -0.9367140353681523 -0.8908679872420103 -1.226174591166447 -0.4924597115517002 -1.5156351469647416 1.1102230246251565e-16 -1.5156351469647416 0.49245971155170043 -1.5156351469647416 0.8908679872420103 -1.226174591166447 1.2892762629323202 -0.9367140353681526 1.4414546828467802 1.089041422343903 Z"></path></g><g stroke-linecap="round"><g transform="translate(360.21282705941917 187.2424873938926) rotate(0 -74.78260082442029 105.54665308709309)"><path d="M-1.11 -0.26 C-25.72 34.81, -123.98 176.02, -148.46 211.35" stroke="#FFFFFF" stroke-width="1.5" fill="none" stroke-dasharray="1.5 7"></path></g></g><g stroke-linecap="round"><g transform="translate(666.1869951032893 182.1813818124624) rotate(0 87.00892723913398 112.49936623917142)"><path d="M1 0.06 C30.02 37.67, 144.26 187.3, 173.02 224.93" stroke="#FFFFFF" stroke-width="1.5" fill="none" stroke-dasharray="1.5 7"></path></g></g><g stroke-linecap="round"><g transform="translate(215.0303330619967 403.1845532021839) rotate(0 260.60191264570904 -111.85907228869883)"><path d="M0.11 -1.04 C87.12 -38.31, 434.17 -185.62, 521.09 -222.67" stroke="#FFFFFF" stroke-width="1.5" fill="none" stroke-dasharray="1.5 7"></path></g></g><g stroke-linecap="round"><g transform="translate(850.063569972514 402.85455247175196) rotate(0 91.97789724280062 -110.82409519364069)"><path d="M0.76 0.78 C31.29 -36.17, 152.78 -184.89, 183.2 -222.43" stroke="#FFFFFF" stroke-width="1.5" fill="none" stroke-dasharray="1.5 7"></path></g></g><g stroke-linecap="round"><g transform="translate(315.1230114794913 182.1813818124624) rotate(0 259.400277779022 112.24622000335489)"><path d="M-0.85 0.34 C85.83 37.81, 433.03 186.86, 519.65 224.15" stroke="#FFFFFF" stroke-width="1.5" fill="none" stroke-dasharray="1.5 7"></path></g></g><g stroke-linecap="round"><g transform="translate(21.176563387828878 187.63025828088257) rotate(0 90.26191896295006 110.27421136782914)"><path d="M-0.63 0.54 C29.52 37.36, 150.83 183.42, 181.15 220.01" stroke="#FFFFFF" stroke-width="1.5" fill="none" stroke-dasharray="1.5 7"></path></g></g></svg>
