<svg version="1.1" xmlns="http://www.w3.org/2000/svg" viewBox="0 0 1340.8170834495904 530.3038555326917" width="1340.8170834495904" height="530.3038555326917">
  <!-- svg-source:excalidraw -->

  <defs>
    <style>
      @font-face {
        font-family: "Virgil";
        src: url("https://excalidraw.com/Virgil.woff2");
      }
      @font-face {
        font-family: "Cascadia";
        src: url("https://excalidraw.com/Cascadia.woff2");
      }
    </style>
  </defs>
  <g stroke-linecap="round" transform="translate(10 10) rotate(0 660.4085417247952 255.15192776634586)"><path d="M0.51 1.07 L1322.46 -1.55 L1321.81 508.33 L-0.69 511.27" stroke="none" stroke-width="0" fill="#111111"></path><path d="M-0.77 -0.43 C327.37 -1.88, 654.89 -0.96, 1321.24 -0.45 M0.4 0.11 C394.07 4.03, 787.79 4.38, 1320.96 0.25 M1320.73 0.57 C1319.34 109.71, 1319.87 219.61, 1320.5 511 M1320.76 0.27 C1321.98 169.42, 1321.57 338.59, 1321.16 510.69 M1320.44 510.66 C849.74 515.86, 378.11 515.83, 0.74 510.89 M1320.94 510.08 C890.67 507.68, 459.9 507.61, -0.06 510.24 M-0.07 509.7 C-0.94 311.55, -0.03 112.75, 0.01 0.45 M-0.18 510.33 C-1.14 326.35, -1.24 142.37, 0.33 0.4" stroke="#111111" stroke-width="1" fill="none"></path></g><g stroke-linecap="round" transform="translate(18.57973879859535 396.473440261114) rotate(0 103.33940887451172 53.431121826171875)"><path d="M93.16 0.77 C106.6 -0.88, 123.12 0.35, 136.77 2.63 C150.41 4.92, 164.71 9.18, 175.03 14.47 C185.34 19.76, 193.51 27.26, 198.65 34.37 C203.78 41.49, 206.6 49.87, 205.83 57.16 C205.06 64.46, 200.82 71.5, 194.01 78.13 C187.2 84.76, 176.42 92.37, 164.95 96.95 C153.49 101.53, 139.38 104.08, 125.23 105.6 C111.08 107.11, 94.47 107.69, 80.06 106.04 C65.66 104.39, 50.1 100.28, 38.81 95.7 C27.51 91.12, 18.71 85.19, 12.3 78.58 C5.89 71.97, 1.12 63.58, 0.34 56.03 C-0.45 48.48, 1.97 40.32, 7.59 33.27 C13.21 26.22, 23.28 18.7, 34.06 13.73 C44.84 8.75, 61.76 5.53, 72.28 3.42 C82.79 1.31, 92.57 1.41, 97.14 1.07 C101.72 0.72, 99.74 0.62, 99.72 1.34 M80.21 0.23 C92.87 -2.29, 108.77 -1.3, 122.76 0.44 C136.75 2.18, 152.5 6.2, 164.15 10.67 C175.8 15.15, 185.56 20.9, 192.68 27.28 C199.79 33.65, 205.6 41.38, 206.82 48.91 C208.04 56.44, 205.36 65.26, 199.99 72.46 C194.63 79.66, 185.01 86.77, 174.62 92.1 C164.23 97.43, 151.35 101.87, 137.63 104.42 C123.91 106.96, 106.8 108.26, 92.29 107.36 C77.78 106.45, 62.9 102.73, 50.58 98.98 C38.26 95.23, 26.53 91.17, 18.38 84.86 C10.22 78.55, 4.04 68.72, 1.65 61.13 C-0.73 53.53, 0.16 46.18, 4.06 39.28 C7.96 32.39, 15.96 25.57, 25.05 19.75 C34.14 13.94, 49.77 7.42, 58.59 4.41 C67.41 1.39, 74.2 1.97, 77.95 1.66 C81.71 1.35, 80.5 1.94, 81.13 2.55" stroke="#FFFFFF" stroke-width="1" fill="none"></path></g><g transform="translate(82.96957797095864 433.2946377708797) rotate(0 31.5 17.5)"><text x="31.5" y="24" font-family="Virgil, Segoe UI Emoji" font-size="28px" fill="#FFFFFF" text-anchor="middle" style="white-space: pre;" direction="ltr">Repo</text></g><g stroke-linecap="round" transform="translate(286.6400306338353 300.2263641357422) rotate(0 104.22473907470703 56.07794189453125)"><path d="M108.97 0.68 C123.03 0.03, 139.74 2.39, 152.57 5.74 C165.4 9.08, 177.09 14.35, 185.96 20.75 C194.83 27.16, 202.37 36.41, 205.78 44.15 C209.19 51.89, 209.45 59.58, 206.42 67.22 C203.39 74.86, 196.13 83.67, 187.59 89.98 C179.04 96.29, 167.51 101.47, 155.15 105.09 C142.8 108.71, 127.8 111.04, 113.46 111.72 C99.12 112.4, 82.96 111.75, 69.11 109.19 C55.25 106.62, 40.77 101.77, 30.35 96.33 C19.93 90.89, 11.65 83.85, 6.56 76.52 C1.48 69.19, -1.25 60.09, -0.17 52.35 C0.9 44.62, 5.91 37.15, 13.01 30.11 C20.11 23.07, 30.74 14.96, 42.43 10.11 C54.12 5.26, 69.84 2.71, 83.14 1.01 C96.43 -0.68, 113.47 -0.54, 122.19 -0.08 C130.9 0.38, 135.73 2.56, 135.42 3.78 M87.83 -0.22 C101.16 -2.02, 117.49 -0.52, 131.26 1.92 C145.04 4.36, 159.28 9.42, 170.48 14.44 C181.69 19.46, 191.96 25.31, 198.49 32.03 C205.02 38.75, 209.52 47.09, 209.64 54.75 C209.76 62.41, 205.59 70.86, 199.23 78.01 C192.88 85.15, 182.71 92.47, 171.51 97.63 C160.32 102.78, 145.88 106.59, 132.06 108.94 C118.23 111.3, 102.53 112.75, 88.56 111.77 C74.59 110.79, 60.49 107.14, 48.22 103.07 C35.96 98.99, 22.72 94.07, 14.96 87.33 C7.21 80.59, 3.52 70.63, 1.7 62.61 C-0.12 54.6, 0.08 46.45, 4.02 39.25 C7.97 32.06, 15.4 25.36, 25.37 19.44 C35.34 13.53, 53.5 6.77, 63.84 3.77 C74.18 0.77, 83.45 1.56, 87.42 1.43 C91.39 1.31, 87.09 2.4, 87.67 3.04" stroke="#FFFFFF" stroke-width="1" fill="none"></path></g><g transform="translate(295.52532268705795 340.2630157470703) rotate(0 93 17.5)"><text x="93" y="24" font-family="Virgil, Segoe UI Emoji" font-size="28px" fill="#FFFFFF" text-anchor="middle" style="white-space: pre;" direction="ltr">GitHub Action</text></g><g stroke-linecap="round" transform="translate(438.14468456449936 105.29969787597656) rotate(0 96.2935791015625 50.788963317871094)"><path d="M103.78 -0.23 C117.07 -0.45, 132.36 2.8, 144.34 6.34 C156.32 9.89, 167.84 14.94, 175.64 21.04 C183.45 27.14, 188.94 35.53, 191.17 42.95 C193.4 50.36, 192.98 58.58, 189.03 65.52 C185.09 72.46, 177.05 79.12, 167.51 84.58 C157.96 90.04, 144.69 95.53, 131.75 98.28 C118.82 101.02, 103.77 101.56, 89.89 101.03 C76.02 100.51, 60.51 98.64, 48.49 95.14 C36.47 91.64, 25.7 86.02, 17.75 80.02 C9.8 74.02, 3.2 66.4, 0.8 59.14 C-1.61 51.88, -0.85 43.51, 3.31 36.46 C7.46 29.4, 16.23 22.2, 25.75 16.8 C35.26 11.4, 46.17 6.86, 60.38 4.06 C74.59 1.27, 101.46 0.31, 111.01 0.04 C120.56 -0.24, 117.8 1.53, 117.69 2.43 M106.54 -1.14 C119.42 -0.97, 133.56 4.5, 145.64 8.58 C157.71 12.65, 171.4 17.46, 178.97 23.31 C186.55 29.17, 189.69 36.5, 191.09 43.71 C192.5 50.92, 192.01 59.36, 187.39 66.59 C182.77 73.82, 173.41 81.88, 163.36 87.09 C153.32 92.31, 140.16 95.7, 127.14 97.87 C114.12 100.05, 98.78 100.88, 85.24 100.16 C71.7 99.45, 57.44 97.35, 45.9 93.57 C34.37 89.78, 23.46 83.39, 16.03 77.47 C8.6 71.56, 3.37 65.31, 1.34 58.08 C-0.7 50.85, -0.77 41.24, 3.83 34.08 C8.42 26.93, 19 20.11, 28.9 15.15 C38.8 10.2, 50.19 6.6, 63.24 4.36 C76.3 2.12, 100.27 2.16, 107.23 1.71 C114.19 1.27, 105.3 1.15, 104.99 1.7" stroke="#FFFFFF" stroke-width="1" fill="none"></path></g><g transform="translate(479.43826366606186 138.58866119384766) rotate(0 55 17.5)"><text x="55" y="24" font-family="Virgil, Segoe UI Emoji" font-size="28px" fill="#FFFFFF" text-anchor="middle" style="white-space: pre;" direction="ltr">Registry</text></g><g stroke-linecap="round" transform="translate(854.4196784609837 314.9236297607422) rotate(0 103.6375732421875 45.21101379394531)"><path d="M62.16 2.94 C74.41 -0.43, 91.56 -0.87, 106.08 -0.64 C120.6 -0.42, 136.29 1.34, 149.3 4.29 C162.3 7.23, 174.82 11.93, 184.11 17.01 C193.39 22.09, 201.51 28.58, 205.03 34.74 C208.54 40.89, 208.33 47.75, 205.19 53.95 C202.05 60.14, 195.18 66.52, 186.19 71.91 C177.19 77.3, 164.33 83.16, 151.2 86.27 C138.08 89.38, 122.32 90.35, 107.46 90.59 C92.6 90.83, 75.71 90.34, 62.04 87.69 C48.37 85.04, 34.94 79.67, 25.46 74.68 C15.98 69.69, 9.19 63.76, 5.15 57.74 C1.12 51.71, -0.71 44.74, 1.24 38.53 C3.19 32.32, 8.53 25.76, 16.87 20.49 C25.21 15.22, 42.41 10.1, 51.25 6.94 C60.09 3.77, 65.18 2.15, 69.89 1.49 C74.61 0.83, 78.77 2.2, 79.54 2.96 M119.55 1.58 C133.53 1.95, 148.73 4.96, 160.7 8.55 C172.68 12.15, 183.76 17.73, 191.4 23.18 C199.05 28.62, 204.91 35.22, 206.59 41.2 C208.27 47.19, 206.51 53.23, 201.48 59.08 C196.46 64.94, 187.02 71.36, 176.45 76.33 C165.88 81.3, 151.87 86.37, 138.07 88.92 C124.26 91.46, 108.14 92.59, 93.62 91.59 C79.1 90.59, 63.52 86.51, 50.95 82.93 C38.39 79.35, 26.61 75.21, 18.21 70.13 C9.81 65.06, 3.04 58.92, 0.55 52.49 C-1.95 46.06, -1.08 37.78, 3.22 31.57 C7.51 25.36, 16.33 19.89, 26.32 15.24 C36.32 10.58, 49.49 6.31, 63.19 3.64 C76.88 0.97, 99.01 -0.26, 108.48 -0.76 C117.96 -1.26, 118.1 0.3, 120.02 0.63 C121.93 0.96, 120.34 0.34, 119.97 1.21" stroke="#FFFFFF" stroke-width="1" fill="none"></path></g><g transform="translate(901.0572517031712 325.1346435546875) rotate(0 57 35)"><text x="57" y="25" font-family="Virgil, Segoe UI Emoji" font-size="28px" fill="#FFFFFF" text-anchor="middle" style="white-space: pre;" direction="ltr">Turtles</text><text x="57" y="60" font-family="Virgil, Segoe UI Emoji" font-size="28px" fill="#FFFFFF" text-anchor="middle" style="white-space: pre;" direction="ltr">Deployer</text></g><g stroke-linecap="round" transform="translate(852.6674201602025 115.85939025878906) rotate(0 106.275146484375 49.0321044921875)"><path d="M146.96 3.98 C160.72 5.75, 174.32 11.25, 184.54 16.38 C194.76 21.51, 203.79 28.32, 208.27 34.77 C212.76 41.21, 213.44 48.49, 211.45 55.06 C209.47 61.63, 204.05 68.39, 196.35 74.21 C188.66 80.04, 177.52 86.24, 165.26 90.02 C153.01 93.81, 137.72 96, 122.82 96.95 C107.91 97.9, 90.18 97.42, 75.83 95.73 C61.47 94.03, 47.87 91.19, 36.68 86.79 C25.49 82.39, 14.86 75.78, 8.67 69.32 C2.47 62.86, -0.6 54.96, -0.5 48.03 C-0.41 41.11, 2.68 33.79, 9.24 27.75 C15.8 21.71, 27.17 16.01, 38.88 11.78 C50.6 7.56, 65.31 4.14, 79.55 2.4 C93.79 0.67, 111.76 0.84, 124.33 1.36 C136.9 1.88, 148.69 4.38, 154.98 5.51 C161.27 6.64, 162.88 7.27, 162.07 8.16 M64.5 4.55 C76.79 1.68, 94.26 0.71, 109.55 0.61 C124.84 0.5, 142.58 0.64, 156.22 3.91 C169.87 7.18, 182.28 14.65, 191.4 20.23 C200.52 25.82, 207.74 30.77, 210.95 37.42 C214.16 44.07, 213.89 53.23, 210.66 60.13 C207.42 67.04, 200.22 73.39, 191.54 78.85 C182.86 84.3, 171.7 89.79, 158.58 92.86 C145.45 95.93, 127.59 97.11, 112.78 97.25 C97.96 97.39, 83.55 96.08, 69.68 93.69 C55.81 91.31, 39.91 87.55, 29.56 82.94 C19.2 78.33, 12.3 72.32, 7.56 66.05 C2.82 59.78, -0.09 52.16, 1.11 45.31 C2.31 38.45, 7.66 31.03, 14.76 24.92 C21.86 18.8, 35.09 12.23, 43.69 8.61 C52.29 4.99, 62.4 3.83, 66.35 3.2 C70.31 2.57, 67.03 4.03, 67.41 4.83" stroke="#FFFFFF" stroke-width="1" fill="none"></path></g><g transform="translate(884.4425666445775 147.39149475097656) rotate(0 74.5 17.5)"><text x="74.5" y="24" font-family="Virgil, Segoe UI Emoji" font-size="28px" fill="#FFFFFF" text-anchor="middle" style="white-space: pre;" direction="ltr">Kubernetes</text></g><g stroke-linecap="round" transform="translate(275.4840705508275 24.859405517578125) rotate(0 202.5733642578125 237.7981185913086)"><path d="M0.65 -0.49 C122.8 -1.47, 245.45 -1.62, 404.61 1 M404.85 -0.71 C403.88 184.85, 402.94 370.52, 404.59 474.89 M405.07 476.71 C307.35 476.48, 207.6 475.53, -0.23 476.13 M-0.18 476.01 C1.5 296.12, 1.61 117.81, -0.44 0.25" stroke="#FFFFFF" stroke-width="1.5" fill="none" stroke-dasharray="1.5 7"></path></g><g stroke-linecap="round" transform="translate(766.3556525820775 27.795166015625) rotate(0 271.8531188964844 237.50452423095703)"><path d="M0.26 -0.22 C198.15 -1.28, 396.68 -0.84, 543.53 0.09 M544.43 -0.68 C543.22 117.18, 543.13 233.64, 542.85 475.74 M543.14 475.39 C430.1 476.41, 317.14 475.36, 0.4 474.26 M-0.57 474.84 C0.63 331.88, 0.45 186.64, 0.83 -0.04" stroke="#FFFFFF" stroke-width="1.5" fill="none" stroke-dasharray="1.5 7"></path></g><g stroke-linecap="round"><g transform="translate(204.89881733036626 416.90654123294587) rotate(0 44.513896661870646 -15.176161039882459)"><path d="M-0.03 -0.82 C14.86 -5.94, 73.97 -25.87, 88.92 -30.9 M-1.5 1.37 C13.26 -3.59, 72.79 -24.42, 87.91 -29.65" stroke="#FFFFFF" stroke-width="1" fill="none"></path></g><g transform="translate(204.89881733036626 416.90654123294587) rotate(0 44.513896661870646 -15.176161039882459)"><path d="M63.3 -10.87 C69.96 -14.67, 76.01 -22.39, 87.33 -28.35 M65.41 -11.41 C70.14 -15, 75.26 -19.64, 88.25 -29.96" stroke="#FFFFFF" stroke-width="1" fill="none"></path></g><g transform="translate(204.89881733036626 416.90654123294587) rotate(0 44.513896661870646 -15.176161039882459)"><path d="M56.56 -30.26 C64.98 -28.9, 72.83 -31.47, 87.33 -28.35 M58.67 -30.79 C65.02 -29.89, 71.73 -29.96, 88.25 -29.96" stroke="#FFFFFF" stroke-width="1" fill="none"></path></g></g><g stroke-linecap="round"><g transform="translate(412.30059887114 300.8135223388672) rotate(0 37.28436279296875 -50.4908447265625)"><path d="M-0.17 -1.03 C12.41 -17.9, 62.79 -85.39, 75.38 -102.07 M-1.71 1.04 C10.79 -15.64, 62.07 -84.29, 74.86 -101.11" stroke="#FFFFFF" stroke-width="1" fill="none"></path></g><g transform="translate(412.30059887114 300.8135223388672) rotate(0 37.28436279296875 -50.4908447265625)"><path d="M64.38 -71.06 C67.05 -79.39, 71.19 -90.64, 75.52 -101.88 M65.76 -72.86 C68.37 -81.59, 72.4 -90.88, 75.72 -101.84" stroke="#FFFFFF" stroke-width="1" fill="none"></path></g><g transform="translate(412.30059887114 300.8135223388672) rotate(0 37.28436279296875 -50.4908447265625)"><path d="M47.99 -83.4 C55.34 -88.11, 64.27 -95.76, 75.52 -101.88 M49.36 -85.2 C57.47 -89.82, 67.03 -94.95, 75.72 -101.84" stroke="#FFFFFF" stroke-width="1" fill="none"></path></g></g><g stroke-linecap="round"><g transform="translate(505.02451811227036 357.2565278366208) rotate(0 171.76639731302856 2.3151641212403717)"><path d="M-0.63 0.66 C56.74 1.68, 286.69 4.21, 344.24 5.02 M1.23 -0.03 C58.51 0.7, 286.45 2.49, 343.67 3.11" stroke="#FFFFFF" stroke-width="1" fill="none"></path></g><g transform="translate(505.02451811227036 357.2565278366208) rotate(0 171.76639731302856 2.3151641212403717)"><path d="M316.49 14.29 C324.63 12.16, 333.98 8.36, 345.23 4.48 M314.72 12.76 C322.17 11.29, 327.72 9.31, 344.04 3.85" stroke="#FFFFFF" stroke-width="1" fill="none"></path></g><g transform="translate(505.02451811227036 357.2565278366208) rotate(0 171.76639731302856 2.3151641212403717)"><path d="M316.68 -6.23 C324.58 -2.19, 333.87 0.18, 345.23 4.48 M314.91 -7.76 C322.48 -4.77, 327.99 -2.29, 344.04 3.85" stroke="#FFFFFF" stroke-width="1" fill="none"></path></g></g><g stroke-linecap="round"><g transform="translate(962.0616533229036 305.1451252862811) rotate(0 -0.09161731377241722 -42.67500252351164)"><path d="M0.17 0.8 C0.06 -13.52, 0.24 -70.67, 0.03 -85.07 M-1.19 0.17 C-1.51 -14.6, -1.22 -72.95, -0.81 -87.05" stroke="#FFFFFF" stroke-width="1" fill="none"></path></g><g transform="translate(962.0616533229036 305.1451252862811) rotate(0 -0.09161731377241722 -42.67500252351164)"><path d="M10.37 -58.36 C5.78 -70.42, 1.36 -80.59, -0.3 -85.85 M9.98 -57.79 C5.81 -67.5, 2.59 -74.95, -0.69 -86.49" stroke="#FFFFFF" stroke-width="1" fill="none"></path></g><g transform="translate(962.0616533229036 305.1451252862811) rotate(0 -0.09161731377241722 -42.67500252351164)"><path d="M-10.15 -58.66 C-7.39 -70.64, -4.47 -80.7, -0.3 -85.85 M-10.53 -58.09 C-8.57 -67.63, -5.64 -74.99, -0.69 -86.49" stroke="#FFFFFF" stroke-width="1" fill="none"></path></g></g><g stroke-linecap="round"><g transform="translate(845.2553870642466 164.81160959949716) rotate(0 -106.3856887742877 -0.6917163598071738)"><path d="M0.11 -0.69 C-35.34 -1.01, -178.03 -2.2, -213.35 -2.2 M-1.29 1.57 C-36.89 1.4, -179.48 -0.39, -214.6 -1.09" stroke="#FFFFFF" stroke-width="1" fill="none"></path></g><g transform="translate(845.2553870642466 164.81160959949716) rotate(0 -106.3856887742877 -0.6917163598071738)"><path d="M-187.4 -11.88 C-194.63 -6.81, -199.11 -6.29, -213.33 -0.72 M-186 -11.43 C-196.39 -7.62, -205.31 -4.67, -214.13 -1.75" stroke="#FFFFFF" stroke-width="1" fill="none"></path></g><g transform="translate(845.2553870642466 164.81160959949716) rotate(0 -106.3856887742877 -0.6917163598071738)"><path d="M-187.72 8.64 C-194.83 8.64, -199.22 4.1, -213.33 -0.72 M-186.32 9.09 C-196.57 6.13, -205.39 2.32, -214.13 -1.75" stroke="#FFFFFF" stroke-width="1" fill="none"></path></g></g><g stroke-linecap="round"><g transform="translate(639.5698188820762 138.32928279191256) rotate(0 112.6375191926956 0.460145068168643)"><path d="M0.03 -0.45 C37.74 -0.16, 187.73 1.88, 225.1 1.97" stroke="#FFFFFF" stroke-width="1.5" fill="none" stroke-dasharray="1.5 7"></path></g><g transform="translate(639.5698188820762 138.32928279191256) rotate(0 112.6375191926956 0.460145068168643)"><path d="M196.08 11.7 C204.26 8.3, 206.89 9.51, 223.68 3.1" stroke="#FFFFFF" stroke-width="1.5" fill="none" stroke-dasharray="1.5 5"></path></g><g transform="translate(639.5698188820762 138.32928279191256) rotate(0 112.6375191926956 0.460145068168643)"><path d="M196.26 -8.82 C204.45 -8.08, 207.04 -2.73, 223.68 3.1" stroke="#FFFFFF" stroke-width="1.5" fill="none" stroke-dasharray="1.5 5"></path></g></g><g transform="translate(1063.2086188906712 46.39143371582031) rotate(0 108.5 22.5)"><text x="0" y="32" font-family="Virgil, Segoe UI Emoji" font-size="36px" fill="#FFFFFF" text-anchor="start" style="white-space: pre;" direction="ltr">Caf.js Cloud</text></g><g transform="translate(299.5299689883275 41.116241455078125) rotate(0 93 22.5)"><text x="0" y="32" font-family="Virgil, Segoe UI Emoji" font-size="36px" fill="#FFFFFF" text-anchor="start" style="white-space: pre;" direction="ltr">GitHub.com</text></g><g stroke-linecap="round" transform="translate(1137.4381721133275 223.3363800048828) rotate(0 65.47238159179688 44.9173583984375)"><path d="M76.76 -0.2 C87.35 0.07, 98.76 4.76, 107.12 9.63 C115.49 14.51, 123.05 21.89, 126.94 29.04 C130.84 36.18, 132.27 45.09, 130.51 52.5 C128.74 59.91, 123.33 67.73, 116.34 73.5 C109.35 79.27, 98.79 84.62, 88.58 87.1 C78.37 89.57, 66.1 89.5, 55.08 88.34 C44.07 87.18, 31.19 84.81, 22.51 80.13 C13.83 75.45, 6.58 67.36, 2.99 60.27 C-0.6 53.18, -1.01 45.05, 0.99 37.59 C3 30.12, 8.1 21.24, 15.03 15.47 C21.96 9.7, 31.58 5.46, 42.57 2.99 C53.56 0.52, 73.94 0.77, 80.98 0.67 C88.03 0.57, 85.23 1.56, 84.85 2.38 M57.4 -0.73 C67.74 -2.26, 82.07 1.37, 92.26 4.26 C102.46 7.16, 112.14 10.71, 118.57 16.63 C125 22.55, 129.83 32.3, 130.85 39.78 C131.87 47.26, 129 54.6, 124.69 61.52 C120.37 68.44, 113.78 76.62, 104.96 81.31 C96.15 86, 82.9 88.85, 71.8 89.65 C60.69 90.45, 48.34 88.95, 38.32 86.1 C28.31 83.25, 17.92 78.79, 11.69 72.56 C5.45 66.34, 1.65 56.22, 0.91 48.75 C0.16 41.28, 2.79 34.35, 7.24 27.75 C11.7 21.16, 19.22 13.76, 27.65 9.18 C36.08 4.6, 53.07 1.67, 57.84 0.28 C62.61 -1.12, 56.23 -0.05, 56.26 0.82" stroke="#FFFFFF" stroke-width="1" fill="none"></path></g><g transform="translate(1177.5115974062962 248.09324645996094) rotate(0 23 17.5)"><text x="23" y="24" font-family="Virgil, Segoe UI Emoji" font-size="28px" fill="#FFFFFF" text-anchor="middle" style="white-space: pre;" direction="ltr">App</text></g><g stroke-linecap="round"><g transform="translate(1072.8417976016087 179.27223205566406) rotate(0 38.46331787109375 29.362350463867188)"><path d="M0.46 0.7 C13.32 10.32, 63.35 48.72, 76.14 58.5 M-0.76 0.02 C12.57 9.76, 65.56 50.36, 78.45 59.91" stroke="#FFFFFF" stroke-width="1" fill="none"></path></g><g transform="translate(1072.8417976016087 179.27223205566406) rotate(0 38.46331787109375 29.362350463867188)"><path d="M50.92 49.81 C55.64 53.36, 63.24 56.22, 77.07 58.18 M48.96 50.18 C59.59 52.89, 68.58 55.88, 78.29 59.18" stroke="#FFFFFF" stroke-width="1" fill="none"></path></g><g transform="translate(1072.8417976016087 179.27223205566406) rotate(0 38.46331787109375 29.362350463867188)"><path d="M63.29 33.43 C65.43 40.57, 70.36 46.97, 77.07 58.18 M61.33 33.8 C68.04 41.74, 73.18 49.84, 78.29 59.18" stroke="#FFFFFF" stroke-width="1" fill="none"></path></g></g><g transform="translate(103.33376130603581 339.2903522309803) rotate(0 75 17.5)"><text x="0" y="24" font-family="Virgil, Segoe UI Emoji" font-size="28px" fill="#FFFFFF" text-anchor="start" style="white-space: pre;" direction="ltr">1. Git Push</text></g><g transform="translate(309.3189399355931 232.43739318847656) rotate(0 153 17.5)"><text x="0" y="24" font-family="Virgil, Segoe UI Emoji" font-size="28px" fill="#FFFFFF" text-anchor="start" style="white-space: pre;" direction="ltr">2. Docker Push Image</text></g><g transform="translate(549.0070197695775 383.1713409423828) rotate(0 122.5 17.5)"><text x="0" y="24" font-family="Virgil, Segoe UI Emoji" font-size="28px" fill="#FFFFFF" text-anchor="start" style="white-space: pre;" direction="ltr">3. Webhook Notify</text></g><g transform="translate(797.6949470156712 250.03367614746094) rotate(0 107.5 17.5)"><text x="0" y="24" font-family="Virgil, Segoe UI Emoji" font-size="28px" fill="#FFFFFF" text-anchor="start" style="white-space: pre;" direction="ltr">4. Redeploy App</text></g><g transform="translate(619.8786018008275 84.98783874511719) rotate(0 144.5 17.5)"><text x="0" y="24" font-family="Virgil, Segoe UI Emoji" font-size="28px" fill="#FFFFFF" text-anchor="start" style="white-space: pre;" direction="ltr">5. Docker Pull Image</text></g><g transform="translate(1103.795960199265 163.0612335205078) rotate(0 75.5 17.5)"><text x="0" y="24" font-family="Virgil, Segoe UI Emoji" font-size="28px" fill="#FFFFFF" text-anchor="start" style="white-space: pre;" direction="ltr">6. Restart</text></g></svg>
