<svg version="1.1" xmlns="http://www.w3.org/2000/svg" viewBox="0 0 890.3113490215129 403.66356658935547" width="890.3113490215129" height="403.66356658935547">
  <!-- svg-source:excalidraw -->

  <defs>
    <style>
      @font-face {
        font-family: "Virgil";
        src: url("https://excalidraw.com/Virgil.woff2");
      }
      @font-face {
        font-family: "Cascadia";
        src: url("https://excalidraw.com/Cascadia.woff2");
      }
    </style>
  </defs>
  <rect x="0" y="0" width="890.3113490215129" height="403.66356658935547" fill="#111111"></rect><g stroke-linecap="round" transform="translate(253.98186905318425 10) rotate(0 188.3990953806345 105.51160430908203)"><path d="M-0.82 -1.48 C116.56 1.14, 235.38 5.46, 375.43 0.28 M0.22 -0.29 C105.69 -3.62, 211.72 -2.53, 377.09 0.8 M376.53 2.8 C376.72 64.3, 373.19 133.46, 376.02 212.58 M376.87 0.41 C375.32 74.48, 376.98 145.56, 375.48 211.82 M376.53 210.15 C262.76 215.53, 154.73 215.44, 1.9 213.41 M377.37 210.2 C252.61 210.98, 126.83 211.36, -0.61 212.12 M2.01 213.09 C1.73 157.02, 1.64 102.49, 0.87 0.4 M0.9 212.71 C0.78 136.06, -0.21 61.29, 0.53 0.76" stroke="#FFFFFF" stroke-width="1" fill="none"></path></g><g stroke-linecap="round" transform="translate(420.10768312156915 49.37157407779341) rotate(0 22.10333573919189 20.379216135654588)"><path d="M19.09 -0.68 C23.79 -2.04, 28.6 -0.44, 32.69 2.02 C36.77 4.48, 41.8 10.06, 43.6 14.09 C45.41 18.11, 45.31 22.39, 43.49 26.17 C41.67 29.96, 37.05 34.25, 32.69 36.81 C28.33 39.37, 21.75 41.78, 17.33 41.54 C12.91 41.3, 9 39.04, 6.18 35.35 C3.36 31.66, 0.51 24.02, 0.39 19.42 C0.28 14.81, 1.58 10.64, 5.49 7.7 C9.4 4.75, 20.57 2.92, 23.86 1.75 C27.16 0.58, 25.63 0.69, 25.26 0.66 M31.43 2.08 C35.49 3.46, 40.65 6.24, 42.89 10.42 C45.14 14.6, 46.74 23.05, 44.9 27.13 C43.06 31.21, 35.78 32.65, 31.86 34.9 C27.95 37.14, 25.96 40.21, 21.41 40.59 C16.87 40.97, 8.2 40.47, 4.59 37.19 C0.98 33.92, 0.24 25.57, -0.26 20.96 C-0.76 16.34, -1.62 12.75, 1.59 9.5 C4.81 6.25, 13.62 2.22, 19.01 1.45 C24.39 0.69, 31.69 5.06, 33.91 4.92 C36.12 4.78, 32.79 0.55, 32.3 0.6" stroke="#FFFFFF" stroke-width="2" fill="none"></path></g><g stroke-linecap="round"><g transform="translate(439.154263189811 72.01691504481732) rotate(0 4.5362648131626315 -7.59251351169587)"><path d="M-0.73 -0.25 C0.71 -2.37, 5.95 -10.77, 7.71 -13.13 M1.08 -1.43 C2.95 -3.87, 8.39 -12.93, 9.81 -14.93" stroke="#FFFFFF" stroke-width="1" fill="none"></path></g></g><g stroke-linecap="round"><g transform="translate(439.5732532173522 73.40743735113301) rotate(359.9680418032372 4.9434460781037615 -0.3378460877283942)"><path d="M-0.25 -1.17 C1.5 -1.03, 8.62 0.04, 10.14 0.12 M1.82 0.82 C3.5 0.71, 8.53 -1.48, 9.52 -1.5" stroke="#FFFFFF" stroke-width="1" fill="none"></path></g></g><g stroke-linecap="round"><g transform="translate(264.2220334029496 30.91103237722473) rotate(0 11.139679841780378 -0.31907293107087753)"><path d="M-1.17 0.62 C2.86 0.45, 19.49 -1.02, 23.45 -1.26 M0.41 -0.1 C4.43 -0.1, 19.42 -0.16, 23.01 -0.08" stroke="#ff0000" stroke-width="1" fill="none"></path></g></g><g stroke-linecap="round"><g transform="translate(264.62138598057436 39.33922559094208) rotate(0 11.824515408751836 0.4266731414741116)"><path d="M0.62 0.96 C4.3 1.09, 18.2 -0.28, 21.81 -0.44 M-0.52 0.42 C3.58 0.87, 20.51 1.57, 24.16 1.17" stroke="#ff0000" stroke-width="1" fill="none"></path></g></g><g stroke-linecap="round"><g transform="translate(265.36936031042364 47.18267437106533) rotate(0 11.32002028194188 0.3464395143155343)"><path d="M0.96 -0.68 C4.93 -0.91, 18.94 -0.94, 22.63 -0.79 M0.01 1.58 C3.94 1.47, 17.98 1.18, 21.75 0.64" stroke="#ff0000" stroke-width="1" fill="none"></path></g></g><g transform="translate(463.28264941430587 132.06696481983363) rotate(0 -12.977085498616475 10.437233273511538)" stroke="none" fill="#FFFFFF"><path d="M -16.69781954031459 -3.037970514357464 Q -16.69781954031459 -3.037970514357464 -18.017304004287688 -2.9497305107578393 -19.33678846826079 -2.8614905071582153 -18.017304004287688 -2.9497305107578393 -16.69781954031459 -3.037970514357464 -18.017304004287688 -2.9497305107578393 -19.33678846826079 -2.8614905071582153 -21.098301119790523 -2.805685401347905 -22.85981377132026 -2.749880295537595 -24.475332114227086 -2.34238217393297 -26.090850457133918 -1.9348840523283446 -27.309212278674334 -0.8295858165944958 -28.52757410021475 0.27571241913935296 -29.657400355916387 1.9077027178565555 -30.78722661161802 3.539693016573758 -31.43568285924912 5.493710697635707 -32.08413910688022 7.447728378697655 -32.11706537125707 9.430669651855688 -32.14999163563391 11.41361092501372 -31.319359650062996 13.782677599349835 -30.48872766449208 16.151744273685953 -29.423386471426788 17.86108333670822 -28.358045278361494 19.570422399730482 -27.184631739205308 20.62933397900066 -26.011218200049125 21.688245558270836 -24.59366598864004 22.50402121440843 -23.176113777230952 23.31979687054602 -21.534841667454273 23.872673490191776 -19.893569557677598 24.42555010983753 -17.863536415969573 24.940051705266924 -15.833503274261549 25.454553300696315 -13.648122884657383 25.677459890928898 -11.462742495053218 25.90036648116148 -9.119603873127772 25.900676969200497 -6.776465251202326 25.900987457239513 -5.023693659255125 25.828696307324428 -3.2709220673079247 25.75640515740934 -1.116054053564866 25.13737712155545 1.0388139601781925 24.51834908570156 2.6967934613795226 22.9060182585351 4.354772962580853 21.293687431368635 4.9823671795926225 19.59801254777999 5.609961396604392 17.902337664191347 5.874690000269526 15.882062750455804 6.139418603934659 13.86178783672026 6.00285106823344 11.896877581542977 5.86628353253222 9.931967326365692 5.057509279315969 7.597778747947441 4.248735026099718 5.263590169529189 3.2826556093962296 3.31575127253728 2.3165761926927413 1.3679123755453713 0.7534920102866896 -0.5278881348281792 -0.8095921721193622 -2.4236886452017297 -2.7195948957044846 -3.6393468673181935 -4.629597619289608 -4.855005089434657 -6.531059803509519 -4.956689741936384 -8.432521987729432 -5.058374394438111 -10.249272990770118 -4.981092518753481 -12.066023993810804 -4.903810643068851 -12.655330246987477 -3.626878310071031 -13.24463650016415 -2.3499459770732116 -13.811956257435188 -1.9311580934047372 -14.379276014706226 -1.512370209736263 -15.051544716290401 -1.7251841927540976 -15.723813417874577 -1.9379981757719325 -15.946792917341515 -2.6069639008394154 -16.169772416808453 -3.2759296259068984 -15.759631837924726 -3.8495320178566783 -15.349491259040997 -4.423134409806458 -14.644362592304953 -4.42847873807451 -13.939233925568908 -4.433823066342563 -13.520446041900435 -3.866503309071525 -13.10165815823196 -3.2991835518004873 -13.314472141249794 -2.6269148502163113 -13.52728612426763 -1.9546461486321356 -14.19625184933511 -1.731666649165197 -14.865217574402593 -1.5086871496982586 -15.438819966352373 -1.918827728581987 -16.012422358302153 -2.3289683074657153 -16.017766686570205 -3.0340969742017587 -16.02311101483826 -3.739225640937802 -16.07432823396323 -5.730997247001574 -16.125545453088197 -7.722768853065346 -14.116590006765973 -8.114162026537047 -12.10763456044375 -8.505555200008747 -10.269964923878097 -8.586321672346445 -8.432295287312446 -8.667088144684143 -6.482611600877927 -8.600911566443207 -4.532927914443408 -8.53473498820227 -2.5202606258676923 -7.4875356063635365 -0.5075933372919761 -6.440336224524802 1.309045012629179 -4.7250599996186455 3.125683362550334 -3.0097837747124885 4.273119616460535 -1.581589232964658 5.420555870370736 -0.15339469121682747 6.351616321619514 1.8585244346896528 7.282676772868292 3.870443560596133 8.148130733098569 6.365836678204176 9.013584693328845 8.86122979581222 9.236852411149538 11.23933913441521 9.46012012897023 13.6174484730182 9.24379940505069 15.98776174757218 9.02747868113115 18.358075022126158 8.603823887025412 20.097264422668147 8.180169092919673 21.83645382321013 6.9162071828038325 23.600063732411733 5.652245272687993 25.36367364161333 4.221248510416307 26.577260460381083 2.79025174814462 27.790847279148835 1.229086622778694 28.29869502702575 -0.3320785025872318 28.806542774902667 -1.945830989724747 29.116810435087576 -3.559583476862262 29.427078095272485 -5.166351646532079 29.5002567544367 -6.773119816201896 29.573435413600908 -9.122262171192459 29.57288790422508 -11.471404526183022 29.572340394849252 -13.989196787037617 29.308385300045074 -16.506989047892212 29.044430205240893 -18.750377624000905 28.475144779256727 -20.9937662001096 27.90585935327256 -22.99014582273623 27.1801030581882 -24.986525445362865 26.454346763103846 -27.19976307377585 24.935898798622862 -29.41300070218883 23.417450834141878 -30.931066125021665 21.756414137808555 -32.4491315478545 20.095377441475236 -33.27529526728935 18.58433661288067 -34.10145898672421 17.073295784286106 -34.892220636858625 14.481234933211283 -35.68298228699303 11.889174082136458 -35.82628337241387 10.001765119176891 -35.9695844578347 8.114356156217324 -35.49570224999323 6.203044198436547 -35.02182004215177 4.2917322406557705 -34.29069924824234 2.7257849836042682 -33.559578454332915 1.1598377265527664 -32.243663529726454 -0.5001233359569721 -30.92774860511999 -2.1600843984667106 -29.193321173304597 -3.5900046926514646 -27.458893741489202 -5.019924986836219 -25.29246939913223 -5.564957981964964 -23.12604505677526 -6.109990977093709 -21.231339478993256 -6.1803183437780715 -19.33663390121125 -6.250645710462434 -17.659838711825756 -6.022053898078924 -15.983043522440262 -5.793462085695413 -14.82057547020528 -5.317102308384454 -13.6581074179703 -4.840742531073495 -13.134334373425698 -4.284106008721085 -12.610561328881097 -3.7274694863686744 -12.490783967053341 -3.194720292634226 -12.371006605225585 -2.6619710988997776 -12.587246803213347 -2.1605645805882037 -12.80348700120111 -1.6591580622766295 -13.273148353107075 -1.3806144672022043 -13.742809705013038 -1.102070872127779 -14.286497537611346 -1.1527843862603453 -14.830185370209657 -1.2034979003929116 -15.764002455262123 -2.120734207375188 Z"></path></g><g transform="translate(474.0687646140417 160.2079026760366) rotate(0 -52.308165011411575 25.257908373323062)" stroke="none" fill="#FFFFFF"><path d="M NaN NaN Q NaN NaN NaN NaN -29.108837332350696 -2.3997086301221238 NaN NaN NaN NaN NaN NaN -29.108837332350696 -2.3997086301221238 -28.786981686534798 -1.970961944965294 -28.4651260407189 -1.5422152598084642 -28.456750332022786 -1.0061699032570088 -28.448374623326668 -0.4701245467055535 -28.75667808779238 -0.031531625450572975 -29.064981552258093 0.40706129580440753 -29.258247506162103 0.4533188837482022 -29.451513460066113 0.49957647169199676 -30.20692431181361 0.9718637847665732 -30.9623351635611 1.4441510978411496 -31.902742569400903 2.8599703861548553 -32.843149975240706 4.2757896744685615 -34.438706812351626 5.939835767923311 -36.034263649462545 7.603881861378062 -37.66092875956349 9.432819015022062 -39.28759386966444 11.261756168666063 -41.42439068383882 13.434771077964777 -43.56118749801321 15.607785987263492 -45.34582671220651 17.390627879788404 -47.13046592639981 19.173469772313318 -48.87753332252282 20.85334878350925 -50.62460071864584 22.533227794705184 -52.339727473077744 23.982524763627843 -54.054854227509644 25.431821732550503 -55.51652409647575 26.66852879271766 -56.97819396544186 27.905235852884815 -58.365326476420734 29.271032680574844 -59.75245898739961 30.636829508264874 -61.101786016954705 32.107191020105844 -62.4511130465098 33.57755253194682 -63.6124233032772 35.24937945913105 -64.77373356004459 36.921206386315276 -65.99785262869594 38.798262944115535 -67.22197169734729 40.675319501915794 -67.90737181026692 42.14777408760981 -68.59277192318656 43.62022867330383 -69.36501918173263 45.04295861061764 -70.1372664402787 46.46568854793145 -70.85795205515868 48.002006607949255 -71.57863767003865 49.53832466796705 -72.28405743690729 50.518770916815654 -72.98947720377592 51.49921716566426 -73.3040455093174 52.11358176042432 -73.6186138148589 52.72794635518437 -74.30054382359799 52.83456969844018 -74.98247383233708 52.941193041695975 -75.4695623312606 52.45217170436768 -75.95665083018413 51.96315036703938 -75.8473276939021 51.28164796350775 -75.73800455762007 50.60014555997611 -75.12239900421469 50.28801277290887 -74.50679345080928 49.97587998584164 -73.89242885604924 50.29044829138313 -73.27806426128917 50.60501659692462 -73.17144091803337 51.28694660566371 -73.06481757477756 51.968876614402795 -73.55383891210586 52.45596511332632 -74.04286024943416 52.94305361224985 -74.7243626529658 52.833730475967826 -75.40586505649742 52.7244073396858 -75.71799784356466 52.108801786280395 -76.0301306306319 51.49319623287499 -75.36555890673482 49.56970480403723 -74.70098718283774 47.64621337519946 -74.01199212965972 46.13790957264225 -73.3229970764817 44.62960577008504 -72.57674943435252 43.24918390334954 -71.83050179222334 41.86876203661404 -71.04108734678795 40.26875608980582 -70.25167290135253 38.668750142997595 -69.00782373449172 36.77597717641721 -67.76397456763092 34.88320420983682 -66.43813115101159 33.02324685169817 -65.11228773439227 31.163289493559517 -63.7044174433026 29.62501125131566 -62.29654715221294 28.0867330090718 -60.799500803154274 26.62268171667444 -59.30245445409562 25.158630424277078 -57.82645018194658 23.907334485114575 -56.35044590979755 22.656038545952068 -54.731696749167455 21.293781333883626 -53.11294758853737 19.931524121815183 -51.39836066217746 18.275881425831006 -49.68377373581755 16.62023872984683 -47.902263792646316 14.83609560433002 -46.12075384947508 13.051952478813211 -44.05872450390398 10.97264614502674 -41.996695158332884 8.893339811240267 -40.30898756160116 7.011715139331001 -38.62127996486944 5.130090467421735 -36.99422240116692 3.444553687123681 -35.367164837464415 1.759016906825627 -34.29197367191041 0.704171546106922 -33.21678250635641 -0.35067381461178293 -32.18460100683225 -1.2993639694729824 -31.152419507308096 -2.248054124334182 -30.31841237503273 -2.3661560865238 -29.48440524275736 -2.4842580487134174 -29.29662128755403 -2.441983339417771 -29.108837332350696 -2.3997086301221238 -28.786981686534798 -1.970961944965294 -28.4651260407189 -1.5422152598084642 -28.456750332022786 -1.006169903257009 -28.448374623326668 -0.4701245467055538 -28.75667808779238 -0.03153162545057314 -29.064981552258093 0.40706129580440753 NaN NaN NaN NaN NaN NaN NaN NaN NaN NaN NaN NaN NaN NaN NaN NaN NaN NaN NaN NaN NaN NaN NaN NaN NaN NaN Z"></path></g><g transform="translate(468.07071818887096 158.65084457345984) rotate(0 -44.29178777622798 30.563295123073203)" stroke="none" fill="#FFFFFF"><path d="M -26.680902618246172 2.2573038230964717 Q -26.680902618246172 2.2573038230964717 -27.601198075487375 3.4974555473561626 -28.52149353272858 4.737607271615854 -27.601198075487375 3.4974555473561626 -26.680902618246172 2.2573038230964717 -27.601198075487375 3.4974555473561626 -28.52149353272858 4.737607271615854 -30.051077341185803 6.331843932755358 -31.580661149643028 7.926080593894864 -32.94379981901848 9.481303622311128 -34.306938488393925 11.036526650727392 -36.20987081787809 13.142462638146265 -38.11280314736226 15.248398625565137 -40.06189435520656 17.83332880580882 -42.01098556305087 20.418258986052503 -44.51581621028792 23.340869338028483 -47.02064685752498 26.26347969000446 -48.486134517875925 28.21680471197074 -49.95162217822686 30.170129733937024 -51.06170013740986 31.721751100428897 -52.17177809659286 33.27337246692077 -52.99361628385653 34.808378904248485 -53.815454471120205 36.343385341576194 -54.62318297680582 37.872937183151734 -55.43091148249144 39.402489024727274 -55.99702082726418 40.90743281923607 -56.56313017203692 42.41237661374487 -57.271224320554566 44.04207228781721 -57.97931846907221 45.67176796188956 -58.65716301760405 47.64146978469529 -59.33500756613589 49.611171607501014 -59.62722835387514 51.33078002494656 -59.91944914161439 53.050388442392105 -60.3814935145072 54.6304690594219 -60.843537887400004 56.2105496764517 -61.39700690884591 56.418806677711075 -61.95047593029181 56.62706367897046 -60.5522367381333 57.38712553232635 -59.153997545974796 58.147187385682244 -58.508592715727815 59.63109102057442 -57.86318788548084 61.11499465546659 -58.61018674063253 61.66088350431927 -59.35718559578422 62.20677235317195 -60.026939116016536 61.86551589601065 -60.69669263624885 61.524259438849356 -60.81428160482869 60.78183194616998 -60.93187057340854 60.039404453490604 -60.40035117630326 59.50788504846507 -59.868831779197976 58.97636564343954 -59.126404284766394 59.093954600956366 -58.383976790334806 59.21154355847319 -58.04272032319341 59.88129707362039 -57.701463856052015 60.55105058876758 -58.04272031321331 61.22080410899989 -58.38397677037461 61.890557629232205 -59.126404263053985 62.00814659781205 -59.86883175573336 62.125735566391896 -60.40035116075889 61.59421616928662 -60.93187056578442 61.06269677218134 -60.8142816082676 60.32026927774975 -60.69669265075078 59.57784178331816 -60.026939135603584 59.23658531617677 -59.357185620456384 58.89532884903537 -60.64059841149984 59.37403318021995 -61.924011202543284 59.852737511404534 -62.85199030468517 58.49174294833232 -63.77996940682705 57.13074838526011 -63.88099395362128 55.38360741844289 -63.982018500415506 53.63646645162568 -63.56575061425584 51.76043326681433 -63.149482728096174 49.88440008200298 -62.6995458094775 48.17293893922829 -62.24960889085882 46.46147779645359 -61.283676813630194 44.11962257877998 -60.317744736401565 41.77776736110636 -59.508513022593476 39.72758302561367 -58.69928130878539 37.67739869012097 -57.90229423662204 36.14395288721471 -57.105307164458694 34.61050708430845 -56.14188887010394 32.86425663116563 -55.17847057574919 31.118006178022803 -54.049493667144375 29.548094580864547 -52.92051675853957 27.97818298370629 -51.360484176461895 25.931486903449326 -49.80045159438423 23.884790823192358 -47.38591746252727 21.079071074651523 -44.97138333067031 18.273351326110692 -42.90407341869616 15.526370065833941 -40.836763506722015 12.779388805557188 -38.990540824617035 10.70423787205402 -37.144318142512056 8.629086938550849 -35.71540624686074 6.996083139826321 -34.28649435120943 5.363079341101793 -32.719622469194945 3.734714661652085 -31.152750587180464 2.106349982202377 -29.95783235961001 0.9061783063650923 -28.76291413203955 -0.29399336947219246 -27.790440421699685 -0.8893942516096265 -26.817966711359816 -1.4847951337470606 -26.362488135578445 -1.6779223060844135 -25.90700955979708 -1.8710494784217662 -25.35057768681763 -1.7125212150284388 -24.79414581383818 -1.5539929516351114 -24.43716354768006 -1.0986784436183634 -24.08018128152194 -0.6433639356016154 -24.05900371447659 -0.06517784945290805 -24.037826147431236 0.5130082366957993 -24.360542390310947 0.9932184678899342 -24.683258633190654 1.473428699084069 -25.682080625718413 1.8653662610902704 Z"></path></g><g transform="translate(462.4155487757747 158.65084457345984) rotate(0 11.244985941508162 30.274962150214378)" stroke="none" fill="#FFFFFF"><path d="M 1.8280602028654025 -1.3078940855296253 Q 1.8280602028654025 -1.3078940855296253 3.482265470061857 -0.2986303430082234 5.136470737258311 0.7106333995131785 3.482265470061857 -0.2986303430082234 1.8280602028654025 -1.3078940855296253 3.482265470061857 -0.2986303430082234 5.136470737258311 0.7106333995131785 6.837582136676266 2.432681351724152 8.538693536094222 4.154729303935126 10.145436976394166 6.61509335656313 11.752180416694111 9.075457409191134 13.20258523440694 11.0637949602161 14.652990052119765 13.052132511241064 16.295589957234192 15.952350239434587 17.938189862348615 18.85256796762811 19.18623874430073 22.18177468998038 20.434287626252846 25.510981412332647 21.431864065881182 29.498241551856974 22.42944050550952 33.4855016913813 22.8203603530962 36.41032560478137 23.21128020068288 39.33514951818144 23.501273512821786 41.478089730487206 23.791266824960694 43.62102994279297 24.02261470890883 45.720485203205214 24.253962592856965 47.81994046361745 24.217884949370262 49.60923106611033 24.18180730588356 51.398521668603216 23.785219290946507 53.660664231237774 23.38863127600946 55.922806793872326 22.588715571903663 57.362974173138056 21.788799867797863 58.80314155240378 21.188927740704536 59.74280796103884 20.589055613611205 60.682474369673905 20.78272125196912 59.894431255732144 20.976386890327042 59.10638814179039 20.600492935170585 58.81498266950646 20.22459898001413 58.52357719722254 20.758004297040674 58.98353652989678 21.29140961406722 59.44349586257102 20.955039793338777 60.12996489677824 20.618669972610334 60.81643393098546 19.865591637884094 60.94780140408376 19.112513303157854 61.07916887718206 18.563586445940178 60.547131569611054 18.014659588722502 60.015094262040044 18.12243570092913 59.25827942282248 18.23021181313576 58.50146458360492 18.905837088962386 58.14381268875957 19.58146236478901 57.786160793914206 20.267931398996232 58.12253061464265 20.954400433203457 58.45890043537109 21.085767906301754 59.21197877009733 21.21713537940005 59.96505710482357 20.685098071829046 60.51398396204125 20.153060764258043 61.062910819258924 19.396245925040482 60.955134707052295 18.639431085822917 60.847358594845666 18.28177919097756 60.17173331901904 17.9241272961322 59.49610804319242 18.598320197562646 60.45867465257656 19.272513098993095 61.421241261960695 18.754705258758293 60.69790388033759 18.236897418523487 59.974566498714495 18.86317143234585 59.02890657856086 19.48944544616821 58.08324665840722 19.217802151093576 57.81298810912854 18.94615885601894 57.54272955984985 19.3597972082434 56.567062638766494 19.773435560467863 55.591395717683135 20.15716027063643 54.044707219909384 20.540884980805 52.49801872213564 20.579375617539956 50.5235574401643 20.61786625427491 48.54909615819297 20.397504275646906 46.334044017879464 20.1771422970189 44.11899187756597 19.887921876710635 41.93191349659324 19.598701456402374 39.74483511562051 19.249897007627943 37.013963006117606 18.901092558853513 34.283090896614695 17.96875725669286 30.522862727854825 17.03642195453221 26.762634559094955 15.869967962844683 23.69781097972181 14.70351397115716 20.632987400348668 13.192740714404511 17.98142782097208 11.681967457651865 15.329868241595493 10.122074702278638 13.194019050618486 8.562181946905413 11.058169859641481 7.232976851042318 8.926091510978292 5.903771755179223 6.794013162315104 4.3814459564695145 5.239384073945805 2.859120157759806 3.6847549855765065 2.0647565562277084 2.874761562430743 1.270392954695611 2.06476813928498 0.4957796653053576 1.8755496258461413 -0.27883362408489576 1.6863311124073026 -0.7478076614638527 1.4433536742038275 -1.2167816988428095 1.2003762360003527 -1.4533711101872089 0.7281473363646428 -1.6899605215316085 0.2559184367289329 -1.60379619308622 -0.2651865351481335 -1.5176318646408316 -0.7862915070251999 -1.1416256412539845 -1.1572281635931412 -0.7656194178671372 -1.5281648201610825 0.5312203924991327 -1.4180294528453539 Z"></path></g><g transform="translate(443.79290172670505 202.76909212369537) rotate(0 -42.21561022421736 -38.06325512019612)" stroke="none" fill="#FFFFFF"><path d="M -61.471423484527556 -53.10702025060367 Q -61.471423484527556 -53.10702025060367 -61.38210309911028 -53.619802525439496 -61.292782713693 -54.132584800275325 -61.38210309911028 -53.619802525439496 -61.471423484527556 -53.10702025060367 -61.38210309911028 -53.619802525439496 -61.292782713693 -54.132584800275325 -60.919115145160816 -54.4949331697544 -60.54544757662863 -54.85728153923347 -60.03016113566731 -54.93079124198289 -59.51487469470599 -55.00430094473231 -59.1193370054933 -55.18936701652798 -58.72379931628061 -55.374433088323656 -58.1069449925468 -55.06013016029209 -57.49009066881298 -54.74582723226053 -57.38178920466874 -54.062038975456915 -57.2734877405245 -53.378250718653305 -57.763026057406975 -52.88871234060498 -58.252564374289456 -52.39917396255666 -58.9363526446249 -52.50747534126431 -59.62014091496034 -52.615776719971954 -59.93444392006536 -53.23263100443488 -60.24874692517039 -53.849485288897796 -59.93444399713883 -54.46633961263161 -59.62014106910726 -55.08319393636542 -58.93635281230365 -55.191495400509666 -58.25256455550004 -55.299796864653906 -57.763026177451714 -54.81025854777143 -57.27348779940339 -54.32072023088896 -57.381789178111035 -53.63693196055351 -57.490090556818686 -52.95314369021807 -58.1069448412816 -52.638840685113045 -58.72379912574453 -52.32453768000802 -60.09761130513604 -52.715778965305844 -61.471423484527556 -53.10702025060367 -61.38210309911028 -53.619802525439496 -61.292782713693 -54.132584800275325 -60.919115145160816 -54.4949331697544 -60.54544757662863 -54.85728153923347 -60.03016113566731 -54.93079124198289 -59.51487469470599 -55.00430094473231 -41.58194958980118 -39.07894145236874 -23.649024484896366 -23.15358196000517 -23.4636429741624 -22.775487236623448 -23.278261463428436 -22.39739251324173 -23.350523173175134 -21.982542938485302 -23.42278488292183 -21.567693363728875 -23.72508829611113 -21.27454737493625 -24.02739170930043 -20.981401386143627 -24.444267197009125 -20.9219307873679 -24.861142684717823 -20.862460188592166 -43.16628308462269 -36.98474021959792 Z"></path></g><g transform="translate(481.44552498448036 200.28888811483102) rotate(0 17.876644317269324 -31.83472246416386)" stroke="none" fill="#FFFFFF"><path d="M 0.7399903863618622 -20.715880670220493 Q 0.7399903863618622 -20.715880670220493 1.4129833700392203 -21.49366609925444 2.0859763537165783 -22.271451528288388 1.4129833700392203 -21.49366609925444 0.7399903863618622 -20.715880670220493 1.4129833700392203 -21.49366609925444 2.0859763537165783 -22.271451528288388 3.5724026761664147 -23.905127783047472 5.058828998616251 -25.538804037806557 7.216829165826048 -28.233018283424393 9.374829333035844 -30.927232529042225 11.961414177381776 -33.89652852217976 14.547999021727708 -36.865824515317286 17.97453274592013 -39.764966195397975 21.401066470112553 -42.664107875478656 24.675640803554206 -44.17080361254675 27.95021513699586 -45.677499349614834 32.04440774482606 -46.4828168854921 36.13860035265627 -47.28813442136936 36.7454594054363 -46.96575713142663 37.35231845821633 -46.64337984148389 37.653789128403304 -46.025868333875394 37.95525979859028 -45.4083568262669 37.83619053678399 -44.7315795084549 37.717121274977686 -44.0548021906429 37.33662590670329 -43.924791421779375 36.956130538428894 -43.794780652915854 34.949154462045094 -43.56122573103973 32.94217838566129 -43.3276708091636 32.22605071437839 -43.692559524743466 31.509923043095476 -44.05744824032333 31.38419493111659 -44.85128390227915 31.258466819137702 -45.64511956423497 31.826792230381077 -46.21344063833803 32.39511764162445 -46.78176171244109 33.18895234406716 -46.65602754233486 33.98278704650987 -46.530293372228634 34.347670296974115 -45.81416291633023 34.712553547438354 -45.098032460431824 34.34766483185849 -44.38190478914892 33.98277611627862 -43.66577711786601 33.188940454322804 -43.54004900588712 32.395104792366986 -43.41432089390823 31.826783718263925 -43.982646305151604 31.25846264416087 -44.55097171639498 31.384196814267092 -45.34480641883769 31.50993098437332 -46.1386411212804 32.22606144027172 -46.503524371744646 32.94219189617012 -46.868407622208885 34.54039612441319 -47.07827102178912 36.13860035265627 -47.28813442136936 36.7454594054363 -46.96575713142663 37.35231845821633 -46.64337984148389 37.653789128403304 -46.025868333875394 37.95525979859028 -45.4083568262669 37.83619053678399 -44.7315795084549 37.717121274977686 -44.0548021906429 35.62967897976566 -43.33305632774841 33.542236684553636 -42.611310464853915 31.453726118699464 -42.2565633780859 29.365215552845296 -41.90181629131789 26.62395462846604 -40.70455112509657 23.882693704086787 -39.50728595887525 20.732797805418272 -36.87438705961837 17.582901906749754 -34.2414881603615 15.054137750937421 -31.32225180335941 12.525373595125089 -28.403015446357323 10.233967354491956 -25.604028325667816 7.942561113858824 -22.80504120497831 6.224125331354349 -21.03589474353123 4.505689548849873 -19.26674828208415 2.909754221886042 -18.22527654545093 1.3138188949222105 -17.183804808817715 0.8003665746011923 -16.994586295378873 0.28691425428017414 -16.805367781940035 -0.25950914436707195 -16.889687414297445 -0.805932543014318 -16.974007046654854 -1.1984365222656477 -17.363402677423828 -1.5909405015169773 -17.752798308192805 -1.6796018820179661 -18.2985340414903 -1.768263262518955 -18.844269774787797 -1.5192164104077124 -19.337893109369517 -1.27016955829647 -19.831516443951237 -0.2650895859673039 -20.273698557085865 Z"></path></g><g stroke-linecap="round" transform="translate(559.29542765646 42.16432353834625) rotate(0 27.391632421622376 40.366616200285534)"><path d="M-1.15 -0.84 C18.45 1.11, 40.84 1.45, 55.16 -1.7 M0.88 -0.85 C18.56 -0.76, 37.15 0.01, 55.27 -0.17 M53.82 0.99 C55.73 22, 53.32 48.65, 54.73 79.54 M53.96 0.3 C55.53 31.18, 55.48 62.81, 55.09 80.16 M55.72 79.81 C36.96 80.07, 19.67 82.18, -0.95 80.5 M55.15 80.53 C36.52 80.5, 17.81 81.17, 0.54 80.76 M0.98 80.49 C-0.56 60.71, 0.18 42.11, 0.14 -1.96 M0.68 80.77 C0.43 62.5, 0.58 46.14, -0.43 0.34" stroke="#FFFFFF" stroke-width="2" fill="none"></path></g><g transform="translate(569.5024749448165 88.58623241438181) rotate(0 19.202915943280004 -1.4419651100033661)" stroke="none" fill="#FFFFFF"><path d="M 0.037348057586699346 1.0951918540518162 Q 0.037348057586699346 1.0951918540518162 -0.6360114742478211 1.2070878314905062 -1.3093710060823416 1.3189838089291963 -0.6360114742478211 1.2070878314905062 0.037348057586699346 1.0951918540518162 -0.6360114742478211 1.2070878314905062 -1.3093710060823416 1.3189838089291963 -1.9199011159901405 1.0137187539763974 -2.5304312258979396 0.7084536990235984 -2.8449301630494466 0.10262848709367517 -3.1594291002009536 -0.5031967248362481 -2.8239763750175038 -0.8264963915237352 -2.488523649834054 -1.1497960582112223 -1.1080740844677932 -2.402065201291185 0.2723754808984677 -3.654334344371147 1.7310360874192063 -4.678396869944092 3.189696693939945 -5.702459395517037 4.675382381327072 -6.281902080499682 6.161068068714199 -6.861344765482327 8.17096468926837 -6.709302962485142 10.18086130982254 -6.5572611594879575 12.313615876097927 -5.3630864898245285 14.446370442373313 -4.1689118201610995 16.08676243308513 -3.4934853606485246 17.727154423796947 -2.8180589011359496 19.500830151392755 -3.5815255688878795 21.274505878988563 -4.3449922366398095 22.79472860581398 -4.519697348437244 24.3149513326394 -4.694402460234678 25.846666671045636 -4.47939482770497 27.378382009451872 -4.264387195175262 29.049809811766206 -4.156357338945371 30.72123761408054 -4.0483274827154805 32.54559024303074 -3.228951917385219 34.36994287198094 -2.4095763520549576 35.27073896673056 -1.3987642175122814 36.17153506148019 -0.38795208296960515 36.90425799892654 -1.2441204583878995 37.636980936372886 -2.100288833806194 38.059703305049666 -2.776184803105709 38.48242567372644 -3.4520807724052234 39.277706973441624 -3.5073728750814617 40.07298827315681 -3.5626649777576995 40.58517514327319 -2.951768773500852 41.097362013389564 -2.340872569244005 40.904192491018875 -1.567428907480517 40.71102296864818 -0.7939852457170293 39.97175170564806 -0.4956438942465442 39.23248044264793 -0.19730254277605908 38.556584473348416 -0.6200249114528339 37.8806885040489 -1.0427472801296087 37.82539640137266 -1.838028579844794 37.770104298696424 -2.633309879559979 38.38100050295327 -3.145496749676356 38.99189670721012 -3.657683619792733 39.76534036897361 -3.4645140974220423 40.5387840307371 -3.2713445750513515 40.83712538220758 -2.5320733120512293 41.135466733678065 -1.792802049051107 38.750636688228624 0.8282909824268724 36.36580664277918 3.4493840139048517 34.584468385430156 3.3095495227091023 32.803130128081136 3.1697150315133524 31.52634756004852 2.0367555471847907 30.24956499201591 0.9037960628562292 27.319355916563765 0.3215649640462467 24.38914684111162 -0.2606661347637358 21.669574552544898 0.5376400099692314 18.950002263978174 1.3359461547021987 16.922922927909454 1.3592449307058168 14.89584359184073 1.3825437067094348 13.528217012587557 0.562073670278947 12.160590433334383 -0.258396366151541 10.91897875690909 -1.214724534453512 9.677367080483796 -2.171052702755483 7.857074414335706 -2.004996851266238 6.036781748187617 -1.8389409997769928 4.250231105133294 -0.8712612591272357 2.4636804620789716 0.0964184815225213 1.4467616808454358 0.5403836011278846 0.4298428996119001 0.984348720733248 0.2335954785992995 1.039770287392532 0.0373480575866989 1.0951918540518162 -0.6360114742478212 1.2070878314905065 -1.3093710060823414 1.3189838089291968 -1.9199011159901405 1.0137187539763977 -2.5304312258979396 0.7084536990235984 -2.8449301630494466 0.102628487093675 -3.1594291002009536 -0.5031967248362484 -2.580771945119583 -1.6605110350010825 -2.0021147900382124 -2.8178253451659168 -1.6146049540354805 -3.211263698480975 -1.2270951180327487 -3.604702051796033 -0.6823358134542633 -3.695227799146129 -0.13757650887577788 -3.785753546496225 0.35635272561723597 -3.5387889292506083 0.8502819601102498 -3.2918243120049913 1.1047169449786773 -2.801701419932879 1.359151929847105 -2.3115785278607675 0.6982499937169022 -0.6081933369044756 Z"></path></g><g transform="translate(569.0411421882412 69.0949234491045) rotate(0 19.202915943280004 -1.4419651100033661)" stroke="none" fill="#FFFFFF"><path d="M 0.037348057586699346 1.0951918540518162 Q 0.037348057586699346 1.0951918540518162 -0.6360114742478211 1.2070878314905062 -1.3093710060823416 1.3189838089291963 -0.6360114742478211 1.2070878314905062 0.037348057586699346 1.0951918540518162 -0.6360114742478211 1.2070878314905062 -1.3093710060823416 1.3189838089291963 -1.9199011159901405 1.0137187539763974 -2.5304312258979396 0.7084536990235984 -2.8449301630494466 0.10262848709367517 -3.1594291002009536 -0.5031967248362481 -2.8239763750175038 -0.8264963915237352 -2.488523649834054 -1.1497960582112223 -1.1080740844677932 -2.402065201291185 0.2723754808984677 -3.654334344371147 1.7310360874192063 -4.678396869944092 3.189696693939945 -5.702459395517037 4.675382381327072 -6.281902080499682 6.161068068714199 -6.861344765482327 8.17096468926837 -6.709302962485142 10.18086130982254 -6.5572611594879575 12.313615876097927 -5.3630864898245285 14.446370442373313 -4.1689118201610995 16.08676243308513 -3.4934853606485246 17.727154423796947 -2.8180589011359496 19.500830151392755 -3.5815255688878795 21.274505878988563 -4.3449922366398095 22.79472860581398 -4.519697348437244 24.3149513326394 -4.694402460234678 25.846666671045636 -4.47939482770497 27.378382009451872 -4.264387195175262 29.049809811766206 -4.156357338945371 30.72123761408054 -4.0483274827154805 32.54559024303074 -3.228951917385219 34.36994287198094 -2.4095763520549576 35.27073896673056 -1.3987642175122814 36.17153506148019 -0.38795208296960515 36.90425799892654 -1.2441204583878995 37.636980936372886 -2.100288833806194 38.059703305049666 -2.776184803105709 38.48242567372644 -3.4520807724052234 39.277706973441624 -3.5073728750814617 40.07298827315681 -3.5626649777576995 40.58517514327319 -2.951768773500852 41.097362013389564 -2.340872569244005 40.904192491018875 -1.567428907480517 40.71102296864818 -0.7939852457170293 39.97175170564806 -0.4956438942465442 39.23248044264793 -0.19730254277605908 38.556584473348416 -0.6200249114528339 37.8806885040489 -1.0427472801296087 37.82539640137266 -1.838028579844794 37.770104298696424 -2.633309879559979 38.38100050295327 -3.145496749676356 38.99189670721012 -3.657683619792733 39.76534036897361 -3.4645140974220423 40.5387840307371 -3.2713445750513515 40.83712538220758 -2.5320733120512293 41.135466733678065 -1.792802049051107 38.750636688228624 0.8282909824268724 36.36580664277918 3.4493840139048517 34.584468385430156 3.3095495227091023 32.803130128081136 3.1697150315133524 31.52634756004852 2.0367555471847907 30.24956499201591 0.9037960628562292 27.319355916563765 0.3215649640462467 24.38914684111162 -0.2606661347637358 21.669574552544898 0.5376400099692314 18.950002263978174 1.3359461547021987 16.922922927909454 1.3592449307058168 14.89584359184073 1.3825437067094348 13.528217012587557 0.562073670278947 12.160590433334383 -0.258396366151541 10.91897875690909 -1.214724534453512 9.677367080483796 -2.171052702755483 7.857074414335706 -2.004996851266238 6.036781748187617 -1.8389409997769928 4.250231105133294 -0.8712612591272357 2.4636804620789716 0.0964184815225213 1.4467616808454358 0.5403836011278846 0.4298428996119001 0.984348720733248 0.2335954785992995 1.039770287392532 0.0373480575866989 1.0951918540518162 -0.6360114742478212 1.2070878314905065 -1.3093710060823414 1.3189838089291968 -1.9199011159901405 1.0137187539763977 -2.5304312258979396 0.7084536990235984 -2.8449301630494466 0.102628487093675 -3.1594291002009536 -0.5031967248362484 -2.580771945119583 -1.6605110350010825 -2.0021147900382124 -2.8178253451659168 -1.6146049540354805 -3.211263698480975 -1.2270951180327487 -3.604702051796033 -0.6823358134542633 -3.695227799146129 -0.13757650887577788 -3.785753546496225 0.35635272561723597 -3.5387889292506083 0.8502819601102498 -3.2918243120049913 1.1047169449786773 -2.801701419932879 1.359151929847105 -2.3115785278607675 0.6982499937169022 -0.6081933369044756 Z"></path></g><g transform="translate(566.2154190050813 108.36581430338174) rotate(0 19.029976208706103 -0.749905925999883)" stroke="none" fill="#FFFFFF"><path d="M 1.5936331027612403 0.6940166687019449 Q 1.5936331027612403 0.6940166687019449 1.10117339120954 1.051809592473508 0.6087136796578398 1.409602516245071 1.10117339120954 1.051809592473508 1.5936331027612403 0.6940166687019449 1.10117339120954 1.051809592473508 0.6087136796578398 1.409602516245071 -1.1102230246251565e-16 1.409602516245071 -0.6087136796578401 1.409602516245071 -1.10117339120954 1.051809592473508 -1.59363310276124 0.6940166687019451 -1.6507640161525226 0.48645993126255727 -1.707894929543805 0.2789031938231694 -1.5319190167778136 -0.7557211216340225 -1.355943104011822 -1.7903454370912144 0.17372269776887483 -3.2246650675091533 1.7033884995495716 -4.658984697927092 4.028280142416744 -4.640579458436868 6.353171785283916 -4.622174218946644 9.764356229207438 -3.0850475885257373 13.17554067313096 -1.5479209581048305 16.03023372273839 -2.6878161721272207 18.88492677234582 -3.8277113861496113 20.50580401660711 -4.566790295857341 22.126681260868402 -5.305869205565072 23.938435770532067 -5.536300743543927 25.75019028019573 -5.766732281522781 27.307412333116915 -5.890509718745552 28.864634386038098 -6.014287155968321 30.527250675151343 -5.8443578432457794 32.18986696426459 -5.6744285305232385 35.277014451777134 -5.834199443199618 38.36416193928969 -5.993970355875998 38.83404105309495 -5.367707561267884 39.30392016690022 -4.74144476665977 39.315952320540404 -3.9585995094220654 39.32798447418059 -3.175754252184361 38.87757379392299 -2.5353468126502143 38.4271631136654 -1.8949393731160682 38.318581975216425 -2.0826058953700564 38.21000083676745 -2.270272417624044 38.78401550329472 -2.519163578142589 39.35803016982199 -2.7680547386611343 39.74234208900464 -2.2210472401741472 40.126654008187295 -1.6740397416871604 40.11604594144286 -1.005608500984878 40.10543787469844 -0.33717726028259565 39.703961742968374 0.1973597078289719 39.3024856112383 0.7318966759405394 38.93374744479917 0.32127200001788303 38.56500927836003 -0.08935267590477336 37.45886407296486 -1.6799523690327938 36.352718867569685 -3.270552062160814 36.70504144514226 -3.960912563473868 37.057364022714836 -4.651273064786922 37.82296741566914 -4.772021833465773 38.58857080862344 -4.892770602144625 39.136268998018096 -4.344358791755379 39.683967187412755 -3.795946981366134 39.56222163132539 -3.0305014640276533 39.44047607523803 -2.2650559466891727 38.74965740104278 -1.913632584028535 38.058838726847526 -1.5622092213678975 37.368478225534474 -1.914531798940474 36.678117724221416 -2.2668543765130504 36.557368955542564 -3.0324577694673502 36.43662018686371 -3.7980611624216505 36.98503199725296 -4.345759351816308 37.5334438076422 -4.893457541210965 38.298889324980685 -4.771711985123604 39.06433484231917 -4.649966429036242 39.41575820497981 -3.959147754840992 39.76718156764044 -3.2683290806457417 39.56260586873121 -3.0181919096534378 39.35803016982199 -2.7680547386611343 39.74234208900464 -2.2210472401741477 40.126654008187295 -1.6740397416871606 40.11604594144286 -1.0056085009848783 40.10543787469844 -0.337177260282596 39.703961742968374 0.19735970782897183 39.3024856112383 0.7318966759405396 37.21424497220119 -0.7527050679777388 35.12600433316408 -2.2373068118960173 36.24522784986959 -3.7935055188408935 37.36445136657511 -5.34970422578577 37.8643066529324 -5.671837290830884 38.36416193928969 -5.993970355875998 38.83404105309495 -5.367707561267885 39.30392016690022 -4.741444766659771 39.315952320540404 -3.958599509422066 39.32798447418059 -3.175754252184361 38.87757379392299 -2.5353468126502143 38.4271631136654 -1.8949393731160677 35.60931155168274 -1.3027424666121283 32.79145998970007 -0.7105455601081889 31.172721463811424 -1.0241334706405447 29.553982937922775 -1.3377213811729005 27.134599686966418 -1.3539497377290581 24.715216436010056 -1.3701780942852158 23.019676322717892 -0.7956794742735168 21.32413620942573 -0.22118085426181783 17.9757431913026 1.590734237493055 14.627350173179464 3.402649329247928 11.916346638733089 3.08146385848852 9.205343104286714 2.7602783877291124 7.872449975739002 1.0162173627885218 6.539556847191291 -0.7278436621520687 4.792603831438861 -0.9386211419623411 3.04565081568643 -1.1493986217726135 2.376772872615118 -0.43524771397472206 1.707894929543805 0.2789031938231694 1.6507640161525226 0.48645993126255727 1.59363310276124 0.6940166687019451 1.10117339120954 1.051809592473508 0.6087136796578401 1.409602516245071 1.1102230246251565e-16 1.409602516245071 -0.6087136796578398 1.409602516245071 -1.10117339120954 1.051809592473508 -1.5936331027612403 0.6940166687019449 -1.5936331027612403 -0.4604440879377891 -1.5936331027612403 -1.6149048445775231 -1.4414546828467802 -2.0832618622615993 -1.2892762629323204 -2.5516188799456754 -0.8908679872420103 -2.8410794357439704 -0.4924597115517002 -3.130539991542265 1.1102230246251565e-16 -3.130539991542265 0.49245971155170043 -3.130539991542265 0.8908679872420103 -2.8410794357439704 1.2892762629323202 -2.551618879945676 1.4414546828467802 -0.9288011056218655 Z"></path></g><g stroke-linecap="round" transform="translate(796.5417480468749 40.91594696044922) rotate(0 34.09344482421875 14.35986328125)"><path d="M37.59 0.35 C44.57 0.59, 53.22 1.99, 58.24 4.34 C63.26 6.68, 67.05 11.38, 67.71 14.42 C68.37 17.46, 66.66 20.24, 62.18 22.58 C57.7 24.92, 47.97 27.74, 40.84 28.45 C33.71 29.17, 25.9 28.36, 19.39 26.86 C12.89 25.36, 4.67 22.27, 1.83 19.45 C-1 16.62, 0.01 12.67, 2.39 9.9 C4.77 7.14, 9.81 4.61, 16.1 2.85 C22.39 1.1, 35.47 -0.34, 40.14 -0.64 C44.8 -0.94, 43.93 0.67, 44.08 1.05 M46.06 -0.15 C52.68 0.56, 59.11 4.55, 62.88 7.26 C66.66 9.98, 69.79 13.26, 68.72 16.14 C67.65 19.02, 62.3 22.31, 56.48 24.56 C50.66 26.8, 41.17 29.57, 33.79 29.6 C26.41 29.63, 17.58 27.06, 12.2 24.74 C6.82 22.42, 2.59 18.78, 1.53 15.66 C0.47 12.55, 2.26 8.36, 5.84 6.04 C9.42 3.71, 16.26 2.53, 23.01 1.73 C29.77 0.93, 42.43 1.47, 46.37 1.22 C50.31 0.98, 46.84 -0.02, 46.66 0.26" stroke="#FFFFFF" stroke-width="1" fill="none"></path></g><g stroke-linecap="round"><g transform="translate(799.5327148437499 53.48613739013672) rotate(0 -5.635199424307757 37.866896712584094)"><path d="M-1.08 -0.65 C-3.13 11.91, -9.67 62.25, -11.46 75.03 M0.56 1.62 C-1.64 14.39, -9.7 64.33, -11.83 76.39" stroke="#FFFFFF" stroke-width="1" fill="none"></path></g></g><g stroke-linecap="round"><g transform="translate(863.5327148437499 54.08428192138672) rotate(0 8.13496149082664 36.796413183463756)"><path d="M-0.51 0.8 C1.8 13.04, 12.06 61.4, 14.58 73.42 M1.43 0.18 C4.04 12.1, 14.18 60.07, 16.78 71.84" stroke="#FFFFFF" stroke-width="1" fill="none"></path></g></g><g transform="translate(785.7663574218749 128.25249481201172) rotate(0 46.06072998046875 3.588775634765625)" stroke="none" fill="#FFFFFF"><path d="M 1.639937895687006 -2.245066661507904 Q 1.639937895687006 -2.245066661507904 4.012849139335753 -1.4571050070143081 6.3857603829845 -0.6691433525207123 4.012849139335753 -1.4571050070143081 1.639937895687006 -2.245066661507904 4.012849139335753 -1.4571050070143081 6.3857603829845 -0.6691433525207123 9.104518733056349 0.09603729767929597 11.823277083128199 0.8612179478793043 15.16426990125823 1.7559036709429392 18.505262719388263 2.650589394006574 23.397098005099764 3.8933270372629223 28.288933290811265 5.1360646805192705 32.20400168461876 5.620783797976535 36.119070078426255 6.105502915433799 40.33768460925644 6.395525454100586 44.55629914008662 6.685547992767371 50.94625220786317 6.755373920467505 57.33620527563972 6.825199848167641 61.690109922168176 6.843437393782908 66.04401456869664 6.861674939398177 69.75102795000328 6.810926103186595 73.45804133130993 6.760177266975012 75.88415615026189 6.406410971539991 78.31027096921385 6.05264467610497 79.86024831521047 5.201673063869899 81.41022566120708 4.350701451634828 83.0420841817795 3.2923828294622246 84.67394270235194 2.234064207289621 85.91168913545752 1.2785751928753095 87.14943556856309 0.32308617846099796 89.02347096883616 -1.489022388861668 90.89750636910925 -3.301130956184334 92.00228529791252 -3.3136368888870957 93.1070642267158 -3.3261428215898574 93.76655450019689 -2.4397086959694994 94.42604477367799 -1.5532745703491408 94.09654315843974 -0.49870282530953847 93.76704154320149 0.5558689197300639 92.72019888963321 0.9091582325469374 91.67335623606493 1.2624475453638109 90.77222050482689 0.6231922960568104 89.87108477358883 -0.016062953250190137 89.85857884088607 -1.1208418820534702 89.8460729081833 -2.2256208108567503 90.73250703380367 -2.8851110843378382 91.61894115942403 -3.5446013578189266 92.67351290446362 -3.2150997425806738 93.72808464950323 -2.8855981273424214 94.0813739623201 -1.8387554737741443 94.43466327513697 -0.7919128202058672 93.79540802582997 0.10922291103218118 93.15615277652297 1.0103586422702295 90.11733234874261 2.9996042811595105 87.07851192096224 4.988849920048791 85.0826782587618 6.1325589934454445 83.08684459656135 7.276268066842098 80.99502984684511 8.136761326768543 78.90321509712889 8.997254586694986 76.2108968990773 9.377180926902874 73.5185787010257 9.757107267110761 69.77520841013268 9.809372634371591 66.03183811923964 9.861638001632421 61.66788727618814 9.843323962699838 57.303936433136634 9.825009923767256 50.803729749624594 9.748629513275986 44.30352306611255 9.672249102784715 40.026989314444606 9.377446288685881 35.75045556277667 9.082643474587048 31.703943277763557 8.573886376294332 27.65743099275044 8.065129278001619 22.683931112007627 7.128395652008051 17.710431231264813 6.191662026014484 14.33767249490571 5.546059717976892 10.964913758546606 4.9004574099393 7.912802853552537 4.438995213078151 4.860691948558468 3.9775330162170013 2.9915873535841686 3.4477446935987808 1.122482758609869 2.9179563709805603 0.43187759503565015 2.749733943612396 -0.2587275685385686 2.581511516244232 -0.9927084831355601 2.2589609774559967 -1.7266893977325517 1.9364104386677612 -2.130901981369669 1.2440384141790304 -2.5351145650067854 0.5516663896902994 -2.455163349415059 -0.24606454000380673 -2.3752121338233323 -1.0437954696979128 -1.8416357659169313 -1.6421792033312976 -1.3080593980105302 -2.2405629369646825 0.16593924883823796 -2.2428147992362932 Z"></path></g><g transform="translate(818.0747070312499 134.22435760498047) rotate(0 1.1962890625 29.612152099609375)" stroke="none" fill="#FFFFFF"><path d="M 3.578566895626758 11.277053935816065 Q 3.578566895626758 11.277053935816065 3.618471807762944 19.190965277497384 3.65837671989913 27.104876619178704 3.618471807762944 19.190965277497384 3.578566895626758 11.277053935816065 3.618471807762944 19.190965277497384 3.65837671989913 27.104876619178704 3.465241079308268 33.5716693822293 3.272105438717406 40.038462145279894 3.054732303472461 43.292412901405555 2.837359168227516 46.546363657531224 2.8966079346563687 48.958208707301054 2.9558567010852217 51.37005375707089 3.387817522236955 55.01778906220137 3.8197783433886885 58.665524367331855 3.4908913383230953 59.2618254062962 3.1620043332575016 59.85812644526054 2.486271727723717 59.942548225563314 1.8105391221899323 60.02697000586608 1.3450548072036739 59.52991272177023 0.8795704922174152 59.032855437674385 1.008093466706426 58.36410777509943 1.136616441195437 57.695360112524476 1.7531885741525 57.40625736948708 2.3697607071095628 57.11715462644969 2.9660617460739034 57.446041631515286 3.562362785038244 57.77492863658088 3.6467845653410187 58.45066124211466 3.731206345643793 59.12639384764845 3.234149061547945 59.59187816263471 2.737091777452097 60.05736247762096 2.068344114877142 59.928839503131954 1.3995964523021875 59.800316528642945 1.110493709264794 59.18374439568588 0.8213909662274004 58.56717226272882 0.38943014507566687 54.919436957598336 -0.04253067607606664 51.271701652467854 -0.09937685650848091 48.814545295061436 -0.15622303694089518 46.35738893765501 0.059240837244091765 43.144748737927216 0.2747047114290787 39.932108538199415 0.467091913245443 33.54172326885178 0.6594791150618073 27.151337999504157 0.4470418030768996 19.524110453780082 0.23460449109199188 11.896882908056005 -0.7186883555876955 6.103398697087988 -1.671981202267383 0.3099144861199701 -1.6034027867951355 -0.21106266030450083 -1.534824371322888 -0.7320398067289717 -1.1731205843088137 -1.113209790627161 -0.8114167972947393 -1.4943797745253502 -0.2947461915186614 -1.5901486175393997 0.2219244142574165 -1.6859174605534493 0.6962112283770334 -1.459704719715245 1.1704980424966502 -1.2334919788770409 2.374532469061704 5.021780978469512 Z"></path></g><g transform="translate(840.8037109374999 134.82256317138672) rotate(0 -13.75701904296875 30.509307861328125)" stroke="none" fill="#FFFFFF"><path d="M 2.336461865516876 5.811268350337961 Q 2.336461865516876 5.811268350337961 1.8056253358983634 11.443000574416937 1.2747888062798511 17.074732798495912 1.8056253358983634 11.443000574416937 2.336461865516876 5.811268350337961 1.8056253358983634 11.443000574416937 1.2747888062798511 17.074732798495912 0.7392540978909214 23.354487257220583 0.20371938950199164 29.63424171594525 -0.49587178693412864 34.3242466172628 -1.195462963370249 39.01425151858035 -1.7685610716796614 41.669730400237256 -2.341659179989074 44.32520928189417 -2.9768642773035494 47.69705074439193 -3.612069374618025 51.068892206889686 -2.6898307867424123 52.981689029283864 -1.7675921988667993 54.89448585167804 -0.2203936606066177 56.07538582124563 1.326804877653564 57.256285790813216 0.6025560141282125 58.619453813208594 -0.12169284939713898 59.98262183560397 -2.0074507371989307 60.580711879074045 -3.8932086250007223 61.178801922544125 -6.037676678564644 61.3849278466553 -8.182144732128565 61.591053770766486 -11.109623068658234 61.85611452572016 -14.0371014051879 62.12117528067384 -16.134100616549816 62.51380515211107 -18.231099827911734 62.9064350235483 -20.748216346333006 63.070334113694756 -23.265332864754278 63.234233203841214 -25.258259375131406 62.925101731680215 -27.251185885508534 62.61597025951921 -28.995358706634164 60.80830494891129 -30.73953152775979 59.000639638303376 -30.313338754402 57.874350370052106 -29.88714598104421 56.748061101800836 -28.72544899563347 56.4308420766337 -27.563752010222732 56.11362305146657 -26.62428807226641 56.86699899023816 -25.684824134310087 57.620374929009756 -25.74211502413815 58.82324048666078 -25.799405913966215 60.026106044311796 -26.806219332185833 60.68678337609586 -27.813032750405455 61.34746070787992 -28.939322018656725 60.921267934522135 -30.065611286907995 60.495075161164344 -30.38283031207513 59.33337817575361 -30.700049337242262 58.171681190342866 -29.94667339847067 57.23221725238655 -29.193297459699075 56.29275331443022 -27.990431902048055 56.35004420425828 -26.787566344397035 56.40733509408634 -26.12688901261297 57.41414851230596 -25.46621168082891 58.42096193052558 -24.45885757475981 58.48511463114951 -23.451503468690717 58.549267331773436 -21.111095993234542 58.66445579447158 -18.770688517778368 58.77964425716972 -16.687051531474864 58.602547657479185 -14.603414545171358 58.42545105778865 -10.567688707060993 57.77167582943238 -6.531962868950628 57.11790060107612 -4.109390782601144 56.739125572910694 -1.6868186962516596 56.360350544745266 -2.0136220934395106 57.00675128964261 -2.3404254906273616 57.65315203453994 -3.5634727157415225 57.14617275714142 -4.786519940855683 56.6391934797429 -5.791520017244821 54.94789158195733 -6.7965200936339585 53.25658968417176 -6.839880888762099 51.609767449057685 -6.8832416838902395 49.962945213943605 -6.080342014127096 46.83979779431089 -5.277442344363953 43.716650374678174 -4.718523793890407 41.13580069920141 -4.159605243416861 38.55495102372464 -3.4713885737836447 33.96318539767937 -2.783171904150429 29.371419771634095 -2.25328455443389 23.19695894219653 -1.7233972047173511 17.02249811275897 -2.0299295351171134 11.416821698837458 -2.336461865516876 5.811145284915945 -2.336461865516876 2.9055418761024683 -2.336461865516876 -0.00006153271100828306 -2.1133315267044788 -0.6867245704072517 -1.8902011878920812 -1.373387608103495 -1.3060745449800095 -1.7977569525159307 -0.7219479020679379 -2.2221262969283666 0.00005852108576986925 -2.2221072822749552 0.7220649442394776 -2.222088267621544 1.3061692340858435 -1.7976881568536038 1.8902735239322095 -1.3732880460856638 2.1133676947245426 2.218990152126149 Z"></path></g><g transform="translate(796.5327148437499 54.08428192138672) rotate(0 -4.4813232421875 37.68218994140625)" stroke="none" fill="#FFFFFF"><path d="M 1.561722696686333 3.3934115414615835 Q 1.561722696686333 3.3934115414615835 -0.32436429467979855 9.460364071307627 -2.21045128604593 15.527316601153672 -0.32436429467979855 9.460364071307627 1.561722696686333 3.3934115414615835 -0.32436429467979855 9.460364071307627 -2.21045128604593 15.527316601153672 -2.892501411994816 21.44143765894201 -3.5745515379437016 27.35555871673035 -3.129124620661318 31.01432869567064 -2.6836977033789347 34.67309867461093 -2.2367823273590157 38.99651924297213 -1.789866951339097 43.31993981133333 -1.9579615979148022 48.4868754523673 -2.126056244490507 53.65381109340127 -3.1917888076927565 58.4782357962258 -4.257521370895006 63.302660499050326 -5.143995907399873 66.63319232622958 -6.03047044390474 69.96372415340883 -6.715232378818435 72.63614196021953 -7.39999431373213 75.30855976703023 -7.856135608850625 75.814204612805 -8.31227690396912 76.31984945857977 -8.989465303551247 76.24803398223682 -9.666653703133374 76.17621850589387 -10.006595116610713 75.58614950435762 -10.346536530088052 74.99608050282136 -10.0689732294768 74.3742282652884 -9.791409928865546 73.75237602775542 -9.125173286034375 73.61141388063777 -8.458936643203202 73.47045173352012 -7.953291797428434 73.92659302863862 -7.447646951653665 74.38273432375712 -7.519462427996615 75.05992272333924 -7.591277904339564 75.73711112292138 -8.181346905875822 76.07705253639871 -8.771415907412079 76.41699394987604 -9.393268144945045 76.1394306492648 -10.015120382478012 75.86186734865355 -10.156082529595658 75.19563070582237 -10.297044676713305 74.5293940629912 -9.61228274179961 71.8569762561805 -8.927520806885916 69.1845584493698 -8.054693157076766 65.91056410747483 -7.1818655072676165 62.63656976557984 -6.144532391620049 58.089734274529306 -5.107199275972482 53.542898783478776 -4.9380739317582965 48.58917353182501 -4.768948587544112 43.635448280171246 -5.216286793286507 39.32664336860181 -5.663624999028903 35.01783845703237 -6.103562018170774 31.063752658828225 -6.543499037312646 27.10966686062408 -5.832037867942928 20.964942934834692 -5.120576698573211 14.820219009045303 -4.124452004758679 8.988019021572622 -3.1283273109441456 3.15581903409994 -2.7366761573796925 1.518511390209559 -2.3450250038152394 -0.1187962536808218 -2.0861816990973807 -0.7966377776381912 -1.8273383943795223 -1.4744793015955606 -1.2195045108090048 -1.8707203368022813 -0.6116706272384873 -2.266961372009002 0.11298195117459775 -2.230251310753551 0.8376345295876828 -2.1935412494980997 1.4023131479247848 -1.7379020874509679 1.9669917662618868 -1.2822629254038362 1.7643572314741098 1.0555743080288735 Z"></path></g><g transform="translate(860.5327148437499 52.88799285888672) rotate(0 7.1822509765625 37.0841064453125)" stroke="none" fill="#FFFFFF"><path d="M 6.688260794790321 11.174600516331186 Q 6.688260794790321 11.174600516331186 9.631008973947031 22.422529498920092 12.57375715310374 33.670458481508994 9.631008973947031 22.422529498920092 6.688260794790321 11.174600516331186 9.631008973947031 22.422529498920092 12.57375715310374 33.670458481508994 13.138554634807237 43.15530672605739 13.703352116510734 52.640154970605785 12.931675519313249 58.539369475260045 12.159998922115765 64.4385839799143 11.164929917277341 67.15355111789637 10.169860912438917 69.86851825587846 10.18206884822897 70.57612611127585 10.194276784019024 71.28373396667325 12.345586521740689 71.95337365410296 14.496896259462355 72.62301334153265 14.964694252284373 73.11789376050541 15.43249224510639 73.61277417947818 15.307090337206834 74.28211411752619 15.181688429307275 74.9514540555742 14.56647165233986 75.2434299253114 13.951254875372445 75.53540579504859 13.353426086343294 75.20930407751416 12.755597297314143 74.88320235997973 12.668024183107152 74.20787092961457 12.58045106890016 73.53253949924941 13.075331487872923 73.0647415064274 13.570211906845685 72.59694351360538 14.239551844893697 72.72234542150494 14.90889178294171 72.8477473294045 15.200867652678905 73.46296410637191 15.4928435224161 74.07818088333933 15.16674180488167 74.67600967236848 14.840640087347243 75.27383846139763 14.165308656982084 75.36141157560462 13.489977226616924 75.44898468981161 11.18850444331424 74.53205787780689 8.887031660011559 73.61513106580219 8.284192624789705 71.660116284317 7.681353589567852 69.70510150283181 8.446409847392196 66.83622507899321 9.211466105216541 63.9673486551546 9.964424793158141 58.36335578917001 10.71738348109974 52.759362923185414 10.203079281093947 43.59580734435811 9.688775081088155 34.4322517655308 6.520682939657705 23.57274099172627 3.3525907982272565 12.713230217921744 0.842377899972862 6.741272534358512 -1.6678349982815324 0.7693148507952792 -1.7346668896858264 0.20568741193328005 -1.8014987810901204 -0.35794002692871907 -1.5242750206519546 -0.8532070036143591 -1.2470512602137889 -1.3484739802999992 -0.7316619019314841 -1.5862053432207674 -0.21627254364917914 -1.823936706141536 0.3404211950534211 -1.7133271548535354 0.8971149337560214 -1.602717603565535 3.792687864273171 4.785941456382825 Z"></path></g><g stroke-linecap="round" transform="translate(365.8878173828125 342.99071502685547) rotate(0 24.8270263671875 24.22430419921875)"><path d="M32.8 0.54 C37.78 1.53, 43.74 5.62, 46.51 10.09 C49.27 14.56, 50.21 22.19, 49.38 27.35 C48.54 32.51, 45.16 37.63, 41.47 41.07 C37.78 44.51, 32.34 47.57, 27.24 47.98 C22.14 48.38, 15.26 46.55, 10.86 43.51 C6.47 40.47, 2.42 34.69, 0.88 29.73 C-0.65 24.77, -0.75 18.51, 1.68 13.76 C4.1 9.01, 10.17 3.41, 15.43 1.23 C20.68 -0.95, 29.97 0.44, 33.22 0.67 C36.47 0.9, 35.03 2.02, 34.94 2.58 M18.05 2.35 C22.87 0.73, 29.5 1, 34.36 3.04 C39.22 5.09, 44.75 9.99, 47.22 14.62 C49.69 19.24, 50.66 25.99, 49.19 30.8 C47.71 35.61, 42.8 40.63, 38.38 43.48 C33.96 46.33, 27.76 48.03, 22.67 47.89 C17.57 47.76, 11.48 46.24, 7.82 42.68 C4.15 39.12, 1.16 31.67, 0.69 26.53 C0.22 21.39, 2.22 15.92, 4.99 11.83 C7.76 7.74, 15.42 3.52, 17.29 1.97 C19.16 0.42, 16.01 2.27, 16.2 2.54" stroke="#FFFFFF" stroke-width="1" fill="none"></path></g><g stroke-linecap="round" transform="translate(469.7943115234374 345.21495819091797) rotate(0 24.8270263671875 24.22430419921875)"><path d="M34.36 0.99 C39.23 2.68, 44.97 8.99, 47.28 13.71 C49.6 18.44, 49.63 24.38, 48.24 29.35 C46.85 34.33, 43.04 40.39, 38.92 43.57 C34.79 46.74, 28.63 48.77, 23.5 48.4 C18.37 48.03, 12.08 44.84, 8.13 41.35 C4.17 37.86, 0.41 32.36, -0.21 27.44 C-0.84 22.53, 1.43 16.15, 4.39 11.89 C7.34 7.62, 12 3.11, 17.51 1.84 C23.02 0.56, 33.76 3.52, 37.44 4.23 C41.11 4.93, 39.95 5.89, 39.55 6.07 M17.57 1.75 C22.22 0.09, 28.17 0.93, 33.13 2.72 C38.09 4.5, 44.51 8.31, 47.33 12.46 C50.15 16.6, 51.05 22.45, 50.04 27.6 C49.04 32.76, 45.57 40.09, 41.3 43.4 C37.03 46.72, 30.12 47.77, 24.41 47.49 C18.69 47.22, 11.22 45.06, 7.03 41.73 C2.83 38.4, -0.27 32.6, -0.76 27.52 C-1.26 22.43, 1.06 15.77, 4.08 11.2 C7.1 6.63, 15.11 1.51, 17.36 0.09 C19.61 -1.34, 17.72 1.98, 17.59 2.65" stroke="#FFFFFF" stroke-width="1" fill="none"></path></g><g transform="translate(392.20550537109375 365.71971893310547) rotate(0 14.060791015625 -20.93463134765625)" stroke="none" fill="#FFFFFF"><path d="M 27.511612752149556 -42.59811125462766 Q 27.511612752149556 -42.59811125462766 27.956387187204932 -42.46760614649254 28.401161622260304 -42.33710103835743 27.956387187204932 -42.46760614649254 27.511612752149556 -42.59811125462766 27.956387187204932 -42.46760614649254 28.401161622260304 -42.33710103835743 28.684282720972963 -41.97008833450112 28.96740381968562 -41.60307563064481 28.980728945279544 -41.13974170963741 28.994054070873467 -40.676407788630016 28.66304021623176 -40.26439364519483 28.332026361590053 -39.85237950175964 27.058426894138286 -38.33346214924419 25.784827426686523 -36.81454479672874 25.138042342795586 -36.60144705758738 24.49125725890465 -36.38834931844601 23.938686832762563 -36.78635373465784 23.386116406620474 -37.18435815086967 23.383315995832838 -37.86533814240421 23.380515585045202 -38.54631813393876 23.929793930864626 -38.948853709987446 24.479072276684047 -39.35138928603613 25.127588109624206 -39.143618244750535 25.77610394256436 -38.93584720346494 25.98920168170573 -38.289062119574 26.202299420847094 -37.64227703568306 25.804295004635264 -37.08970660954097 25.40629058842343 -36.537136183398886 24.72531059688889 -36.53433577261125 24.044330605354343 -36.531535361823614 23.641795029305655 -37.08081370764303 23.23925945325697 -37.630092053462455 23.447030494542567 -38.27860788640261 23.654801535828163 -38.927123719342774 25.171245217830347 -40.37446277562708 26.68768889983253 -41.82180183191138 27.09965082599104 -42.20995654326952 27.511612752149556 -42.59811125462766 27.956387187204932 -42.46760614649254 28.401161622260304 -42.33710103835743 28.684282720972963 -41.97008833450112 28.96740381968562 -41.60307563064481 28.980728945279544 -41.13974170963741 28.994054070873467 -40.676407788630016 14.867637365117712 -19.8577780278156 0.7412206593619555 0.9608517329988224 0.3880531455356043 1.0869378431684749 0.034885631709253184 1.213023953338127 -0.3249444449140598 1.1074431030040803 -0.6847745215373728 1.0018622526700336 -0.9138243018620211 0.7049427380987779 -1.1428740821866694 0.40802322352752235 -1.153654335244334 0.033178207362157985 -1.1644345883019989 -0.3416668088032064 13.17358908192378 -21.469889031715432 Z"></path></g><g transform="translate(417.33642578125 326.23363494873047) rotate(0 31.999999999999943 1.504638671875)" stroke="none" fill="#FFFFFF"><path d="M 1.7071753174728344 -2.2928299016161553 Q 1.7071753174728344 -2.2928299016161553 6.055057797532374 -1.7773802665071394 10.402940277591913 -1.2619306313981236 6.055057797532374 -1.7773802665071394 1.7071753174728344 -2.2928299016161553 6.055057797532374 -1.7773802665071394 10.402940277591913 -1.2619306313981236 13.568865187421224 -1.103601159902383 16.734790097250535 -0.9452716884066423 20.95105416366286 -0.9251441781811491 25.167318230075185 -0.9050166679556558 32.98213580478146 -0.6736795163141789 40.79695337948773 -0.44234236467270205 47.45874714847514 0.3484394304744013 54.12054091746254 1.1392212256215046 56.48508959064071 1.5141229524961386 58.849638263818875 1.8890246793707726 61.48432601951019 1.695525933504177 64.11901377520151 1.5020271876375817 64.70156856263155 1.8659996048602991 65.28412335006159 2.2299720220830164 65.33208059174845 2.915206364353163 65.3800378334353 3.60044070662331 64.85386016481357 4.042009570902043 64.32768249619183 4.483578435180776 63.661166307102 4.317439425499781 62.994650118012174 4.151300415818786 62.73729101391154 3.5144234320981225 62.4799319098109 2.877546448377459 62.84390432703362 2.2949916609474146 63.20787674425634 1.7124368735173705 63.89311108652648 1.664479631830521 64.57834542879662 1.6165223901436716 65.01991429307536 2.1427000587654033 65.4614831573541 2.6688777273871347 65.29534414767309 3.3353939164769653 65.1292051379921 4.001910105566796 64.49232815427143 4.25926920966743 63.85545117055078 4.516628313768065 61.116943674081384 4.682923039664411 58.37843617761199 4.8492177655607565 56.05572755403518 4.480962225155933 53.73301893045837 4.11270668475111 47.22190540101499 3.3327719470196357 40.710791871571615 2.5528372092881613 32.92966656904493 2.3238591818498673 25.148541266518247 2.0948811544115733 20.904796860726385 2.07428303113506 16.661052454934524 2.0536849078585466 13.397730939135172 2.052185478063394 10.134409423335821 2.0506860482682407 6.708955492872899 1.9268200782136824 3.2835015624099784 1.8029541081591238 2.0358323424392752 1.9254230565233819 0.788163122468572 2.0478920048876397 0.11103988206232496 2.083971049637068 -0.5660833583439221 2.1200500943864964 -1.1350942975393232 1.7512356000343152 -1.7041052367347242 1.382421105682134 -1.947661035917136 0.7495876735272704 -2.191216835099548 0.11675424137240664 -2.016287457138433 -0.5383772667192317 -1.8413580791773176 -1.1935087748108701 -0.06709138085224164 -1.7431693382135127 Z"></path></g><g transform="translate(483.7196044921874 329.23363494873047) rotate(0 5.3878173828125 19.439208984375)" stroke="none" fill="#FFFFFF"><path d="M 3.198104455047581 2.3604188568497424 Q 3.198104455047581 2.3604188568497424 4.423429626361891 6.274632993395882 5.648754797676201 10.188847129942022 4.423429626361891 6.274632993395882 3.198104455047581 2.3604188568497424 4.423429626361891 6.274632993395882 5.648754797676201 10.188847129942022 7.136676081774942 15.952272953192079 8.624597365873683 21.715698776442135 9.53436908578045 25.747838692321935 10.444140805687216 29.779978608201734 10.767202780201092 32.343226675817114 11.090264754714969 34.90647474343249 11.8673440739699 36.811992121406306 12.644423393224828 38.71750949938012 12.315782855839117 39.50822867417601 11.987142318453404 40.29894784897189 11.154267007084604 40.49784513883623 10.321391695715803 40.696742428700574 9.67092858305935 40.13984104131109 9.020465470402895 39.5829396539216 9.088675532212253 38.72936551907975 9.156885594021613 37.87579138423789 9.887534443457065 37.42925619523068 10.618183292892517 36.98272100622347 11.408902467688403 37.31136154360918 12.199621642484288 37.64000208099489 12.39851893234863 38.47287739236369 12.597416222212969 39.305752703732495 12.040514834823483 39.95621581638895 11.483613447434 40.6066789290454 10.630039312592144 40.53846886723605 9.77646517775029 40.47025880542669 9.329929988743078 39.73960995599124 8.883394799735866 39.00896110655579 8.449020725307026 37.10595298487466 8.014646650878188 35.202944863193544 7.764800542415127 32.801740533730644 7.514954433952066 30.40053620426775 6.624965693005256 26.46040634666427 5.734976952058446 22.520276489060794 4.06133197868038 17.030197559198058 2.3876870053023147 11.540118629335321 0.3872488556937733 7.2253784506959144 -1.613189293914768 2.9106382720565076 -2.0094180841979714 1.592873989829945 -2.4056468744811745 0.2751097076033826 -2.256780753646592 -0.4581628093357375 -2.107914632812009 -1.1914353262748576 -1.5564726398019597 -1.6971639435941401 -1.0050306467919103 -2.2028925609134227 -0.2616448801122512 -2.2879061358803905 0.48174088656740793 -2.3729197108473583 1.1331223307979457 -2.0047459473297673 1.7845037750284833 -1.636572183812176 2.491304115038032 0.36192333651878317 Z"></path></g><g transform="translate(480.7382812499999 330.42064666748047) rotate(0 5.9813232421875 -15.247711181640625)" stroke="none" fill="#FFFFFF"><path d="M -2.198384682217866 -1.9692063950602101 Q -2.198384682217866 -1.9692063950602101 -1.3624095441766726 -4.7919476195272495 -0.5264344061354793 -7.61468884399429 -1.3624095441766726 -4.7919476195272495 -2.198384682217866 -1.9692063950602101 -1.3624095441766726 -4.7919476195272495 -0.5264344061354793 -7.61468884399429 0.20812415504834836 -10.018714979194254 0.942682716232176 -12.422741114394219 1.8398835343864937 -15.077972393956607 2.737084352540811 -17.733203673518993 3.493452328734443 -19.728042737502303 4.2498203049280745 -21.722881801485613 5.3603067659489465 -23.043508103063495 6.470793226969819 -24.36413440464138 7.729789584476888 -27.675319370021526 8.988785941983956 -30.986504335401673 9.548294703133957 -31.579076442450784 10.107803464283958 -32.17164854949989 10.908760705999327 -32.32217845616279 11.709717947714697 -32.47270836282569 12.446185227195528 -32.123698761080504 13.182652506676359 -31.77468915933531 13.599676021622496 -30.536398116568147 14.016699536568634 -29.298107073800985 13.455661216020058 -28.23284839333347 12.894622895471482 -27.16758971286595 11.703040468778438 -26.99533590642998 10.511458042085394 -26.82308209999401 9.671707208031874 -27.685844286312918 8.831956373978354 -28.548606472631825 9.036352488957473 -29.735098057775524 9.24074860393659 -30.921589642919223 10.320781482011313 -31.453631968033484 11.400814360086038 -31.98567429314775 12.466073040553555 -31.424635972599173 13.531331721021072 -30.863597652050597 13.703585527457042 -29.672015225357555 13.875839333893012 -28.48043279866451 13.013077147574105 -27.64068196461099 12.1503149612552 -26.80093113055747 10.963823376111499 -27.005327245536584 9.7773317909678 -27.209723360515703 9.245289465853537 -28.289756238590424 8.713247140739274 -29.369789116665146 8.851016541361615 -30.17814672603341 8.988785941983956 -30.986504335401673 9.548294703133957 -31.579076442450784 10.107803464283958 -32.17164854949989 10.908760705999327 -32.32217845616279 11.709717947714697 -32.47270836282569 12.446185227195528 -32.123698761080504 13.182652506676359 -31.77468915933531 13.668022440958284 -28.744030465791916 14.153392375240209 -25.713371772248525 12.730846731987555 -24.249740553474204 11.3083010887349 -22.78610933469988 9.77317600974759 -21.128704858459308 8.238050930760279 -19.471300382218736 7.337574973451165 -17.875695374928256 6.43709901614205 -16.280090367637776 5.740147145316265 -13.781462121281201 5.04319527449048 -11.282833874924629 4.439035421367667 -8.899076864220053 3.834875568244854 -6.515319853515476 3.353086424059485 -4.093743069559665 2.871297279874116 -1.6721662856038524 2.7030691304600536 -0.7618231154378368 2.534840981045991 0.14852005472817886 2.249136257455684 0.8793087242870954 1.9634315338653765 1.610097393846012 1.3027447545984523 2.033384823779153 0.6420579753315279 2.456672253712294 -0.1412509658497475 2.4107770327957896 -0.9245599070310229 2.364881811879285 -1.5312936182870942 1.8673343545820549 -2.1380273295431653 1.3697868972848244 -2.1682060058805157 -0.29970974888769286 Z"></path></g><g transform="translate(420.32708740234375 322.65428924560547) rotate(0 9.869110107421875 -3.588836669921875)" stroke="none" fill="#FFFFFF"><path d="M -2.6577998464850454 -0.9252548217773438 Q -2.6577998464850454 -0.9252548217773438 -2.748191082201103 -1.9357787342087152 -2.8385823179171608 -2.9463026466400866 -2.748191082201103 -1.9357787342087152 -2.6577998464850454 -0.9252548217773438 -2.748191082201103 -1.9357787342087152 -2.8385823179171608 -2.9463026466400866 -2.8631381834137493 -4.670560428593705 -2.8876940489103378 -6.394818210547322 -0.8452421978102367 -9.003026426468162 1.1972096532898644 -11.611234642389004 6.413081321686908 -11.961603755707383 11.628952990083953 -12.311972869025762 14.836297130576503 -12.539949750070734 18.043641271069053 -12.767926631115706 19.92064517676377 -12.7606127552162 21.797649082458488 -12.753298879316695 22.116060676991374 -12.341901725272088 22.434472271524257 -11.930504571227482 22.450259482724867 -11.410519642742546 22.46604669392548 -10.890534714257612 22.173179343702763 -10.460578580375913 21.880311993480046 -10.030622446494212 21.499946085000467 -9.780939384087475 21.11958017652089 -9.53125632168074 19.790417227301297 -8.142249706236159 18.461254278081704 -6.753243090791578 17.491249210218196 -4.360424091576562 16.52124414235469 -1.9676050923615462 14.564414907697117 -0.09324207250823369 12.607585673039544 1.7811209473450789 7.717124483477608 2.0260632220479815 2.8266632939156713 2.2710054967508837 1.995079112163375 2.3798267539722797 1.1634949304110789 2.4886480111936757 0.5866637658960187 1.8798458060333456 0.009832601380958428 1.2710436008730155 0.16331108000396355 0.4465324281388616 0.31678955862696867 -0.37797874459529224 1.0740454956998042 -0.7384475548019763 1.8313014327726396 -1.0989163650086604 2.5680306981942946 -0.6981616933763142 3.3047599636159495 -0.29740702174396794 3.413581220837346 0.5341771600083282 3.5224024780587424 1.3657613417606242 2.913600272898412 1.9425925062756846 2.3047980677380817 2.519423670790745 1.480286895003929 2.365945192167741 0.6557757222697762 2.2124667135447367 0.2953069120630909 1.4552107764719004 -0.06516189814359441 0.6979548393990643 0.3355927734887504 -0.0387744260225899 0.7363474451210952 -0.7755036914442441 5.111798590170404 -0.9779149647843313 9.487249735219713 -1.1803262381244184 11.424877412911849 -3.2968117131577452 13.362505090603985 -5.413297188191072 14.38893543131809 -7.6039128848152435 15.415365772032196 -9.794528581439415 16.579469859410978 -11.03256373395778 17.743573946789763 -12.270598886476142 19.345033070922035 -12.509441095662208 20.946492195054304 -12.748283304848274 21.372070638756398 -12.750791092082483 21.79764908245849 -12.753298879316695 22.116060676991374 -12.341901725272088 22.434472271524257 -11.930504571227482 22.450259482724867 -11.410519642742546 22.46604669392548 -10.890534714257612 22.173179343702763 -10.460578580375913 21.880311993480046 -10.030622446494212 20.0503965651472 -9.869902691582304 18.220481136814353 -9.709182936670395 15.144912793868054 -9.528474105309654 12.069344450921754 -9.347765273948912 7.075750049382046 -8.094235742354304 2.0821556478423378 -6.840706210759695 1.5843909541671692 -7.349305184874728 1.0866262604920007 -7.857904158989762 1.542180604347413 -7.014908523951329 1.9977349482028257 -6.171912888912896 2.2695573763672017 -4.645208068112895 2.5413798045315774 -3.118503247312895 2.5995898255083114 -2.0218790345451194 2.6577998464850454 -0.9252548217773438 2.6577998464850454 -0.4626274108886719 2.6577998464850454 0 2.404002544969287 0.7811077766545544 2.150205243453528 1.5622155533091089 1.4857552818322668 2.0449667081584852 0.8213053202110054 2.527717863007861 -1.6653345369377348e-16 2.527717863007861 -0.8213053202110058 2.527717863007861 -1.4857552818322668 2.0449667081584852 -2.1502052434535277 1.562215553309109 -2.404002544969287 0.3184803657658827 Z"></path></g><g transform="translate(41.102783203125 110.29912567138672) rotate(0 30.80377197265625 18.25238037109375)" stroke="none" fill="#FFFFFF"><path d="M 0.7822656665189124 -6.893563201230323 Q 0.7822656665189124 -6.893563201230323 2.9342158322952447 -7.741676856257342 5.086165998071577 -8.589790511284361 2.9342158322952447 -7.741676856257342 0.7822656665189124 -6.893563201230323 2.9342158322952447 -7.741676856257342 5.086165998071577 -8.589790511284361 8.41019130375637 -9.483726454945629 11.734216609441166 -10.377662398606896 16.29958025676048 -10.657683734918976 20.86494390407979 -10.937705071231054 24.362849763105487 -10.178841192277492 27.86075562213118 -9.419977313323928 29.442417102986983 -7.567404542026284 31.024078583842787 -5.71483177072864 31.434197924648302 -3.676044725122957 31.844317265453817 -1.6372576795172735 31.050171498981534 0.4014350175416399 30.25602573250925 2.4401277146005533 29.617444534118164 2.598834697525911 28.978863335727077 2.7575416804512685 28.36895466994101 2.5105897159583224 27.759046004154943 2.2636377514653763 27.41077425127107 1.705354096401875 27.0625024983872 1.1470704413383737 28.02822802701422 0.7394646888441827 28.993953555641237 0.33185893634999175 32.78941178289672 -0.9943102959099024 36.58487001015221 -2.3204795281697965 40.069476942497836 -2.736474657611338 43.554083874843464 -3.15246978705288 46.44928759132788 -3.55724604335127 49.3444913078123 -3.9620222996496595 51.69527430270725 -4.091588570064864 54.0460572976022 -4.221154840480069 56.73128009224037 -3.731791691886975 59.41650288687855 -3.2424285432938813 60.80049718296394 -2.492845306266824 62.184491479049335 -1.7432620692397662 62.70974747394362 0.11907685645013966 63.23500346883792 1.9814157821400455 61.842233330062655 4.044069157096951 60.4494631912874 6.1067225320538565 58.60859070399197 9.1114931428054 56.767718216696544 12.116263753556945 54.259810093730565 16.229858623481512 51.75190197076458 20.34345349340608 49.569888601642894 23.71875937013176 47.38787523252121 27.09406524685744 45.404837198281356 29.641830827412246 43.4217991640415 32.18959640796705 41.397663361582126 34.330567770892856 39.37352755912275 36.471539133818666 37.84923745002786 38.58254982945883 36.324947340932965 40.69356052509899 34.57731888777009 43.503775261821964 32.82969043460721 46.31398999854494 30.57045615383835 46.603430559090995 28.311221873069492 46.89287111963704 23.73331553036382 44.66579359547663 19.15540918765815 42.43871607131621 16.05039476943729 39.09864758881697 12.945380351216427 35.75857910631773 11.649787452761538 32.109526135398724 10.35419455430665 28.460473164479716 9.861647380356724 26.262754498549985 9.369100206406797 24.065035832620254 8.377184484220267 20.785962743962383 7.385268762033737 17.506889655304512 6.036286930445764 14.558000896974491 4.68730509885779 11.60911213864447 3.7175319967591403 8.973568197555936 2.7477588946604907 6.338024256467402 1.6755572099576779 4.517105783039983 0.603355525254865 2.696187309612564 -0.552192320570775 1.2788303737560267 -1.7077401663964151 -0.13852656210051095 -2.049184157750357 -1.6707809507053932 -2.3906281491042987 -3.2030353393102757 -1.9906571804354072 -4.28113730564637 -1.590686211766516 -5.359239271982465 -0.4833863626028589 -5.669348397352595 0.6239134865607981 -5.979457522722725 1.5256515603000624 -5.265910697374389 2.4273896340393266 -4.552363872026055 2.380146467224793 -3.403430145136197 2.3329033004102597 -2.2544964182463394 1.3756275532206443 -1.6173906425401006 0.4183518060310288 -0.9802848668338617 -0.6597501603050657 -1.3802558355027528 -1.7378521266411602 -1.780226804171644 -2.04796125201129 -2.8875266533353012 -2.35807037738142 -3.994826502498958 -1.6445235520330868 -4.896564576238221 -0.9309767266847537 -5.798302649977485 0.21795700020510544 -5.751059483162953 1.3668907270949646 -5.70381631634842 2.0039965028012032 -4.746540569158807 2.641102278507442 -3.7892648219691942 3.560603953145196 -0.6680399803033856 4.48010562778295 2.453184861362423 5.1339973703128 4.029501896894413 5.787889112842651 5.605818932426403 6.604014729399801 7.994104367774991 7.420140345956952 10.38238980312358 8.830440695262965 13.50661093172041 10.24074104456898 16.63083206031724 11.270205623135482 20.029155937154258 12.299670201701986 23.427479813991276 12.755216659652927 25.494490896443864 13.210763117603868 27.561501978896455 14.20492639846173 30.74332552104063 15.199089679319593 33.92514906318481 17.87212244526875 36.88426420455467 20.54515521121791 39.843379345924525 24.556680410610646 41.582708901414605 28.56820561000338 43.322038456904686 31.186244295773733 41.01322057351743 33.80428298154409 38.70440269013018 35.480648451362484 36.544024886391504 37.15701392118087 34.38364708265283 39.11052006984886 32.36420249847755 41.064026218516844 30.344757914302274 42.97053253630347 27.899669805792605 44.8770388540901 25.45458169728294 46.983354448961634 22.211618427247174 49.08967004383316 18.96865515721141 50.9627259836724 14.508160805783302 52.83578192351163 10.047666454355193 54.37686555083812 6.717841795144157 55.91794917816461 3.3880171359331195 57.467760643577705 2.601569128001213 59.017572108990805 1.8151211200693067 58.30057706931207 1.3210767467898972 57.58358202963334 0.8270323735104878 55.72997960134935 0.06198619930575244 53.87637717306536 -0.7030599748989829 51.80840203237229 -0.7956621212109611 49.74042689167923 -0.8882642675229393 46.86882887148479 -0.5368789032663649 43.99723085129035 -0.18549353900979054 40.567653498540295 0.4345006279335527 37.13807614579025 1.054494794876896 34.33670536727526 1.6170341018770742 31.535334588760264 2.1795734088772525 30.895680160634758 2.3098505617389034 30.25602573250925 2.4401277146005538 29.617444534118164 2.5988346975259113 28.978863335727077 2.757541680451269 28.36895466994101 2.5105897159583224 27.759046004154943 2.2636377514653763 27.41077425127107 1.705354096401875 27.0625024983872 1.1470704413383737 27.623343945193746 -1.365429053840101 28.184185392000288 -3.8779285490185758 27.46806537335612 -5.371222917854166 26.75194535471195 -6.8645172866897575 23.889930967877834 -7.442626915809262 21.02791658104372 -8.020736544928766 17.05814191262124 -7.398213721812202 13.088367244198764 -6.775690898695638 10.070221230676788 -5.480188831808597 7.052075217154811 -4.184686764921556 4.8723036468029735 -3.0937530286352453 2.692532076451136 -2.002819292348935 1.8238326407086238 -1.6411830746426337 0.9551332049661119 -1.2795468569363324 0.1452493142428224 -1.2323524938745165 -0.6646345764804671 -1.1851581308127006 -1.3475845581451833 -1.6230148960933888 -2.0305345398098993 -2.060871661374077 -2.3256869320362377 -2.8165331528641318 -2.6208393242625765 -3.572194644354186 -2.4154559450809163 -4.357023856293845 -2.210072565899256 -5.1418530682335035 -0.7139034496901719 -6.0177081347319135 Z"></path></g><g stroke-linecap="round" transform="translate(10 63.65435028076172) rotate(0 55.62615966796875 60.112152099609375)"><path d="M61.92 0.85 C70.7 0.98, 81.3 5.27, 88.68 11.14 C96.07 17.02, 102.44 26.83, 106.21 36.1 C109.98 45.37, 112.3 57.02, 111.3 66.74 C110.3 76.46, 105.53 86.55, 100.2 94.4 C94.87 102.26, 87.69 109.71, 79.33 113.86 C70.98 118.01, 59.35 120.16, 50.08 119.32 C40.82 118.48, 31.25 114.27, 23.76 108.81 C16.26 103.35, 8.9 95.47, 5.11 86.55 C1.32 77.63, 0.43 65.27, 1.01 55.29 C1.6 45.32, 3.54 34.86, 8.62 26.71 C13.69 18.55, 23.3 10.86, 31.47 6.38 C39.63 1.9, 52.1 0.65, 57.61 -0.18 C63.13 -1.01, 62.97 1.1, 64.57 1.42 C66.16 1.73, 67.21 0.69, 67.19 1.72 M31.56 6.46 C39.25 2.28, 52.78 1.08, 62.14 1.66 C71.51 2.24, 80.45 4.52, 87.75 9.94 C95.06 15.35, 102.29 25.17, 105.96 34.17 C109.63 43.16, 110.61 54.15, 109.77 63.89 C108.93 73.64, 105.91 84.42, 100.92 92.64 C95.93 100.86, 88.16 108.59, 79.82 113.21 C71.49 117.82, 59.93 120.65, 50.92 120.34 C41.91 120.03, 33.23 116.86, 25.79 111.34 C18.35 105.81, 10.71 96.22, 6.27 87.18 C1.83 78.13, -1.29 66.83, -0.85 57.06 C-0.42 47.28, 3.78 36.77, 8.88 28.53 C13.99 20.29, 26.01 11.41, 29.76 7.64 C33.52 3.87, 30.67 6.09, 31.42 5.89 C32.16 5.69, 33.58 5.58, 34.23 6.46" stroke="#FFFFFF" stroke-width="1" fill="none"></path></g><g transform="translate(46.4859619140625 72.17772674560547) rotate(0 28 13)"><text x="0" y="18" font-family="Virgil, Segoe UI Emoji" font-size="20px" fill="#FFFFFF" text-anchor="start" style="white-space: pre;" direction="ltr">75bpm</text></g><g stroke-linecap="round"><g transform="translate(134.41119384765625 127.05620574951172) rotate(0 51.99802281148732 1.1108999677153406)"><path d="M0.74 0.75 C18 1.01, 85.86 1.63, 103.25 1.44" stroke="#FFFFFF" stroke-width="1.5" fill="none" stroke-dasharray="1.5 7"></path></g><g transform="translate(134.41119384765625 127.05620574951172) rotate(0 51.99802281148732 1.1108999677153406)"><path d="M76.3 10.32 C84.19 10.39, 88.81 7, 101.27 -0.23" stroke="#FFFFFF" stroke-width="1.5" fill="none" stroke-dasharray="1.5 5"></path></g><g transform="translate(134.41119384765625 127.05620574951172) rotate(0 51.99802281148732 1.1108999677153406)"><path d="M76.32 -10.2 C84.18 -4.51, 88.8 -2.28, 101.27 -0.23" stroke="#FFFFFF" stroke-width="1.5" fill="none" stroke-dasharray="1.5 5"></path></g></g><g stroke-linecap="round"><g transform="translate(665.3831787109374 117.91600799560547) rotate(0 52.24423885457213 0.19377690854389584)"><path d="M0.43 0.21 C17.75 0.26, 86.68 0.15, 104.06 0.17" stroke="#FFFFFF" stroke-width="1.5" fill="none" stroke-dasharray="1.5 7"></path></g><g transform="translate(665.3831787109374 117.91600799560547) rotate(0 52.24423885457213 0.19377690854389584)"><path d="M76.22 10.41 C84.02 8.11, 93.12 3.8, 102.77 -1.01" stroke="#FFFFFF" stroke-width="1.5" fill="none" stroke-dasharray="1.5 5"></path></g><g transform="translate(665.3831787109374 117.91600799560547) rotate(0 52.24423885457213 0.19377690854389584)"><path d="M76.21 -10.12 C83.99 -5.96, 93.09 -3.82, 102.77 -1.01" stroke="#FFFFFF" stroke-width="1.5" fill="none" stroke-dasharray="1.5 5"></path></g></g><g stroke-linecap="round"><g transform="translate(132.6168212890625 125.26183319091797) rotate(0 8.921308360807586 -4.873212136141774)"><path d="M0.39 0.66 C3.49 -1.1, 14.74 -8.55, 17.46 -10.41" stroke="#FFFFFF" stroke-width="1.5" fill="none" stroke-dasharray="1.5 7"></path></g></g><g stroke-linecap="round"><g transform="translate(663.5888061523436 116.12163543701172) rotate(0 8.589485345594653 -4.701979483477771)"><path d="M0.21 -0.02 C3.06 -1.66, 14.15 -7.71, 16.97 -9.38" stroke="#FFFFFF" stroke-width="1.5" fill="none" stroke-dasharray="1.5 7"></path></g></g><g stroke-linecap="round"><g transform="translate(132.6168212890625 131.24315643310547) rotate(0 11.029291694238793 6.991258586570439)"><path d="M0.44 0.34 C3.99 2.58, 17.77 11.49, 21.61 13.64" stroke="#FFFFFF" stroke-width="1.5" fill="none" stroke-dasharray="1.5 7"></path></g></g><g stroke-linecap="round"><g transform="translate(663.5888061523436 122.10295867919922) rotate(0 11.656409991905093 6.218605237081647)"><path d="M-0.02 -0.43 C3.8 1.68, 19.55 10.73, 23.33 12.87" stroke="#FFFFFF" stroke-width="1.5" fill="none" stroke-dasharray="1.5 7"></path></g></g><g stroke-linecap="round"><g transform="translate(444.2336425781249 234.12163543701172) rotate(0 0.6841635627671394 30.640161089785124)"><path d="M0.77 0.07 C0.75 10.47, 0.63 51.35, 0.6 61.21" stroke="#FFFFFF" stroke-width="1.5" fill="none" stroke-dasharray="1.5 7"></path></g><g transform="translate(444.2336425781249 234.12163543701172) rotate(0 0.6841635627671394 30.640161089785124)"><path d="M-9.46 33.47 C-4.55 43.48, -4.22 51.5, 0.68 60.14" stroke="#FFFFFF" stroke-width="1.5" fill="none" stroke-dasharray="1.5 5"></path></g><g transform="translate(444.2336425781249 234.12163543701172) rotate(0 0.6841635627671394 30.640161089785124)"><path d="M11.06 33.53 C8.62 43.65, 1.59 51.65, 0.68 60.14" stroke="#FFFFFF" stroke-width="1.5" fill="none" stroke-dasharray="1.5 5"></path></g></g><g stroke-linecap="round"><g transform="translate(442.43914794921875 234.28423309326172) rotate(0 -6.832142121717311 10.14880713336197)"><path d="M0.26 -0.37 C-2.16 3.03, -11.27 17.04, -13.93 20.67" stroke="#FFFFFF" stroke-width="1.5" fill="none" stroke-dasharray="1.5 7"></path></g></g><g stroke-linecap="round"><g transform="translate(444.2336425781249 233.09740447998047) rotate(0 5.401636422797992 9.348167471960096)"><path d="M1.06 1.08 C2.63 4.14, 8.36 14.93, 9.75 17.62" stroke="#FFFFFF" stroke-width="1.5" fill="none" stroke-dasharray="1.5 7"></path></g></g></svg>
