<svg version="1.1" xmlns="http://www.w3.org/2000/svg" viewBox="0 0 1731.2522583007812 581.7401733398438" width="1731.2522583007812" height="581.7401733398438">
  <!-- svg-source:excalidraw -->

  <defs>
    <style>
      @font-face {
        font-family: "Virgil";
        src: url("https://excalidraw.com/Virgil.woff2");
      }
      @font-face {
        font-family: "Cascadia";
        src: url("https://excalidraw.com/Cascadia.woff2");
      }
    </style>
  </defs>
  <rect x="0" y="0" width="1731.2522583007812" height="581.7401733398438" fill="none"></rect><g stroke-linecap="round" transform="translate(713.2615966796875 189.8348388671875) rotate(0 177.04669189453125 151.920654296875)"><path d="M177.94 0.53 C194.73 -2.15, 213.06 1.78, 230 6.35 C246.95 10.91, 264.84 18.88, 279.61 27.92 C294.37 36.95, 308.04 48.42, 318.61 60.54 C329.18 72.67, 337.18 86.54, 343.01 100.66 C348.84 114.78, 352.83 129.97, 353.59 145.28 C354.35 160.58, 352.33 177.53, 347.54 192.47 C342.75 207.42, 334.5 222.27, 324.84 234.97 C315.18 247.67, 303.38 259.13, 289.59 268.67 C275.8 278.21, 258.7 286.43, 242.11 292.21 C225.52 297.99, 207.69 301.99, 190.04 303.37 C172.38 304.75, 153.61 303.93, 136.2 300.48 C118.78 297.04, 100.74 290.6, 85.54 282.67 C70.34 274.75, 56.86 264.36, 45 252.96 C33.13 241.56, 21.81 228.37, 14.37 214.27 C6.92 200.16, 2.14 183.46, 0.33 168.35 C-1.47 153.23, 0.12 138.35, 3.53 123.57 C6.93 108.8, 12.28 93.36, 20.76 79.71 C29.23 66.06, 41.37 52.23, 54.38 41.66 C67.38 31.09, 82.84 22.86, 98.78 16.27 C114.72 9.68, 133.52 4.55, 150.02 2.12 C166.52 -0.31, 186.37 0.96, 197.79 1.69 C209.22 2.43, 219.08 4.16, 218.58 6.54 M241.77 9 C258.26 12.13, 272.97 23.4, 286.88 33 C300.79 42.6, 315.29 53.76, 325.26 66.62 C335.22 79.47, 342.07 95.26, 346.67 110.13 C351.27 125.01, 353.48 140.72, 352.86 155.87 C352.23 171.03, 348.71 186.84, 342.94 201.08 C337.17 215.31, 328.83 229.09, 318.24 241.31 C307.65 253.53, 293.96 265.15, 279.41 274.39 C264.87 283.62, 247.84 291.77, 230.97 296.74 C214.1 301.71, 195.78 304.13, 178.18 304.21 C160.58 304.3, 142.45 301.55, 125.37 297.28 C108.3 293, 90.2 287.14, 75.72 278.58 C61.24 270.03, 49.31 258.27, 38.5 245.95 C27.7 233.64, 17.25 218.96, 10.9 204.7 C4.56 190.43, 1.1 175.66, 0.43 160.36 C-0.24 145.06, 2.45 127.9, 6.89 112.88 C11.33 97.86, 17.55 82.96, 27.05 70.23 C36.55 57.49, 49.98 46.43, 63.91 36.48 C77.85 26.52, 94.11 16.39, 110.64 10.5 C127.17 4.62, 145.54 2.06, 163.1 1.16 C180.66 0.25, 202.92 3.31, 216 5.08 C229.07 6.85, 237.66 10.69, 241.57 11.79 C245.49 12.89, 240.61 9.52, 239.49 11.7" stroke="#FFFFFF" stroke-width="1" fill="none"></path></g><g stroke-linecap="round" transform="translate(1173.0560302734375 186.68524169921875) rotate(0 177.04669189453125 151.920654296875)"><path d="M167.23 0.94 C184.14 -2.16, 204.56 1.63, 222.04 5.28 C239.51 8.93, 257.06 14.85, 272.06 22.83 C287.07 30.82, 300.78 41.51, 312.09 53.18 C323.41 64.84, 333.13 78.72, 339.97 92.82 C346.8 106.93, 351.45 122.38, 353.11 137.82 C354.77 153.26, 353.76 170.6, 349.92 185.46 C346.07 200.32, 339.11 214, 330.05 226.97 C320.98 239.95, 308.74 252.84, 295.52 263.32 C282.3 273.81, 266.77 283.43, 250.74 289.9 C234.7 296.38, 216.78 300.12, 199.29 302.19 C181.8 304.25, 163.26 304.92, 145.79 302.31 C128.33 299.7, 110.3 293.99, 94.53 286.53 C78.76 279.07, 63.67 268.35, 51.16 257.54 C38.64 246.74, 27.46 235.11, 19.43 221.71 C11.4 208.31, 5.85 192.3, 2.97 177.14 C0.09 161.98, -0.37 145.9, 2.14 130.74 C4.65 115.57, 10.45 99.81, 18.06 86.13 C25.66 72.45, 35.68 59.79, 47.74 48.63 C59.81 37.47, 74.89 26.73, 90.43 19.19 C105.97 11.64, 127.32 6.45, 140.97 3.38 C154.61 0.31, 166.67 0.96, 172.3 0.79 C177.92 0.61, 174.83 -0.02, 174.7 2.33 M194 0.75 C211.24 -0.54, 232.04 4.96, 248.69 11.07 C265.35 17.18, 280.71 27.21, 293.94 37.42 C307.16 47.63, 318.98 59.35, 328.03 72.33 C337.08 85.31, 344.06 100.47, 348.26 115.31 C352.45 130.15, 354 146.24, 353.2 161.38 C352.39 176.52, 349.86 191.96, 343.43 206.15 C337 220.34, 325.87 234.24, 314.59 246.5 C303.31 258.75, 290.32 271.11, 275.77 279.68 C261.23 288.25, 244.46 294.13, 227.33 297.91 C210.2 301.7, 191.14 302.92, 173.02 302.38 C154.9 301.83, 135.46 299.63, 118.6 294.63 C101.75 289.64, 86.28 281.22, 71.9 272.4 C57.52 263.58, 42.81 253.7, 32.33 241.71 C21.85 229.72, 14.16 215.19, 9.02 200.48 C3.87 185.76, 1.49 168.92, 1.47 153.41 C1.44 137.9, 3.78 122.07, 8.89 107.41 C13.99 92.74, 22.22 78.19, 32.11 65.4 C41.99 52.61, 54.26 39.95, 68.17 30.67 C82.08 21.38, 98.75 15.04, 115.56 9.71 C132.37 4.39, 155.84 0.29, 169.03 -1.29 C182.22 -2.86, 190.66 -0.37, 194.73 0.28 C198.8 0.93, 193.59 0, 193.45 2.62" stroke="#FFFFFF" stroke-width="1" fill="none"></path></g><g stroke-linecap="round" transform="translate(719.233642578125 292.76226806640625) rotate(0 12.560699462890625 51.140106201171875)"><path d="M12.48 -0.24 C14.91 -0.4, 18.3 4.91, 20.23 11.6 C22.17 18.28, 23.63 29.63, 24.1 39.86 C24.57 50.09, 24.08 63.53, 23.06 72.97 C22.03 82.41, 20.04 91.7, 17.96 96.48 C15.89 101.27, 13.11 103.15, 10.59 101.7 C8.08 100.25, 4.51 95.06, 2.89 87.78 C1.27 80.5, 1.08 68.36, 0.86 58.02 C0.64 47.67, 0.42 34.58, 1.57 25.73 C2.72 16.87, 5.52 9.12, 7.75 4.89 C9.99 0.65, 13.8 0.84, 14.97 0.34 C16.14 -0.16, 14.85 0.91, 14.8 1.88 M18.44 4.9 C21.09 8.24, 23.69 18.46, 25.02 27.41 C26.36 36.35, 27.3 48.51, 26.44 58.59 C25.58 68.66, 21.85 80.41, 19.86 87.88 C17.87 95.34, 16.8 101.9, 14.51 103.36 C12.22 104.82, 8.49 102.22, 6.11 96.64 C3.73 91.07, 1.08 79.67, 0.24 69.91 C-0.6 60.15, 0.27 47.79, 1.06 38.08 C1.86 28.36, 3.25 17.88, 5.02 11.64 C6.79 5.41, 9.66 1.82, 11.69 0.67 C13.71 -0.47, 16.31 3.75, 17.17 4.75 C18.03 5.75, 16.7 5.96, 16.87 6.69" stroke="none" stroke-width="0" fill="#fa5252"></path><path d="M15.18 0.25 C17.3 1.16, 19.26 9.01, 20.95 16.65 C22.63 24.3, 24.76 36.16, 25.28 46.12 C25.8 56.08, 25.37 67.77, 24.05 76.42 C22.74 85.07, 19.97 94.01, 17.38 98.02 C14.78 102.02, 10.89 103.09, 8.48 100.47 C6.07 97.85, 4.26 90.26, 2.9 82.28 C1.54 74.3, 0.53 62.85, 0.34 52.57 C0.15 42.29, 0.47 29, 1.76 20.59 C3.05 12.18, 5.58 5.08, 8.07 2.1 C10.56 -0.89, 14.81 1.93, 16.67 2.68 C18.54 3.43, 19.25 5.71, 19.24 6.61 M12.61 -0.69 C15.3 -0.3, 19.56 7.67, 21.36 14.95 C23.17 22.24, 23.1 33.28, 23.44 43.01 C23.77 52.73, 24.31 64.13, 23.38 73.29 C22.45 82.46, 20.17 93.2, 17.84 97.99 C15.51 102.78, 11.85 103.94, 9.4 102.04 C6.95 100.15, 4.47 94.45, 3.15 86.63 C1.83 78.8, 1.93 65.5, 1.47 55.08 C1.01 44.67, -0.88 32.59, 0.38 24.12 C1.65 15.66, 7.04 8.15, 9.06 4.27 C11.09 0.38, 11.96 1.52, 12.53 0.83 C13.09 0.14, 12.35 -0.75, 12.45 0.13" stroke="#FFFFFF" stroke-width="1" fill="none"></path></g><g stroke-linecap="round" transform="translate(908.6633911132812 271.06121826171875) rotate(0 29.30841064453125 31.406524658203125)"><path d="M41.54 3.91 C47 6.58, 53.61 13.55, 56.37 19.48 C59.14 25.41, 59.91 33.22, 58.12 39.5 C56.33 45.77, 51.09 53.32, 45.6 57.14 C40.11 60.97, 31.4 63.23, 25.18 62.44 C18.97 61.66, 12.43 57.24, 8.3 52.42 C4.17 47.6, 0.93 40.27, 0.4 33.52 C-0.14 26.78, 1.56 17.43, 5.1 11.95 C8.64 6.46, 14.39 1.34, 21.64 0.61 C28.89 -0.11, 43.23 5.44, 48.61 7.61 C53.98 9.77, 54.18 13.13, 53.92 13.61 M31.01 -0.79 C37.27 -0.45, 46.22 5.74, 50.56 10.89 C54.9 16.04, 56.69 23.77, 57.05 30.11 C57.41 36.46, 56.18 43.51, 52.72 48.97 C49.25 54.44, 42.43 60.99, 36.27 62.89 C30.11 64.78, 21.4 63.28, 15.77 60.35 C10.13 57.42, 4.68 51.71, 2.47 45.32 C0.25 38.93, 1.02 28.69, 2.5 22 C3.97 15.31, 6.16 8.71, 11.3 5.18 C16.43 1.66, 30.04 1.49, 33.3 0.85 C36.56 0.21, 31.31 1.15, 30.86 1.36" stroke="#FFFFFF" stroke-width="1" fill="none"></path></g><g stroke-linecap="round" transform="translate(1366.0651245117188 307.37890625) rotate(0 29.30841064453125 31.406524658203125)"><path d="M17.59 3.6 C22.95 0.61, 31.38 -0.46, 37.42 1.13 C43.46 2.73, 50.17 7.64, 53.83 13.16 C57.48 18.68, 60.11 27.35, 59.36 34.27 C58.6 41.18, 53.84 49.9, 49.32 54.66 C44.79 59.42, 38.4 62.44, 32.2 62.84 C26.01 63.23, 17.47 60.96, 12.15 57.03 C6.84 53.11, 1.84 45.9, 0.29 39.29 C-1.26 32.69, -1.17 23.79, 2.84 17.38 C6.84 10.98, 19.86 3.75, 24.32 0.85 C28.79 -2.04, 29.75 -0.41, 29.63 0.02 M38.23 1.66 C44.1 3.16, 50.83 8.88, 54.44 14.5 C58.05 20.12, 60.78 28.99, 59.92 35.41 C59.05 41.83, 53.95 48.68, 49.26 53.02 C44.57 57.36, 37.77 60.69, 31.78 61.44 C25.79 62.19, 18.36 61.02, 13.35 57.51 C8.33 54, 3.27 46.91, 1.7 40.37 C0.13 33.83, 1.18 24.63, 3.92 18.27 C6.65 11.91, 12.84 5.21, 18.12 2.23 C23.39 -0.74, 32.52 0.68, 35.55 0.41 C38.57 0.13, 36.37 0.16, 36.27 0.6" stroke="#FFFFFF" stroke-width="1" fill="none"></path></g><g stroke-linecap="round" transform="translate(920.457763671875 388.1171875) rotate(0 26.3177490234375 28.1168212890625)"><path d="M33.87 1.22 C39.33 2.6, 45.64 7.82, 48.64 12.73 C51.63 17.63, 52.52 24.92, 51.83 30.66 C51.14 36.39, 48.41 42.84, 44.5 47.12 C40.59 51.39, 34.03 55.58, 28.36 56.3 C22.68 57.02, 15.03 55.03, 10.46 51.44 C5.89 47.85, 2.42 40.75, 0.94 34.75 C-0.53 28.75, -0.73 20.83, 1.61 15.47 C3.95 10.1, 8.46 4.23, 14.97 2.56 C21.49 0.88, 35.52 3.91, 40.68 5.4 C45.84 6.89, 46.07 11.19, 45.93 11.5 M13.23 3.47 C17.94 0.46, 27.63 -2, 33.47 -0.81 C39.32 0.38, 45.23 5.62, 48.3 10.59 C51.37 15.57, 52.13 23.1, 51.88 29.04 C51.63 34.99, 50.36 41.79, 46.77 46.26 C43.19 50.72, 35.98 54.69, 30.37 55.85 C24.77 57.01, 18.14 56.7, 13.13 53.24 C8.11 49.78, 2.17 40.89, 0.27 35.1 C-1.64 29.3, -0.73 23.99, 1.71 18.46 C4.14 12.93, 12.66 4.59, 14.87 1.91 C17.09 -0.78, 15.1 1.82, 15 2.35" stroke="#FFFFFF" stroke-width="1" fill="none"></path></g><g stroke-linecap="round"><g transform="translate(108.30360412597656 309.7780182098786) rotate(0 118.33171347731727 0.13030980736834863)"><path d="M0.34 -0.91 C40.12 -1.17, 198.28 -0.48, 237.6 -0.59 M-0.94 1.23 C38.84 1.09, 197.68 1.29, 237.04 0.94" stroke="#FFFFFF" stroke-width="1" fill="none"></path></g></g><g stroke-linecap="round"><g transform="translate(112.49055480957031 374.9928619598786) rotate(0 117.98071900643407 -0.21889510788037114)"><path d="M-0.91 0.74 C38.41 0.48, 197.41 -1.02, 236.87 -1.17 M0.81 0.08 C39.89 -0.05, 196.36 0.46, 235.93 0.06" stroke="#FFFFFF" stroke-width="1" fill="none"></path></g></g><g stroke-linecap="round"><g transform="translate(121.55123901367188 309.3854400848786) rotate(0 0.01578874096645677 29.98050744954503)"><path d="M0.74 0 C0.78 10.15, 0.47 49.97, 0.62 60 M-0.34 -1.04 C-0.53 9.31, -0.87 50.65, -0.63 61" stroke="#FFFFFF" stroke-width="1" fill="none"></path></g></g><g stroke-linecap="round"><g transform="translate(145.4857940673828 308.79660341495673) rotate(0 0.45444952433928165 30.431876426562667)"><path d="M0 -0.58 C0.19 9.54, 0.12 51.03, 0.18 61.44 M-1.45 1.74 C-0.83 11.42, 1.65 49.83, 2.36 59.54" stroke="#FFFFFF" stroke-width="1" fill="none"></path></g></g><g stroke-linecap="round"><g transform="translate(172.99049377441406 311.1798431610505) rotate(0 0.5253212507814169 30.14241927092894)"><path d="M-0.58 -1.01 C-0.43 9.02, 1.18 49.7, 1.63 60.19 M1.32 1.07 C1.29 11.23, 0.82 51.46, 0.9 61.3" stroke="#FFFFFF" stroke-width="1" fill="none"></path></g></g><g stroke-linecap="round"><g transform="translate(198.7101287841797 309.38550112003486) rotate(0 0.8231287377234651 30.759143532151256)"><path d="M-1.01 0.43 C-0.95 10.84, -0.15 51.83, 0.38 61.91 M0.66 -0.39 C1.1 9.75, 2.46 49.83, 2.66 60.26" stroke="#FFFFFF" stroke-width="1" fill="none"></path></g></g><g stroke-linecap="round"><g transform="translate(229.2147979736328 309.9742767548005) rotate(0 0.645820964369932 30.56810987032941)"><path d="M0.43 -0.82 C0.87 9.68, 1.98 51.71, 2.1 61.96 M-0.8 1.37 C-0.39 11.63, 1.43 50.26, 1.62 60.33" stroke="#FFFFFF" stroke-width="1" fill="none"></path></g></g><g stroke-linecap="round"><g transform="translate(258.5231628417969 312.3667633270661) rotate(0 0.6615546945482436 31.373633205536862)"><path d="M-0.82 0.9 C-0.29 10.98, 1.86 51.09, 2.14 60.93 M0.95 0.33 C1.49 10.57, 1.87 52.36, 1.69 62.42" stroke="#FFFFFF" stroke-width="1" fill="none"></path></g></g><g stroke-linecap="round"><g transform="translate(292.6260070800781 309.3855163788239) rotate(0 0.4894157201565861 31.20293034765882)"><path d="M0.9 0.95 C1.01 11.19, 1.24 50.81, 1.11 60.66 M-0.09 0.4 C-0.18 10.89, -0.3 51.93, 0.12 62.01" stroke="#FFFFFF" stroke-width="1" fill="none"></path></g></g><g stroke-linecap="round"><g transform="translate(320.7288055419922 309.98361513370673) rotate(0 0.32624613685334225 29.86527771586566)"><path d="M0.95 -0.08 C1.22 9.76, 0.96 49.6, 0.84 59.93 M-0.02 -1.17 C0.14 8.7, -0.73 50.7, -0.29 60.9" stroke="#FFFFFF" stroke-width="1" fill="none"></path></g></g><g stroke-linecap="round"><g transform="translate(351.1748529296376 344.94632066565964) rotate(0 178.5778979833466 -0.5907031192932664)"><path d="M-0.08 -0.35 C59.2 -0.61, 296.82 -0.65, 356.59 -0.63 M-1.58 -1.58 C57.98 -1.81, 298.76 0, 358.74 0.41" stroke="#FFFFFF" stroke-width="4" fill="none"></path></g><g transform="translate(351.1748529296376 344.94632066565964) rotate(0 178.5778979833466 -0.5907031192932664)"><path d="M329.89 8.68 C339.41 8.23, 350.74 1.02, 357.54 -1.44 M331.45 10.93 C338.42 8.6, 345.38 5.56, 358.59 0.76" stroke="#FFFFFF" stroke-width="4" fill="none"></path></g><g transform="translate(351.1748529296376 344.94632066565964) rotate(0 178.5778979833466 -0.5907031192932664)"><path d="M330.03 -11.85 C339.66 -4.6, 350.93 -4.12, 357.54 -1.44 M331.59 -9.59 C338.39 -6.3, 345.31 -3.71, 358.59 0.76" stroke="#FFFFFF" stroke-width="4" fill="none"></path></g></g><g stroke-linecap="round" transform="translate(320.92974853515625 327.20394134521484) rotate(0 12.266357421875 17.046730041503906)"><path d="M12.97 0.41 L23.66 18.03 L12.32 34.21 L-0.19 16.4" stroke="none" stroke-width="0" fill="#12b886" fill-rule="evenodd"></path><path d="M11.2 -1.59 C18.86 6, 19.79 12.47, 22.68 17.48 M13.46 0.13 C16.24 3.44, 18.66 8.16, 24.88 18.93 M23.14 19.42 C20.54 22.66, 18.12 25.73, 14.9 32.89 M23.69 18.06 C19.65 24.96, 15.8 30.74, 13.26 34.02 M13.32 35.62 C7.45 27.06, 5.14 23.54, 1.13 19.9 M12.7 34.63 C8.72 29.44, 6.37 25.49, 0.63 17.09 M1.72 19.67 C4.32 13.3, 9.66 7.33, 11.53 -0.96 M0.8 18.92 C4.45 12.74, 7.74 6.54, 12.31 0.55" stroke="#FFFFFF" stroke-width="4" fill="none"></path></g><g stroke-linecap="round" transform="translate(290.2662353515625 325.8393783569336) rotate(0 12.266357421875 17.046730041503906)"><path d="M14.66 -1.61 L22.86 18.03 L14.11 35.29 L0.83 18.45" stroke="none" stroke-width="0" fill="#12b886" fill-rule="evenodd"></path><path d="M12.78 -0.53 C17.93 5.11, 21.84 12.32, 25.92 19.67 M12.53 -0.19 C17.76 7.1, 21.23 12.97, 24.38 18.55 M25.66 17.8 C23.3 20.85, 19.66 25.82, 11.93 35.63 M24.76 17.69 C21.7 21.48, 18.62 24.75, 12.25 34.61 M14.2 32.61 C6.49 27.09, 1.86 22.3, -0.17 17.12 M12.29 34.15 C10.68 30.36, 7.29 27.3, -0.24 18.72 M-1.91 19.13 C4.2 11.87, 9.68 5.75, 12.56 -1.63 M0.19 17.01 C5.68 11.89, 9.93 5.58, 13.13 0.33" stroke="#FFFFFF" stroke-width="4" fill="none"></path></g><g transform="translate(178.2100830078125 123.92362213134766) rotate(0 150.5 22.5)"><text x="150.5" y="32" font-family="Virgil, Segoe UI Emoji" font-size="36px" fill="#FFFFFF" text-anchor="middle" style="white-space: pre;" direction="ltr">user1 +1--&gt; user2</text></g><g transform="translate(179.0325927734375 222.00473022460938) rotate(0 63.5 17.5)"><text x="63.5" y="25" font-family="Virgil, Segoe UI Emoji" font-size="28px" fill="#FFFFFF" text-anchor="middle" style="white-space: pre;" direction="ltr">(user1, -1)</text></g><g transform="translate(342.8316955566406 225.40634155273438) rotate(0 73 17.5)"><text x="73" y="25" font-family="Virgil, Segoe UI Emoji" font-size="28px" fill="#FFFFFF" text-anchor="middle" style="white-space: pre;" direction="ltr">(user2, +1)</text></g><g transform="translate(773.7847290039062 261.5518798828125) rotate(0 33 17.5)"><text x="33" y="25" font-family="Virgil, Segoe UI Emoji" font-size="28px" fill="#FFFFFF" text-anchor="middle" style="white-space: pre;" direction="ltr">user1</text></g><g transform="translate(1232.3733520507812 266.16845703125) rotate(0 46 22.5)"><text x="46" y="32" font-family="Virgil, Segoe UI Emoji" font-size="36px" fill="#FFFFFF" text-anchor="middle" style="white-space: pre;" direction="ltr">admin</text></g><g transform="translate(761.2332763671875 406.74798583984375) rotate(0 39 17.5)"><text x="39" y="25" font-family="Virgil, Segoe UI Emoji" font-size="28px" fill="#FFFFFF" text-anchor="middle" style="white-space: pre;" direction="ltr">user2</text></g><g stroke-linecap="round" transform="translate(875.9345092773438 399.22943115234375) rotate(0 21.23828125 8.373779296875)"><path d="M21.2 0.17 C25.47 0.28, 30.79 1.29, 34.29 2.33 C37.8 3.37, 41.51 4.81, 42.24 6.41 C42.97 8, 41.03 10.28, 38.67 11.91 C36.31 13.55, 32.25 15.38, 28.08 16.22 C23.91 17.05, 17.97 17.49, 13.63 16.92 C9.29 16.36, 4.19 14.47, 2.04 12.83 C-0.12 11.18, -0.06 8.79, 0.72 7.06 C1.5 5.33, 3.15 3.71, 6.74 2.44 C10.32 1.16, 19.23 -0.4, 22.23 -0.6 C25.24 -0.8, 24.83 0.87, 24.77 1.24 M19.37 -0.78 C23.84 -1.1, 29.31 -0.2, 33.15 1.13 C36.99 2.47, 41.27 5.72, 42.4 7.21 C43.54 8.7, 41.89 8.44, 39.97 10.05 C38.05 11.67, 34.63 16.01, 30.88 16.89 C27.14 17.76, 21.8 16.08, 17.49 15.3 C13.19 14.51, 8.17 13.5, 5.07 12.2 C1.96 10.91, -1.32 9.3, -1.12 7.53 C-0.92 5.76, 3.1 2.77, 6.25 1.57 C9.4 0.36, 15.96 0.52, 17.79 0.28 C19.61 0.05, 17.3 0.14, 17.2 0.16" stroke="#FFFFFF" stroke-width="2" fill="none"></path></g><g stroke-linecap="round"><g transform="translate(877.7382202148438 408.20135498046875) rotate(0 -0.36031812194732993 16.450627374090118)"><path d="M-0.84 0.02 C-1.06 5.38, -0.56 27.26, -0.45 32.97 M0.92 -1.02 C0.43 4.38, -1.3 27.8, -1.64 33.92" stroke="#FFFFFF" stroke-width="2" fill="none"></path></g></g><g stroke-linecap="round"><g transform="translate(918.9999389648438 411.7901611328125) rotate(0 -1.1456207271666017 15.28370792770761)"><path d="M0.02 -0.45 C-0.5 4.83, -2.14 25.77, -2.31 30.88 M-1.43 -1.74 C-1.67 3.81, -0.15 26.83, -0.18 32.31" stroke="#FFFFFF" stroke-width="2" fill="none"></path></g></g><g stroke-linecap="round"><g transform="translate(878.3363647460938 443.5003662109375) rotate(0 17.610918457806065 -0.4010301641001206)"><path d="M-0.45 -1.12 C5.63 -1.07, 29.76 0.04, 35.68 0.31 M1.51 0.91 C7.49 0.56, 28.62 -1.29, 34.61 -1.71" stroke="#FFFFFF" stroke-width="2" fill="none"></path></g></g><g stroke-linecap="round" transform="translate(861.8219604492188 282.25750732421875) rotate(0 21.23828125 8.373779296875)"><path d="M14.97 0.29 C19.16 -0.06, 25.46 0.62, 29.55 1.4 C33.64 2.18, 37.42 3.45, 39.53 4.97 C41.65 6.5, 43.36 8.77, 42.25 10.55 C41.14 12.32, 36.73 14.71, 32.87 15.63 C29.01 16.56, 23.45 16.14, 19.1 16.1 C14.75 16.06, 10.11 16.41, 6.78 15.4 C3.45 14.39, -0.27 12.06, -0.86 10.03 C-1.44 8.01, 0.06 4.79, 3.28 3.25 C6.5 1.7, 15.43 1.21, 18.48 0.77 C21.54 0.32, 21.54 0.47, 21.6 0.59 M30.57 2.02 C34.82 2.73, 39.56 2.58, 41.48 3.83 C43.41 5.08, 43.77 7.66, 42.14 9.5 C40.5 11.34, 35.47 13.85, 31.68 14.85 C27.9 15.85, 23.85 15.58, 19.44 15.49 C15.02 15.4, 8.62 15.42, 5.19 14.29 C1.76 13.17, -0.76 10.64, -1.15 8.73 C-1.53 6.81, 0.06 4.44, 2.86 2.79 C5.65 1.15, 11.14 -0.67, 15.62 -1.11 C20.11 -1.56, 27.48 -0.34, 29.76 0.1 C32.04 0.55, 29.43 1.23, 29.32 1.55" stroke="#FFFFFF" stroke-width="2" fill="none"></path></g><g stroke-linecap="round"><g transform="translate(863.6256713867188 291.22943115234375) rotate(0 -0.1256179988756685 16.832883886899936)"><path d="M0.08 -0.69 C0.04 4.79, -0.99 27.47, -1.06 33.25 M-1.34 1.57 C-0.94 7.14, 1.08 28.72, 1.09 34.35" stroke="#FFFFFF" stroke-width="2" fill="none"></path></g></g><g stroke-linecap="round"><g transform="translate(904.8873901367188 294.8182373046875) rotate(0 -0.43507545077238774 15.526616998100508)"><path d="M-0.69 -1.06 C-1.09 4.05, -1.93 25.44, -2.03 30.76 M1.16 0.99 C1.09 6.27, 0.78 26.94, 0.24 32.12" stroke="#FFFFFF" stroke-width="2" fill="none"></path></g></g><g stroke-linecap="round"><g transform="translate(864.2238159179688 326.5284423828125) rotate(0 17.2441643550992 0.45873804992675105)"><path d="M-1.06 -0.84 C4.85 -0.72, 29.43 -0.24, 35.55 0.05 M0.58 1.33 C6.3 1.72, 28.73 1.94, 34.42 1.56" stroke="#FFFFFF" stroke-width="2" fill="none"></path></g></g><g stroke-linecap="round" transform="translate(1319.2236938476562 318.5751953125) rotate(0 21.23828125 8.373779296875)"><path d="M19.23 0.34 C23.52 0, 29 0.6, 32.63 1.66 C36.26 2.73, 39.67 5.16, 41.02 6.73 C42.36 8.29, 42.22 9.44, 40.69 11.05 C39.17 12.67, 35.88 15.52, 31.89 16.42 C27.9 17.31, 21.34 17.03, 16.77 16.43 C12.2 15.83, 7.25 14.24, 4.46 12.83 C1.68 11.43, -0.04 9.53, 0.06 7.98 C0.17 6.43, 1.78 4.94, 5.09 3.53 C8.4 2.12, 17.37 0.16, 19.9 -0.48 C22.43 -1.13, 20.33 -0.64, 20.27 -0.33 M30.12 1.88 C34.47 2.42, 39.18 4.7, 41.39 5.95 C43.6 7.19, 44.69 7.87, 43.39 9.35 C42.1 10.82, 37.68 13.44, 33.61 14.8 C29.53 16.15, 23.37 17.38, 18.95 17.45 C14.53 17.51, 10.09 16.3, 7.07 15.17 C4.05 14.04, 1.45 12.32, 0.83 10.66 C0.21 8.99, 1.14 7.09, 3.37 5.18 C5.59 3.27, 9.93 -0.01, 14.18 -0.81 C18.43 -1.62, 26.51 0.25, 28.86 0.34 C31.21 0.43, 28.49 -0.22, 28.28 -0.27" stroke="#FFFFFF" stroke-width="2" fill="none"></path></g><g stroke-linecap="round"><g transform="translate(1321.0274047851562 327.547119140625) rotate(0 -0.3364138331450022 16.534251102739972)"><path d="M-1.02 -0.32 C-1.05 5.27, -0.56 28.81, -0.24 34.59 M0.64 -1.53 C0.44 4.21, -1.31 26.5, -1.31 32.74" stroke="#FFFFFF" stroke-width="2" fill="none"></path></g></g><g stroke-linecap="round"><g transform="translate(1362.2891235351562 331.13592529296875) rotate(0 0.17485164638605966 15.313151802625498)"><path d="M-0.32 -0.24 C-0.61 5.27, -0.59 26.81, -0.69 32.03 M1.72 -1.41 C1.21 3.87, -0.84 24.77, -1.37 30.4" stroke="#FFFFFF" stroke-width="2" fill="none"></path></g></g><g stroke-linecap="round"><g transform="translate(1321.6255493164062 362.84613037109375) rotate(0 17.502694431981013 -0.4946004032367455)"><path d="M-0.24 0.5 C6.07 0.62, 30.81 0.42, 36.83 0.43 M-1.82 -0.28 C4.5 -0.51, 30.21 -1.31, 36.37 -1.53" stroke="#FFFFFF" stroke-width="2" fill="none"></path></g></g><g stroke-linecap="round"><g transform="translate(745.8050089930284 354.2711496886959) rotate(0 54.58512398045144 -21.09786967699756)"><path d="M-0.84 -0.34 C17.61 -7.14, 91.39 -34.83, 110.01 -41.85 M0.92 -1.57 C19.27 -8.09, 90.76 -33.77, 109.03 -40.45" stroke="#FFFFFF" stroke-width="2" fill="none"></path></g><g transform="translate(745.8050089930284 354.2711496886959) rotate(0 54.58512398045144 -21.09786967699756)"><path d="M85.44 -21.3 C91.36 -24.32, 95.9 -29.76, 109.78 -40.05 M85.39 -21.01 C91.58 -25.94, 96.04 -29.15, 108.55 -40.65" stroke="#FFFFFF" stroke-width="2" fill="none"></path></g><g transform="translate(745.8050089930284 354.2711496886959) rotate(0 54.58512398045144 -21.09786967699756)"><path d="M78.46 -40.6 C85.91 -38.88, 92.13 -39.63, 109.78 -40.05 M78.4 -40.3 C86.12 -41.24, 92.01 -40.52, 108.55 -40.65" stroke="#FFFFFF" stroke-width="2" fill="none"></path></g></g><g stroke-linecap="round"><g transform="translate(741.4269523016765 384.163712181748) rotate(0 64.2858541944745 17.46542270318878)"><path d="M-0.34 -0.06 C21.32 6.09, 107.48 30.12, 128.91 36.06 M1.68 -1.13 C23.25 4.76, 106.33 28.62, 127.84 34.38" stroke="#FFFFFF" stroke-width="2" fill="none"></path></g><g transform="translate(741.4269523016765 384.163712181748) rotate(0 64.2858541944745 17.46542270318878)"><path d="M97.83 36.28 C105.66 34.82, 111.21 36.55, 128.23 32.46 M98.13 37.66 C107.47 36.8, 118.69 34.77, 127.63 35.08" stroke="#FFFFFF" stroke-width="2" fill="none"></path></g><g transform="translate(741.4269523016765 384.163712181748) rotate(0 64.2858541944745 17.46542270318878)"><path d="M103.34 16.52 C109.87 19.21, 114.26 25.12, 128.23 32.46 M103.63 17.89 C110.88 23.95, 120.17 28.86, 127.63 35.08" stroke="#FFFFFF" stroke-width="2" fill="none"></path></g></g><g transform="translate(782.0513305664062 124.24844360351562) rotate(0 88.5 22.5)"><text x="88.5" y="32" font-family="Virgil, Segoe UI Emoji" font-size="36px" fill="#FFFFFF" text-anchor="middle" style="white-space: pre;" direction="ltr">hellokafka</text></g><g transform="translate(1191.8551635742188 123.48202514648438) rotate(0 138.5 22.5)"><text x="138.5" y="32" font-family="Virgil, Segoe UI Emoji" font-size="36px" fill="#FFFFFF" text-anchor="middle" style="white-space: pre;" direction="ltr">hellokafkahelper</text></g><g stroke-linecap="round" transform="translate(968.6352233886719 290.37615966796875) rotate(0 12.560745239257812 11.3739013671875)"><path d="M1.27 -0.42 L23.97 -0.25 L24.54 22.32 L-1.81 20.86" stroke="none" stroke-width="0" fill="#be4bdb"></path><path d="M0.06 -1.35 C10.06 -1.63, 15.93 -0.69, 26.36 0.14 M-0.38 -0.08 C9.6 0.8, 19.21 0.38, 25 -0.04 M24.03 -0.83 C25.52 3.68, 24.4 8.96, 25.41 23.64 M25.2 -0.05 C26.08 6.17, 24.83 11.92, 24.97 23.08 M23.42 22.35 C15.48 24.21, 9.66 21.29, 1.06 24.37 M25.81 23.48 C19.3 22.58, 12.15 22.2, 0.51 23.43 M-0.75 23.13 C0.68 16.97, 0.79 11, 1.54 -1.53 M0.92 23.27 C-0.79 14.77, -0.04 4.56, -0.27 0.31" stroke="#FFFFFF" stroke-width="1" fill="none"></path></g><g stroke-linecap="round" transform="translate(977.4389343261719 402.66595458984375) rotate(0 12.560745239257812 11.3739013671875)"><path d="M1.31 -1.73 L25.96 -0.77 L26.05 20.98 L1.67 22.17" stroke="none" stroke-width="0" fill="#be4bdb"></path><path d="M1.9 0.5 C6.55 -0.78, 11.54 0.09, 25.83 -0.1 M-0.38 -0.03 C9.42 -0.55, 16.63 -0.11, 26 0.28 M24.4 -1.99 C24.34 9.04, 25.54 16.41, 23.44 22.96 M25.46 -0.61 C24.81 7.28, 24.36 15.58, 24.58 22.87 M24.13 21.38 C13.59 21.55, 7.55 20.63, -0.65 21.48 M24.35 21.86 C18.56 22.14, 9.39 23.69, -0.28 23.13 M-1.05 22.34 C-1.69 18.3, 1.2 12.18, -1.32 -1.48 M0.75 22.55 C-0.99 16.26, -0.07 10.73, 0.03 0.67" stroke="#FFFFFF" stroke-width="1" fill="none"></path></g><g stroke-linecap="round" transform="translate(10 18.4691162109375) rotate(0 288.8971862792969 260.18682861328125)"><path d="M238.07 4.09 C258.28 -3.32, 282.23 -0.45, 304.93 0.92 C327.63 2.28, 352.39 6.32, 374.26 12.28 C396.14 18.24, 416.93 26.38, 436.18 36.67 C455.43 46.97, 473.69 59.81, 489.77 74.04 C505.85 88.26, 520.37 104.82, 532.65 122.02 C544.93 139.22, 556 157.98, 563.45 177.24 C570.89 196.5, 575.5 217.19, 577.32 237.57 C579.13 257.95, 577.74 279.36, 574.35 299.52 C570.95 319.68, 565.64 339.73, 556.97 358.54 C548.29 377.35, 535.55 395.9, 522.28 412.38 C509.01 428.87, 494.49 444.17, 477.35 457.46 C460.21 470.76, 439.79 482.88, 419.43 492.16 C399.06 501.44, 377.27 508.4, 355.16 513.14 C333.05 517.88, 309.43 520.71, 286.76 520.6 C264.09 520.49, 240.92 517.31, 219.13 512.5 C197.34 507.69, 176.01 501.1, 156 491.74 C135.99 482.37, 116.38 469.87, 99.07 456.3 C81.76 442.73, 65.27 427.01, 52.13 410.31 C38.99 393.62, 28.6 374.96, 20.23 356.13 C11.86 337.29, 4.87 317.56, 1.89 297.3 C-1.09 277.05, 0.03 255, 2.34 234.61 C4.66 214.22, 8.39 194.16, 15.8 174.98 C23.21 155.79, 34.33 136.59, 46.8 119.48 C59.27 102.37, 74.31 86.43, 90.63 72.3 C106.95 58.17, 125.3 45.07, 144.72 34.68 C164.13 24.29, 189.19 15.53, 207.13 9.97 C225.08 4.41, 242.1 2.06, 252.38 1.32 C262.67 0.57, 268.23 0.95, 268.85 5.49 M366.83 10.12 C388.88 11.16, 410.14 24.2, 429.58 33.86 C449.03 43.52, 466.94 54.49, 483.52 68.06 C500.1 81.62, 516.08 98.11, 529.05 115.26 C542.01 132.42, 553.64 151.56, 561.33 171 C569.01 190.44, 572.99 211.5, 575.15 231.9 C577.31 252.31, 577.1 273.41, 574.27 293.43 C571.44 313.45, 565.83 333.29, 558.17 352.03 C550.51 370.78, 540.71 388.89, 528.32 405.92 C515.94 422.94, 500.62 440.41, 483.85 454.19 C467.07 467.97, 447.96 479.19, 427.66 488.61 C407.36 498.02, 384.2 505.39, 362.06 510.67 C339.91 515.96, 317.54 519.61, 294.79 520.33 C272.04 521.05, 247.85 519.52, 225.57 514.99 C203.29 510.46, 181.26 502.42, 161.11 493.12 C140.96 483.83, 121.68 472.2, 104.66 459.23 C87.64 446.26, 72.77 431.39, 58.98 415.3 C45.2 399.21, 31.02 381.49, 21.97 362.71 C12.92 343.93, 8.34 322.94, 4.67 302.62 C1.01 282.3, -1.37 260.91, -0.03 240.81 C1.32 220.7, 5.98 201.18, 12.73 182 C19.49 162.81, 28.83 143.44, 40.52 125.69 C52.21 107.93, 66.77 90.1, 82.87 75.46 C98.98 60.82, 117.83 48.15, 137.17 37.85 C156.51 27.55, 177.33 19.99, 198.93 13.67 C220.53 7.35, 243.8 1.83, 266.78 -0.07 C289.76 -1.97, 320.29 0.46, 336.83 2.26 C353.36 4.06, 361.62 8.87, 365.99 10.74 C370.37 12.62, 364.28 9.33, 363.08 13.51" stroke="#c92a2a" stroke-width="1" fill="none"></path></g><g stroke-linecap="round" transform="translate(672.1307983398438 31.0299072265625) rotate(0 445.90643310546875 270.3551330566406)"><path d="M613.92 19.19 C643.57 21.76, 669.76 36.05, 694.95 46.34 C720.13 56.62, 744.06 68, 765.01 80.89 C785.95 93.79, 804.41 108.23, 820.6 123.72 C836.78 139.2, 851.37 156.47, 862.12 173.8 C872.87 191.13, 880.38 209.67, 885.11 227.68 C889.84 245.69, 891.73 263.76, 890.51 281.86 C889.3 299.96, 885.03 318.47, 877.83 336.28 C870.63 354.09, 860.78 372.05, 847.33 388.7 C833.88 405.36, 815.8 421.73, 797.15 436.21 C778.49 450.7, 758.38 463.83, 735.4 475.6 C712.43 487.38, 686 497.87, 659.27 506.84 C632.54 515.81, 604.06 523.93, 575.02 529.45 C545.98 534.96, 515.24 538.48, 485.04 539.92 C454.85 541.37, 423.84 540.34, 393.85 538.12 C363.86 535.89, 333.81 532.11, 305.1 526.58 C276.38 521.06, 247.71 514.18, 221.55 504.94 C195.38 495.71, 170.4 483.68, 148.1 471.19 C125.81 458.69, 105.68 444.52, 87.79 429.99 C69.9 415.45, 53.67 400.64, 40.79 383.99 C27.91 367.34, 17.2 347.97, 10.51 330.07 C3.81 312.18, 1.17 295.01, 0.61 276.62 C0.06 258.24, 1.64 238.1, 7.17 219.77 C12.7 201.45, 22.02 183.35, 33.78 166.66 C45.53 149.97, 60.81 134.82, 77.71 119.65 C94.6 104.48, 113.53 88.54, 135.14 75.63 C156.75 62.73, 181.89 51.98, 207.38 42.22 C232.88 32.47, 259.74 23.42, 288.13 17.08 C316.52 10.74, 347.67 6.83, 377.74 4.16 C407.81 1.48, 438.3 0.19, 468.54 1.02 C498.77 1.86, 533.99 5.9, 559.14 9.16 C584.29 12.42, 609.02 17.39, 619.45 20.57 C629.89 23.74, 624.63 23.9, 621.75 28.21 M645.95 30.04 C675.3 34.07, 701.4 48.9, 725.27 60.33 C749.14 71.76, 770.17 84.77, 789.18 98.6 C808.18 112.44, 824.89 127.42, 839.29 143.35 C853.69 159.28, 866.97 176.3, 875.58 194.2 C884.19 212.1, 888.83 232.47, 890.96 250.74 C893.08 269.02, 892.46 285.9, 888.35 303.86 C884.23 321.82, 876.01 340.81, 866.24 358.53 C856.47 376.25, 845.27 394.52, 829.7 410.18 C814.14 425.85, 793.67 439.24, 772.85 452.52 C752.03 465.79, 729.26 478.95, 704.8 489.84 C680.34 500.73, 653.63 510.16, 626.09 517.85 C598.55 525.54, 569.29 532.26, 539.57 535.96 C509.86 539.67, 478.08 540.27, 447.79 540.08 C417.51 539.9, 387.52 538.14, 357.85 534.87 C328.18 531.6, 297.69 527.49, 269.76 520.47 C241.83 513.45, 215.03 503.34, 190.29 492.77 C165.56 482.21, 142.27 470.32, 121.37 457.08 C100.46 443.84, 80.75 428.89, 64.88 413.33 C49.02 397.78, 36.34 380.97, 26.16 363.74 C15.98 346.51, 7.8 328.12, 3.82 309.95 C-0.17 291.78, 0.29 273.21, 2.25 254.73 C4.21 236.25, 7.76 217.05, 15.59 199.06 C23.41 181.07, 35.51 163, 49.2 146.78 C62.9 130.57, 78.67 116.15, 97.77 101.77 C116.87 87.39, 140.3 72.43, 163.81 60.53 C187.32 48.63, 211.98 38.78, 238.83 30.37 C265.68 21.96, 295.91 14.79, 324.92 10.08 C353.94 5.36, 383.07 3.4, 412.93 2.08 C442.8 0.77, 473.89 0.07, 504.11 2.17 C534.34 4.27, 570.29 10.15, 594.29 14.69 C618.3 19.23, 640.15 26.38, 648.12 29.39 C656.09 32.4, 645.8 28.63, 642.12 32.75" stroke="#1864ab" stroke-width="1" fill="none"></path></g><g transform="translate(163.71963500976562 56.30084228515625) rotate(0 138 22.5)"><text x="0" y="32" font-family="Virgil, Segoe UI Emoji" font-size="36px" fill="#c92a2a" text-anchor="start" style="white-space: pre;" direction="ltr">Confluent Cloud</text></g><g transform="translate(1010.6635131835938 47.9365234375) rotate(0 108.5 22.5)"><text x="0" y="32" font-family="Virgil, Segoe UI Emoji" font-size="36px" fill="#1864ab" text-anchor="start" style="white-space: pre;" direction="ltr">Caf.js Cloud</text></g><g stroke-linecap="round"><g transform="translate(317.86815727970054 171.3416748046875) rotate(0 -32.68081533993808 22.1933845926078)"><path d="M0.08 0.01 C-10.65 7.52, -54.71 36.68, -65.44 44.07 M-1.34 -1.03 C-11.59 6.74, -52.53 37.63, -63.12 45.42" stroke="#FFFFFF" stroke-width="1" fill="none"></path></g><g transform="translate(317.86815727970054 171.3416748046875) rotate(0 -32.68081533993808 22.1933845926078)"><path d="M-46.65 19.09 C-50.94 26.29, -53.91 32.31, -64.25 43.56 M-47.13 20.02 C-53.01 29.65, -60.29 39.84, -63.08 45.76" stroke="#FFFFFF" stroke-width="1" fill="none"></path></g><g transform="translate(317.86815727970054 171.3416748046875) rotate(0 -32.68081533993808 22.1933845926078)"><path d="M-34.37 35.54 C-41.13 39.28, -46.68 41.82, -64.25 43.56 M-34.86 36.47 C-45.61 39.55, -57.74 43.27, -63.08 45.76" stroke="#FFFFFF" stroke-width="1" fill="none"></path></g></g><g stroke-linecap="round"><g transform="translate(332.3223468922605 166.28653259240082) rotate(0 44.88374289231069 25.926841267915506)"><path d="M-0.59 -0.87 C14.53 7.64, 75.09 42.65, 90.36 51.16 M1.3 1.29 C16.28 10, 74.44 44.44, 89.3 52.72" stroke="#FFFFFF" stroke-width="1" fill="none"></path></g><g transform="translate(332.3223468922605 166.28653259240082) rotate(0 44.88374289231069 25.926841267915506)"><path d="M58.3 47.15 C67.78 49.76, 74.04 52.23, 90.95 51.59 M59.33 47.38 C69.86 48.83, 80.71 50.94, 88.36 53.1" stroke="#FFFFFF" stroke-width="1" fill="none"></path></g><g transform="translate(332.3223468922605 166.28653259240082) rotate(0 44.88374289231069 25.926841267915506)"><path d="M68.56 29.38 C75.3 36.71, 78.8 43.96, 90.95 51.59 M69.59 29.6 C76.37 37.46, 83.57 45.89, 88.36 53.1" stroke="#FFFFFF" stroke-width="1" fill="none"></path></g></g><g stroke-linecap="round"><g transform="translate(250.17943523725165 268.2296142578125) rotate(0 24.959091826334372 27.24436450230064)"><path d="M0.16 -0.93 C8.37 8.38, 40.61 46.24, 48.95 55.42 M-1.21 1.2 C7.38 10.21, 42.68 44.68, 51.13 53.67" stroke="#FFFFFF" stroke-width="1" fill="none"></path></g><g transform="translate(250.17943523725165 268.2296142578125) rotate(0 24.959091826334372 27.24436450230064)"><path d="M22.48 39.12 C32.66 44.69, 38.02 49.72, 50.65 52.92 M24.46 41.41 C29.3 44.67, 36.44 47.72, 50.63 54.12" stroke="#FFFFFF" stroke-width="1" fill="none"></path></g><g transform="translate(250.17943523725165 268.2296142578125) rotate(0 24.959091826334372 27.24436450230064)"><path d="M37.09 24.71 C43.18 34.28, 44.5 43.29, 50.65 52.92 M39.07 27 C40.61 33.5, 44.41 39.84, 50.63 54.12" stroke="#FFFFFF" stroke-width="1" fill="none"></path></g></g><g stroke-linecap="round"><g transform="translate(395.9354298009853 265.22979736328125) rotate(0 -27.580387511278445 28.07131418189033)"><path d="M-0.26 -0.05 C-9.61 9.29, -46.76 46.46, -55.92 55.78 M1.8 -1.13 C-7.74 8.43, -47.37 47.55, -56.96 57.27" stroke="#FFFFFF" stroke-width="1" fill="none"></path></g><g transform="translate(395.9354298009853 265.22979736328125) rotate(0 -27.580387511278445 28.07131418189033)"><path d="M-44.35 29.82 C-48.44 39.48, -52.27 45.75, -56.55 57.99 M-44.3 30.77 C-47.29 35.85, -50.13 42.38, -57.89 57.47" stroke="#FFFFFF" stroke-width="1" fill="none"></path></g><g transform="translate(395.9354298009853 265.22979736328125) rotate(0 -27.580387511278445 28.07131418189033)"><path d="M-29.85 44.34 C-38.46 49.41, -46.84 51.13, -56.55 57.99 M-29.8 45.29 C-36.41 46.81, -42.74 49.84, -57.89 57.47" stroke="#FFFFFF" stroke-width="1" fill="none"></path></g></g><g stroke-linecap="round"><g transform="translate(1120.1307983398438 143.2109375) rotate(0 0.5199340796096976 193.6819753998891)"><path d="M-0.7 0.05 C-0.21 64.7, 1.22 323.09, 1.74 387.32" stroke="#FFFFFF" stroke-width="4.5" fill="none" stroke-dasharray="8 12"></path></g></g><g stroke-linecap="round"><g transform="translate(992.1307983398438 307.87847900390625) rotate(0 159.88765183622024 12.82695042957539)"><path d="M-0.6 1.07 C52.52 5.4, 265.03 21.32, 318.23 25.07 M1.29 0.58 C54.81 4.64, 267.07 19.27, 320.38 23.25" stroke="#FFFFFF" stroke-width="4" fill="none"></path></g><g transform="translate(992.1307983398438 307.87847900390625) rotate(0 159.88765183622024 12.82695042957539)"><path d="M293.3 29.69 C300 28.3, 305.02 25.48, 320.56 24.41 M291.96 31.45 C300.05 29.99, 308.54 26.28, 321.08 23.79" stroke="#FFFFFF" stroke-width="4" fill="none"></path></g><g transform="translate(992.1307983398438 307.87847900390625) rotate(0 159.88765183622024 12.82695042957539)"><path d="M294.76 9.23 C300.93 13.11, 305.57 15.58, 320.56 24.41 M293.43 10.98 C301 15.26, 309.08 17.3, 321.08 23.79" stroke="#FFFFFF" stroke-width="4" fill="none"></path></g></g><g stroke-linecap="round"><g transform="translate(1005.3896165308915 416.32008535824707) rotate(0 153.2790608588607 -30.871037066355257)"><path d="M0.62 0.76 C51.85 -9.76, 255.86 -51.98, 307.07 -62.5 M-0.52 0.11 C50.58 -10.34, 254.71 -51.21, 306.05 -61.47" stroke="#FFFFFF" stroke-width="4" fill="none"></path></g><g transform="translate(1005.3896165308915 416.32008535824707) rotate(0 153.2790608588607 -30.871037066355257)"><path d="M281.69 -46.11 C285.72 -49.07, 292.98 -53.93, 305.24 -62.2 M281.42 -45.56 C289.86 -51.05, 296.91 -56.98, 305.91 -62.11" stroke="#FFFFFF" stroke-width="4" fill="none"></path></g><g transform="translate(1005.3896165308915 416.32008535824707) rotate(0 153.2790608588607 -30.871037066355257)"><path d="M277.66 -66.24 C282.9 -63.73, 291.25 -63.1, 305.24 -62.2 M277.39 -65.68 C287.06 -64.56, 295.44 -63.82, 305.91 -62.11" stroke="#FFFFFF" stroke-width="4" fill="none"></path></g></g><g transform="translate(1580.6626586914062 52.4677734375) rotate(0 56 53)"><text x="56" y="24.333333333333336" font-family="Virgil, Segoe UI Emoji" font-size="28px" fill="#FFFFFF" text-anchor="middle" style="white-space: pre;" direction="ltr">#units</text><text x="56" y="59.66666666666667" font-family="Virgil, Segoe UI Emoji" font-size="28px" fill="#FFFFFF" text-anchor="middle" style="white-space: pre;" direction="ltr">#events</text><text x="56" y="95" font-family="Virgil, Segoe UI Emoji" font-size="28px" fill="#FFFFFF" text-anchor="middle" style="white-space: pre;" direction="ltr">epoch</text></g><g stroke-linecap="round" transform="translate(1577.7008666992188 27.94390869140625) rotate(0 64.89715576171875 72.971923828125)"><path d="M0.14 0.94 C42.87 1.41, 80.49 0.29, 131.15 0.47 M-0.1 -0.88 C45.62 -1.5, 89.81 -1.64, 130.78 0.88 M130.53 -0.59 C131.03 50.37, 129.08 97.32, 129.56 146.78 M129.04 -0.66 C130.09 34.74, 130 69.27, 130.28 144.97 M130.56 147.65 C105.08 148.42, 76.57 145.9, 1.15 147.09 M130.28 146.33 C98.9 147.7, 66.73 147.42, -0.61 146.29 M1.82 146.76 C-1.49 118.31, -0.55 86.49, -0.89 1.24 M-0.55 145.7 C0.15 112.59, 0.13 80.93, -0.04 0.8" stroke="#FFFFFF" stroke-width="4" fill="none"></path></g><g stroke-linecap="round" transform="translate(1563.3457641601562 10) rotate(0 78.9532470703125 96.29904174804688)"><path d="M1.71 1.33 C65.01 -1.73, 125.66 0.55, 159.05 -1.21 M0.38 0.17 C63.73 -1.71, 126.43 -1.37, 158.26 -0.99 M158.73 -0.62 C160.93 69.58, 158.47 137.63, 159.15 191.1 M157.66 0.7 C157.27 65.83, 158.45 130.26, 158.71 193.07 M159.49 194.3 C118.36 192.88, 82.19 192.03, -0.14 194.48 M158.46 191.83 C108.53 191.89, 60.01 191.93, -0.13 193.59 M1.21 192.16 C-0.88 126.81, 0.1 63.35, 1.16 1.86 M0.65 192.71 C-1.46 149.61, -0.91 109.26, 0.84 0.96" stroke="#FFFFFF" stroke-width="4" fill="none"></path></g><g stroke-linecap="round"><g transform="translate(1557.9625854492188 132.00933837890625) rotate(0 -97.51859911983843 93.14380084313439)"><path d="M0.04 -0.98 C-32.33 30.07, -161.63 156.09, -194.22 187.27 M-1.4 1.12 C-33.92 31.73, -163.11 154.49, -195.08 185.48" stroke="#FFFFFF" stroke-width="4" fill="none"></path></g><g transform="translate(1557.9625854492188 132.00933837890625) rotate(0 -97.51859911983843 93.14380084313439)"><path d="M-14.68 26.3 C-8.26 16.02, -6.31 9.21, -1.74 -1.82 M-12.95 26.18 C-10.21 19.45, -5.55 11.48, -0.08 -1.4" stroke="#FFFFFF" stroke-width="4" fill="none"></path></g><g transform="translate(1557.9625854492188 132.00933837890625) rotate(0 -97.51859911983843 93.14380084313439)"><path d="M-28.97 11.57 C-18.11 5.73, -11.85 3.37, -1.74 -1.82 M-27.24 11.45 C-20.74 8.74, -12.3 4.68, -0.08 -1.4" stroke="#FFFFFF" stroke-width="4" fill="none"></path></g><g transform="translate(1557.9625854492188 132.00933837890625) rotate(0 -97.51859911983843 93.14380084313439)"><path d="M-183.45 158.85 C-184.54 164.85, -190.54 174.32, -196.86 184.64 M-181.72 158.73 C-186.02 166.02, -188.33 172.32, -195.2 185.06" stroke="#FFFFFF" stroke-width="4" fill="none"></path></g><g transform="translate(1557.9625854492188 132.00933837890625) rotate(0 -97.51859911983843 93.14380084313439)"><path d="M-169.26 173.67 C-174.74 175.2, -185.04 180.19, -196.86 184.64 M-167.53 173.55 C-175.56 176.79, -181.63 179.17, -195.2 185.06" stroke="#FFFFFF" stroke-width="4" fill="none"></path></g></g></svg>
