<svg version="1.1" xmlns="http://www.w3.org/2000/svg" viewBox="0 0 858.4346008300781 439.08197021484375" width="858.4346008300781" height="439.08197021484375">
  <!-- svg-source:excalidraw -->

  <defs>
    <style>
      @font-face {
        font-family: "Virgil";
        src: url("https://excalidraw.com/Virgil.woff2");
      }
      @font-face {
        font-family: "Cascadia";
        src: url("https://excalidraw.com/Cascadia.woff2");
      }
    </style>
  </defs>
  <rect x="0" y="0" width="858.4346008300781" height="439.08197021484375" fill="none"></rect><g stroke-linecap="round" transform="translate(424.3598937988281 72.595947265625) rotate(0 212.037353515625 178.24301147460938)"><path d="M110.87 21.26 C125.65 11.3, 147.29 7.92, 166.35 4.61 C185.41 1.29, 205.44 0.48, 225.24 1.38 C245.03 2.28, 266.36 4.59, 285.13 10.02 C303.89 15.44, 322.18 24.14, 337.83 33.94 C353.49 43.75, 367.2 55.66, 379.06 68.85 C390.91 82.03, 401.52 97.71, 408.97 113.06 C416.43 128.41, 421.92 144.56, 423.79 160.97 C425.66 177.37, 424.04 195.39, 420.21 211.51 C416.37 227.64, 409.45 243.11, 400.79 257.73 C392.12 272.34, 381.6 286.89, 368.22 299.22 C354.83 311.56, 337.36 323.34, 320.47 331.74 C303.58 340.14, 285.77 345.37, 266.88 349.6 C247.99 353.83, 226.74 357.23, 207.14 357.13 C187.53 357.03, 168.03 353.94, 149.23 349 C130.44 344.05, 110.76 336.54, 94.37 327.46 C77.97 318.38, 63.41 307.27, 50.87 294.55 C38.34 281.83, 27.36 266.4, 19.17 251.14 C10.98 235.87, 4.56 219.22, 1.75 202.97 C-1.07 186.72, -0.39 169.71, 2.28 153.62 C4.95 137.52, 9.85 121.45, 17.78 106.38 C25.72 91.32, 36.98 75.85, 49.9 63.23 C62.82 50.62, 81.67 38.87, 95.29 30.7 C108.92 22.53, 122.04 17.63, 131.66 14.21 C141.29 10.79, 151.93 7.47, 153.04 10.19 M227.55 -0.21 C246.45 -2.1, 267.86 4.07, 286.2 9.87 C304.54 15.68, 322.03 24.56, 337.59 34.61 C353.14 44.66, 367.35 56.79, 379.52 70.15 C391.69 83.52, 403.05 99.48, 410.58 114.82 C418.11 130.15, 423.26 145.68, 424.7 162.18 C426.13 178.69, 423.12 197.44, 419.19 213.84 C415.27 230.23, 410.14 246.01, 401.16 260.54 C392.17 275.08, 378.63 289.09, 365.27 301.02 C351.92 312.95, 337.85 324.04, 321.02 332.13 C304.19 340.22, 283.72 345.59, 264.29 349.55 C244.86 353.51, 223.86 355.95, 204.44 355.9 C185.01 355.86, 166.08 354.4, 147.74 349.29 C129.4 344.18, 110.85 334.77, 94.38 325.24 C77.91 315.71, 61.78 304.84, 48.93 292.09 C36.08 279.35, 25.06 263.62, 17.29 248.77 C9.52 233.92, 5.05 219.13, 2.31 203 C-0.42 186.86, -2.18 168.56, 0.88 151.97 C3.94 135.38, 12.41 118.38, 20.68 103.45 C28.95 88.53, 38.08 74.97, 50.49 62.43 C62.9 49.89, 78.72 37.26, 95.15 28.19 C111.57 19.13, 129.86 12.82, 149.06 8.02 C168.25 3.23, 196.87 0.57, 210.32 -0.59 C223.76 -1.75, 226.7 0.1, 229.75 1.05 C232.79 2, 228.86 2.28, 228.57 5.09" stroke="#FFFFFF" stroke-width="1" fill="none"></path></g><g stroke-linecap="round" transform="translate(423.7524719238281 202.44854736328125) rotate(0 12.560699462890625 51.140106201171875)"><path d="M13.52 -0.7 C16.05 -1.23, 18.51 4.25, 20.5 10.85 C22.5 17.44, 25 28.66, 25.49 38.87 C25.98 49.08, 24.65 62.53, 23.46 72.11 C22.26 81.7, 20.39 91.55, 18.34 96.37 C16.29 101.19, 13.48 102.55, 11.15 101.03 C8.83 99.5, 6.09 94.36, 4.37 87.21 C2.65 80.06, 1.26 68.16, 0.84 58.15 C0.43 48.14, 0.88 36.13, 1.88 27.15 C2.88 18.16, 4.45 8.22, 6.86 4.21 C9.27 0.21, 14 1.95, 16.35 3.11 C18.69 4.26, 21.07 10.42, 20.96 11.12 M19.85 5.51 C22.25 9.36, 22.68 20.81, 23.69 29.99 C24.7 39.17, 26.33 50.65, 25.92 60.59 C25.5 70.54, 23.49 82.91, 21.19 89.67 C18.89 96.44, 14.9 100.29, 12.12 101.19 C9.34 102.1, 6.42 100.52, 4.5 95.09 C2.57 89.66, 1.37 78.15, 0.56 68.62 C-0.25 59.09, -0.9 47.65, -0.35 37.91 C0.19 28.16, 1.47 16.27, 3.82 10.16 C6.17 4.05, 11.2 1.94, 13.73 1.25 C16.27 0.56, 18.12 5.16, 19.01 6.02 C19.9 6.88, 19.39 5.5, 19.07 6.42" stroke="none" stroke-width="0" fill="#fa5252"></path><path d="M7.35 6.2 C9.43 1.23, 12.58 -0.17, 14.86 1.55 C17.13 3.28, 19.22 9.18, 21.01 16.53 C22.8 23.88, 25.21 35.51, 25.6 45.68 C26 55.85, 24.85 68.7, 23.38 77.54 C21.9 86.39, 19.19 95.11, 16.74 98.76 C14.3 102.41, 11.15 102.26, 8.71 99.43 C6.27 96.61, 3.64 89.91, 2.12 81.8 C0.6 73.69, -0.5 61.03, -0.42 50.79 C-0.34 40.56, 1.2 28.28, 2.6 20.37 C4.01 12.47, 6.79 6.46, 8.01 3.38 C9.22 0.29, 9.74 1.06, 9.91 1.85 M8.29 1.13 C10.62 -1.85, 13.66 -1.14, 16.41 2.97 C19.16 7.07, 23.43 16.63, 24.78 25.77 C26.14 34.92, 25.11 47.82, 24.54 57.86 C23.97 67.9, 23.18 78.58, 21.37 86.03 C19.57 93.48, 16.01 101.02, 13.69 102.56 C11.38 104.1, 9.42 100.25, 7.49 95.28 C5.56 90.31, 3.12 82.01, 2.1 72.74 C1.08 63.47, 0.77 49.63, 1.36 39.66 C1.96 29.68, 4.21 19.02, 5.67 12.89 C7.12 6.75, 9.22 4.78, 10.09 2.85 C10.96 0.91, 10.7 0.54, 10.88 1.27" stroke="#FFFFFF" stroke-width="1" fill="none"></path></g><g stroke-linecap="round" transform="translate(613.9484558105469 91.19610595703125) rotate(0 56.52337646484375 43.07012939453125)"><path d="M74.09 3.06 C83.32 4.69, 93.82 10.02, 100.39 15.83 C106.95 21.65, 112.3 30.35, 113.48 37.94 C114.65 45.52, 111.54 54.41, 107.44 61.36 C103.34 68.31, 96.83 75.49, 88.9 79.63 C80.96 83.77, 69.97 85.91, 59.82 86.18 C49.66 86.46, 36.7 85.15, 27.96 81.29 C19.23 77.43, 12.06 69.9, 7.41 63.03 C2.77 56.15, -0.51 47.49, 0.08 40.03 C0.66 32.57, 5.34 24.24, 10.93 18.28 C16.51 12.32, 24.67 7.11, 33.6 4.29 C42.54 1.46, 57.03 1.63, 64.54 1.34 C72.05 1.05, 75.68 1.93, 78.68 2.54 C81.68 3.15, 82.82 4.31, 82.54 4.98 M66.79 0.07 C76.18 1.2, 87.9 7.83, 95.19 12.93 C102.49 18.04, 108.13 23.36, 110.55 30.7 C112.97 38.04, 112.76 49.33, 109.73 56.97 C106.71 64.62, 99.46 71.9, 92.39 76.59 C85.32 81.28, 76.9 83.97, 67.3 85.13 C57.71 86.28, 44.09 86.49, 34.84 83.51 C25.58 80.54, 17.5 73.51, 11.78 67.28 C6.05 61.05, 1.6 53.69, 0.5 46.15 C-0.6 38.6, 0.8 28.58, 5.16 22.03 C9.53 15.48, 17.93 10.56, 26.69 6.85 C35.46 3.15, 51.1 0.55, 57.77 -0.2 C64.44 -0.96, 65.32 1.97, 66.7 2.33 C68.08 2.68, 65.92 1.26, 66.05 1.92" stroke="#FFFFFF" stroke-width="1" fill="none"></path></g><g stroke-linecap="round" transform="translate(620.9672546386719 198.69134521484375) rotate(0 56.52337646484375 43.07012939453125)"><path d="M58.82 -0.42 C68.13 -1, 79.7 2.69, 87.8 6.87 C95.89 11.05, 103.3 17.79, 107.38 24.66 C111.46 31.54, 113.39 40.37, 112.28 48.12 C111.16 55.87, 107.06 65.21, 100.67 71.18 C94.29 77.15, 83.42 81.66, 73.96 83.92 C64.49 86.17, 53.28 86.58, 43.86 84.7 C34.45 82.82, 24.67 77.77, 17.47 72.65 C10.27 67.52, 3.08 61.05, 0.66 53.96 C-1.76 46.86, -0.34 37.39, 2.95 30.08 C6.25 22.77, 12.73 15.15, 20.41 10.09 C28.1 5.03, 41.39 1.25, 49.06 -0.26 C56.72 -1.78, 62.1 0.35, 66.4 0.99 C70.71 1.64, 74.8 2.86, 74.89 3.59 M58.86 1.14 C68.21 1.13, 80.83 3.34, 89.13 7.56 C97.42 11.79, 104.59 19.23, 108.63 26.49 C112.67 33.76, 115.15 43.7, 113.35 51.14 C111.55 58.59, 104.67 65.66, 97.83 71.15 C91 76.64, 81.81 81.88, 72.34 84.09 C62.88 86.29, 50.36 86.08, 41.04 84.36 C31.72 82.64, 22.95 79.24, 16.43 73.77 C9.91 68.3, 4.13 59.06, 1.93 51.52 C-0.28 43.98, -0.02 35.54, 3.21 28.53 C6.43 21.53, 13.23 14.22, 21.28 9.49 C29.32 4.75, 45.26 1.65, 51.47 0.11 C57.67 -1.42, 57.21 -0.09, 58.51 0.26 C59.81 0.61, 58.95 1.39, 59.3 2.2" stroke="#FFFFFF" stroke-width="1" fill="none"></path></g><g stroke-linecap="round" transform="translate(622.5934143066406 313.96234130859375) rotate(0 56.52337646484375 43.07012939453125)"><path d="M39.09 1.13 C47.86 -1.6, 60.88 -0.58, 70.62 1.52 C80.35 3.62, 90.78 8.25, 97.5 13.73 C104.22 19.22, 108.71 27.26, 110.92 34.42 C113.13 41.58, 113.89 49.55, 110.77 56.7 C107.65 63.84, 100.03 72.6, 92.21 77.3 C84.39 82, 73.66 83.93, 63.84 84.89 C54.03 85.85, 42.45 85.97, 33.32 83.04 C24.19 80.11, 14.49 73.8, 9.08 67.29 C3.66 60.79, 1.04 51.69, 0.8 44.01 C0.56 36.33, 2.67 27.6, 7.63 21.24 C12.6 14.88, 23.99 9.33, 30.57 5.85 C37.16 2.36, 43.21 1.27, 47.17 0.32 C51.12 -0.63, 54.34 -0.51, 54.32 0.15 M59.17 1.06 C68.96 0.61, 81.74 2.69, 89.8 6.75 C97.85 10.8, 103.77 18.21, 107.5 25.38 C111.23 32.56, 113.34 41.94, 112.19 49.78 C111.03 57.63, 106.88 66.57, 100.56 72.47 C94.25 78.38, 84.03 82.98, 74.29 85.23 C64.54 87.47, 51.76 88.27, 42.09 85.93 C32.42 83.59, 23.09 76.63, 16.27 71.17 C9.45 65.72, 3.12 60.19, 1.19 53.21 C-0.74 46.22, 1.2 36.7, 4.7 29.27 C8.2 21.84, 14.54 13.7, 22.2 8.63 C29.85 3.56, 44.22 0.49, 50.62 -1.14 C57.02 -2.77, 58.83 -1.4, 60.58 -1.16 C62.33 -0.92, 61 -0.75, 61.1 0.31" stroke="#FFFFFF" stroke-width="1" fill="none"></path></g><g transform="translate(617.3833618164062 118.05123901367188) rotate(0 50.5 17.5)"><text x="50.5" y="25" font-family="Virgil, Segoe UI Emoji" font-size="28px" fill="#FFFFFF" text-anchor="middle" style="white-space: pre;" direction="ltr">Offset1</text></g><g transform="translate(617.9021606445312 225.54647827148438) rotate(0 57 17.5)"><text x="57" y="25" font-family="Virgil, Segoe UI Emoji" font-size="28px" fill="#FFFFFF" text-anchor="middle" style="white-space: pre;" direction="ltr">Offset2</text></g><g transform="translate(620.0283203125 340.8174743652344) rotate(0 56.5 17.5)"><text x="56.5" y="25" font-family="Virgil, Segoe UI Emoji" font-size="28px" fill="#FFFFFF" text-anchor="middle" style="white-space: pre;" direction="ltr">Offset3</text></g><g stroke-linecap="round"><g transform="translate(20.971969604492188 207.17093202823798) rotate(0 117.33197409757412 0.05776146008702199)"><path d="M-0.13 -1.01 C39.39 -1.09, 196.92 -0.61, 236.32 -0.56 M-1.65 1.07 C37.72 1.21, 195.61 1.08, 235.08 1" stroke="#FFFFFF" stroke-width="1" fill="none"></path></g></g><g stroke-linecap="round"><g transform="translate(25.158920288085938 272.385775778238) rotate(0 117.94754229597746 0.2701037476210786)"><path d="M-1.01 -0.55 C38.49 -0.74, 197.28 -1.11, 236.91 -1.23 M0.66 1.77 C40.02 1.75, 196.76 0.33, 235.98 -0.03" stroke="#FFFFFF" stroke-width="1" fill="none"></path></g></g><g stroke-linecap="round"><g transform="translate(34.2196044921875 206.77835390323798) rotate(0 1.2201312080434548 30.709365017618893)"><path d="M-0.55 0.04 C-0.44 10.36, 0.39 50.67, 0.56 60.92 M1.36 -0.99 C1.88 9.62, 3.27 52.34, 2.94 62.41" stroke="#FFFFFF" stroke-width="1" fill="none"></path></g></g><g stroke-linecap="round"><g transform="translate(58.15415954589844 206.1895172333161) rotate(0 -0.14863896094260554 30.43205961070953)"><path d="M0.04 -0.63 C0.39 9.51, 0.83 50.05, 1.1 60.32 M-1.4 1.65 C-1.13 11.99, -0.32 51.39, 0.11 61.5" stroke="#FFFFFF" stroke-width="1" fill="none"></path></g></g><g stroke-linecap="round"><g transform="translate(85.65885925292969 208.57275697940986) rotate(0 1.1160698659888624 30.158038405543266)"><path d="M-0.63 -0.09 C-0.46 10.15, 0.21 51.42, 0.51 61.5 M1.24 -1.19 C1.85 8.69, 3 49.21, 2.86 59.64" stroke="#FFFFFF" stroke-width="1" fill="none"></path></g></g><g stroke-linecap="round"><g transform="translate(111.37849426269526 206.77841493839423) rotate(0 0.044715837761742705 30.895509857609795)"><path d="M-0.09 -0.69 C0.18 9.58, 1.58 50.73, 1.69 60.97 M-1.6 1.56 C-1.44 12.09, 0.82 52.42, 1 62.48" stroke="#FFFFFF" stroke-width="1" fill="none"></path></g></g><g stroke-linecap="round"><g transform="translate(141.88316345214844 207.36719057315986) rotate(0 0.24321690223970904 30.635909303035533)"><path d="M-0.69 0.49 C-0.39 10.57, 0.88 50.14, 1.15 60.37 M1.15 -0.3 C1.34 9.94, 0.37 51.53, 0.18 61.57" stroke="#FFFFFF" stroke-width="1" fill="none"></path></g></g><g stroke-linecap="round"><g transform="translate(171.1915283203125 209.75967714542548) rotate(0 1.1098513778299264 30.502432713881035)"><path d="M0.49 -0.04 C0.6 10.19, 0.3 50.57, 0.55 60.73 M-0.71 -1.11 C-0.2 9.36, 2.53 51.57, 2.93 62.12" stroke="#FFFFFF" stroke-width="1" fill="none"></path></g></g><g stroke-linecap="round"><g transform="translate(205.29437255859375 206.7784301971833) rotate(0 -0.30572343281471603 30.592161522433344)"><path d="M-0.04 -0.64 C0.22 9.58, 0.73 51.65, 0.91 61.83 M-1.53 1.63 C-1.38 11.48, -0.48 50.17, -0.18 60.13" stroke="#FFFFFF" stroke-width="1" fill="none"></path></g></g><g stroke-linecap="round"><g transform="translate(233.3971710205078 207.3765289520661) rotate(0 0.6856063466519231 30.454513716772226)"><path d="M-0.64 -0.28 C-0.39 9.88, 1.81 50.86, 2.01 60.9 M1.22 -1.47 C1.35 8.88, 1.78 52.01, 1.49 62.38" stroke="#FFFFFF" stroke-width="1" fill="none"></path></g></g><g stroke-linecap="round"><g transform="translate(264.4818215941481 240.6171817192867) rotate(0 76.11439184163703 1.243858012981491)"><path d="M-0.28 0.82 C25.14 1.1, 127.2 0.85, 152.51 1.07 M1.77 0.2 C27.03 0.69, 126.14 2.32, 151.51 2.29" stroke="#FFFFFF" stroke-width="4" fill="none"></path></g><g transform="translate(264.4818215941481 240.6171817192867) rotate(0 76.11439184163703 1.243858012981491)"><path d="M124.59 12.12 C130.64 7.71, 140.79 6.87, 149.7 0.41 M124.02 11.89 C130.87 9.86, 140.29 7.17, 152.26 2.55" stroke="#FFFFFF" stroke-width="4" fill="none"></path></g><g transform="translate(264.4818215941481 240.6171817192867) rotate(0 76.11439184163703 1.243858012981491)"><path d="M124.77 -8.4 C130.66 -6.73, 140.75 -1.49, 149.7 0.41 M124.2 -8.63 C130.83 -4.7, 140.19 -1.42, 152.26 2.55" stroke="#FFFFFF" stroke-width="4" fill="none"></path></g></g><g stroke-linecap="round" transform="translate(233.59811401367188 224.59685516357422) rotate(0 12.266357421875 17.046730041503906)"><path d="M14.37 -0.4 L22.72 19.56 L13.52 32.34 L-0.86 19.37" stroke="none" stroke-width="0" fill="#12b886" fill-rule="evenodd"></path><path d="M14.55 -1.54 C15.71 3.25, 16.47 5.42, 25.44 16.21 M13.39 0.44 C16.62 5.62, 21.8 11.17, 23.55 17.65 M25.91 16.62 C21.53 21.37, 16.53 29.23, 14.6 34.5 M24.3 17.21 C21.3 21.26, 18.77 26.03, 13.71 34.45 M13.51 32.47 C8.97 29, 5.09 26.69, -0.75 17.7 M12.22 33.39 C9.43 29.61, 6.65 25.59, 0.95 17.01 M-0.43 16.9 C4.21 11.57, 8.39 10.44, 11.63 1.83 M-0.12 18.63 C4.38 13.01, 6.99 8.66, 12.34 -0.63" stroke="#FFFFFF" stroke-width="4" fill="none"></path></g><g transform="translate(10 134.35401153564453) rotate(0 128.5 22.5)"><text x="128.5" y="32" font-family="Virgil, Segoe UI Emoji" font-size="36px" fill="#FFFFFF" text-anchor="middle" style="white-space: pre;" direction="ltr">Kafka Topic A</text></g><g transform="translate(254.83657836914062 178.59368896484375) rotate(0 78 17.5)"><text x="78" y="25" font-family="Virgil, Segoe UI Emoji" font-size="28px" fill="#FFFFFF" text-anchor="middle" style="white-space: pre;" direction="ltr">(key, value)</text></g><g stroke-linecap="round"><g transform="translate(451.8867660562238 234.31882493922512) rotate(0 61.56337638810976 -40.144014866584484)"><path d="M-0.82 0.08 C19.55 -12.99, 101 -65.39, 121.55 -78.71 M0.96 -0.92 C21.78 -14.31, 103.79 -67.43, 123.94 -80.37" stroke="#FFFFFF" stroke-width="2" fill="none"></path></g><g transform="translate(451.8867660562238 234.31882493922512) rotate(0 61.56337638810976 -40.144014866584484)"><path d="M105.96 -57.47 C111.78 -61.67, 114.45 -69.69, 124.74 -79.56 M105.26 -56.33 C110.19 -62.94, 116.15 -69.06, 124.04 -80.31" stroke="#FFFFFF" stroke-width="2" fill="none"></path></g><g transform="translate(451.8867660562238 234.31882493922512) rotate(0 61.56337638810976 -40.144014866584484)"><path d="M94.83 -74.71 C103.36 -74.59, 108.77 -78.36, 124.74 -79.56 M94.13 -73.58 C102.13 -75.55, 111.03 -77.12, 124.04 -80.31" stroke="#FFFFFF" stroke-width="2" fill="none"></path></g></g><g transform="translate(519.2521667480469 106.21014404296875) rotate(0 26.5 17.5)"><text x="26.5" y="25" font-family="Virgil, Segoe UI Emoji" font-size="28px" fill="#FFFFFF" text-anchor="middle" style="white-space: pre;" direction="ltr">Key1</text></g><g transform="translate(519.7708435058594 215.499755859375) rotate(0 33 17.5)"><text x="33" y="25" font-family="Virgil, Segoe UI Emoji" font-size="28px" fill="#FFFFFF" text-anchor="middle" style="white-space: pre;" direction="ltr">Key2</text></g><g transform="translate(537.4485168457031 318.228759765625) rotate(0 32.5 17.5)"><text x="32.5" y="25" font-family="Virgil, Segoe UI Emoji" font-size="28px" fill="#FFFFFF" text-anchor="middle" style="white-space: pre;" direction="ltr">Key3</text></g><g stroke-linecap="round" transform="translate(580.4533386230469 354.383056640625) rotate(0 21.23828125 8.373779296875)"><path d="M11.66 0.32 C15.54 -0.22, 22.85 0.53, 27.42 1.16 C31.98 1.79, 36.45 2.72, 39.05 4.12 C41.64 5.52, 43.42 7.81, 42.99 9.56 C42.56 11.3, 39.87 13.42, 36.46 14.58 C33.04 15.74, 27.26 16.41, 22.5 16.52 C17.74 16.63, 11.55 16.34, 7.9 15.23 C4.25 14.12, 1.61 11.79, 0.6 9.88 C-0.4 7.98, -0.57 5.23, 1.87 3.8 C4.31 2.37, 12.8 2.03, 15.24 1.32 C17.68 0.61, 16.61 -0.51, 16.52 -0.46 M10.76 2.18 C14.31 0.9, 21.24 -1.2, 25.73 -1.15 C30.23 -1.1, 35.06 0.71, 37.71 2.47 C40.37 4.24, 41.75 7.38, 41.69 9.44 C41.63 11.5, 40.49 13.56, 37.35 14.84 C34.21 16.11, 27.6 17.06, 22.84 17.08 C18.08 17.11, 12.22 15.89, 8.81 15.01 C5.4 14.13, 3.61 13.52, 2.39 11.81 C1.16 10.09, -0.24 6.28, 1.45 4.71 C3.14 3.14, 10.59 2.77, 12.54 2.38 C14.48 1.99, 13 2.3, 13.1 2.39" stroke="#FFFFFF" stroke-width="2" fill="none"></path></g><g stroke-linecap="round"><g transform="translate(582.2570495605469 363.35498046875) rotate(0 0.14867235221538522 17.14469177475212)"><path d="M-0.47 -0.25 C-0.74 5.4, -1.25 28.54, -1.19 34.14 M1.48 -1.42 C1.53 4.41, 1.3 29.75, 0.9 35.71" stroke="#FFFFFF" stroke-width="2" fill="none"></path></g></g><g stroke-linecap="round"><g transform="translate(623.5187683105469 366.94378662109375) rotate(0 -0.28732761956746344 14.961073632463922)"><path d="M-0.92 -1.02 C-1.22 4.16, -0.75 24.48, -0.68 29.99 M0.79 1.06 C0.28 6.45, -1.07 26.09, -1.37 30.94" stroke="#FFFFFF" stroke-width="2" fill="none"></path></g></g><g stroke-linecap="round"><g transform="translate(582.8551940917969 398.65399169921875) rotate(0 18.409933648258402 0.25082550876732057)"><path d="M-0.27 0.65 C5.77 0.87, 30.88 1.09, 37.09 1.06 M1.79 -0.05 C7.71 -0.14, 30.94 -0.29, 36.77 -0.56" stroke="#FFFFFF" stroke-width="2" fill="none"></path></g></g><g stroke-linecap="round" transform="translate(574.3037414550781 137.09356689453125) rotate(0 21.23828125 8.373779296875)"><path d="M28.91 -0.09 C32.89 0.53, 37.57 3.37, 39.82 5.2 C42.08 7.02, 43.32 9.29, 42.41 10.87 C41.51 12.45, 38.05 13.6, 34.39 14.7 C30.73 15.79, 25.06 17.36, 20.45 17.43 C15.84 17.51, 9.96 16.41, 6.73 15.17 C3.49 13.92, 1.47 11.71, 1.02 9.95 C0.58 8.2, 1.68 6.29, 4.05 4.63 C6.42 2.97, 10.48 0.52, 15.22 -0.03 C19.97 -0.57, 29.35 0.87, 32.5 1.35 C35.65 1.84, 34.3 2.7, 34.13 2.88 M30.98 1.34 C35.08 1.85, 37.79 3.01, 39.4 4.41 C41.01 5.81, 41.54 7.9, 40.64 9.72 C39.73 11.55, 37.57 14.06, 33.98 15.38 C30.38 16.7, 23.64 17.66, 19.07 17.67 C14.5 17.68, 9.92 16.84, 6.57 15.44 C3.21 14.04, -0.47 11.14, -1.05 9.28 C-1.63 7.42, 0.29 5.53, 3.09 4.28 C5.9 3.03, 11.15 2.26, 15.79 1.79 C20.43 1.33, 28.49 1.52, 30.96 1.5 C33.42 1.48, 31.01 1.78, 30.6 1.68" stroke="#FFFFFF" stroke-width="2" fill="none"></path></g><g stroke-linecap="round"><g transform="translate(576.1074523925781 146.06549072265625) rotate(0 -0.5054785580724683 17.454827347025457)"><path d="M0.01 0.95 C0.11 6.65, 0.52 29.13, 0.41 34.5 M-1.44 0.41 C-1.45 5.71, -0.27 26.98, -0.32 32.59" stroke="#FFFFFF" stroke-width="2" fill="none"></path></g></g><g stroke-linecap="round"><g transform="translate(617.3691711425781 149.654296875) rotate(0 -0.28025281420906367 15.603721260335305)"><path d="M0.95 0.41 C0.77 5.48, -0.28 25.38, -0.78 30.44 M0 -0.42 C-0.34 4.79, -1.57 26.25, -1.51 31.63" stroke="#FFFFFF" stroke-width="2" fill="none"></path></g></g><g stroke-linecap="round"><g transform="translate(576.7055969238281 181.364501953125) rotate(0 18.380528532266567 -0.18661466836920226)"><path d="M0.41 0.41 C6.28 0.12, 29.38 -0.86, 35.23 -0.78 M-0.84 -0.43 C5.43 -0.67, 31.69 0.39, 37.6 0.29" stroke="#FFFFFF" stroke-width="2" fill="none"></path></g></g><g stroke-linecap="round" transform="translate(578.9111022949219 247.5699462890625) rotate(0 21.23828125 8.373779296875)"><path d="M14.01 1.21 C18.04 0.33, 24.1 -0.49, 28.37 0.1 C32.65 0.68, 37.34 3.03, 39.64 4.73 C41.93 6.43, 42.73 8.55, 42.14 10.29 C41.55 12.04, 39.39 13.99, 36.09 15.2 C32.8 16.4, 27.01 17.65, 22.37 17.53 C17.72 17.42, 11.86 15.74, 8.22 14.5 C4.57 13.27, 1.56 11.68, 0.52 10.11 C-0.52 8.54, -0.52 6.64, 1.98 5.09 C4.48 3.54, 12.82 1.75, 15.51 0.81 C18.2 -0.13, 18.04 -0.7, 18.13 -0.54 M24.21 -0.57 C28.73 -0.25, 35.22 1.65, 38.18 3.33 C41.13 5.01, 42.06 7.56, 41.93 9.5 C41.8 11.45, 40.49 13.78, 37.38 14.98 C34.28 16.19, 27.94 16.54, 23.31 16.73 C18.68 16.93, 13.25 16.86, 9.6 16.17 C5.95 15.47, 2.59 14.23, 1.39 12.55 C0.19 10.87, 0.66 7.88, 2.4 6.09 C4.13 4.3, 8.07 2.9, 11.8 1.82 C15.53 0.73, 22.74 -0.31, 24.78 -0.4 C26.81 -0.49, 23.93 0.84, 24.01 1.28" stroke="#FFFFFF" stroke-width="2" fill="none"></path></g><g stroke-linecap="round"><g transform="translate(580.7148132324219 256.5418701171875) rotate(0 -0.1534222463517949 16.993469401076254)"><path d="M-0.66 -0.89 C-0.79 4.86, -0.56 28.92, -0.36 34.88 M1.19 1.26 C0.84 6.63, -1.31 27.89, -1.5 33.17" stroke="#FFFFFF" stroke-width="2" fill="none"></path></g></g><g stroke-linecap="round"><g transform="translate(621.9765319824219 260.13067626953125) rotate(0 -0.04826225837689435 15.031173019474409)"><path d="M-0.89 -0.36 C-1.02 5.03, -0.48 26.35, -0.4 31.66 M0.84 -1.59 C0.58 3.49, -0.67 24.67, -0.94 29.82" stroke="#FFFFFF" stroke-width="2" fill="none"></path></g></g><g stroke-linecap="round"><g transform="translate(581.3129577636719 291.84088134765625) rotate(0 18.04472006559365 0.08699478562925833)"><path d="M-0.36 0.78 C5.83 1.08, 30.35 1.06, 36.45 0.88 M1.65 0.15 C7.79 0.18, 30.12 -0.94, 35.79 -0.84" stroke="#FFFFFF" stroke-width="2" fill="none"></path></g></g><g stroke-linecap="round"><g transform="translate(450.0608215332031 268.84112548828125) rotate(0 63.17061007805171 1.371600722875428)"><path d="M-0.43 0.87 C20.68 1.25, 105.41 0.98, 126.77 1.43 M1.55 0.28 C22.48 0.85, 104.81 2.2, 125.8 2.46" stroke="#FFFFFF" stroke-width="2" fill="none"></path></g><g transform="translate(450.0608215332031 268.84112548828125) rotate(0 63.17061007805171 1.371600722875428)"><path d="M98.91 12.24 C104.74 10.91, 117.16 5.89, 127.01 2.55 M96.92 13.12 C106.47 9.63, 114.98 7.32, 125.71 3.33" stroke="#FFFFFF" stroke-width="2" fill="none"></path></g><g transform="translate(450.0608215332031 268.84112548828125) rotate(0 63.17061007805171 1.371600722875428)"><path d="M99.22 -8.28 C104.81 -3.22, 117.13 -1.87, 127.01 2.55 M97.23 -7.4 C106.7 -4.9, 115.13 -1.21, 125.71 3.33" stroke="#FFFFFF" stroke-width="2" fill="none"></path></g></g><g stroke-linecap="round"><g transform="translate(445.2663269042969 296.95318603515625) rotate(0 65.2655343104247 39.032750756805854)"><path d="M0.74 0.05 C22.69 13.08, 109.19 65.89, 130.86 79.03 M-0.33 -0.96 C21.63 11.65, 108.66 64.3, 130.47 77.26" stroke="#FFFFFF" stroke-width="2" fill="none"></path></g><g transform="translate(445.2663269042969 296.95318603515625) rotate(0 65.2655343104247 39.032750756805854)"><path d="M101.11 73.32 C108.87 74.35, 115.3 72.05, 132.05 77.56 M101.81 70.95 C110.08 73.16, 117.32 74.13, 129.84 76.94" stroke="#FFFFFF" stroke-width="2" fill="none"></path></g><g transform="translate(445.2663269042969 296.95318603515625) rotate(0 65.2655343104247 39.032750756805854)"><path d="M111.67 55.73 C117.15 60.81, 121.19 62.5, 132.05 77.56 M112.36 53.35 C117.63 60.66, 121.83 66.7, 129.84 76.94" stroke="#FFFFFF" stroke-width="2" fill="none"></path></g></g><g transform="translate(470.6262512207031 10) rotate(0 150.5 22.5)"><text x="150.5" y="32" font-family="Virgil, Segoe UI Emoji" font-size="36px" fill="#FFFFFF" text-anchor="middle" style="white-space: pre;" direction="ltr">Caf.js Framework</text></g></svg>
