<svg version="1.1" xmlns="http://www.w3.org/2000/svg" viewBox="0 0 917.6770324707031 643.1923828125" width="917.6770324707031" height="643.1923828125">
  <!-- svg-source:excalidraw -->

  <defs>
    <style>
      @font-face {
        font-family: "Virgil";
        src: url("https://excalidraw.com/Virgil.woff2");
      }
      @font-face {
        font-family: "Cascadia";
        src: url("https://excalidraw.com/Cascadia.woff2");
      }
    </style>
  </defs>
  <rect x="0" y="0" width="917.6770324707031" height="643.1923828125" fill="none"></rect><g stroke-linecap="round" transform="translate(774.8734436035156 222.49327087402344) rotate(0 66.40179443359375 43.07011413574219)"><path d="M-1.11 -1.11 C46.54 -0.71, 93.58 2.38, 131.01 -0.51 M0.12 -0.81 C53.64 0.5, 106.36 1.79, 133.74 0.65 M133.28 0.49 C132.71 25.55, 132.3 51.61, 134.21 84.2 M132.64 -0.13 C131.51 21.41, 132.3 44.21, 132.32 85.36 M134.19 85.46 C92.91 88.44, 51.77 84.68, 1.37 86.4 M132.73 86.24 C85.76 85.85, 39.37 84.78, 0.34 85.96 M-0.03 86.2 C0.17 66.37, -2.7 46.77, 0.06 -1.14 M0.93 85.93 C0.79 54.69, -0.33 22.21, 0.32 -0.64" stroke="#FFFFFF" stroke-width="1" fill="none"></path></g><g transform="translate(797.3734741210938 243.06369018554688) rotate(0 46 22.5)"><text x="46" y="32" font-family="Virgil, Segoe UI Emoji" font-size="36px" fill="#FFFFFF" text-anchor="middle" style="white-space: pre;" direction="ltr">Redis</text></g><g stroke-linecap="round"><g transform="translate(408.43026690561896 281.2989089567245) rotate(0 178.68597571709842 -12.219117868516605)"><path d="M-0.66 0.16 C58.79 -3.53, 296.12 -18.7, 355.85 -22.81 M1.19 -0.8 C61.08 -4.78, 298.67 -20.77, 358.04 -24.6" stroke="#FFFFFF" stroke-width="2" fill="none"></path></g><g transform="translate(408.43026690561896 281.2989089567245) rotate(0 178.68597571709842 -12.219117868516605)"><path d="M330.86 -14.18 C337.93 -13.69, 341.31 -18.35, 360.03 -25.53 M331.18 -12.97 C337.06 -14.2, 343.95 -17.12, 358.09 -24.66" stroke="#FFFFFF" stroke-width="2" fill="none"></path></g><g transform="translate(408.43026690561896 281.2989089567245) rotate(0 178.68597571709842 -12.219117868516605)"><path d="M329.5 -34.66 C336.77 -29.51, 340.46 -29.52, 360.03 -25.53 M329.82 -33.45 C336.04 -30.03, 343.24 -28.3, 358.09 -24.66" stroke="#FFFFFF" stroke-width="2" fill="none"></path></g></g><g stroke-linecap="round" transform="translate(80.4532470703125 531.3626708984375) rotate(0 95.40655517578125 49.04669189453125)"><path d="M97.05 0.22 C110.16 -0.13, 126.22 3.03, 138.51 6.08 C150.81 9.12, 162.5 12.88, 170.82 18.47 C179.14 24.07, 185.68 32.6, 188.44 39.64 C191.19 46.69, 190.59 53.86, 187.32 60.73 C184.06 67.61, 177.74 75.44, 168.83 80.9 C159.93 86.36, 146.79 90.79, 133.88 93.49 C120.98 96.18, 105.19 97.44, 91.38 97.08 C77.58 96.72, 63.12 94.61, 51.04 91.33 C38.96 88.05, 27.1 83.12, 18.91 77.39 C10.72 71.67, 4.44 63.87, 1.92 56.97 C-0.6 50.07, 0.01 42.64, 3.79 36 C7.57 29.36, 15.22 22.62, 24.61 17.14 C33.99 11.67, 46.58 6.07, 60.11 3.14 C73.64 0.22, 96.54 -0.08, 105.77 -0.4 C115 -0.73, 115.53 0.35, 115.48 1.2 M59.77 2.35 C71.45 -1.07, 89.02 -2.07, 102.67 -1.35 C116.32 -0.64, 129.64 2.71, 141.65 6.63 C153.67 10.55, 166.67 16.06, 174.76 22.15 C182.84 28.24, 188.31 36.08, 190.18 43.16 C192.06 50.24, 190.42 58.29, 186.02 64.65 C181.61 71, 173.32 76.29, 163.75 81.29 C154.19 86.3, 141.31 91.92, 128.61 94.69 C115.92 97.46, 101.45 98.46, 87.58 97.92 C73.71 97.37, 57.2 95.09, 45.4 91.41 C33.59 87.73, 24.14 81.87, 16.76 75.85 C9.37 69.83, 3.18 62.54, 1.1 55.28 C-0.98 48.01, 0.06 39.23, 4.27 32.25 C8.48 25.27, 17.16 17.91, 26.36 13.38 C35.57 8.85, 54.14 6.62, 59.51 5.1 C64.88 3.58, 57.93 3.74, 58.61 4.27" stroke="#FFFFFF" stroke-width="1" fill="none"></path></g><g transform="translate(107.1822509765625 542.1923828125) rotate(0 63 45.5)"><text x="63" y="31.5" font-family="Virgil, Segoe UI Emoji" font-size="36px" fill="#FFFFFF" text-anchor="middle" style="white-space: pre;" direction="ltr">Shipping</text><text x="63" y="77" font-family="Virgil, Segoe UI Emoji" font-size="36px" fill="#FFFFFF" text-anchor="middle" style="white-space: pre;" direction="ltr"> API</text></g><g stroke-linecap="round" transform="translate(427.2101745605469 531.3626708984375) rotate(0 95.40655517578125 49.04669189453125)"><path d="M58.14 4.62 C69.65 1.1, 85.96 -1.17, 99.77 -0.89 C113.57 -0.62, 128.78 2.77, 140.99 6.26 C153.2 9.75, 164.76 14.24, 173.02 20.05 C181.29 25.86, 188.18 34.01, 190.55 41.09 C192.93 48.18, 191.4 55.87, 187.26 62.56 C183.11 69.25, 175 76.05, 165.68 81.25 C156.35 86.46, 144.1 91.06, 131.32 93.79 C118.55 96.52, 102.96 98.11, 89.03 97.63 C75.11 97.16, 59.93 94.39, 47.78 90.93 C35.64 87.46, 23.97 82.56, 16.18 76.85 C8.39 71.14, 2.84 63.91, 1.03 56.67 C-0.78 49.43, 1.18 40.47, 5.3 33.4 C9.42 26.33, 14.97 19.69, 25.74 14.26 C36.52 8.82, 60.44 3.02, 69.96 0.79 C79.48 -1.44, 82.54 -0.19, 82.88 0.88 M83.96 -1.02 C96.63 -2.39, 111.42 0.09, 124.54 2.73 C137.66 5.36, 152.5 9.61, 162.68 14.79 C172.85 19.98, 181.05 27.09, 185.57 33.83 C190.09 40.57, 191.53 48.58, 189.8 55.22 C188.07 61.86, 182.58 67.8, 175.17 73.66 C167.77 79.52, 156.85 86.36, 145.37 90.39 C133.89 94.41, 120.15 96.96, 106.31 97.82 C92.47 98.67, 75.3 97.93, 62.33 95.52 C49.36 93.11, 38 88.5, 28.49 83.36 C18.98 78.21, 10.01 71.62, 5.27 64.66 C0.53 57.71, -1.51 48.93, 0.04 41.63 C1.6 34.33, 6.79 26.42, 14.59 20.87 C22.39 15.32, 35.72 11.8, 46.85 8.34 C57.98 4.89, 75.24 1.28, 81.38 0.13 C87.52 -1.01, 83.12 0.76, 83.7 1.49" stroke="#FFFFFF" stroke-width="1" fill="none"></path></g><g transform="translate(472.9391784667969 542.1923828125) rotate(0 44 45.5)"><text x="44" y="31.5" font-family="Virgil, Segoe UI Emoji" font-size="36px" fill="#FFFFFF" text-anchor="middle" style="white-space: pre;" direction="ltr">Email</text><text x="44" y="77" font-family="Virgil, Segoe UI Emoji" font-size="36px" fill="#FFFFFF" text-anchor="middle" style="white-space: pre;" direction="ltr"> API</text></g><g stroke-linecap="round" transform="translate(126.25698852539062 70.2034912109375) rotate(0 212.037353515625 178.24301147460938)"><path d="M164.6 3.86 C181.94 -2.51, 204.34 -1.65, 224.21 -0.62 C244.08 0.42, 265.31 4.5, 283.81 10.09 C302.31 15.68, 319.41 23.35, 335.21 32.92 C351.01 42.49, 366.26 54.56, 378.61 67.5 C390.96 80.44, 401.89 95.26, 409.31 110.56 C416.72 125.85, 421.18 142.73, 423.13 159.27 C425.08 175.82, 424.48 193.57, 420.99 209.85 C417.5 226.13, 410.91 242.22, 402.21 256.97 C393.52 271.73, 382.07 286.15, 368.81 298.37 C355.55 310.59, 339.53 321.69, 322.66 330.31 C305.78 338.93, 286.62 345.57, 267.55 350.09 C248.47 354.61, 227.76 357.64, 208.21 357.43 C188.66 357.22, 168.77 353.93, 150.23 348.83 C131.69 343.73, 113.43 335.94, 96.99 326.83 C80.54 317.71, 64.45 306.49, 51.56 294.16 C38.68 281.84, 27.99 267.85, 19.69 252.87 C11.38 237.89, 4.71 220.76, 1.73 204.29 C-1.24 187.82, -0.88 170.43, 1.83 154.03 C4.54 137.63, 10.05 120.77, 17.99 105.89 C25.93 91.01, 36.95 77.31, 49.45 64.76 C61.95 52.2, 76.82 39.81, 92.99 30.54 C109.16 21.27, 133.65 13.58, 146.45 9.13 C159.24 4.68, 165.07 4.37, 169.76 3.86 C174.46 3.35, 173.9 3.32, 174.6 6.07 M123.63 16.85 C139.63 8.17, 163.39 5.69, 182.87 3.11 C202.36 0.53, 221.22 -0.68, 240.55 1.35 C259.87 3.37, 280.75 8.6, 298.83 15.23 C316.91 21.87, 334.03 30.75, 349.03 41.17 C364.03 51.59, 378.02 63.81, 388.82 77.76 C399.62 91.72, 408.17 109.13, 413.82 124.92 C419.48 140.7, 422.08 156.06, 422.74 172.49 C423.39 188.92, 422.46 207.6, 417.77 223.48 C413.08 239.37, 404.62 253.64, 394.58 267.79 C384.54 281.94, 371.73 296.68, 357.53 308.4 C343.32 320.13, 327.06 330.57, 309.37 338.13 C291.67 345.69, 270.63 350.68, 251.36 353.77 C232.1 356.86, 213.2 358.5, 193.8 356.68 C174.4 354.86, 153.33 348.74, 134.96 342.84 C116.6 336.93, 99.28 331.25, 83.61 321.25 C67.93 311.24, 52.51 296.42, 40.91 282.81 C29.32 269.2, 20.66 254.97, 14.02 239.58 C7.37 224.2, 2.58 206.68, 1.05 190.49 C-0.48 174.3, 0.99 158.53, 4.83 142.45 C8.66 126.38, 14.66 108.86, 24.06 94.04 C33.46 79.22, 47.24 65.45, 61.24 53.55 C75.24 41.66, 97.53 28.82, 108.08 22.66 C118.63 16.5, 121.71 17.39, 124.54 16.59 C127.37 15.79, 123.48 15.26, 125.06 17.88" stroke="#FFFFFF" stroke-width="1" fill="none"></path></g><g stroke-linecap="round" transform="translate(125.64956665039062 200.05609130859375) rotate(0 12.560699462890625 51.140106201171875)"><path d="M18.1 4.25 C20.45 7.51, 22.63 16.86, 23.85 25.67 C25.06 34.48, 25.82 46.78, 25.4 57.11 C24.98 67.44, 23.31 80.3, 21.34 87.63 C19.36 94.97, 15.95 99.68, 13.54 101.13 C11.13 102.57, 8.93 101.26, 6.88 96.29 C4.84 91.32, 2.32 80.65, 1.26 71.29 C0.21 61.92, -0.06 49.82, 0.56 40.1 C1.19 30.38, 3.23 19.58, 5.01 12.97 C6.78 6.36, 8.52 0.52, 11.22 0.44 C13.93 0.35, 19.32 8.86, 21.24 12.45 C23.16 16.05, 22.94 21.3, 22.76 22.02 M9.87 1.26 C12.29 -1.2, 15.01 1.39, 17.52 5.82 C20.03 10.25, 23.78 18.46, 24.95 27.84 C26.13 37.23, 25.3 51.73, 24.56 62.11 C23.83 72.5, 22.47 83.46, 20.53 90.16 C18.6 96.85, 15.28 101.73, 12.95 102.29 C10.61 102.84, 8.79 98.81, 6.55 93.5 C4.31 88.19, 0.51 79.61, -0.49 70.42 C-1.48 61.23, -0.53 48.24, 0.59 38.37 C1.7 28.5, 4.52 17.41, 6.21 11.19 C7.9 4.97, 10.08 2.8, 10.72 1.06 C11.36 -0.69, 10.13 -0.26, 10.06 0.71" stroke="none" stroke-width="0" fill="#fa5252"></path><path d="M12.36 -0.63 C14.6 -0.82, 17.37 5.3, 19.39 11.65 C21.41 18, 23.78 27.7, 24.48 37.47 C25.18 47.25, 24.6 60.59, 23.59 70.31 C22.57 80.03, 20.59 90.46, 18.39 95.77 C16.19 101.08, 12.91 103.34, 10.4 102.17 C7.9 100.99, 5.06 95.75, 3.36 88.73 C1.66 81.72, 0.57 70.16, 0.19 60.07 C-0.2 49.98, -0.09 37.33, 1.03 28.2 C2.14 19.06, 4.77 9.99, 6.86 5.25 C8.95 0.52, 12.33 0.53, 13.57 -0.21 C14.81 -0.94, 14.13 -0.08, 14.28 0.84 M13.28 -0.71 C15.59 -0.66, 19.35 5.63, 21.12 12.22 C22.88 18.81, 23.38 29.07, 23.87 38.82 C24.35 48.57, 24.85 61.41, 24.01 70.73 C23.17 80.05, 20.97 89.39, 18.83 94.75 C16.7 100.11, 13.82 104.08, 11.21 102.87 C8.6 101.66, 5.12 94.77, 3.17 87.5 C1.23 80.24, -0.12 69.36, -0.44 59.28 C-0.76 49.21, 0.1 36.27, 1.28 27.08 C2.46 17.89, 4.71 8.8, 6.66 4.13 C8.6 -0.54, 12.07 -0.27, 12.94 -0.95 C13.81 -1.64, 12.05 -0.9, 11.88 0" stroke="#FFFFFF" stroke-width="1" fill="none"></path></g><g stroke-linecap="round" transform="translate(287.7427673339844 180.3270263671875) rotate(0 89.72433471679688 80.1541748046875)"><path d="M88.82 -0.94 C100.86 -2.15, 116.04 2.26, 127.33 6.87 C138.63 11.48, 148.57 18.46, 156.59 26.72 C164.62 34.98, 171.7 45.86, 175.49 56.43 C179.29 66.99, 180.97 79.12, 179.36 90.08 C177.75 101.05, 172.53 112.72, 165.86 122.22 C159.19 131.72, 149.69 140.97, 139.34 147.1 C128.99 153.23, 115.98 157.31, 103.75 158.99 C91.53 160.67, 77.93 160.08, 65.99 157.16 C54.05 154.24, 41.72 148.57, 32.12 141.47 C22.51 134.37, 13.82 124.38, 8.35 114.56 C2.88 104.74, -0.56 93.58, -0.71 82.55 C-0.86 71.52, 2.3 58.81, 7.46 48.37 C12.63 37.93, 21.1 27.44, 30.29 19.92 C39.49 12.4, 51.61 6.49, 62.63 3.25 C73.65 0, 89.87 0.66, 96.39 0.46 C102.9 0.25, 101.89 0.83, 101.72 2.01 M94.7 -0.48 C106.69 -1.38, 119.45 3.08, 130.43 8.15 C141.42 13.22, 152.83 21.31, 160.63 29.94 C168.42 38.56, 174.39 49.18, 177.21 59.92 C180.04 70.65, 180.04 83.57, 177.56 94.36 C175.08 105.15, 169.53 115.75, 162.35 124.67 C155.16 133.6, 145.04 141.9, 134.44 147.91 C123.84 153.92, 110.62 159.12, 98.73 160.72 C86.84 162.32, 74.8 161.18, 63.1 157.52 C51.39 153.86, 37.75 146.47, 28.52 138.74 C19.3 131, 12.42 121.39, 7.75 111.13 C3.09 100.87, 0.2 88.44, 0.54 77.18 C0.87 65.92, 4.42 53.25, 9.75 43.56 C15.08 33.87, 23.26 26, 32.52 19.04 C41.78 12.08, 55.04 4.89, 65.32 1.8 C75.59 -1.3, 89.42 0.74, 94.17 0.48 C98.91 0.22, 93.87 -1.06, 93.79 0.24" stroke="#FFFFFF" stroke-width="1" fill="none"></path></g><g stroke-linecap="round"><g transform="translate(155.69964599941636 262.6586590792749) rotate(0 38.47724054955745 2.0980501432616165)"><path d="M-1.13 0.82 C11.98 1.42, 64.96 2.4, 78.08 2.83 M0.48 0.21 C13.45 1.02, 63.72 3.25, 76.99 3.99" stroke="#FFFFFF" stroke-width="2" fill="none"></path></g><g transform="translate(155.69964599941636 262.6586590792749) rotate(0 38.47724054955745 2.0980501432616165)"><path d="M49.7 12.39 C54.43 9.66, 62.61 7.42, 78.43 2.36 M48.33 12.99 C57.15 10.3, 66.42 7.24, 76.94 3.6" stroke="#FFFFFF" stroke-width="2" fill="none"></path></g><g transform="translate(155.69964599941636 262.6586590792749) rotate(0 38.47724054955745 2.0980501432616165)"><path d="M50.72 -8.11 C55.06 -5.66, 62.98 -2.72, 78.43 2.36 M49.34 -7.51 C57.72 -3.67, 66.66 -0.21, 76.94 3.6" stroke="#FFFFFF" stroke-width="2" fill="none"></path></g></g><g transform="translate(166.12118530273438 210.8924560546875) rotate(0 26.5 17.5)"><text x="26.5" y="25" font-family="Virgil, Segoe UI Emoji" font-size="28px" fill="#FFFFFF" text-anchor="middle" style="white-space: pre;" direction="ltr">Key1</text></g><g stroke-linecap="round" transform="translate(237.92037963867188 241.7666015625) rotate(0 21.23828125 8.373779296875)"><path d="M14.99 0.04 C19.04 -0.61, 25.51 -0.31, 29.71 0.43 C33.91 1.16, 38.2 2.84, 40.18 4.45 C42.16 6.06, 42.71 8.17, 41.59 10.09 C40.46 12.01, 36.99 14.85, 33.45 15.98 C29.92 17.1, 24.69 17.2, 20.38 16.84 C16.08 16.47, 10.97 15.11, 7.61 13.8 C4.26 12.48, 0.91 10.57, 0.26 8.96 C-0.4 7.35, 0.97 5.67, 3.67 4.13 C6.37 2.6, 13.84 0.52, 16.45 -0.24 C19.07 -1.01, 19.17 -0.56, 19.35 -0.47 M23.62 -0.52 C27.89 -0.39, 34.15 1.07, 37.36 2.34 C40.57 3.62, 42.81 5.33, 42.9 7.13 C42.99 8.92, 40.86 11.76, 37.91 13.11 C34.96 14.46, 29.75 14.97, 25.21 15.23 C20.68 15.5, 14.74 15.14, 10.71 14.7 C6.69 14.26, 2.46 13.85, 1.06 12.61 C-0.34 11.37, 0.98 9.17, 2.33 7.25 C3.68 5.33, 5.48 2.3, 9.15 1.09 C12.82 -0.13, 21.86 0.2, 24.34 -0.05 C26.83 -0.31, 24.12 -0.39, 24.06 -0.45" stroke="#FFFFFF" stroke-width="2" fill="none"></path></g><g stroke-linecap="round"><g transform="translate(239.72409057617188 250.738525390625) rotate(0 -0.42561548737251087 17.447653332566915)"><path d="M0.22 -0.73 C0.13 5.11, 0.34 28.36, 0.33 34.09 M-1.13 1.49 C-1.42 7.63, -0.55 30.08, -0.44 35.63" stroke="#FFFFFF" stroke-width="2" fill="none"></path></g></g><g stroke-linecap="round"><g transform="translate(280.9858093261719 254.32733154296875) rotate(0 -0.5276413647085576 16.186413646116762)"><path d="M-0.73 0.33 C-0.77 5.51, -1.04 26.08, -1.19 31.28 M1.08 -0.54 C0.97 4.84, -1.52 27.92, -2.14 32.91" stroke="#FFFFFF" stroke-width="2" fill="none"></path></g></g><g stroke-linecap="round"><g transform="translate(240.32223510742188 286.03753662109375) rotate(0 17.55997409597967 -0.02329683022549034)"><path d="M0.33 0 C6.31 0.07, 30.08 -0.29, 36.08 -0.31 M-0.96 -1.05 C4.86 -0.75, 29.1 0.65, 35.22 1" stroke="#FFFFFF" stroke-width="2" fill="none"></path></g></g><g transform="translate(200.64483642578125 10) rotate(0 150.5 22.5)"><text x="150.5" y="32" font-family="Virgil, Segoe UI Emoji" font-size="36px" fill="#FFFFFF" text-anchor="middle" style="white-space: pre;" direction="ltr">Caf.js Framework</text></g><g transform="translate(362.0794372558594 207.133056640625) rotate(0 5.981292724609375 38.28507995605469)" stroke="none" fill="#FFFFFF"><path d="M 3.64,-1.76 Q 3.64,-1.76 4.76,-1.44 5.88,-1.13 7.60,-1.02 9.31,-0.91 10.62,-0.71 11.93,-0.52 14.04,0.68 16.15,1.89 17.71,2.33 19.26,2.77 21.31,3.80 23.37,4.83 24.44,5.37 25.52,5.90 26.47,7.31 27.43,8.72 27.39,9.93 27.35,11.15 26.61,12.70 25.87,14.24 24.31,15.89 22.75,17.54 21.84,18.21 20.94,18.88 19.72,19.75 18.51,20.62 16.99,21.54 15.48,22.47 14.15,23.22 12.82,23.97 10.83,25.05 8.83,26.14 7.45,26.86 6.07,27.59 4.58,28.55 3.10,29.51 2.18,30.11 1.27,30.71 1.20,29.86 1.14,29.00 2.35,29.22 3.57,29.43 5.29,29.95 7.01,30.46 8.92,31.91 10.83,33.37 12.06,33.59 13.29,33.80 14.51,34.04 15.72,34.27 17.50,34.64 19.28,35.01 20.32,35.28 21.36,35.54 23.54,37.16 25.72,38.77 26.57,40.26 27.41,41.74 28.07,43.59 28.73,45.44 28.41,46.49 28.09,47.54 27.28,48.40 26.47,49.26 25.12,49.91 23.78,50.56 21.86,51.52 19.95,52.48 18.65,52.97 17.35,53.46 15.34,54.04 13.34,54.62 12.22,55.09 11.10,55.57 9.82,55.99 8.54,56.42 7.21,57.10 5.87,57.78 3.95,58.69 2.03,59.59 0.76,60.38 -0.50,61.16 -2.09,62.12 -3.68,63.07 -5.19,64.12 -6.70,65.17 -7.86,66.04 -9.02,66.90 -10.21,68.09 -11.41,69.27 -10.32,68.43 -9.24,67.58 -7.88,67.58 -6.51,67.57 -5.39,67.53 -4.26,67.50 -2.70,67.76 -1.13,68.03 -0.01,68.77 1.10,69.51 2.11,70.03 3.12,70.56 4.80,71.49 6.48,72.42 7.59,72.91 8.70,73.41 9.97,73.36 11.24,73.32 12.44,73.29 13.63,73.25 14.83,73.23 16.03,73.21 17.11,72.93 18.19,72.65 18.53,72.37 18.88,72.09 19.37,71.86 19.86,71.62 20.40,71.55 20.94,71.49 21.47,71.59 22.01,71.70 22.48,71.98 22.95,72.25 23.31,72.66 23.66,73.07 23.87,73.57 24.08,74.07 24.12,74.61 24.16,75.15 24.02,75.68 23.89,76.21 23.59,76.66 23.29,77.12 22.86,77.45 22.43,77.79 21.92,77.97 21.41,78.15 20.87,78.16 20.32,78.17 19.80,78.00 19.29,77.84 18.85,77.52 18.41,77.19 18.10,76.75 17.79,76.30 17.63,75.78 17.48,75.26 17.50,74.72 17.52,74.17 17.71,73.67 17.91,73.16 18.25,72.74 18.60,72.32 19.06,72.03 19.52,71.74 20.05,71.62 20.58,71.49 21.12,71.54 21.66,71.59 22.16,71.81 22.65,72.03 23.06,72.40 23.46,72.77 23.72,73.24 23.98,73.72 24.08,74.26 24.17,74.79 24.09,75.33 24.01,75.87 23.77,76.35 23.52,76.84 23.13,77.22 22.74,77.60 22.41,77.80 22.07,78.00 20.39,78.74 18.70,79.48 16.89,79.68 15.08,79.89 13.52,79.86 11.96,79.83 10.60,79.75 9.23,79.68 7.94,79.45 6.64,79.23 5.40,78.60 4.16,77.97 2.29,77.00 0.42,76.03 -1.00,75.37 -2.44,74.70 -3.37,74.18 -4.30,73.66 -5.51,73.61 -6.72,73.55 -7.91,73.44 -9.09,73.32 -10.34,72.98 -11.59,72.64 -13.44,71.86 -15.30,71.08 -15.50,69.05 -15.70,67.03 -14.52,65.94 -13.33,64.84 -12.39,64.15 -11.44,63.46 -10.26,62.69 -9.09,61.91 -7.53,60.72 -5.97,59.52 -4.39,58.43 -2.81,57.34 -1.47,56.54 -0.13,55.75 1.64,54.56 3.43,53.37 5.16,52.35 6.89,51.33 7.97,51.00 9.05,50.67 10.24,50.18 11.44,49.69 13.24,48.79 15.05,47.90 17.03,47.03 19.01,46.16 20.08,45.54 21.15,44.92 22.11,45.42 23.07,45.92 22.22,44.46 21.36,43.01 20.05,42.12 18.73,41.24 16.65,40.89 14.57,40.53 12.81,40.25 11.06,39.98 9.82,39.45 8.59,38.93 7.33,37.96 6.08,36.99 4.40,35.95 2.73,34.91 1.50,34.37 0.27,33.84 -1.04,33.02 -2.36,32.21 -2.76,30.96 -3.17,29.70 -1.41,27.71 0.34,25.73 2.01,24.40 3.67,23.07 4.83,22.45 5.99,21.83 7.55,20.55 9.11,19.28 10.91,18.24 12.71,17.20 13.84,16.64 14.97,16.07 16.94,14.51 18.90,12.94 19.88,12.06 20.85,11.19 21.82,9.89 22.79,8.59 22.07,9.08 21.34,9.56 19.66,9.00 17.98,8.44 16.73,8.17 15.49,7.89 14.23,7.31 12.98,6.73 12.48,5.75 11.99,4.76 10.54,4.55 9.10,4.34 7.40,4.28 5.70,4.21 4.12,3.68 2.54,3.14 0.71,2.70 -1.12,2.25 -1.37,2.08 -1.62,1.91 -1.83,1.69 -2.04,1.47 -2.18,1.20 -2.33,0.94 -2.41,0.64 -2.49,0.35 -2.49,0.05 -2.50,-0.25 -2.43,-0.54 -2.37,-0.84 -2.23,-1.11 -2.10,-1.38 -1.90,-1.61 -1.70,-1.84 -1.46,-2.02 -1.21,-2.20 -0.93,-2.31 -0.65,-2.43 -0.35,-2.47 -0.05,-2.51 0.24,-2.48 0.55,-2.45 2.09,-2.10 L 3.64,-1.76 Z"></path></g><g transform="translate(476.3130798339844 263.357421875) rotate(0 0.5 0.5)" stroke="none" fill="#FFFFFF"><path d="M 2.12,-0.66 Q 2.12,-0.66 2.15,-0.13 2.18,0.40 1.96,0.88 1.74,1.36 1.32,1.69 0.91,2.02 0.38,2.12 -0.13,2.21 -0.64,2.05 -1.14,1.90 -1.52,1.52 -1.90,1.14 -2.05,0.64 -2.21,0.13 -2.12,-0.38 -2.02,-0.91 -1.69,-1.32 -1.36,-1.74 -0.88,-1.96 -0.39,-2.18 0.13,-2.15 0.66,-2.11 1.11,-1.84 1.57,-1.56 1.84,-1.11 L 2.12,-0.66 Z"></path></g><g transform="translate(307.3550720214844 282.57684326171875) rotate(0 67.5 17.5)"><text x="67.5" y="25" font-family="Virgil, Segoe UI Emoji" font-size="28px" fill="#FFFFFF" text-anchor="middle" style="white-space: pre;" direction="ltr">1. Process</text></g><g transform="translate(565.5231628417969 287.8714904785156) rotate(0 90.5 17.5)"><text x="90.5" y="25" font-family="Virgil, Segoe UI Emoji" font-size="28px" fill="#FFFFFF" text-anchor="middle" style="white-space: pre;" direction="ltr">2. Checkpoint</text></g><g stroke-linecap="round" transform="translate(297.47186279296875 332.072265625) rotate(0 19.738296508789062 15.85516357421875)"><path d="M0.08 0.77 L38.47 0.73 L39.29 31.97 L-1.7 30.36" stroke="none" stroke-width="0" fill="#be4bdb"></path><path d="M0.33 -1.57 C13.49 -0.16, 24.51 -0.2, 40 0.63 M0.19 -0.37 C9.94 0.75, 21.5 -0.21, 40.24 -0.31 M41.13 -0.28 C37.63 8.73, 38.7 12.11, 41.07 30.42 M39.63 -0.6 C38.48 9.32, 38.96 19.03, 39.34 30.93 M41.46 30.27 C27.97 33.32, 16.02 31.42, -0.92 30.56 M38.68 30.92 C28.72 31.1, 15.89 32.21, 0.61 31.1 M-0.02 32.13 C-1.08 22.79, -0.3 15.41, 0.93 0.01 M0.72 30.78 C-0.05 24.01, -0.91 16.46, -0.73 0.67" stroke="#FFFFFF" stroke-width="1" fill="none"></path></g><g stroke-linecap="round" transform="translate(386.4345397949219 340.4461669921875) rotate(0 19.738296508789062 15.85516357421875)"><path d="M-0.3 0.68 L38.92 -0.42 L40.55 32.94 L-1.24 31.42" stroke="none" stroke-width="0" fill="#40c057"></path><path d="M-1.41 1.59 C7.24 0.42, 16.88 0.13, 39.77 -1.21 M-0.94 -0.14 C7.24 0.13, 16.16 0.65, 40.47 -0.72 M39.01 -0.92 C38.55 9.5, 41.63 18.93, 37.89 30.12 M40.05 0.61 C38.7 11.91, 40.11 24.18, 39.46 31.92 M41.05 32.64 C29.27 30.7, 20.03 31.49, 1.44 29.84 M40.07 30.98 C27.9 31.45, 15.36 30.91, 0.36 31.62 M-1.97 31.54 C1.19 20.68, 0.07 10.29, 1 -0.94 M0.26 32.61 C-0.76 20.21, -0.76 10.74, 0.81 -0.22" stroke="#FFFFFF" stroke-width="1" fill="none"></path></g><g stroke-linecap="round"><g transform="translate(304.10800875129496 366.7637939453125) rotate(0 -54.57506822101408 83.44890678711226)"><path d="M-0.21 -0.95 C-18.35 26.83, -90.87 139.97, -108.94 167.85 M-1.78 1.16 C-19.55 29.13, -88.73 138.54, -106.73 166.24" stroke="#FFFFFF" stroke-width="2" fill="none"></path></g><g transform="translate(304.10800875129496 366.7637939453125) rotate(0 -54.57506822101408 83.44890678711226)"><path d="M-101.76 135.37 C-100.19 144.44, -104.62 155.26, -105.51 165.03 M-100.19 137.17 C-102.2 145.23, -103.65 154.26, -106.26 166.24" stroke="#FFFFFF" stroke-width="2" fill="none"></path></g><g transform="translate(304.10800875129496 366.7637939453125) rotate(0 -54.57506822101408 83.44890678711226)"><path d="M-84.48 146.43 C-88.08 152.23, -97.58 159.8, -105.51 165.03 M-82.9 148.23 C-89.88 153.17, -96.2 159.08, -106.26 166.24" stroke="#FFFFFF" stroke-width="2" fill="none"></path></g></g><g stroke-linecap="round"><g transform="translate(413.4668052240488 375.9041748046875) rotate(0 45.81084894664781 76.22633583476772)"><path d="M-1.18 -0.1 C14.46 25.45, 77.25 127.08, 92.8 152.46 M0.4 -1.2 C16.02 24.57, 76.99 127.95, 92.14 153.65" stroke="#FFFFFF" stroke-width="2" fill="none"></path></g><g transform="translate(413.4668052240488 375.9041748046875) rotate(0 45.81084894664781 76.22633583476772)"><path d="M68.82 135.5 C72.73 138.71, 77.26 144.02, 91.2 154.54 M69.88 133.8 C75.16 139.26, 83.32 146.38, 91.92 153.5" stroke="#FFFFFF" stroke-width="2" fill="none"></path></g><g transform="translate(413.4668052240488 375.9041748046875) rotate(0 45.81084894664781 76.22633583476772)"><path d="M86.49 125.07 C86.53 130.36, 87.25 137.9, 91.2 154.54 M87.56 123.37 C87.74 131.9, 90.78 142.04, 91.92 153.5" stroke="#FFFFFF" stroke-width="2" fill="none"></path></g></g><g transform="translate(499.2896423339844 433.6331481933594) rotate(0 97.5 17.5)"><text x="97.5" y="25" font-family="Virgil, Segoe UI Emoji" font-size="28px" fill="#FFFFFF" text-anchor="middle" style="white-space: pre;" direction="ltr">3. Externalize</text></g><g transform="translate(10 433.6331481933594) rotate(0 97.5 17.5)"><text x="97.5" y="25" font-family="Virgil, Segoe UI Emoji" font-size="28px" fill="#FFFFFF" text-anchor="middle" style="white-space: pre;" direction="ltr">3. Externalize</text></g><g stroke-linecap="round" transform="translate(256.7990417480469 262.7591857910156) rotate(0 8.373809814453125 8.378509521484375)"><path d="M8.01 1.84 L18.07 7.9 L9.22 16.51 L0.52 9.19" stroke="none" stroke-width="0" fill="#40c057" fill-rule="evenodd"></path><path d="M9.64 0.58 C12.14 2.7, 15.24 5.57, 16.46 8.37 M9.42 -0.52 C10.06 2.32, 11.69 3.77, 17.11 8.5 M16.73 9.19 C14.01 11.13, 12.59 12.68, 8.27 16.8 M16.66 9.47 C14.22 11.47, 12.45 13.7, 8.81 16.93 M8.14 17.19 C5.22 13.57, 2.97 11.42, -0.4 9.19 M9.18 16.58 C6.44 14.05, 3.28 11.7, 0.57 8.44 M-0.11 8.01 C2.59 6.22, 8.04 2.58, 8.32 -0.45 M0.47 9.02 C1.57 7.29, 3.03 5.34, 9 0.52" stroke="#FFFFFF" stroke-width="2" fill="none"></path></g><g stroke-linecap="round"><g transform="translate(278.9299011230469 266.9555358886719) rotate(0 33.98856451504864 -25.82168276496236)"><path d="M0 -0.02 C11.54 -8.5, 57.76 -43.11, 69.43 -51.63 M-1.46 -1.07 C9.86 -9.36, 56.41 -42.36, 68.2 -50.51" stroke="#FFFFFF" stroke-width="2" fill="none"></path></g><g transform="translate(278.9299011230469 266.9555358886719) rotate(0 33.98856451504864 -25.82168276496236)"><path d="M50.98 -26.83 C55.28 -33.64, 61.61 -43.38, 69.21 -50.83 M51.14 -25.26 C57.44 -35.2, 64.91 -45.55, 68.32 -51.23" stroke="#FFFFFF" stroke-width="2" fill="none"></path></g><g transform="translate(278.9299011230469 266.9555358886719) rotate(0 33.98856451504864 -25.82168276496236)"><path d="M39.2 -43.63 C47.14 -45.11, 57.2 -49.52, 69.21 -50.83 M39.35 -42.06 C50.11 -45.56, 62.14 -49.43, 68.32 -51.23" stroke="#FFFFFF" stroke-width="2" fill="none"></path></g></g><g transform="translate(313.471923828125 369.0385437011719) rotate(0 45 17.5)"><text x="45" y="25" font-family="Virgil, Segoe UI Emoji" font-size="28px" fill="#FFFFFF" text-anchor="middle" style="white-space: pre;" direction="ltr">Plugins</text></g><g transform="translate(343.8270263671875 135.77688598632812) rotate(0 38 17.5)"><text x="38" y="25" font-family="Virgil, Segoe UI Emoji" font-size="28px" fill="#FFFFFF" text-anchor="middle" style="white-space: pre;" direction="ltr">Actor</text></g></svg>
