<svg version="1.1" xmlns="http://www.w3.org/2000/svg" viewBox="0 0 863.9206848144531 532.1764144897461" width="863.9206848144531" height="532.1764144897461">
  <!-- svg-source:excalidraw -->

  <defs>
    <style>
      @font-face {
        font-family: "Virgil";
        src: url("https://excalidraw.com/Virgil.woff2");
      }
      @font-face {
        font-family: "Cascadia";
        src: url("https://excalidraw.com/Cascadia.woff2");
      }
    </style>
  </defs>
  <rect x="0" y="0" width="863.9206848144531" height="532.1764144897461" fill="none"></rect><g stroke-linecap="round"><g transform="translate(20.373886108398438 82.81692049259323) rotate(0 118.55822067074477 0.21456388085073286)"><path d="M-0.32 -0.79 C39.2 -0.92, 197.71 -1.11, 237.44 -0.88 M1.71 1.41 C41.1 1.47, 197.43 0.94, 236.79 0.5" stroke="#FFFFFF" stroke-width="1" fill="none"></path></g></g><g stroke-linecap="round"><g transform="translate(24.560836791992188 148.03176424259323) rotate(0 117.89755489416422 -0.13911996924309733)"><path d="M-0.79 0.57 C38.66 0.72, 196.78 0.7, 236.58 0.56 M1 -0.18 C40.28 -0.31, 196.01 -0.58, 235.48 -0.95" stroke="#FFFFFF" stroke-width="1" fill="none"></path></g></g><g stroke-linecap="round"><g transform="translate(33.62152099609375 82.42434236759323) rotate(0 0.8833335765451125 30.33164689578109)"><path d="M0.57 -0.29 C1.02 10.2, 2.19 52.01, 2.36 62.15 M-0.59 -1.48 C-0.17 8.77, 1.76 50.1, 2.02 60.62" stroke="#FFFFFF" stroke-width="1" fill="none"></path></g></g><g stroke-linecap="round"><g transform="translate(57.55607604980469 81.83550569767135) rotate(0 1.0229715902358407 31.050210361098834)"><path d="M-0.29 1.16 C0.23 11.3, 2.16 51.52, 2.33 61.38 M1.76 0.73 C2.29 10.44, 2.32 49.37, 1.98 59.44" stroke="#FFFFFF" stroke-width="1" fill="none"></path></g></g><g stroke-linecap="round"><g transform="translate(85.06077575683594 84.2187454437651) rotate(0 0.9474074077469083 31.264889337792965)"><path d="M1.16 1.14 C1.33 11.27, 1.68 50.63, 1.56 60.55 M0.31 0.69 C0.3 11.01, 0.36 51.66, 0.81 61.84" stroke="#FFFFFF" stroke-width="1" fill="none"></path></g></g><g stroke-linecap="round"><g transform="translate(110.7804107666015 82.42440340274948) rotate(0 0.3560287675980476 30.467690488602898)"><path d="M1.14 0.37 C1.31 10.22, 0.79 50.34, 0.74 60.27 M0.27 -0.49 C0.27 10.01, -0.39 51.22, -0.46 61.42" stroke="#FFFFFF" stroke-width="1" fill="none"></path></g></g><g stroke-linecap="round"><g transform="translate(141.2850799560547 83.0131790375151) rotate(0 0.9416325633972917 30.12204123683273)"><path d="M0.37 -0.46 C0.25 9.46, 0.49 50.48, 0.46 60.65 M-0.9 -1.75 C-0.73 8.85, 2.22 51.43, 2.78 61.99" stroke="#FFFFFF" stroke-width="1" fill="none"></path></g></g><g stroke-linecap="round"><g transform="translate(170.59344482421875 85.40566560978073) rotate(0 0.5181512060109412 30.113246515011383)"><path d="M-0.46 -0.74 C-0.51 9.2, 0.63 49.74, 0.83 59.97 M1.5 1.49 C1.16 11.51, -0.01 50.91, -0.31 60.96" stroke="#FFFFFF" stroke-width="1" fill="none"></path></g></g><g stroke-linecap="round"><g transform="translate(204.6962890625 82.42441866153854) rotate(0 0.803983450196398 30.117649871483422)"><path d="M-0.74 -0.36 C-0.77 9.8, -0.11 50.2, 0.16 60.54 M1.08 -1.6 C1.37 8.77, 2.52 51.62, 2.32 61.83" stroke="#FFFFFF" stroke-width="1" fill="none"></path></g></g><g stroke-linecap="round"><g transform="translate(232.79908752441406 83.02251741642135) rotate(0 0.5915919462777595 30.49676737225616)"><path d="M-0.36 -1.04 C-0.16 9.2, 0.36 50.18, 0.73 60.67 M1.65 1.03 C1.69 11.51, -0.43 52.19, -0.46 62.03" stroke="#FFFFFF" stroke-width="1" fill="none"></path></g></g><g stroke-linecap="round" transform="translate(360.4346618652344 33.266258239746094) rotate(0 107.36444091796875 77.462646484375)"><path d="M92.06 1.35 C105.2 -1.24, 122.57 0.61, 136.44 3.13 C150.3 5.64, 164.44 10.18, 175.24 16.42 C186.04 22.67, 194.75 31.51, 201.23 40.59 C207.72 49.67, 212.74 60.77, 214.16 70.91 C215.58 81.06, 214.22 91.77, 209.74 101.48 C205.27 111.19, 196.95 121.63, 187.31 129.19 C177.68 136.75, 164.63 142.53, 151.93 146.82 C139.23 151.12, 125.07 154.65, 111.11 154.97 C97.14 155.29, 81.61 152.7, 68.14 148.74 C54.66 144.78, 40.31 138.42, 30.25 131.2 C20.19 123.98, 12.74 114.74, 7.76 105.4 C2.78 96.06, -0.14 85.3, 0.38 75.17 C0.89 65.04, 4.91 54.06, 10.85 44.62 C16.8 35.18, 25.61 25.34, 36.05 18.53 C46.5 11.72, 63.33 6.87, 73.53 3.77 C83.73 0.67, 92.7 0.37, 97.26 -0.09 C101.81 -0.55, 100.74 -0.41, 100.85 0.99 M94.98 0.92 C108.21 -1.6, 124.04 -1.09, 137.49 1.91 C150.94 4.92, 164.63 12.27, 175.7 18.94 C186.76 25.6, 197.32 32.93, 203.88 41.89 C210.44 50.86, 214.37 62.38, 215.08 72.75 C215.78 83.12, 213.34 94.15, 208.12 104.09 C202.9 114.03, 193.3 124.94, 183.75 132.37 C174.19 139.8, 163.69 144.92, 150.78 148.65 C137.88 152.38, 120.6 154.91, 106.33 154.73 C92.06 154.55, 77.81 151.38, 65.14 147.56 C52.48 143.75, 39.94 139.14, 30.34 131.82 C20.75 124.5, 12.65 113.68, 7.59 103.64 C2.52 93.6, -0.56 81.73, -0.04 71.6 C0.48 61.48, 4.22 52, 10.7 42.89 C17.18 33.78, 27.82 23.33, 38.86 16.92 C49.9 10.5, 67.62 7.21, 76.93 4.42 C86.25 1.62, 91.65 0.33, 94.75 0.16 C97.86 -0.02, 95.14 1.8, 95.57 3.36" stroke="#FFFFFF" stroke-width="1" fill="none"></path></g><g stroke-linecap="round"><g transform="translate(262.4071314001458 113.699982714312) rotate(0 39.061007616229006 -0.23951221081063068)"><path d="M-0.47 -0.34 C12.69 0.02, 65.57 0.88, 78.59 1.08 M1.49 -1.56 C14.58 -1.44, 65.45 -0.63, 77.99 -0.56" stroke="#FFFFFF" stroke-width="4" fill="none"></path></g><g transform="translate(262.4071314001458 113.699982714312) rotate(0 39.061007616229006 -0.23951221081063068)"><path d="M49.12 10.47 C58.93 6.31, 66.21 5.74, 78.77 1.26 M49.48 9.26 C57.46 6.35, 63.98 4.51, 77.53 -1.52" stroke="#FFFFFF" stroke-width="4" fill="none"></path></g><g transform="translate(262.4071314001458 113.699982714312) rotate(0 39.061007616229006 -0.23951221081063068)"><path d="M49.35 -10.05 C58.93 -8.67, 66.14 -3.71, 78.77 1.26 M49.72 -11.26 C57.47 -9.02, 63.93 -5.71, 77.53 -1.52" stroke="#FFFFFF" stroke-width="4" fill="none"></path></g></g><g stroke-linecap="round" transform="translate(238.37387084960938 97.26158142089844) rotate(0 12.266357421875 17.046730041503906)"><path d="M11.57 -1.4 L23.96 18.29 L11.43 33.3 L1.2 18.87" stroke="none" stroke-width="0" fill="#12b886" fill-rule="evenodd"></path><path d="M14.1 1.53 C14.9 5.05, 19.47 8.5, 26.35 17.02 M12.88 0.6 C14.76 3.91, 17.89 7.31, 23.57 19 M22.64 16.29 C21.7 21.99, 18.22 28.17, 14.32 34.26 M24.43 18.52 C20.62 22.11, 17.11 27.22, 13.21 33.87 M13.59 32.44 C8.38 29.27, 8.41 27.91, -1.56 18.66 M12.1 35.08 C10.52 29.84, 5.87 25.59, 0.49 17.41 M-0.03 17.67 C3.51 9.64, 10.62 4.07, 11.63 0.01 M-0.12 18.89 C5.5 12, 10.67 3.96, 12.4 -0.97" stroke="#FFFFFF" stroke-width="4" fill="none"></path></g><g transform="translate(383.4111022949219 68.80831146240234) rotate(0 88.5 45.5)"><text x="88.5" y="31.5" font-family="Virgil, Segoe UI Emoji" font-size="36px" fill="#FFFFFF" text-anchor="middle" style="white-space: pre;" direction="ltr">Caf.js</text><text x="88.5" y="77" font-family="Virgil, Segoe UI Emoji" font-size="36px" fill="#FFFFFF" text-anchor="middle" style="white-space: pre;" direction="ltr">Framework</text></g><g stroke-linecap="round" transform="translate(691.2007751464844 66.4528579711914) rotate(0 66.40179443359375 43.07011413574219)"><path d="M-0.49 1.18 C37.72 -0.23, 74.03 -2, 131.1 -0.8 M-0.64 0.02 C37.21 -1.25, 73.45 0.2, 132.87 0.75 M133.4 -0.89 C132.63 20.93, 133.32 41.28, 132.52 84.27 M132.33 -0.46 C132.03 23.23, 132.93 46.12, 131.84 86.22 M130.85 84.64 C98.37 85.47, 60.94 85.71, -0.8 86.2 M133.71 86.09 C94.58 87.32, 57.59 86.86, 0.92 87.09 M-1.41 84.94 C0.61 53.36, -1.36 20.01, 1.65 -1.01 M0.43 87 C0.74 61.83, -0.5 37.13, -0.72 -0.7" stroke="#FFFFFF" stroke-width="1" fill="none"></path></g><g transform="translate(713.7008056640625 87.02327728271484) rotate(0 46 22.5)"><text x="46" y="32" font-family="Virgil, Segoe UI Emoji" font-size="36px" fill="#FFFFFF" text-anchor="middle" style="white-space: pre;" direction="ltr">Redis</text></g><g stroke-linecap="round"><g transform="translate(579.9413018667744 106.968347482014) rotate(0 54.78221824176376 2.9835824518013396)"><path d="M0.71 0.97 C18.88 1.94, 91.92 5.13, 109.95 5.53 M-0.38 0.43 C17.59 1.12, 91.21 3.36, 109.25 3.98" stroke="#FFFFFF" stroke-width="4" fill="none"></path></g><g transform="translate(579.9413018667744 106.968347482014) rotate(0 54.78221824176376 2.9835824518013396)"><path d="M30.94 -7.25 C20.34 -5.46, 6.04 -1.89, 0.31 0.74 M29.33 -8.49 C18 -3.79, 8.73 -0.8, 0.09 0.02" stroke="#FFFFFF" stroke-width="4" fill="none"></path></g><g transform="translate(579.9413018667744 106.968347482014) rotate(0 54.78221824176376 2.9835824518013396)"><path d="M30.03 13.25 C19.83 7.32, 5.87 3.17, 0.31 0.74 M28.43 12.01 C17.55 9.33, 8.61 4.94, 0.09 0.02" stroke="#FFFFFF" stroke-width="4" fill="none"></path></g><g transform="translate(579.9413018667744 106.968347482014) rotate(0 54.78221824176376 2.9835824518013396)"><path d="M82.35 14.11 C93.32 8.66, 100.53 5.32, 108.85 3.75 M80.75 12.88 C90.1 10.96, 101.39 7.34, 108.63 3.03" stroke="#FFFFFF" stroke-width="4" fill="none"></path></g><g transform="translate(579.9413018667744 106.968347482014) rotate(0 54.78221824176376 2.9835824518013396)"><path d="M83.02 -6.4 C93.68 -4.12, 100.65 0.26, 108.85 3.75 M81.41 -7.63 C90.39 -2.17, 101.44 1.6, 108.63 3.03" stroke="#FFFFFF" stroke-width="4" fill="none"></path></g></g><g transform="translate(10 10) rotate(0 128.5 22.5)"><text x="128.5" y="32" font-family="Virgil, Segoe UI Emoji" font-size="36px" fill="#FFFFFF" text-anchor="middle" style="white-space: pre;" direction="ltr">Kafka Topic A</text></g><g stroke-linecap="round" transform="translate(54.948638916015625 319.01033782958984) rotate(0 95.40655517578125 49.04669189453125)"><path d="M72.02 1.35 C84.72 -1.05, 101.95 -1.08, 115.59 0.4 C129.23 1.89, 143.03 5.96, 153.84 10.28 C164.65 14.6, 174.14 19.91, 180.46 26.33 C186.79 32.74, 191.51 41.55, 191.81 48.76 C192.11 55.96, 188.58 63.25, 182.27 69.54 C175.96 75.84, 164.91 82.03, 153.97 86.52 C143.03 91, 130 94.71, 116.65 96.45 C103.31 98.2, 87.37 98.52, 73.9 96.98 C60.44 95.43, 46.71 91.87, 35.86 87.17 C25 82.48, 14.79 75.31, 8.76 68.8 C2.74 62.29, -0.64 55.19, -0.3 48.12 C0.05 41.06, 4.57 32.88, 10.82 26.41 C17.08 19.94, 24.22 13.65, 37.25 9.3 C50.27 4.95, 77.63 1.83, 88.99 0.33 C100.35 -1.17, 105.3 -0.41, 105.41 0.31 M108.37 1.08 C121.9 1.4, 137.89 3.57, 149.63 7.41 C161.37 11.26, 171.95 17.79, 178.79 24.15 C185.63 30.52, 190.05 38.12, 190.65 45.59 C191.26 53.07, 187.44 62.37, 182.42 69.01 C177.4 75.65, 170.74 80.94, 160.54 85.44 C150.34 89.94, 134.67 94.15, 121.21 95.99 C107.75 97.83, 93.15 97.43, 79.78 96.48 C66.41 95.52, 52.19 94.3, 41 90.27 C29.81 86.23, 19.53 78.99, 12.67 72.28 C5.81 65.58, 0.78 57.1, -0.16 50.04 C-1.1 42.98, 1.4 36.47, 7.03 29.93 C12.65 23.38, 22.86 15.27, 33.57 10.76 C44.28 6.24, 58.74 4.59, 71.27 2.83 C83.8 1.08, 102.44 0.22, 108.74 0.22 C115.03 0.22, 109.03 1.77, 109.03 2.85" stroke="#FFFFFF" stroke-width="1" fill="none"></path></g><g transform="translate(96.67764282226562 329.84004974365234) rotate(0 48 45.5)"><text x="48" y="31.5" font-family="Virgil, Segoe UI Emoji" font-size="36px" fill="#FFFFFF" text-anchor="middle" style="white-space: pre;" direction="ltr">Billing</text><text x="48" y="77" font-family="Virgil, Segoe UI Emoji" font-size="36px" fill="#FFFFFF" text-anchor="middle" style="white-space: pre;" direction="ltr"> API</text></g><g stroke-linecap="round" transform="translate(663.1075744628906 347.5427474975586) rotate(0 95.40655517578125 49.04669189453125)"><path d="M77.02 0.34 C89.71 -1.71, 105.92 -0.17, 119.2 1.56 C132.48 3.28, 145.96 6.06, 156.72 10.7 C167.47 15.33, 177.94 22.77, 183.73 29.36 C189.53 35.96, 192.34 43.3, 191.49 50.29 C190.64 57.27, 185.25 64.94, 178.63 71.27 C172.01 77.6, 162.82 83.9, 151.8 88.28 C140.77 92.65, 126.08 96.18, 112.46 97.52 C98.84 98.86, 83.53 98.46, 70.08 96.32 C56.63 94.19, 42.3 89.51, 31.77 84.72 C21.23 79.93, 12.04 74.14, 6.87 67.61 C1.69 61.08, -0.13 52.77, 0.71 45.54 C1.54 38.31, 5.12 30.35, 11.88 24.24 C18.64 18.13, 30.06 12.99, 41.25 8.9 C52.44 4.82, 72.17 1.05, 79.03 -0.25 C85.9 -1.55, 82.09 0.27, 82.44 1.1 M50.95 4.57 C62.21 0.54, 78.6 -0.47, 92.45 -0.57 C106.29 -0.67, 121.6 0.72, 134.01 3.96 C146.41 7.19, 157.66 13.36, 166.86 18.83 C176.06 24.31, 185.62 30.17, 189.19 36.82 C192.77 43.46, 191.21 51.83, 188.32 58.69 C185.43 65.56, 179.98 72.06, 171.85 78 C163.71 83.94, 151.85 90.99, 139.52 94.33 C127.18 97.68, 111.99 98.4, 97.83 98.07 C83.66 97.74, 67.45 95.33, 54.52 92.36 C41.58 89.4, 28.88 85.84, 20.23 80.28 C11.59 74.72, 5.61 65.85, 2.65 59.02 C-0.32 52.19, -0.52 46.14, 2.44 39.29 C5.39 32.45, 12.35 23.32, 20.36 17.96 C28.36 12.59, 45.15 8.76, 50.45 7.08 C55.76 5.4, 51.24 7.47, 52.18 7.89" stroke="#FFFFFF" stroke-width="1" fill="none"></path></g><g transform="translate(710.3365783691406 358.3724594116211) rotate(0 42.5 45.5)"><text x="42.5" y="31.5" font-family="Virgil, Segoe UI Emoji" font-size="36px" fill="#FFFFFF" text-anchor="middle" style="white-space: pre;" direction="ltr">Auth</text><text x="42.5" y="77" font-family="Virgil, Segoe UI Emoji" font-size="36px" fill="#FFFFFF" text-anchor="middle" style="white-space: pre;" direction="ltr"> API</text></g><g stroke-linecap="round" transform="translate(210.31314086914062 412.7485580444336) rotate(0 95.40655517578125 49.04669189453125)"><path d="M89.9 0.09 C102.82 -1.09, 118.62 0.05, 131.61 2.8 C144.6 5.55, 158.46 11.21, 167.86 16.62 C177.27 22.03, 184.64 28.53, 188.05 35.26 C191.46 41.98, 190.88 49.92, 188.31 56.98 C185.75 64.04, 180.65 71.66, 172.65 77.6 C164.65 83.54, 152.52 89.17, 140.3 92.6 C128.07 96.02, 113.27 98.1, 99.3 98.15 C85.33 98.21, 69.36 95.86, 56.5 92.93 C43.64 89.99, 30.98 85.93, 22.13 80.55 C13.29 75.16, 6.87 67.63, 3.44 60.61 C0 53.59, -1.21 45.29, 1.53 38.4 C4.27 31.52, 11.38 25.02, 19.9 19.32 C28.42 13.62, 39.94 7.46, 52.66 4.18 C65.39 0.9, 87.93 0.3, 96.26 -0.35 C104.59 -1, 102.83 -0.46, 102.64 0.29 M113.06 0.2 C126.26 0.85, 141 4.71, 151.9 9.28 C162.79 13.85, 171.73 21.3, 178.43 27.64 C185.13 33.98, 191.52 40.47, 192.11 47.33 C192.71 54.2, 187.76 62.42, 182.01 68.81 C176.25 75.2, 167.88 80.81, 157.57 85.68 C147.26 90.55, 133.53 96.14, 120.14 98.03 C106.76 99.93, 91.13 98.91, 77.25 97.04 C63.37 95.18, 48.24 91.11, 36.88 86.82 C25.52 82.54, 15.19 77.72, 9.08 71.33 C2.97 64.94, 0.19 55.48, 0.22 48.47 C0.24 41.45, 3.43 35.59, 9.22 29.26 C15.02 22.92, 24.18 14.9, 34.99 10.45 C45.81 6, 61.07 3.95, 74.11 2.56 C87.14 1.17, 106.7 2.3, 113.22 2.09 C119.73 1.88, 113.72 0.97, 113.18 1.32" stroke="#FFFFFF" stroke-width="1" fill="none"></path></g><g transform="translate(237.04214477539062 423.5782699584961) rotate(0 63 45.5)"><text x="63" y="31.5" font-family="Virgil, Segoe UI Emoji" font-size="36px" fill="#FFFFFF" text-anchor="middle" style="white-space: pre;" direction="ltr">Shipping</text><text x="63" y="77" font-family="Virgil, Segoe UI Emoji" font-size="36px" fill="#FFFFFF" text-anchor="middle" style="white-space: pre;" direction="ltr"> API</text></g><g stroke-linecap="round" transform="translate(435.0421447753906 420.3467025756836) rotate(0 95.40655517578125 49.04669189453125)"><path d="M64.86 1.54 C77.1 -1.29, 94.92 -0.5, 108.9 0.49 C122.88 1.48, 137.45 3.72, 148.72 7.5 C159.99 11.29, 169.52 17.01, 176.53 23.18 C183.54 29.35, 189.42 37.26, 190.78 44.55 C192.14 51.85, 189.66 60.2, 184.7 66.95 C179.74 73.7, 171.3 80.37, 161.04 85.05 C150.79 89.73, 136.62 92.96, 123.17 95.02 C109.71 97.07, 93.94 98.43, 80.33 97.4 C66.71 96.37, 52.89 93.02, 41.46 88.84 C30.02 84.67, 18.6 78.46, 11.73 72.34 C4.85 66.22, 1 59.31, 0.23 52.13 C-0.55 44.96, 1.74 35.97, 7.07 29.27 C12.41 22.58, 20.55 16.84, 32.22 11.98 C43.89 7.12, 67.86 2.05, 77.12 0.11 C86.38 -1.82, 87.45 -0.62, 87.77 0.35 M59.26 3.44 C70.62 0.53, 85.98 1.1, 100.07 1.58 C114.15 2.05, 131.55 3.05, 143.78 6.29 C156 9.53, 165.64 15.28, 173.42 21.03 C181.2 26.78, 188.05 33.45, 190.46 40.78 C192.87 48.11, 191.93 58.07, 187.9 65.03 C183.86 72, 176.02 77.79, 166.24 82.58 C156.46 87.38, 142.56 91.17, 129.22 93.8 C115.88 96.43, 99.97 98.97, 86.2 98.36 C72.43 97.74, 58.39 93.64, 46.61 90.1 C34.84 86.56, 23.33 82.99, 15.57 77.13 C7.8 71.27, 1.8 62, 0.01 54.93 C-1.78 47.87, 0.15 41.21, 4.83 34.71 C9.5 28.21, 18.85 21.17, 28.07 15.93 C37.3 10.68, 55.01 5.36, 60.17 3.22 C65.33 1.09, 58.77 2.46, 59.03 3.11" stroke="#FFFFFF" stroke-width="1" fill="none"></path></g><g transform="translate(480.7711486816406 431.1764144897461) rotate(0 44 45.5)"><text x="44" y="31.5" font-family="Virgil, Segoe UI Emoji" font-size="36px" fill="#FFFFFF" text-anchor="middle" style="white-space: pre;" direction="ltr">Email</text><text x="44" y="77" font-family="Virgil, Segoe UI Emoji" font-size="36px" fill="#FFFFFF" text-anchor="middle" style="white-space: pre;" direction="ltr"> API</text></g><g stroke-linecap="round"><g transform="translate(377.53290911784575 181.06586430778725) rotate(0 -77.1485853687106 70.74655715665244)"><path d="M-0.77 0.02 C-26.48 23.44, -128.58 117.43, -154.38 141.26 M1.03 -1.02 C-24.83 22.5, -129.61 118.79, -155.32 142.51" stroke="#FFFFFF" stroke-width="4" fill="none"></path></g><g transform="translate(377.53290911784575 181.06586430778725) rotate(0 -77.1485853687106 70.74655715665244)"><path d="M-141.49 115.89 C-146.25 121.53, -147.33 131.28, -153.83 141.28 M-141.97 116.19 C-144.39 122.03, -147.32 126.66, -156.26 142.2" stroke="#FFFFFF" stroke-width="4" fill="none"></path></g><g transform="translate(377.53290911784575 181.06586430778725) rotate(0 -77.1485853687106 70.74655715665244)"><path d="M-127.6 130.99 C-136.45 132.19, -141.54 137.58, -153.83 141.28 M-128.07 131.3 C-133.21 134.08, -138.97 135.63, -156.26 142.2" stroke="#FFFFFF" stroke-width="4" fill="none"></path></g></g><g stroke-linecap="round"><g transform="translate(428.1262962742969 192.21717062197217) rotate(0 -47.05931120737972 100.74348534010369)"><path d="M0.02 0.01 C-15.58 33.74, -77.71 167.78, -92.91 201.59 M-1.43 -1.03 C-17.3 32.87, -79.16 168.31, -94.14 202.52" stroke="#FFFFFF" stroke-width="4" fill="none"></path></g><g transform="translate(428.1262962742969 192.21717062197217) rotate(0 -47.05931120737972 100.74348534010369)"><path d="M-91.94 171.69 C-94.86 185.36, -93.58 195.63, -95.37 200.61 M-91.63 172.78 C-91.66 179.07, -92.94 184.45, -94.45 202.41" stroke="#FFFFFF" stroke-width="4" fill="none"></path></g><g transform="translate(428.1262962742969 192.21717062197217) rotate(0 -47.05931120737972 100.74348534010369)"><path d="M-73.22 180.1 C-82.82 190.74, -88.28 197.98, -95.37 200.61 M-72.91 181.18 C-76.97 185.59, -82.25 189.17, -94.45 202.41" stroke="#FFFFFF" stroke-width="4" fill="none"></path></g></g><g stroke-linecap="round"><g transform="translate(493.35851328339925 190.63886384642183) rotate(0 12.189169500086223 105.85296900485196)"><path d="M0.01 -0.54 C4.09 34.83, 19.56 176.83, 23.72 212.25 M-1.44 1.79 C3.06 36.86, 21.54 176.04, 25.82 210.75" stroke="#FFFFFF" stroke-width="4" fill="none"></path></g><g transform="translate(493.35851328339925 190.63886384642183) rotate(0 12.189169500086223 105.85296900485196)"><path d="M11.14 182.17 C17.29 190.52, 20.04 195.44, 23.91 209.03 M12.23 184.77 C16.55 192.7, 20.08 201.32, 25.72 211.28" stroke="#FFFFFF" stroke-width="4" fill="none"></path></g><g transform="translate(493.35851328339925 190.63886384642183) rotate(0 12.189169500086223 105.85296900485196)"><path d="M31.5 179.55 C32.85 188.52, 30.79 194.06, 23.91 209.03 M32.58 182.15 C30.19 191.01, 27 200.49, 25.72 211.28" stroke="#FFFFFF" stroke-width="4" fill="none"></path></g></g><g stroke-linecap="round"><g transform="translate(534.0513287716411 189.833787581897) rotate(0 77.13795260761628 81.06945475557961)"><path d="M-0.54 -1.16 C25.26 25.79, 128.97 134.71, 154.82 161.72 M1.38 0.85 C27.12 28.01, 129.02 136.47, 154.5 163.3" stroke="#FFFFFF" stroke-width="4" fill="none"></path></g><g transform="translate(534.0513287716411 189.833787581897) rotate(0 77.13795260761628 81.06945475557961)"><path d="M125.76 151.83 C135.91 155.51, 142.63 156.17, 152.77 163.89 M128.35 149.92 C134.44 152.3, 141.13 156.57, 155.02 162.83" stroke="#FFFFFF" stroke-width="4" fill="none"></path></g><g transform="translate(534.0513287716411 189.833787581897) rotate(0 77.13795260761628 81.06945475557961)"><path d="M140.68 137.75 C146.33 145.6, 148.56 150.51, 152.77 163.89 M143.28 135.84 C145.6 141.84, 148.47 149.72, 155.02 162.83" stroke="#FFFFFF" stroke-width="4" fill="none"></path></g></g><g stroke-linecap="round"><g transform="translate(55.872728468850255 246.57992225103067) rotate(0 396.3117110600695 -0.8469452640041482)"><path d="M-1.16 1.2 C131.14 0.8, 661.43 -1.87, 793.78 -2.89" stroke="#FFFFFF" stroke-width="4.5" fill="none" stroke-dasharray="1.5 10"></path></g></g><g stroke-linecap="round"><g transform="translate(454.2173272293061 258.3622118968517) rotate(0 -24.205651555582847 130.14447457008055)"><path d="M1.2 0.08 C-6.98 43.64, -40.8 216.9, -49.61 260.21" stroke="#FFFFFF" stroke-width="4.5" fill="none" stroke-dasharray="1.5 10"></path></g></g><g stroke-linecap="round"><g transform="translate(538.2476501464844 259.09236907958984) rotate(0 89.17736050989481 131.29593704733998)"><path d="M0.08 0.89 C29.99 44.31, 148.62 217.98, 178.27 261.7" stroke="#FFFFFF" stroke-width="4.5" fill="none" stroke-dasharray="1.5 10"></path></g></g><g stroke-linecap="round"><g transform="translate(362.4159240722656 260.2979965209961) rotate(0 -103.3033402245492 114.85750833563509)"><path d="M0.89 -0.74 C-33.89 37.66, -173.02 191.84, -207.5 230.45" stroke="#FFFFFF" stroke-width="4.5" fill="none" stroke-dasharray="1.5 10"></path></g></g></svg>
