<svg version="1.1" xmlns="http://www.w3.org/2000/svg" viewBox="0 0 863.9206848144531 532.1764144897461" width="863.9206848144531" height="532.1764144897461">
  <!-- svg-source:excalidraw -->

  <defs>
    <style>
      @font-face {
        font-family: "Virgil";
        src: url("https://excalidraw.com/Virgil.woff2");
      }
      @font-face {
        font-family: "Cascadia";
        src: url("https://excalidraw.com/Cascadia.woff2");
      }
    </style>
  </defs>
  <rect x="0" y="0" width="863.9206848144531" height="532.1764144897461" fill="none"></rect><g stroke-linecap="round"><g transform="translate(20.373886108398438 82.81692049259323) rotate(0 117.65844624765217 -0.16740506105122677)"><path d="M-0.01 1.15 C39.62 0.95, 197.37 -1.07, 236.79 -1.49 M-1.47 0.71 C38.07 0.66, 196.29 -0.22, 235.8 -0.42" stroke="#FFFFFF" stroke-width="1" fill="none"></path></g></g><g stroke-linecap="round"><g transform="translate(24.560836791992188 148.03176424259323) rotate(0 119.26173217454928 -0.40225702056665114)"><path d="M1.15 -0.08 C40.53 -0.24, 196.82 -0.77, 235.98 -0.97 M0.3 -1.17 C40.08 -1.16, 198.51 0.24, 238.22 0.37" stroke="#FFFFFF" stroke-width="1" fill="none"></path></g></g><g stroke-linecap="round"><g transform="translate(33.62152099609375 82.42434236759323) rotate(0 -0.38206124879420145 30.22626165367666)"><path d="M-0.08 -0.89 C0.06 8.95, 0.73 49.91, 0.82 60.22 M-1.59 1.26 C-1.64 11.74, -1.08 51.18, -0.32 61.34" stroke="#FFFFFF" stroke-width="1" fill="none"></path></g></g><g stroke-linecap="round"><g transform="translate(57.55607604980469 81.83550569767135) rotate(0 0.905423606771592 29.908238265719262)"><path d="M-0.89 -0.38 C-1.02 9.69, 0.07 50.08, 0.41 60.28 M0.84 -1.62 C1 8.59, 2.79 50.82, 2.7 61.43" stroke="#FFFFFF" stroke-width="1" fill="none"></path></g></g><g stroke-linecap="round"><g transform="translate(85.06077575683594 84.2187454437651) rotate(0 1.230107673688508 30.843733769282665)"><path d="M-0.38 -0.79 C-0.28 9.52, 0.23 50.62, 0.47 60.96 M1.63 1.41 C2.12 12, 3.04 52.26, 2.8 62.48" stroke="#FFFFFF" stroke-width="1" fill="none"></path></g></g><g stroke-linecap="round"><g transform="translate(110.7804107666015 82.42440340274948) rotate(0 0.18055243082343964 30.77602216905916)"><path d="M-0.79 -0.73 C-0.45 9.47, 0.78 50.39, 1.15 60.84 M1 1.5 C1.25 11.93, 0.21 52.51, 0.18 62.28" stroke="#FFFFFF" stroke-width="1" fill="none"></path></g></g><g stroke-linecap="round"><g transform="translate(141.2850799560547 83.0131790375151) rotate(0 0.17939630560576347 30.064146334603436)"><path d="M-0.73 -0.05 C-0.5 10.29, 0.54 50.92, 1.02 61.24 M1.09 -1.12 C1.18 8.91, -0.15 49.06, -0.02 59.24" stroke="#FFFFFF" stroke-width="1" fill="none"></path></g></g><g stroke-linecap="round"><g transform="translate(170.59344482421875 85.40566560978073) rotate(0 -0.04917623317800235 30.32062175086702)"><path d="M-0.05 -0.17 C0.32 10.27, 1.08 51.75, 1.43 61.95 M-1.53 -1.31 C-1.23 8.88, 0.05 49.71, 0.61 60.32" stroke="#FFFFFF" stroke-width="1" fill="none"></path></g></g><g stroke-linecap="round"><g transform="translate(204.6962890625 82.42441866153854) rotate(0 0.20729918308558126 30.605440209433425)"><path d="M-0.17 0.23 C0.3 10.56, 1.91 51.73, 2.14 61.9 M-1.72 -0.69 C-1.26 9.31, 1.32 49.68, 1.69 60.24" stroke="#FFFFFF" stroke-width="1" fill="none"></path></g></g><g stroke-linecap="round"><g transform="translate(232.79908752441406 83.02251741642135) rotate(0 0.49211764165201544 31.479413093235394)"><path d="M0.23 0.94 C0.59 11.14, 1.89 51.07, 2.09 61.02 M-1.1 0.39 C-0.82 10.81, 1.29 52.34, 1.6 62.57" stroke="#FFFFFF" stroke-width="1" fill="none"></path></g></g><g stroke-linecap="round" transform="translate(360.4346618652344 33.266258239746094) rotate(0 107.36444091796875 77.462646484375)"><path d="M125.3 1.42 C138.83 1.96, 154.42 7.19, 166.49 12.76 C178.56 18.33, 189.92 26.28, 197.73 34.82 C205.53 43.37, 211 53.97, 213.33 64.02 C215.67 74.08, 215.1 85.26, 211.74 95.16 C208.38 105.07, 201.47 115.05, 193.18 123.44 C184.88 131.82, 174.28 140.16, 161.96 145.48 C149.64 150.79, 133.5 154.37, 119.25 155.33 C105 156.3, 90.09 154.28, 76.46 151.25 C62.83 148.22, 48.26 143.56, 37.47 137.14 C26.69 130.72, 17.89 121.86, 11.73 112.74 C5.57 103.62, 1.39 92.76, 0.52 82.43 C-0.35 72.1, 1.81 60.36, 6.51 50.78 C11.22 41.21, 18.99 32.42, 28.77 25 C38.55 17.58, 52.25 10.38, 65.18 6.27 C78.1 2.15, 95.51 0.95, 106.33 0.3 C117.15 -0.35, 125.89 1.88, 130.1 2.35 C134.31 2.83, 132.01 1.9, 131.61 3.13 M83.45 1.02 C96.18 -1.77, 114.32 0.56, 128.51 2.59 C142.71 4.61, 157.14 7.4, 168.61 13.18 C180.09 18.97, 189.99 28.39, 197.35 37.28 C204.72 46.17, 210.5 56.78, 212.81 66.55 C215.11 76.32, 214.39 85.96, 211.16 95.91 C207.93 105.86, 202.25 118.12, 193.44 126.24 C184.62 134.36, 171.06 140, 158.27 144.63 C145.48 149.26, 130.56 153.1, 116.72 154.04 C102.88 154.98, 88.37 153.26, 75.22 150.28 C62.06 147.31, 48.7 142.91, 37.79 136.19 C26.87 129.46, 16.04 119.04, 9.72 109.93 C3.41 100.82, 0.37 91.75, -0.1 81.54 C-0.57 71.33, 1.71 58.14, 6.92 48.67 C12.12 39.19, 21 31.91, 31.12 24.68 C41.25 17.45, 58.54 9.15, 67.67 5.27 C76.79 1.38, 82.92 1.75, 85.87 1.35 C88.82 0.95, 85.09 1.59, 85.36 2.84" stroke="#FFFFFF" stroke-width="1" fill="none"></path></g><g stroke-linecap="round"><g transform="translate(262.40713140014583 113.699982714312) rotate(0 38.46516872376915 0.5584278815647963)"><path d="M-1.09 0.42 C11.85 0.27, 65.03 0.04, 78.02 0.04 M0.53 -0.4 C13.3 -0.44, 64.01 1.14, 77.12 1.52" stroke="#FFFFFF" stroke-width="4" fill="none"></path></g><g transform="translate(262.40713140014583 113.699982714312) rotate(0 38.46516872376915 0.5584278815647963)"><path d="M49.34 11.09 C57.72 6.36, 67.71 5.01, 77.04 2.69 M48.57 10.7 C56.47 7.95, 65.8 6.51, 76.6 2.45" stroke="#FFFFFF" stroke-width="4" fill="none"></path></g><g transform="translate(262.40713140014583 113.699982714312) rotate(0 38.46516872376915 0.5584278815647963)"><path d="M49.95 -9.42 C58.29 -7.42, 68.08 -2.04, 77.04 2.69 M49.17 -9.81 C56.95 -6.73, 66.11 -2.34, 76.6 2.45" stroke="#FFFFFF" stroke-width="4" fill="none"></path></g></g><g stroke-linecap="round" transform="translate(238.37387084960938 97.26158142089844) rotate(0 12.266357421875 17.046730041503906)"><path d="M13.79 -0.75 L26.37 16.75 L12.87 35.57 L-0.5 16.24" stroke="none" stroke-width="0" fill="#12b886" fill-rule="evenodd"></path><path d="M12.8 -1.74 C15.91 3.75, 17.8 8.68, 24.22 18.43 M12.75 -0.33 C17.34 6.2, 19.21 11.49, 24.46 17.59 M25.56 18.67 C23.02 21.57, 19.26 23.99, 14.32 34.87 M25.5 18.74 C21.07 22.27, 18.42 27.97, 12.58 34.59 M13.31 35.56 C10.86 29.97, 6.37 28.54, -0.88 19.23 M13.83 33.53 C8.86 28.91, 5.19 25.32, -0.62 18.72 M-0.24 19.48 C3.93 11.04, 9.12 8.28, 14.21 -0.65 M-0.26 18.24 C4.5 11.46, 9.11 4.4, 13.3 -0.43" stroke="#FFFFFF" stroke-width="4" fill="none"></path></g><g transform="translate(402.3037414550781 68.80831146240234) rotate(0 72 45.5)"><text x="72" y="31.5" font-family="Virgil, Segoe UI Emoji" font-size="36px" fill="#FFFFFF" text-anchor="middle" style="white-space: pre;" direction="ltr">Kafka</text><text x="72" y="77" font-family="Virgil, Segoe UI Emoji" font-size="36px" fill="#FFFFFF" text-anchor="middle" style="white-space: pre;" direction="ltr">Streams</text></g><g stroke-linecap="round" transform="translate(691.2007751464844 66.4528579711914) rotate(0 66.40179443359375 43.07011413574219)"><path d="M0 -0.09 C39.7 -0.6, 77.48 -0.44, 132.65 -0.47 M0.91 -0.53 C37.39 -1.37, 72.52 -2.16, 133.15 0.31 M132.9 -0.41 C132.16 31.63, 133.88 60.42, 130.89 86.74 M132.35 0.77 C134.02 33.81, 133.95 67.58, 131.85 85.68 M132.16 84.88 C92.25 85.56, 50.26 86.27, -1.32 87.88 M132.19 85.79 C82.45 84.9, 31.85 85.79, -0.5 85.53 M-1.16 86.67 C1.32 62.52, -1.29 37.81, -0.49 0.04 M0.05 85.69 C-0.63 62.85, -0.63 39.35, -0.38 0.92" stroke="#FFFFFF" stroke-width="1" fill="none"></path></g><g transform="translate(706.7008056640625 87.02327728271484) rotate(0 53 22.5)"><text x="53" y="32" font-family="Virgil, Segoe UI Emoji" font-size="36px" fill="#FFFFFF" text-anchor="middle" style="white-space: pre;" direction="ltr">State</text></g><g stroke-linecap="round"><g transform="translate(579.9413018667744 106.96834748201411) rotate(0 53.87445476926632 2.363001526753976)"><path d="M-0.05 0.7 C18.12 1.49, 91.05 4.09, 109.29 4.7 M-1.54 0.02 C16.43 0.43, 89.89 1.78, 108.24 2.71" stroke="#FFFFFF" stroke-width="4" fill="none"></path></g><g transform="translate(579.9413018667744 106.96834748201411) rotate(0 53.87445476926632 2.363001526753976)"><path d="M29.67 -8.81 C19.74 -5.7, 9.96 -3.06, -0.56 0.04 M29.43 -8.58 C16.82 -5.86, 6.22 -1.02, 0.46 1.04" stroke="#FFFFFF" stroke-width="4" fill="none"></path></g><g transform="translate(579.9413018667744 106.96834748201411) rotate(0 53.87445476926632 2.363001526753976)"><path d="M28.91 11.69 C19.22 8.2, 9.69 4.24, -0.56 0.04 M28.67 11.93 C16.17 6.5, 5.88 3.18, 0.46 1.04" stroke="#FFFFFF" stroke-width="4" fill="none"></path></g><g transform="translate(579.9413018667744 106.96834748201411) rotate(0 53.87445476926632 2.363001526753976)"><path d="M80.91 11.75 C89.34 8.92, 97.94 5.58, 107.73 2.05 M80.66 11.98 C90.57 7.63, 102.67 5.09, 108.76 3.05" stroke="#FFFFFF" stroke-width="4" fill="none"></path></g><g transform="translate(579.9413018667744 106.96834748201411) rotate(0 53.87445476926632 2.363001526753976)"><path d="M81.57 -8.76 C89.79 -4.99, 98.18 -1.72, 107.73 2.05 M81.33 -8.53 C91.16 -4.73, 102.99 0.89, 108.76 3.05" stroke="#FFFFFF" stroke-width="4" fill="none"></path></g></g><g transform="translate(10 10) rotate(0 128.5 22.5)"><text x="128.5" y="32" font-family="Virgil, Segoe UI Emoji" font-size="36px" fill="#FFFFFF" text-anchor="middle" style="white-space: pre;" direction="ltr">Kafka Topic A</text></g><g stroke-linecap="round" transform="translate(54.948638916015625 319.01033782958984) rotate(0 95.40655517578125 49.04669189453125)"><path d="M69.21 2 C81.53 -0.84, 98.42 -1.37, 112.18 -0.11 C125.94 1.14, 140.67 5.1, 151.75 9.52 C162.83 13.95, 172.08 20.23, 178.67 26.43 C185.27 32.63, 190.76 39.79, 191.3 46.71 C191.85 53.64, 187.58 61.52, 181.95 67.99 C176.33 74.46, 168.12 80.63, 157.55 85.54 C146.99 90.46, 132.13 95.62, 118.57 97.48 C105.01 99.35, 89.62 98.35, 76.18 96.72 C62.75 95.09, 48.93 91.87, 37.96 87.68 C26.99 83.5, 16.63 77.81, 10.36 71.6 C4.1 65.39, 0.66 57.79, 0.38 50.43 C0.09 43.07, 2.66 34.07, 8.63 27.45 C14.61 20.82, 24.19 15.15, 36.21 10.67 C48.24 6.18, 71.14 2.15, 80.8 0.52 C90.46 -1.11, 93.98 0.26, 94.19 0.91 M91.4 0.54 C104.58 -0.56, 122.82 1.05, 135.6 3.65 C148.37 6.25, 159.45 10.5, 168.04 16.17 C176.63 21.83, 183.7 30.41, 187.11 37.65 C190.53 44.89, 191.46 52.78, 188.52 59.61 C185.58 66.45, 178.12 73.06, 169.48 78.66 C160.85 84.26, 148.78 89.88, 136.71 93.2 C124.65 96.52, 110.67 98.7, 97.1 98.58 C83.52 98.46, 67.89 95.84, 55.27 92.48 C42.65 89.13, 30.21 84.1, 21.38 78.44 C12.56 72.77, 5.25 65.07, 2.31 58.48 C-0.63 51.9, 0.4 45.45, 3.72 38.93 C7.05 32.41, 13.72 25.18, 22.27 19.39 C30.82 13.6, 43.48 7.35, 55.02 4.21 C66.55 1.07, 85.25 0.95, 91.49 0.53 C97.74 0.1, 92.19 0.93, 92.46 1.66" stroke="#FFFFFF" stroke-width="1" fill="none"></path></g><g transform="translate(96.67764282226562 329.84004974365234) rotate(0 48 45.5)"><text x="48" y="31.5" font-family="Virgil, Segoe UI Emoji" font-size="36px" fill="#FFFFFF" text-anchor="middle" style="white-space: pre;" direction="ltr">Billing</text><text x="48" y="77" font-family="Virgil, Segoe UI Emoji" font-size="36px" fill="#FFFFFF" text-anchor="middle" style="white-space: pre;" direction="ltr"> API</text></g><g stroke-linecap="round" transform="translate(663.1075744628906 347.5427474975586) rotate(0 95.40655517578125 49.04669189453125)"><path d="M60.81 3.05 C72.53 0.12, 88.35 0.19, 102.27 0.86 C116.18 1.54, 132.29 3.54, 144.3 7.1 C156.32 10.66, 166.72 16.37, 174.35 22.22 C181.99 28.06, 188.16 34.99, 190.11 42.15 C192.06 49.32, 190.37 58.54, 186.06 65.2 C181.75 71.86, 174.03 77.09, 164.26 82.1 C154.48 87.12, 140.42 92.49, 127.43 95.27 C114.43 98.04, 99.97 99.45, 86.28 98.75 C72.59 98.05, 57.14 95.1, 45.3 91.08 C33.46 87.06, 22.67 80.53, 15.22 74.61 C7.78 68.68, 2.34 62.54, 0.63 55.52 C-1.08 48.51, 0.21 39.4, 4.94 32.51 C9.68 25.62, 19.58 18.96, 29.05 14.19 C38.51 9.42, 55.54 5.5, 61.73 3.87 C67.92 2.24, 65.42 3.93, 66.17 4.4 M77.74 -0.47 C90.71 -2.51, 108.15 -0.72, 121.51 1.45 C134.86 3.62, 147.73 7.8, 157.86 12.53 C167.99 17.26, 176.65 23.14, 182.29 29.83 C187.93 36.52, 192.11 45.69, 191.7 52.66 C191.29 59.62, 187.04 65.51, 179.85 71.63 C172.65 77.75, 160.08 85.03, 148.54 89.38 C136.99 93.73, 124.25 96.76, 110.58 97.73 C96.91 98.7, 79.87 97.37, 66.52 95.19 C53.17 93, 40.51 89.47, 30.49 84.59 C20.46 79.71, 11.16 72.48, 6.37 65.89 C1.58 59.3, 0.5 52.17, 1.75 45.02 C2.99 37.88, 7.18 29.28, 13.84 23.01 C20.49 16.73, 30.98 10.95, 41.67 7.38 C52.37 3.81, 71.98 2.48, 78.01 1.59 C84.04 0.69, 77.43 1.5, 77.86 2.02" stroke="#FFFFFF" stroke-width="1" fill="none"></path></g><g transform="translate(710.3365783691406 358.3724594116211) rotate(0 42.5 45.5)"><text x="42.5" y="31.5" font-family="Virgil, Segoe UI Emoji" font-size="36px" fill="#FFFFFF" text-anchor="middle" style="white-space: pre;" direction="ltr">Auth</text><text x="42.5" y="77" font-family="Virgil, Segoe UI Emoji" font-size="36px" fill="#FFFFFF" text-anchor="middle" style="white-space: pre;" direction="ltr"> API</text></g><g stroke-linecap="round" transform="translate(210.31314086914062 412.7485580444336) rotate(0 95.40655517578125 49.04669189453125)"><path d="M123.28 2.41 C136.52 3.85, 150.47 8.34, 160.64 13.25 C170.8 18.17, 179.41 25.19, 184.29 31.91 C189.17 38.64, 190.89 46.56, 189.9 53.59 C188.91 60.62, 185.29 68.02, 178.37 74.08 C171.45 80.14, 159.93 86.03, 148.37 89.96 C136.81 93.89, 122.59 96.75, 109.01 97.68 C95.43 98.61, 80.11 97.78, 66.89 95.54 C53.67 93.29, 39.73 89.13, 29.7 84.22 C19.68 79.31, 11.59 72.64, 6.74 66.08 C1.89 59.53, -0.69 52.17, 0.6 44.9 C1.9 37.63, 7.39 28.62, 14.5 22.46 C21.6 16.3, 31.65 11.62, 43.22 7.93 C54.79 4.24, 69.03 1.08, 83.92 0.31 C98.82 -0.47, 122.81 2.15, 132.57 3.27 C142.33 4.38, 143.07 6.27, 142.48 7 M71.16 2.03 C83.65 -0.2, 100.43 -0.57, 113.93 0.84 C127.44 2.25, 141.27 6.05, 152.17 10.5 C163.07 14.95, 172.98 21.27, 179.35 27.54 C185.71 33.81, 189.99 40.96, 190.36 48.15 C190.72 55.34, 187.01 64.06, 181.54 70.68 C176.06 77.31, 168.14 83.74, 157.51 87.88 C146.88 92.02, 131.69 94.09, 117.78 95.54 C103.88 96.98, 87.76 97.78, 74.09 96.54 C60.43 95.3, 46.72 92.34, 35.8 88.1 C24.88 83.86, 14.41 77.69, 8.56 71.09 C2.71 64.49, 0.37 55.67, 0.71 48.5 C1.04 41.33, 4.52 34.27, 10.57 28.06 C16.63 21.84, 27.15 15.53, 37.02 11.21 C46.89 6.88, 64.11 3.77, 69.79 2.11 C75.48 0.45, 70.79 0.61, 71.11 1.25" stroke="#FFFFFF" stroke-width="1" fill="none"></path></g><g transform="translate(237.04214477539062 423.5782699584961) rotate(0 63 45.5)"><text x="63" y="31.5" font-family="Virgil, Segoe UI Emoji" font-size="36px" fill="#FFFFFF" text-anchor="middle" style="white-space: pre;" direction="ltr">Shipping</text><text x="63" y="77" font-family="Virgil, Segoe UI Emoji" font-size="36px" fill="#FFFFFF" text-anchor="middle" style="white-space: pre;" direction="ltr"> API</text></g><g stroke-linecap="round" transform="translate(435.0421447753906 420.3467025756836) rotate(0 95.40655517578125 49.04669189453125)"><path d="M79.76 0.76 C92.42 -0.94, 108.78 0.45, 121.84 2.37 C134.91 4.29, 147.73 7.49, 158.17 12.28 C168.61 17.08, 179.11 24.52, 184.5 31.14 C189.88 37.76, 191.57 45.15, 190.48 52.01 C189.39 58.88, 184.78 66.17, 177.95 72.33 C171.13 78.49, 160.96 84.63, 149.51 88.98 C138.07 93.33, 123.19 97.33, 109.28 98.41 C95.36 99.48, 79.09 97.69, 66.01 95.44 C52.93 93.19, 40.87 89.85, 30.8 84.88 C20.73 79.91, 10.56 72.2, 5.59 65.62 C0.63 59.05, -0.33 52.3, 1.01 45.44 C2.35 38.58, 6.63 30.79, 13.65 24.47 C20.67 18.15, 31.12 11.71, 43.12 7.52 C55.12 3.32, 77.11 0.53, 85.65 -0.68 C94.18 -1.88, 94.03 -0.8, 94.33 0.28 M127.12 3.83 C140.13 4.96, 153.24 7.89, 162.87 13 C172.51 18.11, 180.26 27.72, 184.94 34.5 C189.62 41.28, 192.69 47.05, 190.93 53.68 C189.17 60.3, 182.08 68.26, 174.38 74.25 C166.67 80.25, 156.6 85.73, 144.71 89.63 C132.81 93.54, 117.02 96.66, 102.99 97.66 C88.97 98.67, 73.45 98.17, 60.56 95.67 C47.66 93.16, 35.14 88.16, 25.63 82.64 C16.12 77.13, 7.55 69.21, 3.5 62.58 C-0.55 55.95, -0.95 49.64, 1.34 42.88 C3.64 36.12, 9.25 28.23, 17.24 22 C25.24 15.78, 37.32 9.24, 49.33 5.53 C61.33 1.81, 76.56 0.14, 89.25 -0.28 C101.95 -0.7, 119.48 2.33, 125.5 3.02 C131.52 3.72, 125.52 3.39, 125.37 3.89" stroke="#FFFFFF" stroke-width="1" fill="none"></path></g><g transform="translate(480.7711486816406 431.1764144897461) rotate(0 44 45.5)"><text x="44" y="31.5" font-family="Virgil, Segoe UI Emoji" font-size="36px" fill="#FFFFFF" text-anchor="middle" style="white-space: pre;" direction="ltr">Email</text><text x="44" y="77" font-family="Virgil, Segoe UI Emoji" font-size="36px" fill="#FFFFFF" text-anchor="middle" style="white-space: pre;" direction="ltr"> API</text></g><g stroke-linecap="round"><g transform="translate(377.53290911784575 181.06586430778714) rotate(0 -77.78623810129153 71.1515027440193)"><path d="M0.56 -0.97 C-25.39 22.49, -128.91 117.98, -154.91 141.75 M-0.6 1.14 C-26.83 25.32, -130.72 119.63, -156.13 143.27" stroke="#FFFFFF" stroke-width="4" fill="none"></path></g><g transform="translate(377.53290911784575 181.06586430778714) rotate(0 -77.78623810129153 71.1515027440193)"><path d="M-143.91 115.78 C-147.22 124.76, -152.39 135.62, -156.18 143.83 M-141.35 116.35 C-144.72 123.28, -149.06 130.53, -156.55 143.36" stroke="#FFFFFF" stroke-width="4" fill="none"></path></g><g transform="translate(377.53290911784575 181.06586430778714) rotate(0 -77.78623810129153 71.1515027440193)"><path d="M-130.03 130.9 C-138.56 134.39, -148.83 139.71, -156.18 143.83 M-127.48 131.47 C-134.48 134.53, -142.34 137.94, -156.55 143.36" stroke="#FFFFFF" stroke-width="4" fill="none"></path></g></g><g stroke-linecap="round"><g transform="translate(428.1262962742969 192.21717062197217) rotate(0 -45.0627538134209 100.92345494994908)"><path d="M-0.42 -0.9 C-15.55 32.9, -75.82 167.78, -91.29 201.74 M1.55 1.25 C-13.58 35.25, -76.28 168.92, -91.68 202.74" stroke="#FFFFFF" stroke-width="4" fill="none"></path></g><g transform="translate(428.1262962742969 192.21717062197217) rotate(0 -45.0627538134209 100.92345494994908)"><path d="M-90.65 174.63 C-91.74 178.91, -90.53 188.37, -92.11 204.54 M-89.93 173.77 C-90.29 180.96, -91.5 189.42, -91.91 202.47" stroke="#FFFFFF" stroke-width="4" fill="none"></path></g><g transform="translate(428.1262962742969 192.21717062197217) rotate(0 -45.0627538134209 100.92345494994908)"><path d="M-72.02 183.25 C-77.76 185.28, -81.27 192.55, -92.11 204.54 M-71.31 182.39 C-76.89 187.12, -83.37 193.14, -91.91 202.47" stroke="#FFFFFF" stroke-width="4" fill="none"></path></g></g><g stroke-linecap="round"><g transform="translate(493.35851328339925 190.63886384642183) rotate(0 13.094947736475376 105.72693013776586)"><path d="M0.75 0.36 C4.81 35.67, 19.95 176.7, 24.16 211.95 M-0.31 -0.5 C4.14 34.49, 22.13 175.23, 26.5 210.3" stroke="#FFFFFF" stroke-width="4" fill="none"></path></g><g transform="translate(493.35851328339925 190.63886384642183) rotate(0 13.094947736475376 105.72693013776586)"><path d="M13.38 182.43 C18.25 193.15, 22.02 200.33, 24.82 210.14 M12.24 183.96 C16.87 190.9, 20.12 196.95, 27.24 209.87" stroke="#FFFFFF" stroke-width="4" fill="none"></path></g><g transform="translate(493.35851328339925 190.63886384642183) rotate(0 13.094947736475376 105.72693013776586)"><path d="M33.74 179.86 C32.74 191.45, 30.65 199.37, 24.82 210.14 M32.6 181.39 C32.1 189.06, 30.22 195.76, 27.24 209.87" stroke="#FFFFFF" stroke-width="4" fill="none"></path></g></g><g stroke-linecap="round"><g transform="translate(534.0513287716411 189.83378758189713) rotate(0 76.66554598903048 80.87684929871148)"><path d="M0.2 0.87 C25.88 27.71, 129.07 133.79, 154.48 160.52 M-1.15 0.27 C24.41 27.27, 127.96 134.46, 153.98 161.48" stroke="#FFFFFF" stroke-width="4" fill="none"></path></g><g transform="translate(534.0513287716411 189.83378758189713) rotate(0 76.66554598903048 80.87684929871148)"><path d="M128.47 149.74 C134.16 151.04, 144.45 158.96, 154.45 161.06 M126.17 147.73 C132.61 150.45, 138.79 154.36, 154.3 161.01" stroke="#FFFFFF" stroke-width="4" fill="none"></path></g><g transform="translate(534.0513287716411 189.83378758189713) rotate(0 76.66554598903048 80.87684929871148)"><path d="M143.24 135.5 C143.92 141.6, 149.26 154.29, 154.45 161.06 M140.94 133.48 C144.24 139.23, 147.37 146.08, 154.3 161.01" stroke="#FFFFFF" stroke-width="4" fill="none"></path></g></g><g stroke-linecap="round"><g transform="translate(55.872728468850255 246.57992225103067) rotate(0 396.61713323276496 -2.213247084431316)"><path d="M-0.29 0.04 C131.84 -0.83, 661.13 -3.7, 793.53 -4.47" stroke="#FFFFFF" stroke-width="4.5" fill="none" stroke-dasharray="1.5 10"></path></g></g><g stroke-linecap="round"><g transform="translate(454.2173272293061 258.3622118968517) rotate(0 -26.284012242034123 130.3957788843661)"><path d="M-0.9 -0.15 C-9.57 43.19, -43.52 217.32, -51.67 260.94" stroke="#FFFFFF" stroke-width="4.5" fill="none" stroke-dasharray="1.5 10"></path></g></g><g stroke-linecap="round"><g transform="translate(538.2476501464844 259.09236907958996) rotate(0 89.43188930433246 130.85537334699177)"><path d="M0.29 -0.2 C30.1 43.59, 148.62 218.27, 178.57 261.91" stroke="#FFFFFF" stroke-width="4.5" fill="none" stroke-dasharray="1.5 10"></path></g></g><g stroke-linecap="round"><g transform="translate(362.4159240722656 260.297996520996) rotate(0 -103.97746850438415 115.61131242103875)"><path d="M-0.85 -0.44 C-35.33 38.25, -173.01 192.91, -207.11 231.66" stroke="#FFFFFF" stroke-width="4.5" fill="none" stroke-dasharray="1.5 10"></path></g></g></svg>
