<svg version="1.1" xmlns="http://www.w3.org/2000/svg" viewBox="0 0 895.1822814941406 403.34102630615234" width="895.1822814941406" height="403.34102630615234">
  <!-- svg-source:excalidraw -->

  <defs>
    <style>
      @font-face {
        font-family: "Virgil";
        src: url("https://excalidraw.com/Virgil.woff2");
      }
      @font-face {
        font-family: "Cascadia";
        src: url("https://excalidraw.com/Cascadia.woff2");
      }
    </style>
  </defs>
  <rect x="0" y="0" width="895.1822814941406" height="403.34102630615234" fill="none"></rect><g stroke-linecap="round"><g transform="translate(20.373886108398438 84.88839934496582) rotate(0 118.34771485962906 -0.4120655336324148)"><path d="M0.93 -1.16 C40.32 -1.5, 197.31 -1.67, 236.74 -1.67 M-0.05 0.85 C39.15 0.58, 196.21 -0.53, 235.73 -0.7" stroke="#FFFFFF" stroke-width="1" fill="none"></path></g></g><g stroke-linecap="round"><g transform="translate(24.560836791992188 150.10324309496582) rotate(0 118.39279120080172 -0.9295879896658619)"><path d="M-1.16 -0.13 C38.07 -0.28, 196.22 0.11, 235.8 0.03 M0.43 -1.24 C39.99 -1.82, 198.81 -2.09, 237.94 -1.76" stroke="#FFFFFF" stroke-width="1" fill="none"></path></g></g><g stroke-linecap="round"><g transform="translate(33.62152099609375 84.49582121996582) rotate(0 1.0060119526833375 30.949541463330377)"><path d="M1.17 1.09 C1.45 11.19, 1.68 51.1, 1.68 61.28 M0.33 0.62 C0.49 10.28, 0.97 49.33, 0.99 59.3" stroke="#FFFFFF" stroke-width="1" fill="none"></path></g></g><g stroke-linecap="round"><g transform="translate(57.55607604980469 83.90698455004394) rotate(0 0.8310457749108195 31.13014452299103)"><path d="M1.09 0.49 C1.22 10.46, 1.26 50.91, 1.47 61.02 M0.2 -0.3 C0.14 10.39, 0.33 52.1, 0.66 62.56" stroke="#FFFFFF" stroke-width="1" fill="none"></path></g></g><g stroke-linecap="round"><g transform="translate(85.06077575683594 86.2902242961377) rotate(0 0.2254321529847516 30.77496367983521)"><path d="M0.49 0.27 C0.49 10.45, 1.07 52.25, 1.21 62.18 M-0.71 -0.63 C-0.97 9.76, 0.04 50.48, 0.26 60.67" stroke="#FFFFFF" stroke-width="1" fill="none"></path></g></g><g stroke-linecap="round"><g transform="translate(110.7804107666015 84.49588225512207) rotate(0 0.6616411120537862 30.842490976955744)"><path d="M0.27 0.01 C0.49 10.12, 2.41 50.99, 2.37 61.12 M-1.04 -1.03 C-0.98 9.25, 1.48 52.21, 2.03 62.72" stroke="#FFFFFF" stroke-width="1" fill="none"></path></g></g><g stroke-linecap="round"><g transform="translate(141.2850799560547 85.0846578898877) rotate(0 -0.06862913407385918 30.736414513662453)"><path d="M0.01 1.17 C0.15 11.09, 1.15 49.67, 1.31 59.82 M-1.44 0.74 C-1.5 10.74, 0.16 50.81, 0.42 60.73" stroke="#FFFFFF" stroke-width="1" fill="none"></path></g></g><g stroke-linecap="round"><g transform="translate(170.59344482421875 87.47714446215332) rotate(0 1.0459243688289064 30.659454883541898)"><path d="M1.17 0.11 C1.13 10.24, -0.17 50.56, 0.01 60.78 M0.32 -0.88 C0.6 9.43, 1.81 52.16, 2.1 62.2" stroke="#FFFFFF" stroke-width="1" fill="none"></path></g></g><g stroke-linecap="round"><g transform="translate(204.6962890625 84.49589751391113) rotate(0 -0.16211925171313624 30.432916732504978)"><path d="M0.11 -1.19 C0.27 8.96, 0.71 51.68, 0.97 62.05 M-1.29 0.8 C-1.31 11.14, -0.5 50.21, -0.1 60.48" stroke="#FFFFFF" stroke-width="1" fill="none"></path></g></g><g stroke-linecap="round"><g transform="translate(232.79908752441406 85.09399626879394) rotate(0 0.5263615567237139 30.02201506591402)"><path d="M-1.19 -0.23 C-1.01 9.99, 1.83 51.39, 2.24 61.44 M0.39 -1.4 C0.4 8.45, 1.82 49.16, 1.84 59.54" stroke="#FFFFFF" stroke-width="1" fill="none"></path></g></g><g stroke-linecap="round"><g transform="translate(641.0653839111328 84.48474981255833) rotate(0 118.4390331239253 -0.7023993294686051)"><path d="M0.25 0.14 C40.07 -0.05, 198.61 -1.62, 237.95 -1.55 M-1.07 -0.83 C38.76 -0.87, 198.18 -0.46, 237.57 -0.51" stroke="#FFFFFF" stroke-width="1" fill="none"></path></g></g><g stroke-linecap="round"><g transform="translate(645.2523345947266 149.69959356255833) rotate(0 118.44586591521278 -0.03631280846892082)"><path d="M0.14 1.08 C39.53 0.85, 196.27 -1.07, 235.92 -1.15 M-1.24 0.6 C38.54 0.5, 198.27 0.39, 238.14 0.09" stroke="#FFFFFF" stroke-width="1" fill="none"></path></g></g><g stroke-linecap="round"><g transform="translate(654.3130187988281 84.09217168755833) rotate(0 0.20923904193341514 30.629883821681148)"><path d="M1.08 -0.95 C1.15 9.4, 0.43 51.79, 0.64 62.21 M0.19 1.17 C0.03 11.2, -0.93 50.99, -0.6 60.71" stroke="#FFFFFF" stroke-width="1" fill="none"></path></g></g><g stroke-linecap="round"><g transform="translate(678.2475738525391 83.50333501763646) rotate(0 0.7233286458998691 30.803639720007794)"><path d="M-0.95 -0.56 C-0.57 9.62, 1.95 51.94, 2.39 62.16 M0.76 1.77 C1.07 12.16, 1.99 50.61, 2.08 60.65" stroke="#FFFFFF" stroke-width="1" fill="none"></path></g></g><g stroke-linecap="round"><g transform="translate(705.7522735595703 85.88657476373021) rotate(0 0.8970845442265158 31.166361876949665)"><path d="M-0.56 1.2 C-0.34 11.61, 2.09 51.63, 2.35 61.55 M1.35 0.78 C1.41 10.92, 2.21 49.53, 2.01 59.71" stroke="#FFFFFF" stroke-width="1" fill="none"></path></g></g><g stroke-linecap="round"><g transform="translate(731.4719085693359 84.09223272271458) rotate(0 1.0577391837838945 31.470831281449634)"><path d="M1.2 1.15 C1.65 11.38, 1.79 50.66, 1.74 60.8 M0.37 0.71 C0.79 11.17, 1.14 52.32, 1.07 62.23" stroke="#FFFFFF" stroke-width="1" fill="none"></path></g></g><g stroke-linecap="round"><g transform="translate(761.9765777587891 84.68100835748021) rotate(0 0.5484628024405538 30.931252738907943)"><path d="M1.15 0.54 C1.41 10.46, 0.82 50.72, 0.99 60.7 M0.3 -0.22 C0.43 10.38, -0.34 51.79, -0.07 62.08" stroke="#FFFFFF" stroke-width="1" fill="none"></path></g></g><g stroke-linecap="round"><g transform="translate(791.2849426269531 87.07349492974583) rotate(0 0.08349965083277766 30.303872888004392)"><path d="M0.54 -0.21 C0.49 9.93, 0.87 51.81, 0.89 61.97 M-0.63 -1.36 C-0.97 8.96, -0.26 49.8, -0.22 60.36" stroke="#FFFFFF" stroke-width="1" fill="none"></path></g></g><g stroke-linecap="round"><g transform="translate(825.3877868652344 84.09224798150365) rotate(0 0.19055032022299656 30.10881205715239)"><path d="M-0.21 -0.3 C-0.04 9.68, 1.96 50.39, 2.16 60.47 M-1.78 -1.51 C-1.79 8.59, 1.41 51.3, 1.72 61.73" stroke="#FFFFFF" stroke-width="1" fill="none"></path></g></g><g stroke-linecap="round"><g transform="translate(853.4905853271484 84.69034673638646) rotate(0 0.5827541319466718 31.311276686098438)"><path d="M-0.3 0.96 C-0.29 11.13, 0.55 50.73, 0.66 60.78 M1.74 0.42 C1.5 10.79, -0.75 51.81, -0.57 62.2" stroke="#FFFFFF" stroke-width="1" fill="none"></path></g></g><g stroke-linecap="round" transform="translate(347.8738708496094 238.41573333740234) rotate(0 107.36444091796875 77.462646484375)"><path d="M90.59 -0.14 C103.72 -2.9, 121.67 -0.93, 135.6 1.86 C149.53 4.65, 163 10.23, 174.14 16.59 C185.28 22.95, 195.74 31.14, 202.44 40.01 C209.13 48.89, 213.18 59.61, 214.31 69.85 C215.44 80.08, 213.8 91.62, 209.23 101.44 C204.66 111.27, 196.37 121.27, 186.91 128.8 C177.45 136.33, 165.27 142.21, 152.48 146.62 C139.68 151.03, 124.3 154.62, 110.16 155.24 C96.02 155.87, 80.8 154.33, 67.66 150.38 C54.51 146.42, 41.21 138.74, 31.29 131.51 C21.37 124.27, 13.46 116.27, 8.13 106.98 C2.8 97.68, -1.11 85.92, -0.69 75.75 C-0.26 65.58, 4.76 55.2, 10.69 45.93 C16.62 36.67, 24.53 27.15, 34.89 20.17 C45.25 13.19, 61.7 7.49, 72.86 4.05 C84.03 0.6, 95.41 0.05, 101.88 -0.49 C108.35 -1.03, 111.73 -0.53, 111.7 0.81 M84.71 2.2 C97.39 -0.98, 112.25 -0.29, 125.75 1.75 C139.25 3.79, 153.72 8.8, 165.71 14.44 C177.7 20.08, 189.81 27.52, 197.7 35.61 C205.6 43.7, 210.51 53.14, 213.07 62.99 C215.64 72.84, 216.15 84.7, 213.07 94.7 C209.99 104.7, 203.27 114.7, 194.59 122.99 C185.9 131.29, 173.59 139.34, 160.95 144.47 C148.3 149.6, 132.93 152.76, 118.74 153.78 C104.54 154.8, 89.35 153.6, 75.78 150.6 C62.21 147.61, 48.33 142.27, 37.32 135.81 C26.32 129.34, 15.99 120.93, 9.75 111.81 C3.51 102.69, 0.33 91.06, -0.12 81.08 C-0.57 71.11, 2.17 61.35, 7.07 51.95 C11.96 42.54, 19.6 32.31, 29.24 24.65 C38.89 16.98, 55.86 9.51, 64.93 5.97 C73.99 2.42, 80.34 3.85, 83.64 3.4 C86.95 2.96, 84.32 2.17, 84.77 3.3" stroke="#FFFFFF" stroke-width="1" fill="none"></path></g><g stroke-linecap="round"><g transform="translate(269.5187072753906 121.17281341552734) rotate(0 56.6474263935705 56.84951554652281)"><path d="M0.35 -0.19 C19.22 19.11, 95.36 95.8, 114.22 115.03 M-0.92 -1.33 C17.7 17.71, 93.77 94.25, 113.26 113.38" stroke="#FFFFFF" stroke-width="4" fill="none"></path></g><g transform="translate(269.5187072753906 121.17281341552734) rotate(0 56.6474263935705 56.84951554652281)"><path d="M85.72 100.71 C97.88 104.27, 108.63 108.79, 113.13 112.76 M86.97 100.91 C92.29 104.36, 99.05 108.2, 113.43 113.58" stroke="#FFFFFF" stroke-width="4" fill="none"></path></g><g transform="translate(269.5187072753906 121.17281341552734) rotate(0 56.6474263935705 56.84951554652281)"><path d="M100.21 86.17 C106.71 95.35, 111.91 105.44, 113.13 112.76 M101.45 86.37 C103.03 93.49, 106.1 101.04, 113.43 113.58" stroke="#FFFFFF" stroke-width="4" fill="none"></path></g></g><g stroke-linecap="round"><g transform="translate(493.34070304071406 236.54367920261234) rotate(0 59.62185754840323 -53.9396549744736)"><path d="M-0.22 -0.4 C20.15 -18.04, 100.93 -88.23, 121.03 -105.92 M-1.79 -1.65 C18.54 -19.61, 100.05 -89.66, 120.26 -107.48" stroke="#FFFFFF" stroke-width="4" fill="none"></path></g><g transform="translate(493.34070304071406 236.54367920261234) rotate(0 59.62185754840323 -53.9396549744736)"><path d="M105.05 -80.69 C110.48 -87.09, 112.5 -92.46, 119.95 -107.05 M106.14 -80.81 C111.26 -91.21, 118.02 -101.21, 119.89 -107.33" stroke="#FFFFFF" stroke-width="4" fill="none"></path></g><g transform="translate(493.34070304071406 236.54367920261234) rotate(0 59.62185754840323 -53.9396549744736)"><path d="M91.59 -96.18 C99.77 -99.38, 104.55 -101.57, 119.95 -107.05 M92.67 -96.3 C103.23 -100.56, 115.31 -104.42, 119.89 -107.33" stroke="#FFFFFF" stroke-width="4" fill="none"></path></g></g><g stroke-linecap="round" transform="translate(238.37387084960938 99.63486072830858) rotate(0 12.266357421875 17.046730041503906)"><path d="M12.16 0.45 L26.2 18.38 L14.29 33.57 L0.64 17.4" stroke="none" stroke-width="0" fill="#12b886" fill-rule="evenodd"></path><path d="M11.21 -0.33 C19.35 7.62, 22.94 14.17, 25.34 17.6 M12.78 0.27 C15.93 5.55, 20.42 10.59, 24.95 18.52 M23.29 19.85 C23.32 19.77, 18.82 25.15, 14.74 35.23 M25.32 17.01 C22.86 22.49, 19.88 25.94, 13.14 34.11 M12.28 33.77 C9.29 30.62, 5.61 27.73, 1.64 17.25 M13.29 34.87 C8.87 28.07, 4.49 22.69, -0.11 18.09 M0.69 16.02 C3.46 10.67, 8.74 4.19, 12.75 1.12 M-0.91 18.56 C4.55 12.36, 7.94 7.63, 13.96 0.11" stroke="#FFFFFF" stroke-width="4" fill="none"></path></g><g stroke-linecap="round" transform="translate(620.5793762207031 99.63486072830858) rotate(0 12.266357421875 17.046730041503906)"><path d="M14.67 0.38 L25.82 17.47 L13.64 33.49 L-0.39 18.62" stroke="none" stroke-width="0" fill="#fd7e14" fill-rule="evenodd"></path><path d="M14.92 0.56 C18.32 7.09, 22.78 13.88, 24.35 16.16 M12.74 0.39 C18.08 6.78, 21.86 13.72, 23.65 17.2 M25.89 16.3 C19.74 23.97, 18.17 30.42, 11.8 35.96 M25.47 18.65 C22.05 22.77, 18.15 27.18, 12.18 33.35 M11.99 34.12 C7.41 30.02, 7.13 23.96, 1.39 16.17 M13.52 33.97 C9.46 29.12, 3.94 23.26, 0.95 18.64 M-1.56 17.84 C2.85 12.59, 8.37 7.23, 12.81 -1.72 M0.62 17.48 C3.2 14.02, 6.73 10.27, 12.58 0.22" stroke="#FFFFFF" stroke-width="4" fill="none"></path></g><g transform="translate(389.7430114746094 270.37837982177734) rotate(0 72 45.5)"><text x="72" y="31.5" font-family="Virgil, Segoe UI Emoji" font-size="36px" fill="#FFFFFF" text-anchor="middle" style="white-space: pre;" direction="ltr">Kafka</text><text x="72" y="77" font-family="Virgil, Segoe UI Emoji" font-size="36px" fill="#FFFFFF" text-anchor="middle" style="white-space: pre;" direction="ltr">Streams</text></g><g stroke-linecap="round" transform="translate(660.0887145996094 272.80826568603516) rotate(0 66.40179443359375 43.07011413574219)"><path d="M1.11 -1.92 C43.19 0.56, 91.08 2.24, 132.59 -1.12 M-0.9 -0.2 C39.61 -1.29, 81.4 0.09, 133.49 -0.59 M131.62 -1.67 C131.48 34.2, 132.63 66.25, 131.07 87.32 M132.43 -0.63 C132.17 17.33, 132.28 36.76, 133.79 85.61 M132.51 88.01 C84.63 86.21, 37.05 84.85, -1.23 86.69 M132.56 85.38 C87.61 86.7, 44.04 86.98, 0.58 86.96 M-0.3 87.47 C-0.93 58.66, -0.59 35.44, -0.84 0.39 M-0.1 85.55 C0.42 56.72, -0.51 26.67, 0.64 -0.38" stroke="#FFFFFF" stroke-width="1" fill="none"></path></g><g transform="translate(675.588623046875 293.37837982177734) rotate(0 53 22.5)"><text x="53" y="32" font-family="Virgil, Segoe UI Emoji" font-size="36px" fill="#FFFFFF" text-anchor="middle" style="white-space: pre;" direction="ltr">State</text></g><g stroke-linecap="round"><g transform="translate(567.4363470617654 313.14996300590747) rotate(0 45.62991491813352 2.7284168158698776)"><path d="M1.16 1.2 C16.17 1.72, 76.11 3.04, 90.96 3.52 M0.3 0.78 C15.09 1.41, 75.26 3.93, 90.06 4.67" stroke="#FFFFFF" stroke-width="4" fill="none"></path></g><g transform="translate(567.4363470617654 313.14996300590747) rotate(0 45.62991491813352 2.7284168158698776)"><path d="M31.6 -8.19 C17.83 -5.6, 8.12 0.58, 2.93 -0.45 M29.28 -8.66 C22.67 -5.28, 14.13 -2.32, 1.42 1.17" stroke="#FFFFFF" stroke-width="4" fill="none"></path></g><g transform="translate(567.4363470617654 313.14996300590747) rotate(0 45.62991491813352 2.7284168158698776)"><path d="M31.07 12.33 C17.43 7.27, 7.92 5.8, 2.93 -0.45 M28.76 11.86 C22.37 9.88, 13.98 7.47, 1.42 1.17" stroke="#FFFFFF" stroke-width="4" fill="none"></path></g><g transform="translate(567.4363470617654 313.14996300590747) rotate(0 45.62991491813352 2.7284168158698776)"><path d="M63.43 13.79 C70.86 8.93, 82.41 8.22, 91.83 3.02 M61.11 13.32 C69.48 11.37, 75.85 9.49, 90.32 4.65" stroke="#FFFFFF" stroke-width="4" fill="none"></path></g><g transform="translate(567.4363470617654 313.14996300590747) rotate(0 45.62991491813352 2.7284168158698776)"><path d="M64.36 -6.71 C71.51 -3.92, 82.72 3.01, 91.83 3.02 M62.04 -7.18 C70.08 -3.77, 76.2 -0.3, 90.32 4.65" stroke="#FFFFFF" stroke-width="4" fill="none"></path></g></g><g transform="translate(10 10) rotate(0 128.5 22.5)"><text x="128.5" y="32" font-family="Virgil, Segoe UI Emoji" font-size="36px" fill="#FFFFFF" text-anchor="middle" style="white-space: pre;" direction="ltr">Kafka Topic A</text></g><g transform="translate(625.1822814941406 10) rotate(0 130 22.5)"><text x="130" y="32" font-family="Virgil, Segoe UI Emoji" font-size="36px" fill="#FFFFFF" text-anchor="middle" style="white-space: pre;" direction="ltr">Kafka Topic B</text></g></svg>
