<svg version="1.1" xmlns="http://www.w3.org/2000/svg" viewBox="0 0 1101.4296875 476.35520935058594" width="1101.4296875" height="476.35520935058594">
  <!-- svg-source:excalidraw -->

  <defs>
    <style>
      @font-face {
        font-family: "Virgil";
        src: url("https://excalidraw.com/Virgil.woff2");
      }
      @font-face {
        font-family: "Cascadia";
        src: url("https://excalidraw.com/Cascadia.woff2");
      }
    </style>
  </defs>
  <rect x="0" y="0" width="1101.4296875" height="476.35520935058594" fill="#111111"></rect><g stroke-linecap="round" transform="translate(16.602798461914062 335.7196502685547) rotate(0 62.803741455078125 60.71498107910156)"><path d="M20.65 16.63 C20.65 16.63, 20.65 16.63, 20.65 16.63 M20.65 16.63 C20.65 16.63, 20.65 16.63, 20.65 16.63 M3.12 43.29 C13.29 29.73, 21.46 19.43, 29.22 11.87 M3.2 42.76 C14.82 29.7, 24.99 18.58, 30.85 12.59 M4.76 48.77 C13.78 36.84, 23.2 25.31, 39.91 6.57 M3.01 48.23 C13.31 36.72, 23.14 25.32, 38.84 6.86 M5.16 52.81 C17.66 38.6, 33.82 20.14, 47.07 3.21 M4.18 53.82 C16.9 39.52, 30.54 23.78, 49.02 3.09 M2.66 62.54 C22.37 41.61, 37.18 19.28, 52.65 2.88 M2.84 62.53 C14.07 49, 26.51 34.64, 54.4 1.4 M2.47 66.27 C25.63 41, 49.42 15.47, 59.91 2.27 M2.47 68.34 C18.57 49.06, 33.76 31.14, 60.57 1.01 M3.33 72.13 C23.45 47.55, 47.12 24.06, 67.46 1.34 M4.07 73.91 C23.42 48.27, 45.82 24.38, 66.32 0 M4.16 78.55 C24.53 56.05, 43.31 33.52, 69.26 0.04 M5.39 76.96 C27.49 51.98, 51.77 24.75, 71.03 0.91 M6.72 80.41 C29.81 54.84, 54.43 29.29, 75.85 1.69 M7.05 81.41 C23.45 63.82, 40.47 44.08, 74.57 2.15 M8.17 85.26 C33.78 59.57, 55.41 29.24, 80.39 4.48 M9.74 85.59 C33.59 54.9, 59.05 26.61, 78.81 4.41 M11.18 88.74 C35.9 59.5, 61.85 29.28, 83.31 5.62 M11.74 88.59 C31.56 65.31, 53.5 41.08, 82.8 4.82 M11.11 91.75 C33.4 66.89, 56.02 44.92, 89.59 5.03 M12.73 93.44 C32.5 70.72, 52.41 47.77, 87.58 5.61 M14.75 95.19 C39.92 67.66, 66.9 38.09, 91.44 7.79 M13.99 96.77 C40.45 66.43, 68.16 36.23, 91.43 8.52 M16.26 100.83 C45.51 67.75, 75.66 33.86, 96.21 8.83 M16.92 101.7 C45.02 66.53, 75.91 32.9, 95.28 8.42 M19.79 105.53 C42.64 77.22, 65.1 49.38, 100.49 12.61 M19.18 103.01 C46.5 70.2, 74.96 38.03, 99.31 11.04 M23.53 106.72 C43.84 79.58, 66.58 53.67, 101.96 13.29 M23.24 106.56 C48.43 74.42, 74.7 45.19, 102.4 14.01 M27 107.76 C46.32 85.19, 66.87 62.76, 105.46 18.45 M27.23 107.67 C57.62 73.8, 87.75 39.57, 104.68 18.66 M30.34 111.69 C49.4 87.11, 67.27 67.69, 108.24 20.23 M28.77 110.78 C46.3 93.13, 62.5 75.1, 108.33 20.05 M33.57 110.62 C55.45 84.33, 75.86 61.39, 111.31 21.6 M33.76 111.87 C60.29 78.3, 89.22 44.84, 109.47 23.19 M35.38 116.7 C53.74 90.16, 74.46 68.94, 111.45 24.97 M35.64 115.35 C59.7 85.84, 85.42 57.34, 113.66 26.7 M39.61 115.78 C61.03 93.27, 77.45 70.1, 115.76 26.64 M39.5 116.73 C70.39 82.64, 99.23 46.53, 117.05 29.2 M43.36 116.9 C64.72 93.77, 89.18 68.75, 119.06 32.53 M44.64 118.01 C62.22 96.34, 79.29 77.43, 119.25 31.94 M48.27 118.15 C67.62 95.76, 85.91 76.39, 121.22 34.08 M49.43 118.64 C76.82 85.07, 104.33 52.89, 121.21 36.79 M53.1 118.44 C74.79 96.62, 94.21 70.59, 122.98 40.44 M52.4 119.07 C78.93 90.39, 105.05 60.94, 122.59 39.26 M56.45 120.12 C74.78 101.05, 90.73 83.28, 125.44 45.16 M58.48 120.51 C74.79 101.71, 91.11 82.09, 123.77 43.3 M62.05 120.95 C86.54 92.91, 110.93 63.55, 126.65 50.15 M62.88 120.8 C75.95 105.29, 88.01 90.32, 125.95 48.13 M68.06 121.28 C87.92 98.41, 107.91 78.5, 126.88 53.08 M67.82 122.54 C83.67 102.33, 101.36 80.7, 126.97 53.62 M71.73 124.75 C88.36 103.04, 105.52 83.56, 128.66 57.1 M71.82 123.77 C86.77 104.19, 104.34 85.08, 126.91 59.04 M78.64 121.42 C93.29 103.42, 104.29 90.48, 125.4 66.53 M78.41 120.12 C90.17 107.12, 101.99 94.6, 127.15 66.64 M88.88 116.08 C94.79 106.84, 107.28 96.5, 125.33 71.98 M86.86 117 C101.08 100.22, 114.69 85.25, 123.98 73.81 M93.49 115.58 C102.84 101.86, 113.06 92.69, 122.19 80.89 M94.19 113.97 C100.54 108.05, 107.15 101.06, 123.68 81.51" stroke="#228be6" stroke-width="0.5" fill="none"></path><path d="M64.9 -0.49 C74.61 -1.42, 85.33 2.62, 93.89 7.47 C102.45 12.33, 111 20.41, 116.26 28.63 C121.53 36.84, 124.91 47.08, 125.48 56.74 C126.05 66.41, 123.97 77.77, 119.69 86.62 C115.4 95.47, 108.15 104.01, 99.77 109.83 C91.39 115.66, 79.48 120.53, 69.41 121.56 C59.34 122.59, 48.56 119.59, 39.35 116.01 C30.13 112.44, 20.4 107.56, 14.1 100.1 C7.8 92.64, 3.25 81.04, 1.55 71.24 C-0.15 61.44, 0.77 50.34, 3.91 41.29 C7.05 32.24, 13.08 23.33, 20.39 16.93 C27.7 10.54, 39.84 5.6, 47.8 2.9 C55.75 0.2, 64.37 1.06, 68.11 0.73 C71.84 0.4, 70.35 0.15, 70.21 0.92 M51.6 2.13 C60.81 -0.36, 72.45 1.36, 81.93 4.29 C91.41 7.22, 101.58 13.06, 108.5 19.72 C115.43 26.39, 120.9 34.97, 123.49 44.28 C126.08 53.6, 126.49 66, 124.02 75.62 C121.54 85.23, 115.41 95.12, 108.64 101.98 C101.86 108.84, 93.08 113.88, 83.38 116.77 C73.67 119.65, 60.22 120.84, 50.41 119.3 C40.6 117.76, 31.96 113.52, 24.51 107.53 C17.05 101.55, 9.51 92.53, 5.7 83.4 C1.88 74.27, 0.91 62.3, 1.62 52.74 C2.32 43.18, 4.18 33.94, 9.92 26.06 C15.67 18.17, 29.22 9.59, 36.07 5.41 C42.92 1.23, 48.51 1.73, 51.03 0.98 C53.54 0.22, 51.15 -0.22, 51.15 0.88" stroke="#FFFFFF" stroke-width="1" fill="none"></path></g><g transform="translate(40.291296781311985 357.9440002441406) rotate(0 39 35.5)"><text x="39" y="24.5" font-family="Virgil, Segoe UI Emoji" font-size="28px" fill="#FFFFFF" text-anchor="middle" style="white-space: pre;" direction="ltr">Local</text><text x="39" y="60" font-family="Virgil, Segoe UI Emoji" font-size="28px" fill="#FFFFFF" text-anchor="middle" style="white-space: pre;" direction="ltr">LEGO</text></g><g stroke-linecap="round" transform="translate(871.1351470947266 17.73358154296875) rotate(0 105.86923217773438 60.71498107910156)"><path d="M16.58 28.99 C16.58 28.99, 16.58 28.99, 16.58 28.99 M16.58 28.99 C16.58 28.99, 16.58 28.99, 16.58 28.99 M2.41 53.42 C12.19 42.84, 21.38 30.21, 28.5 20.87 M1.52 51.89 C9.08 41.98, 18.27 32.49, 28.01 20.24 M3.46 56.46 C14.68 43.63, 25.38 31.02, 40.64 13.49 M1.77 58.36 C14.35 43.62, 26.81 30.24, 41.06 13.94 M1.42 62.82 C16.96 46.18, 31.31 30.58, 47.54 12.2 M2.29 63.8 C16.6 48.56, 30.36 32.69, 47.63 11.95 M2.53 69.94 C20.98 46.6, 40.12 24.32, 54.69 7.45 M3.55 68.59 C15.73 52.22, 28.65 38.39, 54.71 8.34 M5.49 74.48 C23.5 53.08, 40.71 31.29, 63.17 6.84 M4.17 74.48 C22.27 54.58, 37.87 33.94, 60.36 7.19 M5.33 80.77 C24.09 54.58, 44.97 31.97, 67.55 5.58 M5.32 78.95 C19.6 61.2, 36.74 42.82, 69.14 5.99 M6.72 80.43 C33.08 53.51, 56.18 27.73, 75.3 4.64 M7.64 81.87 C28.76 57.59, 50.38 33.14, 74.05 5.81 M12.13 86.42 C39.4 51.31, 65.69 20.63, 81.31 4.48 M9.76 85.48 C27.59 66.86, 42.94 46.96, 80.6 3.93 M14.93 87.65 C37.71 58.94, 60.24 32.49, 87.3 -0.8 M13.12 87.95 C38.35 59.09, 63.44 31.39, 88.72 -0.01 M15.48 90.42 C39.03 66.05, 60.5 42.91, 93.79 1.76 M16.46 90.83 C41.58 62.36, 65.67 34.32, 94.28 0.2 M17.03 95.14 C49.05 55.49, 81.18 19.79, 98 2.14 M19.33 92.71 C45.61 62.55, 73.66 30.67, 99.53 1.43 M21.14 94.48 C49.36 66.75, 74.32 35.37, 106.56 0.26 M21.97 95.36 C50.31 63.51, 77.94 31.09, 105.31 1.14 M23.56 98.09 C55.7 64.33, 84.25 27.57, 110.81 -0.28 M24.8 99.4 C53.2 66.19, 81.88 33.91, 108.92 1.06 M28.29 103.77 C62.96 62.55, 97.39 21.47, 112.78 2.72 M26.94 101.46 C58.05 67.13, 87.65 30.57, 113.61 1.07 M32.77 104.64 C53.92 79.94, 73.23 53.19, 120.52 3.72 M30.99 102.3 C62.05 70.13, 89.42 37.18, 120.44 2.85 M34.73 104.65 C67.28 65.01, 102.74 27.6, 125.37 1.16 M34.36 104.27 C58.19 77.37, 81.74 51.07, 125.08 2.57 M37.96 108.43 C60.23 80.59, 87.32 52.23, 128.66 3.88 M38.61 106.18 C65.24 75.08, 91.79 45.78, 129.05 3.28 M43.74 107.53 C66.27 79.83, 95.39 49, 133.61 3.8 M43.39 109.47 C64.57 84.61, 86.19 59.54, 133.17 4.52 M44.78 111.31 C71.69 78.77, 101.52 47.4, 140.08 2.89 M45.92 110.11 C71.42 83.1, 93.7 55.91, 138.79 5.33 M48.55 112.71 C79.17 77.07, 114.44 39.4, 142.48 7.57 M50.85 112.24 C76.71 81.8, 103.91 51.56, 143.24 5.55 M55.24 115.08 C74.69 92.06, 91.03 68.25, 146.39 5.43 M53.75 114.13 C72.51 92.06, 92.65 68.89, 147.07 6.53 M58.44 116.99 C84.51 80.82, 114.1 49.32, 150.63 8.13 M58.31 114.78 C82.75 87.85, 108.63 57.32, 151.52 9.03 M63.06 114.54 C93.5 83.8, 120.36 47.96, 154.5 9.14 M61.83 117.35 C96.25 78.25, 128.43 40.3, 156.39 8.89 M68.05 116.39 C100.57 77.7, 138.13 36.11, 159.12 11.36 M66.41 118.05 C95.03 84.02, 124.52 48.9, 160.85 9.64 M70.98 119.67 C101.87 80.82, 135.83 43.75, 162.72 12.88 M71.12 117.09 C98.12 86.99, 124.16 56.4, 163.31 12.21 M76.73 118.65 C100.19 94.79, 123.34 65.85, 169.34 15.36 M77.19 119.28 C112.73 79.12, 146.11 39.22, 167.62 14.3 M80.78 118.2 C106.38 90.03, 129.22 64.36, 170.07 15.49 M80.83 118.47 C101.84 94.8, 122.52 70.12, 170.82 15.8 M87.86 120.22 C108.38 96.45, 128.41 71.32, 174.41 18.94 M86.43 119.96 C113.91 86.64, 141.63 56.34, 176.11 17.7 M92.62 120.08 C111.47 95.9, 130.01 73.76, 177.58 18.02 M90.74 119.89 C124.29 81.97, 156.92 43.36, 178.61 19.74 M97.53 121.28 C111.06 101.27, 131.49 79.67, 180.45 20.38 M95.33 119.87 C124.72 87.98, 151.94 56.14, 182.86 22.06 M102.31 119.7 C122.34 95.99, 142.31 73.1, 184.28 23.97 M101.51 120.22 C130.76 86.85, 160.4 50.27, 184.09 24.11 M105.17 122.98 C122.82 101.69, 142.36 81.92, 189.28 26.68 M106.12 121.28 C123.22 102.26, 140.02 80.73, 188.27 25.32 M110.75 123.2 C136.2 88.95, 167.29 59.91, 193.28 29.32 M111.05 121.12 C139.32 88.34, 169.06 53.77, 191.42 28 M115.55 121.4 C136.73 95.42, 160.76 72.07, 195.09 29.06 M117.09 121.96 C138.43 94.42, 160.94 69.32, 194.35 29.74 M122.47 121.16 C152.47 88.63, 179.94 56.92, 199.72 30.8 M122.13 120.77 C138.89 100.56, 157.55 80.96, 198.53 32.81 M128.2 118.89 C142.96 101.63, 161.86 85.09, 202.46 36.96 M128.97 119.49 C143.78 100.73, 159.56 83.59, 201.66 36.83 M132.45 118.92 C160.16 90.28, 183.7 59.11, 202.11 38.34 M134.17 119.12 C156.61 93.13, 179.08 67.47, 203.42 39.67 M138.66 118.25 C162.04 91.37, 185.15 64.03, 204.32 44.06 M139.23 118.44 C155.82 99.68, 172.12 80.07, 206.35 44.35 M144.62 116.73 C164.32 96.26, 181 78.83, 206.27 46.3 M146.76 117.12 C166 93.99, 186.88 72.2, 207.07 47.72 M149.83 119.25 C168.12 100.78, 184.52 80.43, 208.6 48.95 M150.38 117.91 C171.56 95.31, 192.26 71.4, 209.74 50.08 M161.31 113.11 C179.99 91.63, 200.45 67.69, 213.43 54.81 M160.06 114.97 C170.57 102.92, 181.04 88.71, 212.61 54.38 M167.86 109.83 C180.71 97.92, 191.5 82.62, 209.01 62.02 M166.9 111.69 C179.02 99.36, 190.01 84.53, 210.17 61.59 M175.17 108.51 C184.44 98.91, 192.99 89.13, 210.93 66.98 M175.78 106.92 C182.24 99.73, 189.57 91.47, 210.96 69.62 M183.81 103.48 C191.32 94.47, 197.38 89.72, 208.21 76.32 M185.86 102.71 C191.61 95.31, 196.38 89.26, 209.12 76.2" stroke="#15aabf" stroke-width="0.5" fill="none"></path><path d="M124.56 1.76 C138.52 2.57, 154.14 6.76, 166.12 11.54 C178.11 16.32, 189.13 23.56, 196.47 30.44 C203.81 37.33, 208.44 44.62, 210.16 52.87 C211.88 61.13, 211.17 71.88, 206.79 79.98 C202.41 88.07, 193.64 95.39, 183.88 101.44 C174.12 107.5, 161.6 113.1, 148.24 116.31 C134.88 119.52, 118.17 120.7, 103.72 120.71 C89.27 120.72, 74.59 119.85, 61.54 116.36 C48.49 112.86, 35.06 106.14, 25.4 99.75 C15.75 93.36, 7.77 86.07, 3.6 78.02 C-0.57 69.97, -1.82 59.65, 0.36 51.47 C2.53 43.28, 8.95 35.84, 16.65 28.91 C24.34 21.98, 34.45 14.72, 46.53 9.9 C58.61 5.09, 74.47 1.44, 89.13 0.02 C103.8 -1.4, 125.97 0.53, 134.53 1.37 C143.09 2.22, 140.95 3.96, 140.49 5.07 M115.28 -0.05 C129.3 -0.52, 143.8 2.87, 156.53 6.89 C169.25 10.92, 183.03 17.53, 191.65 24.09 C200.28 30.65, 205.36 38.23, 208.27 46.27 C211.18 54.31, 211.87 63.74, 209.09 72.33 C206.31 80.91, 200.01 90.71, 191.59 97.78 C183.17 104.85, 171.4 110.65, 158.57 114.76 C145.73 118.88, 128.93 121.94, 114.59 122.45 C100.25 122.96, 85.92 120.64, 72.54 117.82 C59.16 115.01, 44.91 111, 34.32 105.57 C23.72 100.15, 14.76 93.26, 8.97 85.25 C3.18 77.25, -0.58 65.95, -0.41 57.54 C-0.23 49.13, 3.51 42.05, 10.04 34.78 C16.56 27.51, 27.48 19.4, 38.74 13.92 C49.99 8.44, 65.07 4.19, 77.57 1.92 C90.07 -0.36, 107.65 0.41, 113.72 0.27 C119.79 0.12, 114.14 0.1, 114 1.04" stroke="#FFFFFF" stroke-width="1" fill="none"></path></g><g transform="translate(895.1215362548828 39.93922424316406) rotate(0 83 35.5)"><text x="83" y="24.5" font-family="Virgil, Segoe UI Emoji" font-size="28px" fill="#FFFFFF" text-anchor="middle" style="white-space: pre;" direction="ltr">Experiences</text><text x="83" y="60" font-family="Virgil, Segoe UI Emoji" font-size="28px" fill="#FFFFFF" text-anchor="middle" style="white-space: pre;" direction="ltr">Marketplace</text></g><g stroke-linecap="round" transform="translate(492.6054033775582 20.121444702148438) rotate(0 84.55339484021528 58.327117919921875)"><path d="M5.27 36.38 C5.27 36.38, 5.27 36.38, 5.27 36.38 M5.27 36.38 C5.27 36.38, 5.27 36.38, 5.27 36.38 M2.6 43.67 C12.8 35.38, 19.61 27.92, 28.72 15.85 M4.7 44.33 C11.78 34.47, 18.17 26.27, 29.61 14.18 M4.14 49.47 C12.03 41.24, 18.78 33.52, 35.9 13.28 M1.79 51.72 C13.31 39.52, 24.68 25.79, 38.14 11.19 M1.41 60.7 C16.53 39.68, 34.34 20.8, 45.69 8.79 M0.7 58.68 C13.06 45.5, 26.05 31.17, 46.15 8.31 M3.82 62.57 C13.52 50.85, 26.2 34.25, 48.79 8.83 M2.89 64.61 C16.47 48.91, 29.82 31.81, 49.27 9.66 M3.35 66.73 C20.68 51.88, 34.18 34.96, 54.69 8.89 M3.47 68.51 C25.32 44.98, 47.01 20.67, 55.84 7.37 M5.7 72.16 C19.44 59.46, 29.56 43.13, 61.23 7.54 M5.91 72.95 C22.1 54.55, 35.88 37.86, 62.97 7.51 M9 75.62 C31.08 46.61, 58.14 19.26, 69.16 7.56 M7.29 76.4 C28.53 52.3, 49.2 28.3, 68.63 6.3 M8.44 80.09 C27.19 62.25, 43.52 39.18, 74.05 4.85 M8.44 80.71 C27.17 59.74, 47.6 37.48, 74.07 4.88 M11.58 84.43 C26.98 67.34, 41.38 48.48, 79.71 4.69 M9.79 84.7 C25.9 68.06, 40.7 50.05, 80.82 4.62 M12.33 86.37 C33.19 65.15, 54.7 41.95, 88.09 4.38 M12.91 88.1 C32 66.42, 51.05 44.53, 87.08 3.67 M16.95 89.66 C34.14 69.03, 54.35 42.86, 90.65 3.18 M16.97 90.71 C32.4 70.91, 48.45 53.21, 92.65 3.9 M17.34 91.76 C40.01 66.02, 63.29 42.24, 95.61 3.51 M19.64 93.07 C50.39 57, 81.61 21.97, 96.66 4.05 M23.72 96.05 C49.68 61.65, 81.24 29.35, 100.65 3.89 M22.25 96.56 C51.22 63.89, 79.87 30.79, 101.88 5.67 M25.87 99.48 C45.5 77.77, 64.48 55.23, 108.17 4.07 M26.58 98.12 C41.78 77.76, 59.86 59.29, 106.45 4.21 M29.86 101.31 C47.04 83.62, 63.79 64.84, 110.68 5.34 M28.12 100.87 C55.97 66.73, 86.01 35.03, 110.81 6.24 M31.31 102.23 C62.67 65.24, 93.71 26.5, 116.05 5.85 M32.87 102.27 C59.96 70.1, 89.39 36.99, 115.51 6.83 M36.71 104.37 C64.08 72.78, 93.29 37.27, 122.81 6.1 M35.15 106.03 C59.43 76.38, 83.52 48.49, 120.02 7.95 M38.75 109.17 C66.98 75.49, 91.24 46.52, 126.88 7.86 M38.55 107.03 C64 80.7, 88.51 51.26, 125.98 7.39 M44.93 109.11 C60.11 87.24, 80.45 63.56, 130.8 9.4 M42.95 108.93 C77.22 69.94, 112.37 31.89, 127.99 10.9 M48.27 110.9 C75.42 75.33, 105.1 41.79, 133.73 12.61 M46.87 110.41 C72.33 81.14, 96.18 52.89, 132.12 13.37 M51.24 111.89 C83.76 77.95, 114.92 41.59, 134.09 13.23 M51.86 111.49 C74.87 85.95, 97.98 59.53, 136.09 13.95 M58.39 112.53 C83.79 82.73, 107.75 50.59, 137.58 18.28 M56.7 110.98 C79.24 85.39, 101.1 61.11, 139.82 15.51 M61.07 113.05 C87.69 79.55, 115.12 52.56, 140.47 19.51 M60.64 113.14 C80.58 89.83, 101.94 65.93, 142.23 18.98 M66.64 112.64 C97.96 76.19, 126.57 42.35, 146.87 20.81 M66.15 113.82 C85.64 89.67, 106.53 65.75, 145.1 20.81 M71.21 114.14 C101.34 79.6, 132.57 41.04, 150.1 22.4 M70.15 115.1 C86.43 93.29, 105.68 73.05, 149.91 22.11 M73.57 115 C90.01 97.5, 107.39 80, 154.66 23.56 M73.51 115.24 C103.11 82.17, 132.85 47.57, 152.36 25.3 M77.83 117.68 C97.01 93.3, 119.93 68.29, 154.89 29.29 M78.27 117.07 C94.1 98.01, 112.27 77.75, 154.57 27.78 M82.73 116.85 C100.73 99.78, 116.72 80.68, 156.85 32.45 M82.34 118.1 C101.4 96.22, 120.17 72.49, 157.47 32.05 M89.03 118.13 C117.48 85.91, 144.28 53.16, 159.73 34.52 M89.56 117.26 C108.18 94.47, 127.99 73.37, 159.82 35.41 M95.39 118.17 C118.72 92, 137.87 66.7, 163.18 38.76 M95.05 116 C109.61 98.2, 126.46 80.81, 161.93 39.09 M99.73 116.71 C126.19 86.63, 150.11 58.39, 163.22 43.39 M101.11 116.19 C117.78 95.62, 134.45 77.76, 163.22 42.43 M103.89 116.91 C118.16 103.07, 130.01 87.89, 166.22 48.3 M105.38 117.58 C126.07 93.08, 146.47 71.34, 166.7 45.5 M111.54 116.11 C126.43 99.98, 140.03 79.72, 170.29 51.19 M111.35 116.37 C130.61 92.14, 149.89 70.45, 167.84 50.3 M117.56 113.97 C126.38 103.44, 136.84 89.66, 168.56 57.35 M117.23 116.47 C132.36 99.41, 146.94 81, 168.48 56.38 M125.96 110.67 C134.55 101.89, 145.38 91.3, 169.71 62.96 M126.36 111.55 C139.78 95.65, 153.87 79.37, 168.8 63.27 M135.31 104.16 C143.62 95.68, 150.2 87.01, 168.8 70.66 M136.28 105.29 C147.44 92.66, 157.51 79.46, 166.71 69.85" stroke="#fd7e14" stroke-width="0.5" fill="none"></path><path d="M47.5 6.42 C57.78 2.07, 72.82 0.99, 85.29 0.83 C97.76 0.68, 111.06 1.56, 122.31 5.5 C133.56 9.45, 145.29 17.36, 152.79 24.51 C160.28 31.66, 165.17 40, 167.28 48.41 C169.4 56.83, 169.15 66.83, 165.49 75.01 C161.83 83.19, 153.85 91.05, 145.33 97.48 C136.8 103.91, 126.01 110.55, 114.35 113.59 C102.68 116.63, 87.99 116.72, 75.32 115.72 C62.64 114.72, 48.95 112.31, 38.3 107.58 C27.65 102.85, 17.68 94.72, 11.42 87.35 C5.15 79.98, 1.7 71.87, 0.7 63.36 C-0.31 54.84, 0.69 44.49, 5.39 36.24 C10.08 27.99, 21.37 19.17, 28.87 13.87 C36.36 8.58, 46.64 5.76, 50.38 4.45 C54.12 3.14, 50.73 5.02, 51.31 6.04 M92.27 -0.05 C104.41 -0.45, 116.93 3.23, 127.71 7.71 C138.49 12.18, 150.28 19.58, 156.95 26.8 C163.61 34.01, 166.64 42.45, 167.7 50.98 C168.77 59.52, 167.55 69.44, 163.32 78 C159.1 86.55, 151.43 96.05, 142.36 102.31 C133.3 108.57, 121.2 113.07, 108.93 115.53 C96.67 117.99, 81.04 118.83, 68.78 117.07 C56.52 115.3, 45.13 110.2, 35.37 104.94 C25.61 99.68, 15.97 92.96, 10.23 85.51 C4.49 78.07, 1.3 69.26, 0.93 60.28 C0.56 51.29, 2.81 39.52, 8.01 31.62 C13.21 23.73, 22.05 18.02, 32.14 12.93 C42.22 7.84, 58.71 3.25, 68.52 1.09 C78.32 -1.07, 87.29 -0.11, 90.97 -0.05 C94.64 0, 90.65 0.47, 90.57 1.42" stroke="#FFFFFF" stroke-width="1" fill="none"></path></g><g transform="translate(510.75168300642247 51.33366347494854) rotate(0 70.12897858943552 34.10381835513644)"><text x="70.12897858943553" y="24.103818355136447" font-family="Virgil, Segoe UI Emoji" font-size="26.898786308276637px" fill="#FFFFFF" text-anchor="middle" style="white-space: pre;" direction="ltr">Make them</text><text x="70.12897858943553" y="58.207636710272894" font-family="Virgil, Segoe UI Emoji" font-size="26.898786308276637px" fill="#FFFFFF" text-anchor="middle" style="white-space: pre;" direction="ltr">Alive</text></g><g stroke-linecap="round" transform="translate(313.05165311874555 334.5279998779297) rotate(0 97.50003051757807 64.30845642089844)"><path d="M7.39 38.22 C7.39 38.22, 7.39 38.22, 7.39 38.22 M7.39 38.22 C7.39 38.22, 7.39 38.22, 7.39 38.22 M4.6 47.88 C13.13 36.9, 21.85 28.2, 31.69 18.78 M5.49 46.21 C9.87 40.15, 16.27 35.49, 29.11 18.8 M1.28 57.39 C11.29 45.88, 19.23 34.98, 36.95 16.04 M3.53 55.3 C16.17 41.41, 28.1 27.09, 37.07 16.43 M0.57 64.97 C12.33 51.45, 24.72 35.63, 42.68 13.63 M1.03 64.49 C15.6 47.15, 31.91 29.63, 43.17 13.8 M1.71 67.28 C22.12 44.04, 40.31 25.45, 52.36 11.39 M2.19 68.11 C19.92 47.81, 37.1 29.31, 50.79 12.43 M2.36 73.38 C24.45 49.81, 40.84 28.96, 59.51 9.17 M3.51 71.85 C23.02 47.98, 44.41 25.65, 59.05 9.49 M4.31 77.31 C28.03 50.52, 50.01 26, 67.73 8.05 M6.05 77.28 C22.65 58.47, 37.55 41.98, 66.33 6.02 M8.3 81.86 C22.06 64.04, 35.99 47.73, 73.33 4.73 M7.77 80.59 C25.78 60.22, 45.66 37.82, 73.45 5.31 M7.94 85.18 C35.5 56.07, 61.53 22.02, 79.32 2.55 M7.97 85.22 C34.36 54.96, 62.17 23.78, 79.2 4.81 M7.69 91.82 C30.97 62.8, 57.06 34.69, 84.01 3.59 M8.81 91.75 C36.6 59.35, 64 28.03, 83.46 4.26 M12.79 95.28 C33 70, 56.53 42.18, 89.69 5.15 M11.79 94.57 C35.53 65.77, 61.32 37.99, 89.44 3.13 M13.39 96.35 C45.67 62.46, 79.67 26.13, 95.32 4.45 M15.39 97.06 C34.25 74.74, 53.81 50.77, 94.82 3.28 M16.38 98.94 C38.7 76.75, 56.4 56.72, 99.77 4.05 M17.43 99.48 C38.36 76.55, 58.2 54.11, 100.64 3.34 M20.11 100.82 C45.27 72.9, 68.29 47.44, 107.16 3.28 M21.34 102.61 C53.07 63.6, 87.35 26.18, 107.06 4.13 M25.66 103.28 C56.14 65.47, 93.58 25.9, 112.83 1.69 M23.94 103.41 C44.45 77.94, 67.12 53.36, 112.97 3.06 M26.2 106.81 C61.4 68.81, 95.08 26.31, 117.42 2.25 M26.33 107.71 C47.23 84.46, 67.2 60.17, 116.45 3.31 M30.26 108.83 C58.13 79.18, 82.95 52.02, 119.95 1.99 M29.72 109.81 C52.11 86.19, 72.65 61.81, 121.57 3.45 M35.05 111.34 C69.3 71.66, 105.01 29.44, 128.06 4.25 M32.26 113.19 C56.28 87, 78.07 61.75, 126.99 5.62 M37.81 114.61 C59.8 88.01, 81.67 61.51, 129.14 7.58 M36.91 114.14 C70.75 74.59, 107.29 33.59, 130.73 5.41 M41.73 116.15 C74.29 77.96, 103.87 42.95, 135.05 6.4 M38.92 117.65 C63.71 88.85, 87.93 60.88, 135.4 6.58 M45.97 117.85 C74.82 84.62, 104.37 48.05, 139.45 10.79 M44.36 118.61 C71.97 86.32, 97.08 55.84, 139.01 9.62 M46.99 117.72 C83.05 75.92, 117.34 37.06, 143.71 9.03 M48.99 118.44 C83.37 78.54, 117.38 40.87, 143.48 10.5 M51.14 122.01 C88.87 79.21, 124.45 38.56, 145.65 12.68 M53.37 119.24 C75.76 94.4, 98.05 67.93, 146.86 12.52 M54.68 122.49 C73.64 99.14, 94.64 77.06, 151.42 12.93 M56.44 121.96 C92.57 80.06, 128.53 39.83, 149.77 14.72 M61.73 123.03 C82.96 98.02, 106.48 73.19, 154.87 14.54 M59.96 123.03 C94.49 84.58, 126.14 49.25, 154.29 14.8 M65.62 123.87 C100.09 84.53, 137.07 43.19, 158.88 15.85 M65.43 123.58 C83.13 102.7, 103.07 79.39, 157.84 17.05 M70.84 124.28 C99.87 92.57, 129.44 56.09, 161.27 19.13 M68.54 126.02 C105.11 83.74, 141.65 40.89, 162.58 17.7 M73.7 126.98 C97.4 97.77, 123.14 69.52, 165.52 17.55 M73.37 125.48 C98.95 97.71, 124.81 67.35, 166.69 19.86 M78.27 127.12 C110.33 90.45, 143.86 49.4, 171.39 21.4 M78.9 126.73 C115.84 87.2, 149.71 45.92, 170.55 22.7 M83.79 126.17 C108.69 95.92, 137.1 69.05, 172.86 24.74 M83.88 127.07 C107.33 99.32, 129.95 72.28, 173.13 26.04 M89.86 127.39 C117.42 92.02, 148.68 60.81, 174.14 26.57 M88.61 127.73 C108.92 105.15, 127.64 81.37, 175.61 28.56 M93.18 128.26 C113.09 104.67, 135.16 83.72, 177.68 32.33 M93.18 127.3 C112.07 104.54, 131.54 81.77, 177.9 31.21 M98.8 130.14 C128.54 95.61, 154.55 62.74, 182.74 35.53 M99.28 127.35 C116.05 105.36, 135.32 85.26, 180.71 33.8 M105.5 130.02 C135.9 95.43, 166.55 60.37, 184.15 36.71 M103.05 129.12 C123.57 104.75, 144.28 82.33, 182.86 36 M109.01 130.14 C133.06 100.26, 156.87 75.97, 187.5 40.89 M108.93 129.17 C136.53 95.16, 167.03 62.81, 186.03 39.69 M115.41 129.71 C140.32 96.73, 164.82 68.42, 190.51 40.99 M114.5 130.02 C141.77 97.05, 169.24 64.26, 188.64 42.36 M119.75 131.37 C138.91 109.67, 155.24 86.69, 191.71 46.77 M117.66 130.56 C139.3 108.25, 160.31 84.38, 192.01 45.04 M123.93 127.55 C142.66 104.7, 163.26 84.3, 193.04 50.77 M124.08 129.46 C144.87 105.95, 164.25 84.64, 191.59 50.21 M130.88 124.75 C148.25 108.01, 164.73 88.6, 194.46 54.49 M131.85 125.34 C149.41 108.9, 163.81 89.95, 193.03 54.93 M139.75 124.45 C151.52 108.2, 167.33 93.8, 194 61.84 M140.24 124.68 C151.88 110.26, 165.54 94.77, 194.79 60.26 M147.16 122.49 C160.7 102.04, 178.52 85.68, 193.74 66.07 M147.49 121.19 C156.34 109.98, 167.37 99.25, 195.62 67.18 M155.99 118.09 C165.14 108.74, 170.64 98.1, 197.06 73.21 M155.07 117.73 C168.62 102.96, 181.1 87.55, 196.37 71.97 M166.5 110.44 C170.56 104.68, 176.59 97.58, 189.42 83.56 M167.41 108.96 C174.26 101.37, 181.84 93.51, 188.33 84.68" stroke="#12b886" stroke-width="0.5" fill="none"></path><path d="M131.87 5.04 C144.41 6.91, 156.75 12, 166.36 18.43 C175.97 24.85, 184.91 34.93, 189.52 43.58 C194.12 52.24, 195.3 61.51, 194 70.35 C192.7 79.18, 188.63 88.95, 181.71 96.61 C174.79 104.26, 163.59 111.01, 152.47 116.28 C141.36 121.54, 128.35 126.59, 115.02 128.2 C101.7 129.81, 85.91 128.28, 72.53 125.92 C59.15 123.55, 45.32 119.81, 34.73 114.02 C24.14 108.23, 14.7 99.23, 8.99 91.18 C3.28 83.12, 0.67 74.59, 0.45 65.71 C0.23 56.84, 2.12 46.35, 7.66 37.91 C13.2 29.48, 23.15 21.13, 33.68 15.11 C44.22 9.1, 57.96 4.18, 70.87 1.83 C83.79 -0.53, 100.38 0.48, 111.18 1 C121.97 1.51, 131.36 4.08, 135.64 4.9 C139.91 5.73, 137.51 4.86, 136.81 5.95 M90.79 -0.02 C103.52 -1.78, 117.77 -0.31, 130.33 2.72 C142.89 5.75, 156.32 11.35, 166.13 18.16 C175.95 24.97, 184.4 34.78, 189.21 43.58 C194.01 52.38, 196.32 61.98, 194.97 70.94 C193.62 79.9, 187.72 89.8, 181.1 97.36 C174.47 104.92, 165.98 111.17, 155.23 116.29 C144.48 121.42, 130.04 126.16, 116.61 128.11 C103.18 130.06, 88.15 130.5, 74.68 128 C61.2 125.49, 46.67 118.82, 35.78 113.07 C24.88 107.33, 15.19 101.38, 9.29 93.52 C3.39 85.65, 0.66 75.04, 0.39 65.87 C0.13 56.7, 2.43 46.75, 7.7 38.5 C12.96 30.26, 21.77 22.41, 31.98 16.4 C42.2 10.38, 59.47 5.17, 68.99 2.41 C78.5 -0.35, 85.79 0, 89.09 -0.17 C92.4 -0.34, 88.71 0.31, 88.81 1.39" stroke="#FFFFFF" stroke-width="1" fill="none"></path></g><g transform="translate(329.16383573593305 357.9578857421875) rotate(0 82.5 35.5)"><text x="82.5" y="24.5" font-family="Virgil, Segoe UI Emoji" font-size="28px" fill="#FFFFFF" text-anchor="middle" style="white-space: pre;" direction="ltr">Global</text><text x="82.5" y="60" font-family="Virgil, Segoe UI Emoji" font-size="28px" fill="#FFFFFF" text-anchor="middle" style="white-space: pre;" direction="ltr">Coordination</text></g><g stroke-linecap="round" transform="translate(151.59364318847656 16.836410522460938) rotate(0 65.79440307617188 61.612152099609375)"><path d="M8.49 29.9 C8.49 29.9, 8.49 29.9, 8.49 29.9 M8.49 29.9 C8.49 29.9, 8.49 29.9, 8.49 29.9 M4.51 38.71 C15.09 29.95, 22.3 22.04, 31.94 9.37 M6.61 39.37 C14.07 29.07, 20.83 20.44, 32.83 7.7 M4.74 46.02 C12.93 37.44, 19.98 29.39, 37.81 8.31 M2.39 48.26 C14.32 35.58, 26.1 21.38, 40.05 6.23 M1.35 58 C16.71 36.7, 34.77 17.53, 46.28 5.33 M0.64 55.98 C13.17 42.58, 26.35 28.04, 46.74 4.85 M3.76 59.87 C14.32 47.11, 27.88 29.49, 52.01 2.35 M2.83 61.9 C17.39 45.12, 31.7 26.94, 52.49 3.19 M2.63 64.78 C21.31 48.43, 36.1 30.03, 58.56 1.66 M2.75 66.56 C26.47 40.93, 49.99 14.51, 59.71 0.13 M4.32 70.97 C18.96 57.28, 29.93 39.97, 63.79 1.82 M4.53 71.75 C21.81 52.15, 36.65 34.24, 65.54 1.79 M6.97 75.18 C30.63 44.34, 59.27 15.18, 71.07 2.59 M5.26 75.97 C27.86 50.3, 49.88 24.75, 70.53 1.33 M5.75 80.4 C25.17 61.75, 42.17 37.9, 73.99 2.15 M5.75 81.03 C25.24 59.18, 46.45 36.04, 74.01 2.18 M6.92 87.01 C23.02 69.09, 38.14 49.4, 78.33 3.5 M5.14 87.28 C21.97 69.83, 37.48 51, 79.45 3.43 M7.67 88.95 C29.26 66.92, 51.48 42.9, 86.06 3.94 M8.25 90.68 C27.99 68.22, 47.72 45.56, 85.05 3.23 M12.29 92.24 C29.83 71.21, 50.39 44.64, 87.31 4.25 M12.31 93.29 C28.02 73.16, 44.36 55.13, 89.31 4.97 M12.04 95.09 C34.88 69.14, 58.35 45.14, 90.96 6.09 M14.33 96.4 C45.34 60.03, 76.82 24.71, 92.01 6.63 M17.76 100.14 C43.71 65.74, 75.28 33.44, 94.68 7.97 M16.28 100.65 C45.26 67.98, 73.9 34.88, 95.91 9.76 M19.25 104.33 C38.72 82.79, 57.56 60.43, 100.89 9.67 M19.96 102.97 C35.02 82.76, 52.97 64.45, 99.17 9.81 M22.59 106.91 C39.36 89.67, 55.71 71.34, 101.43 13.2 M20.85 106.47 C48.04 73.12, 77.39 42.2, 101.56 14.11 M24.04 107.83 C54.41 72.02, 84.45 34.44, 106.15 14.47 M25.59 107.87 C51.78 76.71, 80.31 44.62, 105.61 15.45 M28.12 111.47 C54.58 80.94, 82.87 46.48, 111.6 16.22 M26.57 113.14 C50.09 84.36, 73.43 57.33, 108.81 18.08 M31.47 114.77 C58.04 82.98, 80.66 55.9, 114.36 19.5 M31.27 112.62 C55.22 87.99, 78.24 60.27, 113.46 19.03 M37 115.46 C51.17 94.79, 70.47 72.31, 118.27 21.04 M35.02 115.28 C67.43 78.35, 100.77 42.38, 115.46 22.54 M40.34 117.25 C65.41 84.12, 93 53, 119.89 25.76 M38.94 116.76 C62.7 89.5, 84.81 63.26, 118.28 26.52 M43.31 118.24 C73.14 87.29, 101.65 53.98, 118.94 27.89 M43.92 117.84 C64.88 94.51, 86.01 70.38, 120.94 28.61 M49.15 120.39 C72.2 93.24, 93.87 63.74, 121.12 34.45 M47.46 118.84 C68.04 95.48, 87.94 73.45, 123.35 31.67 M51.82 120.91 C75.71 90.67, 100.33 66.92, 122.7 37.19 M51.4 121.01 C69.22 100.17, 88.47 78.69, 124.46 36.65 M56.74 121.25 C84.49 88.93, 109.57 59.15, 127.78 39.99 M56.25 122.43 C73.38 101.08, 91.87 79.91, 126.01 39.99 M60.66 123.51 C86.79 93.51, 114.12 59.44, 129.7 43.09 M59.59 124.47 C73.73 105.19, 90.76 87.51, 129.51 42.81 M64.32 122.86 C78.11 108.46, 92.74 94.13, 132.3 46.52 M64.27 123.11 C89.12 95.76, 113.97 66.79, 129.99 48.26 M70.55 123.28 C85.42 103.98, 103.88 84.11, 131.22 53.76 M70.99 122.67 C83.14 107.75, 97.62 91.75, 130.89 52.25 M75.45 122.45 C89.41 110.03, 101.26 95.7, 131.2 59.18 M75.06 123.7 C89.56 107.29, 103.58 89.02, 131.83 58.78 M81.75 123.73 C102.45 100.4, 121.39 76.7, 132.12 63.51 M82.28 122.86 C95.28 106.45, 109.69 91.57, 132.21 64.41 M88.11 123.77 C103.74 106.22, 115.21 89.75, 132.94 70.77 M87.77 121.6 C96.98 109.83, 108.65 98.4, 131.69 71.11 M91.8 123.06 C108.84 103.81, 123.24 86.53, 131.01 77.67 M93.17 122.55 C103.33 109.57, 113.53 99.15, 131.01 76.71" stroke="#be4bdb" stroke-width="0.5" fill="none"></path><path d="M85.16 2.04 C94.92 4.01, 106.15 12.51, 113.39 19.7 C120.63 26.89, 125.86 35.92, 128.61 45.17 C131.36 54.41, 132.24 65.81, 129.89 75.17 C127.54 84.53, 121.26 93.88, 114.51 101.32 C107.76 108.76, 99.01 116.37, 89.41 119.83 C79.8 123.29, 67.36 123.45, 56.89 122.09 C46.41 120.73, 35.04 117.43, 26.56 111.67 C18.08 105.92, 10.34 96.25, 5.99 87.57 C1.65 78.88, 0.1 69.16, 0.5 59.57 C0.9 49.98, 3.12 38.58, 8.4 30 C13.67 21.42, 23 13.2, 32.15 8.09 C41.3 2.97, 53.48 -0.23, 63.3 -0.69 C73.13 -1.15, 85.39 3.76, 91.1 5.32 C96.81 6.88, 97.84 7.9, 97.56 8.65 M75.05 0.02 C84.97 0.5, 97.98 6.31, 106.22 12.03 C114.47 17.75, 120.36 25.61, 124.5 34.34 C128.63 43.07, 131.47 54.26, 131.05 64.4 C130.63 74.55, 127.29 86.58, 121.98 95.21 C116.66 103.83, 108.36 111.29, 99.16 116.17 C89.96 121.05, 77.05 124.43, 66.79 124.48 C56.53 124.53, 46.53 120.92, 37.58 116.49 C28.63 112.06, 19.11 105.54, 13.08 97.88 C7.06 90.23, 2.94 80.5, 1.43 70.54 C-0.09 60.57, 0.51 47.26, 3.98 38.1 C7.45 28.94, 14.23 21.7, 22.26 15.58 C30.28 9.46, 43.33 3.92, 52.15 1.39 C60.97 -1.13, 71.42 0.34, 75.18 0.44 C78.94 0.53, 74.85 0.97, 74.72 1.97" stroke="#FFFFFF" stroke-width="1" fill="none"></path></g><g transform="translate(166.6122589111328 40.86444091796875) rotate(0 49.5 35.5)"><text x="49.5" y="24.5" font-family="Virgil, Segoe UI Emoji" font-size="28px" fill="#FFFFFF" text-anchor="middle" style="white-space: pre;" direction="ltr">Remote</text><text x="49.5" y="60" font-family="Virgil, Segoe UI Emoji" font-size="28px" fill="#FFFFFF" text-anchor="middle" style="white-space: pre;" direction="ltr">Sharing</text></g><g stroke-linecap="round" transform="translate(665.7153515255766 331.8224639892578) rotate(0 91.25063077160814 64.61216735839844)"><path d="M15.14 29.06 C15.14 29.06, 15.14 29.06, 15.14 29.06 M15.14 29.06 C15.14 29.06, 15.14 29.06, 15.14 29.06 M7.12 45.22 C16.22 36.4, 20.48 26.21, 26.93 20.27 M7.3 45.2 C11.25 39.5, 16.68 33.21, 28.68 18.79 M2.33 54.23 C18.33 37.21, 34.92 19.96, 41.4 11.36 M2.34 56.3 C13.53 42.85, 23.65 30.76, 42.07 10.1 M2.54 60.84 C15.74 44.28, 32.53 28.69, 46.33 13.45 M3.28 62.63 C15.88 44.82, 31.6 28.61, 45.19 12.11 M2.06 68.77 C17.75 51.49, 31.86 34.32, 50.76 9.13 M3.29 67.18 C19.57 48.7, 38.07 28.12, 52.53 10 M3.3 72.14 C22.24 51.44, 42.55 30.83, 59.97 7.76 M3.64 73.14 C16.95 58.84, 31.02 42.5, 58.69 8.22 M2.79 79.26 C25.51 56.82, 44.29 29.78, 66.48 8.29 M4.36 79.58 C25.17 52.47, 47.5 27.79, 64.9 8.22 M4.49 84.24 C27.59 56.87, 51.92 28.54, 72.03 6.41 M5.05 84.09 C23.54 62.36, 44.17 39.63, 71.51 5.61 M5.08 86.51 C27.36 61.64, 49.99 39.67, 83.55 -0.22 M6.69 88.19 C26.46 65.48, 46.37 42.52, 81.54 0.36 M10.03 88.43 C35.41 60.66, 62.61 30.85, 87.37 0.28 M9.27 90.01 C35.95 59.41, 63.89 28.95, 87.36 1.01 M12.19 93.31 C41.68 59.95, 72.08 25.79, 92.79 0.57 M12.85 94.19 C41.2 58.74, 72.32 24.84, 91.86 0.16 M15.06 98.78 C38.9 69.34, 62.32 40.4, 99.04 2.08 M14.45 96.26 C42.94 62.08, 72.56 28.57, 97.87 0.5 M18.15 100.72 C40.1 71.62, 64.56 43.75, 102.48 0.5 M17.86 100.56 C44.97 66.14, 73.21 34.64, 102.93 1.22 M20.31 103.27 C42.04 77.91, 65.08 52.62, 108.61 2.63 M20.54 103.17 C54.79 64.98, 88.69 26.41, 107.83 2.85 M23.64 107.2 C45.71 79.23, 66.47 56.5, 113.35 2.16 M22.08 106.29 C42.12 85.95, 60.71 65.19, 113.44 1.97 M25.56 107.63 C51.73 76.18, 76.51 48.23, 118.4 1.26 M25.75 108.88 C57.7 68.78, 92.19 28.92, 116.55 2.85 M27.37 113.71 C49.91 82.38, 74.88 56.27, 119.84 3.11 M27.63 112.36 C56.8 76.84, 87.7 42.36, 122.05 4.85 M31.61 112.8 C57.37 85.27, 78.11 57.13, 124.81 4.03 M31.49 113.75 C69.05 71.98, 104.58 28.17, 126.1 6.59 M34.05 115.42 C60.87 86.03, 90.77 54.76, 128.77 9.16 M35.32 116.54 C57.34 89.8, 78.67 65.98, 128.96 8.58 M38.95 116.68 C63.91 87.79, 88.03 61.71, 133.55 7.7 M40.11 117.16 C75.78 73.82, 111.71 31.94, 133.54 10.41 M43.13 117.72 C72.08 87.36, 98.75 52.99, 137.28 11.79 M42.42 118.35 C77.83 79.35, 113.01 39.47, 136.89 10.62 M45.16 120.91 C70.08 94.59, 92.54 69.33, 141.71 14.25 M47.2 121.3 C70.19 94.91, 93.26 67.53, 140.04 12.4 M50.1 122.49 C86.89 80.44, 123.47 37.06, 145.54 16.22 M50.94 122.34 C70.47 99.04, 89.09 76.51, 144.84 14.2 M55.46 123.58 C86.41 88.21, 117.3 55.77, 147.74 16.88 M55.22 124.83 C80.71 93.32, 108.36 60.23, 147.83 17.43 M59.13 127.04 C86.83 92.63, 114.9 60.6, 152.8 17.14 M59.22 126.07 C84.56 94.36, 112.94 62.83, 151.05 19.08 M63.42 126.74 C90.88 94.14, 114.33 66.88, 154.13 21.28 M63.19 125.44 C85.83 100.16, 108.08 75.64, 155.89 21.39 M69.72 125.93 C88.35 101.03, 114.01 75.54, 159.31 20.7 M67.71 126.85 C101.71 87.03, 134.96 49.49, 157.96 22.52 M71.7 128.44 C101.56 91.69, 131.75 59.55, 161.42 23.57 M72.41 126.84 C91.74 106.29, 110.81 84.97, 162.91 24.19 M78.11 125.66 C107.22 94.7, 134.99 62.4, 163.04 28.04 M77.26 127.52 C103.1 98.6, 127.88 69.09, 163.96 27.83 M83.98 129.93 C104.42 104.38, 124.53 81.93, 167.52 31.39 M81.38 129 C107.43 101.05, 131.65 70.99, 167.7 31.75 M87.93 129.99 C111.1 100.2, 135.27 75.46, 168.97 33.5 M86.82 128.71 C113.27 98.72, 138.98 67.65, 169.64 33.54 M93.58 131.17 C118.11 101.11, 142.32 71.16, 174.3 36.05 M91.51 128.66 C112.66 107.09, 132.34 84.24, 172.74 37.24 M95.44 130.11 C129.61 95.88, 156.74 60.91, 176.44 41.65 M97.69 130.02 C113.93 111.4, 131.1 91.77, 174.17 41.47 M105.56 128.85 C131.26 96.37, 156.91 63.56, 179.06 42.6 M104.09 128.3 C129.77 97.72, 156.44 67.93, 176.59 44.11 M110.26 128.17 C136.75 99.69, 161.58 70.5, 178.5 47.77 M111.2 126.56 C133.38 101.55, 156.16 77.24, 179.6 48.2 M115.36 126.13 C138.1 101.29, 158.27 78.1, 181.14 54.57 M116.01 124.97 C139.99 98.3, 163.4 70.88, 179.61 53.85 M122.14 123.6 C143.01 101.86, 161.76 77.86, 177.96 58.63 M124.54 124.27 C141.57 102.1, 158.32 83.39, 179.97 58.86 M130.76 122.14 C143.38 108.4, 155.07 92.99, 180.57 63.21 M130.72 122.69 C148.54 99.46, 168.78 76.91, 179.5 64.17 M135.46 121.25 C148.27 107.57, 157.24 95.37, 180.53 69.18 M136.22 121.07 C146.24 107.58, 157.17 96.24, 179.39 70.77 M147.86 115.7 C158 103.45, 168.46 89.47, 179.98 76.93 M147.19 115.24 C160.4 99.59, 173.16 85.7, 182.31 75.56 M159.15 108.39 C162.44 102.09, 167.27 96.73, 173.13 91.65 M159.03 108.81 C163.18 104.35, 166.18 98.79, 173.45 91.62" stroke="#7950f2" stroke-width="0.5" fill="none"></path><path d="M128.04 6.18 C139.99 8.98, 151.12 15.5, 159.63 22.35 C168.14 29.2, 175.66 38.52, 179.09 47.29 C182.53 56.05, 182.38 65.75, 180.22 74.95 C178.05 84.15, 173.52 94.92, 166.11 102.48 C158.7 110.04, 147.29 115.86, 135.75 120.31 C124.22 124.75, 109.95 128.58, 96.89 129.16 C83.82 129.74, 69.31 127.1, 57.37 123.8 C45.42 120.5, 34.18 115.96, 25.22 109.36 C16.27 102.76, 7.64 93.2, 3.63 84.2 C-0.39 75.2, -0.82 64.62, 1.14 55.38 C3.11 46.14, 8.52 36.33, 15.42 28.75 C22.31 21.18, 31.44 14.67, 42.53 9.94 C53.62 5.22, 68.86 1.61, 81.97 0.4 C95.08 -0.82, 112.36 1.34, 121.18 2.67 C129.99 4, 131.76 6.96, 134.85 8.38 C137.94 9.79, 140.58 10.21, 139.73 11.17 M83.91 -0.57 C96.33 -1.77, 111.84 1.99, 124.13 5.65 C136.42 9.3, 148.89 14.68, 157.66 21.36 C166.43 28.04, 172.56 37.22, 176.75 45.72 C180.94 54.22, 184.07 63.31, 182.8 72.36 C181.53 81.41, 176.14 91.94, 169.11 100 C162.08 108.05, 151.89 116.1, 140.61 120.69 C129.33 125.27, 114.63 126.54, 101.41 127.52 C88.18 128.51, 73.45 129.34, 61.24 126.59 C49.02 123.84, 37.43 117.6, 28.13 111.01 C18.83 104.42, 10.2 95.67, 5.46 87.04 C0.73 78.41, -1.41 68.45, -0.28 59.23 C0.85 50.01, 5.69 39.77, 12.24 31.72 C18.8 23.67, 28.45 16.09, 39.06 10.92 C49.66 5.75, 68.46 2.54, 75.87 0.7 C83.28 -1.15, 82.25 -0.23, 83.52 -0.15 C84.79 -0.07, 83.48 0.04, 83.49 1.19" stroke="#FFFFFF" stroke-width="1" fill="none"></path></g><g transform="translate(685.0572177780932 360.46434083516976) rotate(0 73.06948223644179 36.02731415824559)"><text x="73.0694822364418" y="25.027314158245602" font-family="Virgil, Segoe UI Emoji" font-size="28.415909758616248px" fill="#FFFFFF" text-anchor="middle" style="white-space: pre;" direction="ltr">Metaverse</text><text x="73.0694822364418" y="61.054628316491204" font-family="Virgil, Segoe UI Emoji" font-size="28.415909758616248px" fill="#FFFFFF" text-anchor="middle" style="white-space: pre;" direction="ltr">Embedding</text></g><g stroke-linecap="round"><g transform="translate(130.0680327154696 359.305975522846) rotate(0 53.05234184805306 -108.01945355860516)"><path d="M-1.02 0.81 C17 -35.11, 89.32 -179.19, 107.12 -215.27 M0.65 0.2 C18.66 -36.07, 89.24 -180.53, 106.59 -216.85" stroke="#FFFFFF" stroke-width="1" fill="none"></path></g></g><g stroke-linecap="round"><g transform="translate(63.42524719238281 333.21966552734375) rotate(0 55.98142347227784 -105.51102034561336)"><path d="M0.54 1.16 C19.2 -34.38, 93.66 -176.76, 112.6 -212.18 M-0.64 0.73 C17.77 -34.13, 92.31 -175.17, 111.42 -210.88" stroke="#FFFFFF" stroke-width="1" fill="none"></path></g></g><g stroke-linecap="round"><g transform="translate(479.1858999580518 350.12995311852546) rotate(0 52.37164286094719 -104.0555030420702)"><path d="M-0.01 -0.57 C17.71 -35.47, 88.38 -175.04, 106.22 -209.85 M-1.47 1.74 C16.08 -32.92, 87.15 -172.76, 105.16 -208.32" stroke="#FFFFFF" stroke-width="1" fill="none"></path></g></g><g stroke-linecap="round"><g transform="translate(422.99843822941193 331.88742196336386) rotate(0 48.41582103129474 -102.79989256773143)"><path d="M-0.57 -0.21 C15.74 -34.14, 81.01 -169.72, 97.4 -203.58 M1.33 -1.36 C17.52 -35.64, 80.47 -171.41, 96.45 -205.39" stroke="#FFFFFF" stroke-width="1" fill="none"></path></g></g><g stroke-linecap="round"><g transform="translate(786.3039093017578 332.004638671875) rotate(0 57.08720442444087 -105.75332567207516)"><path d="M0.59 0.06 C19.4 -35.24, 93.77 -176.4, 112.37 -211.57 M-0.56 -0.95 C18.68 -36.05, 95.53 -174.62, 114.73 -209.95" stroke="#FFFFFF" stroke-width="1" fill="none"></path></g></g><g stroke-linecap="round"><g transform="translate(836.9316901993752 370.785010503605) rotate(0 65.53072190992543 -117.14786604754627)"><path d="M0.14 -0.32 C22.27 -39.35, 110.33 -194.88, 132.3 -233.97 M-1.24 -1.54 C20.79 -40.37, 109.46 -193.66, 131.53 -232.39" stroke="#FFFFFF" stroke-width="1" fill="none"></path></g></g><g stroke-linecap="round"><g transform="translate(249.4858856201172 139.55135345458984) rotate(0 46.52005292137153 105.37609552256762)"><path d="M0.62 -0.72 C16.3 34.68, 78.22 176.12, 93.55 211.47 M-0.51 1.52 C15.12 36.62, 77.66 174.3, 93.04 209.51" stroke="#FFFFFF" stroke-width="1" fill="none"></path></g></g><g stroke-linecap="round"><g transform="translate(283.460750253126 94.9189168164134) rotate(0 54.15579015724359 118.04176472634079)"><path d="M-0.72 0.83 C17.61 39.79, 90.75 195.32, 109.03 234.37 M1.11 0.23 C19.38 39.33, 90.39 197.04, 108.25 235.86" stroke="#FFFFFF" stroke-width="1" fill="none"></path></g></g><g stroke-linecap="round"><g transform="translate(610.7570037841797 136.5700912475586) rotate(0 46.22214094107039 105.40593617211098)"><path d="M0.83 0.32 C16.17 35.67, 77.21 176.16, 92.63 211.37 M-0.19 -0.56 C14.93 34.47, 76.11 174.36, 91.64 209.36" stroke="#FFFFFF" stroke-width="1" fill="none"></path></g></g><g stroke-linecap="round"><g transform="translate(664.5981292724609 106.05599212646487) rotate(0 47.10685270804902 111.96828514378518)"><path d="M0.32 -0.09 C16.3 37.29, 79.34 187.6, 95.19 225.12 M-0.97 -1.18 C14.94 35.78, 78.39 185.98, 94.35 223.34" stroke="#FFFFFF" stroke-width="1" fill="none"></path></g></g><g stroke-linecap="round"><g transform="translate(100.37872026160358 332.60445169266313) rotate(0 51.25152901034804 -96.38192710332572)"><path d="M-0.23 -1.15 C17.07 -33.5, 86.65 -161.66, 104.31 -193.63 M-1.81 0.87 C15.26 -31.43, 85.33 -160.53, 103.23 -192.66" stroke="#5c940d" stroke-width="4" fill="none"></path></g><g transform="translate(100.37872026160358 332.60445169266313) rotate(0 51.25152901034804 -96.38192710332572)"><path d="M96.76 -163.43 C98.31 -171.28, 100.95 -184.1, 104.94 -191.8 M99.63 -162.34 C98.85 -168.49, 100.43 -176.55, 103.56 -193.19" stroke="#5c940d" stroke-width="4" fill="none"></path></g><g transform="translate(100.37872026160358 332.60445169266313) rotate(0 51.25152901034804 -96.38192710332572)"><path d="M78.77 -173.3 C86.57 -177.71, 95.43 -187.13, 104.94 -191.8 M81.64 -172.21 C84.68 -176.07, 90.15 -182.01, 103.56 -193.19" stroke="#5c940d" stroke-width="4" fill="none"></path></g></g><g stroke-linecap="round"><g transform="translate(450.07970903113494 332.4175315266475) rotate(0 52.742084323540325 -96.01408367820085)"><path d="M-0.25 -1.09 C17.41 -33.06, 88.33 -161.25, 105.73 -192.99 M1.82 0.96 C19.44 -30.75, 88.5 -159.3, 105.4 -191.68" stroke="#5c940d" stroke-width="4" fill="none"></path></g><g transform="translate(450.07970903113494 332.4175315266475) rotate(0 52.742084323540325 -96.01408367820085)"><path d="M99.43 -160.02 C101.96 -170.94, 105.58 -177.79, 103.72 -192.85 M100.27 -161.09 C101.47 -169.16, 103.07 -175.28, 106.13 -190.87" stroke="#5c940d" stroke-width="4" fill="none"></path></g><g transform="translate(450.07970903113494 332.4175315266475) rotate(0 52.742084323540325 -96.01408367820085)"><path d="M81.31 -169.64 C88.84 -177.82, 97.54 -181.97, 103.72 -192.85 M82.14 -170.71 C87.33 -176.84, 92.82 -180.89, 106.13 -190.87" stroke="#5c940d" stroke-width="4" fill="none"></path></g></g><g stroke-linecap="round"><g transform="translate(819.1264619608223 340.79137185867876) rotate(0 53.26438984401523 -98.54126942448318)"><path d="M1.17 -0.44 C18.92 -32.77, 88.54 -162.28, 106.2 -195.06 M0.33 -1.72 C17.9 -34.27, 87.34 -164.21, 105.05 -196.64" stroke="#5c940d" stroke-width="4" fill="none"></path></g><g transform="translate(819.1264619608223 340.79137185867876) rotate(0 53.26438984401523 -98.54126942448318)"><path d="M99.96 -167.59 C103.89 -174.42, 101.71 -184.75, 103.34 -194.71 M100.32 -167.74 C102.92 -178.43, 104.92 -188, 104.96 -196.84" stroke="#5c940d" stroke-width="4" fill="none"></path></g><g transform="translate(819.1264619608223 340.79137185867876) rotate(0 53.26438984401523 -98.54126942448318)"><path d="M81.9 -177.33 C90.79 -181.62, 93.65 -189.22, 103.34 -194.71 M82.26 -177.48 C91.4 -184.75, 100.04 -190.75, 104.96 -196.84" stroke="#5c940d" stroke-width="4" fill="none"></path></g></g><g stroke-linecap="round"><g transform="translate(637.4599189086819 129.5802795301378) rotate(0 43.562563803047 98.97198242042214)"><path d="M0.4 0.23 C14.74 33.33, 71.42 164.45, 85.68 197.42 M-0.85 -0.7 C13.9 32.66, 73.69 165.29, 87.97 198.64" stroke="#5c940d" stroke-width="4" fill="none"></path></g><g transform="translate(637.4599189086819 129.5802795301378) rotate(0 43.562563803047 98.97198242042214)"><path d="M67.59 175.67 C71.65 181.92, 78.41 189.89, 87.95 200.46 M67.88 177.17 C75.18 185.19, 83.49 194.41, 88.95 197.92" stroke="#5c940d" stroke-width="4" fill="none"></path></g><g transform="translate(637.4599189086819 129.5802795301378) rotate(0 43.562563803047 98.97198242042214)"><path d="M86.36 167.39 C85.23 175.96, 86.87 186.18, 87.95 200.46 M86.66 168.89 C86.56 180.14, 87.41 192.65, 88.95 197.92" stroke="#5c940d" stroke-width="4" fill="none"></path></g></g><g stroke-linecap="round"><g transform="translate(272.9443127390741 131.25783139573412) rotate(0 43.464149603731926 99.61402373760939)"><path d="M-0.79 -0.6 C13.76 32.41, 72.76 165.13, 87.72 198.26 M0.99 1.7 C15.31 34.9, 71.89 166.86, 86.49 199.83" stroke="#5c940d" stroke-width="4" fill="none"></path></g><g transform="translate(272.9443127390741 131.25783139573412) rotate(0 43.464149603731926 99.61402373760939)"><path d="M64.84 177.17 C72.86 186.63, 79.62 194.53, 88.44 201.54 M65.37 177.59 C71.09 183.97, 77.99 188.94, 86.37 199.41" stroke="#5c940d" stroke-width="4" fill="none"></path></g><g transform="translate(272.9443127390741 131.25783139573412) rotate(0 43.464149603731926 99.61402373760939)"><path d="M83.66 168.98 C85.43 181.05, 85.91 191.68, 88.44 201.54 M84.19 169.41 C84.93 178.01, 86.81 185.16, 86.37 199.41" stroke="#5c940d" stroke-width="4" fill="none"></path></g></g><g stroke-linecap="round" transform="translate(10 328.77574157714844) rotate(0 69.08879089355469 68.78973388671875)"><path d="M45.5 3.48 C54.79 -0.79, 68.21 -0.52, 78.74 1.09 C89.28 2.71, 100.07 7.12, 108.72 13.17 C117.36 19.22, 125.61 28.35, 130.6 37.39 C135.59 46.44, 138.46 57.15, 138.67 67.45 C138.88 77.75, 136.7 89.73, 131.84 99.2 C126.98 108.66, 118.2 118.02, 109.49 124.23 C100.79 130.44, 89.99 134.94, 79.61 136.46 C69.23 137.98, 57.25 136.51, 47.2 133.36 C37.16 130.21, 26.7 125, 19.34 117.58 C11.98 110.16, 6.19 99.08, 3.02 88.86 C-0.15 78.64, -1.35 66.61, 0.31 56.26 C1.97 45.91, 6.55 35.01, 12.97 26.78 C19.4 18.55, 32.21 11.21, 38.85 6.88 C45.48 2.55, 49.09 1.74, 52.79 0.82 C56.49 -0.1, 60.71 0.18, 61.07 1.36 M62.03 -0.85 C72.04 -3.05, 83.52 -0.84, 93.06 2.98 C102.6 6.81, 112.07 14.03, 119.26 22.12 C126.45 30.2, 133.35 41.44, 136.2 51.48 C139.05 61.52, 138.5 72.28, 136.38 82.37 C134.26 92.46, 129.97 103.93, 123.5 112.01 C117.04 120.1, 107.37 126.5, 97.6 130.88 C87.82 135.26, 75.55 138.59, 64.86 138.28 C54.16 137.97, 42.5 134.58, 33.43 129.02 C24.35 123.46, 15.92 113.92, 10.41 104.91 C4.91 95.9, 1.15 85.53, 0.38 74.97 C-0.39 64.4, 1.94 51.11, 5.8 41.53 C9.67 31.94, 15.74 23.91, 23.58 17.46 C31.42 11.01, 46.38 5.61, 52.85 2.82 C59.31 0.03, 61.16 0.78, 62.36 0.71 C63.57 0.65, 60.17 1.52, 60.09 2.41" stroke="#FFFFFF" stroke-width="1" fill="none"></path></g><g stroke-linecap="round" transform="translate(861.1399230957031 10) rotate(0 115.14488220214844 69.38321113586426)"><path d="M59.76 8.62 C71.49 3.67, 89.59 1.08, 104.79 0.26 C119.99 -0.57, 136.56 0.82, 150.97 3.69 C165.37 6.55, 180.03 11.39, 191.21 17.45 C202.39 23.5, 211.63 31.98, 218.06 40 C224.49 48.02, 228.94 56.71, 229.77 65.57 C230.6 74.43, 228.28 84.64, 223.05 93.17 C217.82 101.7, 208.92 110.21, 198.41 116.76 C187.9 123.3, 173.73 128.81, 159.99 132.45 C146.25 136.09, 131.03 138.56, 115.98 138.59 C100.92 138.61, 83.77 136.26, 69.65 132.61 C55.52 128.96, 41.71 123.11, 31.22 116.67 C20.73 110.24, 11.92 102.46, 6.73 94 C1.53 85.53, -0.56 74.95, 0.03 65.89 C0.62 56.83, 3.83 47.74, 10.26 39.64 C16.69 31.53, 29.61 22.73, 38.6 17.25 C47.59 11.77, 59.05 8.61, 64.19 6.76 C69.33 4.91, 68.38 5.23, 69.42 6.16 M106.5 0.6 C121.01 -0.97, 139.13 0.47, 153.33 3.51 C167.52 6.55, 180.64 12.55, 191.67 18.84 C202.7 25.13, 213.22 33.12, 219.5 41.25 C225.77 49.37, 228.71 58.7, 229.3 67.59 C229.89 76.49, 228.24 86.18, 223.03 94.6 C217.82 103.02, 208.86 111.57, 198.03 118.11 C187.21 124.64, 172.18 130.25, 158.07 133.8 C143.96 137.35, 128.58 139.68, 113.36 139.39 C98.15 139.1, 80.45 135.94, 66.79 132.06 C53.14 128.18, 41.3 122.47, 31.43 116.1 C21.56 109.74, 12.74 102.58, 7.58 93.88 C2.42 85.17, -0.41 73.15, 0.48 63.87 C1.37 54.58, 6.37 46.1, 12.92 38.16 C19.48 30.22, 28.18 22.21, 39.78 16.25 C51.38 10.28, 71.51 5.04, 82.52 2.39 C93.54 -0.25, 101.74 0.61, 105.88 0.37 C110.02 0.14, 106.9 -0.1, 107.35 0.99" stroke="#FFFFFF" stroke-width="1" fill="none"></path></g></svg>
