<?xml version="1.0" encoding="UTF-8"?>
<!DOCTYPE svg PUBLIC "-//W3C//DTD SVG 1.1//EN" "http://www.w3.org/Graphics/SVG/1.1/DTD/svg11.dtd">
<svg version="1.1" xmlns="http://www.w3.org/2000/svg" xmlns:xlink="http://www.w3.org/1999/xlink" x="0" y="0" width="2208" height="1030" viewBox="0, 0, 2208, 1030">
  <g id="Layer_2">
    <g>
      <path d="M353.565,843.914 C197.395,843.914 70.794,687.306 70.794,494.121 C70.794,300.936 197.395,144.328 353.565,144.328 C509.734,144.328 636.335,300.936 636.335,494.121 C636.335,687.306 509.734,843.914 353.565,843.914 z" fill="#FF0000"/>
      <path d="M1044.852,21.773 C1051.641,22.182 1063.531,27.43 1069.108,31.986 C1074.685,36.542 1077.256,45.336 1083.15,54.965 C1089.045,64.595 1097.089,82.095 1099.746,90.711 C1102.403,99.327 1097.757,106.539 1099.746,118.796 C1120.437,161.109 1147.185,204.986 1139.321,191.563 C1131.457,178.141 1151.323,217.56 1155.917,232.415 C1160.512,247.27 1169.627,285.926 1167.407,269.437 C1165.187,252.947 1177.481,353.314 1176.343,342.204 C1175.206,331.093 1191.54,400.222 1190.386,394.545 C1189.232,388.868 1193.716,414.12 1199.322,417.524 C1204.928,420.928 1219.734,404.499 1224.854,406.034 C1229.975,407.57 1240.174,432.843 1240.174,432.843 C1240.174,432.843 1239.708,472.006 1236.344,477.525 C1232.981,483.044 1067.344,548.723 1064.001,554.122 C1060.658,559.521 1074.175,622.477 1076.767,623.059 C1079.36,623.641 1051.615,625.031 1049.958,624.336 C1048.302,623.641 1032.255,577.768 1028.256,575.824 C1024.257,573.881 970.146,597.343 966.978,598.803 C963.81,600.263 959.9,639.253 947.829,669.017 C935.758,698.781 905.937,749.281 903.148,760.934 C900.358,772.586 900.594,796.679 900.594,796.679 L861.019,797.955 C861.019,797.955 866.151,751.908 871.232,729.018 C876.313,706.128 877.086,697.48 886.552,667.741 C896.017,638.001 897.081,632.356 894.211,628.166 C891.342,623.974 792.082,680.507 792.082,680.507 L678.463,746.891 L541.865,818.381 L488.248,851.573 L456.332,836.254 L429.523,851.573 L407.821,900.085 C407.821,900.085 334.289,930.489 347.82,924.34 C361.35,918.192 299.404,952.715 295.479,951.149 C291.553,949.584 265.156,928.27 268.67,923.064 C272.183,917.858 906.346,558.171 909.531,556.675 C912.715,555.179 896.671,530.095 887.828,520.93 C878.985,511.765 847.028,501.621 846.976,496.674 C846.925,491.727 865.246,459.647 873.785,437.95 C882.325,416.253 885.845,309.658 892.935,265.607 C900.024,221.555 913.36,166.031 913.36,166.031 L941.446,114.966 C941.446,114.966 953.588,91.014 961.872,88.157 C996.872,81.293 993.116,75.543 1000.17,67.731 C1011.66,44.752 1013.908,33.699 1024.426,25.603 C1034.943,17.507 1038.062,21.364 1044.852,21.773 z M1069.108,251.564 C1069.108,251.564 1067.4,261.972 1060.171,282.203 C1052.943,302.434 1045.941,317.494 1037.192,330.714 C1028.443,343.934 1006.553,365.183 1006.553,365.183 C1006.553,365.183 1029.101,368.091 1041.022,369.013 C1052.943,369.934 1061.145,364.751 1078.044,372.843 C1094.943,380.934 1105.476,396.188 1109.959,407.311 C1114.443,418.434 1112.512,464.759 1112.512,464.759 C1112.512,464.759 1148.679,448.232 1150.811,444.333 C1152.943,440.434 1151.625,420.082 1149.534,404.758 C1147.443,389.434 1145.2,382.378 1139.321,363.906 C1133.443,345.434 1122.188,333.515 1115.066,319.225 C1107.943,304.934 1103.337,287.652 1094.64,274.543 C1085.943,261.434 1069.108,251.564 1069.108,251.564 z" fill="#FF0000"/>
      <path d="M384.065,970.565 C387.443,965.434 392.667,931.718 397.805,912.826 C442.943,831.434 433.305,832.326 451.943,831.934 C487.943,850.934 506.167,860.718 520.305,873.326 C571.443,933.434 577.172,946.344 575.557,950.139 C499.943,952.934 466.115,962.929 454.279,964.182 C442.443,965.434 380.687,975.696 384.065,970.565 z" fill="#FF0000"/>
      <path d="M525.943,892.934 L653.431,852.073 C653.431,852.073 787.134,814.858 814.284,809.945 C841.435,803.556 861.519,798.455 861.519,798.455 C861.519,798.455 916.727,800.603 992.757,805.032 C1068.788,809.461 1074.72,817.603 1121.949,834.201 C1169.178,850.798 1240.674,895.478 1240.674,895.478" fill-opacity="0" stroke="#FF0000" stroke-width="33"/>
    </g>
    <g>
      <path d="M1539.51,379.816 Q1532.37,388.996 1522.85,396.986 Q1513.33,404.976 1501.43,410.926 Q1489.53,416.876 1475.08,420.276 Q1460.63,423.676 1443.63,423.676 Q1419.49,423.676 1399.6,416.196 Q1379.71,408.716 1365.6,395.116 Q1351.49,381.516 1343.67,362.476 Q1335.85,343.436 1335.85,320.316 Q1335.85,289.036 1346.9,261.836 Q1357.95,234.636 1377.33,214.406 Q1396.71,194.176 1422.72,182.446 Q1448.73,170.716 1478.65,170.716 Q1491.91,170.716 1504.32,173.436 Q1516.73,176.156 1527.27,181.086 Q1537.81,186.016 1546.31,192.816 Q1554.81,199.616 1559.91,208.116 L1532.37,228.176 Q1529.65,223.076 1524.89,217.976 Q1520.13,212.876 1513.16,208.626 Q1506.19,204.376 1497.35,201.826 Q1488.51,199.276 1477.63,199.276 Q1454.17,199.276 1434.45,209.306 Q1414.73,219.336 1400.45,235.656 Q1386.17,251.976 1378.35,273.056 Q1370.53,294.136 1370.53,316.236 Q1370.53,332.556 1375.46,346.836 Q1380.39,361.116 1390.08,371.826 Q1399.77,382.536 1414.05,388.656 Q1428.33,394.776 1446.69,394.776 Q1466.75,394.776 1484.77,386.616 Q1502.79,378.456 1517.07,361.116 z" fill="#FFFFFF"/>
      <path d="M1539.51,379.816 Q1532.37,388.996 1522.85,396.986 Q1513.33,404.976 1501.43,410.926 Q1489.53,416.876 1475.08,420.276 Q1460.63,423.676 1443.63,423.676 Q1419.49,423.676 1399.6,416.196 Q1379.71,408.716 1365.6,395.116 Q1351.49,381.516 1343.67,362.476 Q1335.85,343.436 1335.85,320.316 Q1335.85,289.036 1346.9,261.836 Q1357.95,234.636 1377.33,214.406 Q1396.71,194.176 1422.72,182.446 Q1448.73,170.716 1478.65,170.716 Q1491.91,170.716 1504.32,173.436 Q1516.73,176.156 1527.27,181.086 Q1537.81,186.016 1546.31,192.816 Q1554.81,199.616 1559.91,208.116 L1532.37,228.176 Q1529.65,223.076 1524.89,217.976 Q1520.13,212.876 1513.16,208.626 Q1506.19,204.376 1497.35,201.826 Q1488.51,199.276 1477.63,199.276 Q1454.17,199.276 1434.45,209.306 Q1414.73,219.336 1400.45,235.656 Q1386.17,251.976 1378.35,273.056 Q1370.53,294.136 1370.53,316.236 Q1370.53,332.556 1375.46,346.836 Q1380.39,361.116 1390.08,371.826 Q1399.77,382.536 1414.05,388.656 Q1428.33,394.776 1446.69,394.776 Q1466.75,394.776 1484.77,386.616 Q1502.79,378.456 1517.07,361.116 z" fill-opacity="0" stroke="#000000" stroke-width="1"/>
    </g>
    <path d="M1675.01,316.416 Q1675.69,311.656 1676.03,308.936 Q1676.37,306.216 1676.37,303.836 Q1676.37,289.556 1667.53,283.266 Q1658.69,276.976 1642.37,276.976 Q1629.45,276.976 1616.53,282.076 Q1603.61,287.176 1594.09,294.656 L1581.17,273.576 Q1594.09,263.376 1611.43,257.426 Q1628.77,251.476 1646.79,251.476 Q1658.35,251.476 1669.06,254.026 Q1679.77,256.576 1688.1,262.186 Q1696.43,267.796 1701.53,276.976 Q1706.63,286.156 1706.63,299.076 Q1706.63,302.136 1706.29,307.066 Q1705.95,311.996 1705.27,315.396 L1693.37,380.676 Q1691.67,390.196 1690.65,400.226 Q1689.63,410.256 1689.63,417.056 L1660.73,417.056 Q1660.73,411.956 1661.24,406.176 Q1661.75,400.396 1662.77,394.616 L1662.09,394.616 Q1650.53,408.216 1636.93,414.336 Q1623.33,420.456 1604.97,420.456 Q1596.81,420.456 1587.97,418.416 Q1579.13,416.376 1571.82,411.446 Q1564.51,406.516 1559.75,398.356 Q1554.99,390.196 1554.99,377.956 Q1554.99,358.236 1565.87,346.166 Q1576.75,334.096 1593.92,327.466 Q1611.09,320.836 1632.51,318.626 Q1653.93,316.416 1675.01,316.416 z M1666.51,339.536 Q1653.25,339.536 1638.97,340.726 Q1624.69,341.916 1612.96,345.486 Q1601.23,349.056 1593.75,355.856 Q1586.27,362.656 1586.27,373.536 Q1586.27,380.336 1588.82,384.586 Q1591.37,388.836 1595.62,391.556 Q1599.87,394.276 1605.14,395.296 Q1610.41,396.316 1615.85,396.316 Q1626.39,396.316 1635.57,392.746 Q1644.75,389.176 1651.55,383.056 Q1658.35,376.936 1662.94,368.776 Q1667.53,360.616 1669.23,351.436 L1671.61,339.536 z" fill="#FFFFFF"/>
    <path d="M1840.25,281.396 L1802.51,281.396 L1778.71,417.056 L1747.77,417.056 L1771.57,281.396 L1739.27,281.396 L1744.03,255.896 L1775.65,255.896 L1781.77,221.896 Q1784.15,209.316 1788.74,197.416 Q1793.33,185.516 1801.32,176.336 Q1809.31,167.156 1820.87,161.546 Q1832.43,155.936 1848.41,155.936 Q1859.63,155.936 1867.79,158.316 L1860.99,185.516 Q1857.59,184.496 1854.02,183.816 Q1850.45,183.136 1846.03,183.136 Q1837.87,183.136 1832.09,186.366 Q1826.31,189.596 1822.4,195.036 Q1818.49,200.476 1816.28,207.616 Q1814.07,214.756 1812.71,222.236 L1806.59,255.896 L1845.01,255.896 z" fill="#FFFFFF"/>
    <path d="M1886.15,396.316 Q1886.15,405.156 1879.86,411.956 Q1873.57,418.756 1864.39,418.756 Q1855.55,418.756 1849.26,413.146 Q1842.97,407.536 1842.97,397.676 Q1842.97,387.816 1849.77,381.526 Q1856.57,375.236 1865.41,375.236 Q1874.25,375.236 1880.2,380.846 Q1886.15,386.456 1886.15,396.316 z" fill="#FFFFFF"/>
    <path d="M1891.59,469.756 Q1897.71,471.456 1904.17,471.456 Q1911.31,471.456 1916.07,468.736 Q1920.83,466.016 1923.89,461.426 Q1926.95,456.836 1928.65,450.546 Q1930.35,444.256 1931.71,437.116 L1963.67,255.896 L1995.29,255.896 L1962.99,438.136 Q1960.95,450.036 1957.38,461.086 Q1953.81,472.136 1947.18,480.466 Q1940.55,488.796 1930.01,493.726 Q1919.47,498.656 1903.83,498.656 Q1899.41,498.656 1894.14,497.976 Q1888.87,497.296 1885.13,496.616 z M2008.55,197.076 Q2008.55,205.576 2002.77,211.696 Q1996.99,217.816 1988.49,217.816 Q1980.33,217.816 1974.38,212.716 Q1968.43,207.616 1968.43,198.436 Q1968.43,189.256 1974.72,183.306 Q1981.01,177.356 1989.17,177.356 Q1997.33,177.356 2002.94,182.796 Q2008.55,188.236 2008.55,197.076 z" fill="#FFFFFF"/>
    <path d="M2131.29,294.656 Q2126.53,286.836 2118.37,281.736 Q2110.21,276.636 2097.29,276.636 Q2091.51,276.636 2085.73,277.826 Q2079.95,279.016 2075.02,281.566 Q2070.09,284.116 2067.03,288.536 Q2063.97,292.956 2063.97,299.076 Q2063.97,309.276 2071.45,313.696 Q2078.93,318.116 2092.87,321.856 Q2115.99,328.656 2128.4,339.366 Q2140.81,350.076 2140.81,369.796 Q2140.81,383.056 2135.03,392.916 Q2129.25,402.776 2119.9,409.236 Q2110.55,415.696 2098.65,418.926 Q2086.75,422.156 2074.51,422.156 Q2051.39,422.156 2034.56,413.656 Q2017.73,405.156 2008.55,390.536 L2034.05,373.876 Q2039.49,383.736 2050.2,389.856 Q2060.91,395.976 2074.51,395.976 Q2088.79,395.976 2099.33,390.026 Q2109.87,384.076 2109.87,372.176 Q2109.87,361.636 2101.54,356.196 Q2093.21,350.756 2076.55,345.316 Q2067.03,342.256 2059.21,338.856 Q2051.39,335.456 2045.61,330.356 Q2039.83,325.256 2036.6,318.456 Q2033.37,311.656 2033.37,301.796 Q2033.37,289.896 2038.81,280.546 Q2044.25,271.196 2053.43,264.736 Q2062.61,258.276 2074.68,254.876 Q2086.75,251.476 2099.67,251.476 Q2118.37,251.476 2133.33,258.616 Q2148.29,265.756 2155.77,278.676 z" fill="#FFFFFF"/>
    <path d="M1428.51,805.076 L1536.29,805.076 L1531.53,834.656 L1390.43,834.656 L1432.93,593.936 L1466.25,593.936 z" fill="#FFFFFF"/>
    <path d="M1679.09,734.016 Q1679.77,729.256 1680.11,726.536 Q1680.45,723.816 1680.45,721.436 Q1680.45,707.156 1671.61,700.866 Q1662.77,694.576 1646.45,694.576 Q1633.53,694.576 1620.61,699.676 Q1607.69,704.776 1598.17,712.256 L1585.25,691.176 Q1598.17,680.976 1615.51,675.026 Q1632.85,669.076 1650.87,669.076 Q1662.43,669.076 1673.14,671.626 Q1683.85,674.176 1692.18,679.786 Q1700.51,685.396 1705.61,694.576 Q1710.71,703.756 1710.71,716.676 Q1710.71,719.736 1710.37,724.666 Q1710.03,729.596 1709.35,732.996 L1697.45,798.276 Q1695.75,807.796 1694.73,817.826 Q1693.71,827.856 1693.71,834.656 L1664.81,834.656 Q1664.81,829.556 1665.32,823.776 Q1665.83,817.996 1666.85,812.216 L1666.17,812.216 Q1654.61,825.816 1641.01,831.936 Q1627.41,838.056 1609.05,838.056 Q1600.89,838.056 1592.05,836.016 Q1583.21,833.976 1575.9,829.046 Q1568.59,824.116 1563.83,815.956 Q1559.07,807.796 1559.07,795.556 Q1559.07,775.836 1569.95,763.766 Q1580.83,751.696 1598,745.066 Q1615.17,738.436 1636.59,736.226 Q1658.01,734.016 1679.09,734.016 z M1670.59,757.136 Q1657.33,757.136 1643.05,758.326 Q1628.77,759.516 1617.04,763.086 Q1605.31,766.656 1597.83,773.456 Q1590.35,780.256 1590.35,791.136 Q1590.35,797.936 1592.9,802.186 Q1595.45,806.436 1599.7,809.156 Q1603.95,811.876 1609.22,812.896 Q1614.49,813.916 1619.93,813.916 Q1630.47,813.916 1639.65,810.346 Q1648.83,806.776 1655.63,800.656 Q1662.43,794.536 1667.02,786.376 Q1671.61,778.216 1673.31,769.036 L1675.69,757.136 z" fill="#FFFFFF"/>
    <path d="M1781.09,807.456 L1776.33,834.656 L1746.07,834.656 L1791.29,577.616 L1822.91,577.616 L1800.81,699.336 L1801.49,699.336 Q1810.33,686.416 1825.8,677.746 Q1841.27,669.076 1859.97,669.076 Q1875.95,669.076 1888.87,674.176 Q1901.79,679.276 1910.97,688.456 Q1920.15,697.636 1925.25,710.386 Q1930.35,723.136 1930.35,738.776 Q1930.35,759.516 1923.55,777.706 Q1916.75,795.896 1904.51,809.496 Q1892.27,823.096 1875.44,830.916 Q1858.61,838.736 1838.89,838.736 Q1821.21,838.736 1805.4,830.746 Q1789.59,822.756 1781.77,807.456 z M1898.05,741.836 Q1898.05,722.116 1886.49,708.686 Q1874.93,695.256 1853.17,695.256 Q1839.57,695.256 1828.01,700.866 Q1816.45,706.476 1807.78,716.166 Q1799.11,725.856 1794.18,738.776 Q1789.25,751.696 1789.25,765.976 Q1789.25,776.176 1792.48,784.846 Q1795.71,793.516 1801.83,799.636 Q1807.95,805.756 1816.45,809.326 Q1824.95,812.896 1835.49,812.896 Q1849.77,812.896 1861.33,807.286 Q1872.89,801.676 1881.05,792.156 Q1889.21,782.636 1893.63,769.716 Q1898.05,756.796 1898.05,741.836 z" fill="#FFFFFF"/>
    <path d="M2069.07,712.256 Q2064.31,704.436 2056.15,699.336 Q2047.99,694.236 2035.07,694.236 Q2029.29,694.236 2023.51,695.426 Q2017.73,696.616 2012.8,699.166 Q2007.87,701.716 2004.81,706.136 Q2001.75,710.556 2001.75,716.676 Q2001.75,726.876 2009.23,731.296 Q2016.71,735.716 2030.65,739.456 Q2053.77,746.256 2066.18,756.966 Q2078.59,767.676 2078.59,787.396 Q2078.59,800.656 2072.81,810.516 Q2067.03,820.376 2057.68,826.836 Q2048.33,833.296 2036.43,836.526 Q2024.53,839.756 2012.29,839.756 Q1989.17,839.756 1972.34,831.256 Q1955.51,822.756 1946.33,808.136 L1971.83,791.476 Q1977.27,801.336 1987.98,807.456 Q1998.69,813.576 2012.29,813.576 Q2026.57,813.576 2037.11,807.626 Q2047.65,801.676 2047.65,789.776 Q2047.65,779.236 2039.32,773.796 Q2030.99,768.356 2014.33,762.916 Q2004.81,759.856 1996.99,756.456 Q1989.17,753.056 1983.39,747.956 Q1977.61,742.856 1974.38,736.056 Q1971.15,729.256 1971.15,719.396 Q1971.15,707.496 1976.59,698.146 Q1982.03,688.796 1991.21,682.336 Q2000.39,675.876 2012.46,672.476 Q2024.53,669.076 2037.45,669.076 Q2056.15,669.076 2071.11,676.216 Q2086.07,683.356 2093.55,696.276 z" fill="#FFFFFF"/>
  </g>
</svg>
