<svg version="1.1" xmlns="http://www.w3.org/2000/svg" viewBox="0 0 459.6241760253906 734.0604400634766" width="459.6241760253906" height="734.0604400634766">
  <!-- svg-source:excalidraw -->

  <defs>
    <style>
      @font-face {
        font-family: "Virgil";
        src: url("https://excalidraw.com/Virgil.woff2");
      }
      @font-face {
        font-family: "Cascadia";
        src: url("https://excalidraw.com/Cascadia.woff2");
      }
    </style>
  </defs>
  <rect x="0" y="0" width="459.6241760253906" height="734.0604400634766" fill="#111111"></rect><g stroke-linecap="round" transform="translate(10 10) rotate(0 219.8120880126953 357.0302200317383)"><path d="M1.55 1.64 C145.45 -4.56, 293.25 -4.52, 441.3 -0.43 M0.2 -0.09 C92.29 4.07, 183.84 3.95, 438.76 -0.33 M441.07 -0.56 C437.31 217.19, 434.3 431.97, 439.7 715.61 M439.49 0.46 C441.62 214.24, 441.78 430.39, 439.93 713.63 M440.37 712.45 C264.3 716.24, 87.07 717.74, 0.15 715.17 M440.52 714.79 C350.54 712.41, 263.23 713.81, -0.05 715.02 M0.35 715.02 C4.31 563.78, 6.51 410.75, 1.27 -0.35 M0.13 714.42 C1.01 477.54, 1.21 241.06, -0.73 -0.15" stroke="#FFFFFF" stroke-width="1" fill="none"></path></g><g stroke-linecap="round" transform="translate(155.87379841790687 88.31913757324219) rotate(0 77.1558284521796 71.13746643066384)"><path d="M26.62 18.56 C34.14 11.09, 47.02 3.44, 57.92 0.33 C68.83 -2.78, 80.81 -2.54, 92.04 -0.08 C103.28 2.39, 116.13 8.21, 125.36 15.12 C134.6 22.02, 142.65 31.78, 147.45 41.36 C152.25 50.94, 154.68 62.39, 154.15 72.61 C153.61 82.82, 149.35 93.64, 144.25 102.65 C139.15 111.66, 132.21 119.97, 123.55 126.67 C114.89 133.37, 103.57 140.35, 92.29 142.84 C81.01 145.32, 66.7 144.99, 55.88 141.58 C45.06 138.17, 35.73 129.65, 27.37 122.39 C19 115.13, 9.9 107.41, 5.69 98.03 C1.49 88.65, 1.22 76.41, 2.14 66.12 C3.06 55.82, -2.23 47.06, 11.21 36.27 C24.65 25.48, 62.25 3.47, 82.78 1.37 C103.31 -0.73, 134.35 22.5, 134.38 23.66 M107.02 7.69 C117.92 9.46, 127.94 14.06, 135.4 20.91 C142.87 27.77, 149.17 38.41, 151.8 48.8 C154.44 59.19, 153.28 72.22, 151.23 83.25 C149.18 94.28, 146.43 106.44, 139.51 114.98 C132.59 123.52, 119.98 129.49, 109.73 134.49 C99.48 139.48, 88.5 145.25, 78.01 144.95 C67.52 144.66, 57.17 137.66, 46.79 132.71 C36.42 127.77, 22.76 122.95, 15.75 115.26 C8.74 107.57, 6.53 97.13, 4.74 86.56 C2.95 75.99, 3.31 61.94, 5.01 51.85 C6.71 41.77, 8.03 33.36, 14.92 26.05 C21.81 18.74, 35.89 11.85, 46.36 7.99 C56.83 4.12, 67.58 3.28, 77.74 2.86 C87.91 2.43, 102.41 4.98, 107.34 5.44 C112.27 5.91, 107.95 4.76, 107.33 5.66" stroke="#FFFFFF" stroke-width="2" fill="none"></path></g><g stroke-linecap="round"><g transform="translate(223.25996451205685 165.3769304922962) rotate(0 15.331046016558389 -23.479865649609337)"><path d="M0.99 -0.84 C5.91 -9.05, 25.68 -40.59, 30.62 -48.29 M0.04 1.33 C4.68 -6.78, 24.52 -38.54, 29.46 -46.9" stroke="#FFFFFF" stroke-width="1" fill="none"></path></g></g><g stroke-linecap="round"><g transform="translate(224.41635368892378 170.88993461557902) rotate(359.9680418032372 16.05577425567799 -1.8644670299211157)"><path d="M-0.84 -0.4 C4.49 -1.12, 27.11 -2.86, 32.96 -3.33 M0.91 -1.66 C5.99 -2.29, 26.35 -1.93, 31.86 -1.99" stroke="#FFFFFF" stroke-width="1" fill="none"></path></g></g><g stroke-linecap="round"><g transform="translate(43.03781939547662 40.88802758678867) rotate(0 18.73031641201061 -0.7293307704594554)"><path d="M-0.4 -0.28 C5.75 -0.14, 31.46 0.32, 37.86 0.02 M1.59 -1.47 C7.46 -1.57, 30.8 -1.6, 36.72 -1.57" stroke="#ff0000" stroke-width="1" fill="none"></path></g></g><g stroke-linecap="round"><g transform="translate(44.21428998371198 55.78998837110203) rotate(0 19.47999475256489 -0.723860429807246)"><path d="M-0.28 -0.37 C6.4 -0.51, 33 -1.01, 39.24 -1.24 M1.77 -1.62 C8.46 -1.54, 32.54 0.04, 38.82 0.17" stroke="#ff0000" stroke-width="1" fill="none"></path></g></g><g stroke-linecap="round"><g transform="translate(44.41036841508446 68.73116484169032) rotate(0 18.803171646156727 -0.532840917420117)"><path d="M-0.37 1 C6.02 0.71, 31.67 -1.57, 37.98 -2.07 M1.63 0.49 C7.88 0.32, 30.51 -0.83, 36.9 -1.11" stroke="#ff0000" stroke-width="1" fill="none"></path></g></g><g transform="translate(238.64252145670594 533.9266197814704) rotate(0.40961479081828156 10.082812768467761 29.134448084661244)" stroke="none" fill="#FFFFFF"><path d="M 4.631846728111181 -0.048284965209017205 Q 4.631846728111181 -0.048284965209017205 3.2991890395975925 -0.34005016487961637 1.9665313510840043 -0.6318153645502156 3.2991890395975925 -0.34005016487961637 4.631846728111181 -0.048284965209017205 3.2991890395975925 -0.34005016487961637 1.9665313510840043 -0.6318153645502156 -0.14156665964779203 -0.5014049783216524 -2.2496646703795884 -0.3709945920930893 -4.103374536626712 -0.37258442309698137 -5.957084402873834 -0.3741742541008734 -7.889025054014763 -0.3682749620357165 -9.820965705155691 -0.3623756699705597 -11.966455567102877 -0.23494368566692145 -14.111945429050063 -0.1075117013632832 -15.716400585943287 0.5105728942721841 -17.32085574283651 1.1286574899076514 -18.803721226891064 2.167787672695897 -20.286586710945617 3.206917855484142 -21.444983884988496 4.3251914460861425 -22.603381059031374 5.443465036688142 -23.911455364629987 6.88333041362911 -25.219529670228603 8.323195790570077 -26.741931526868655 10.516074728588737 -28.264333383508706 12.708953666607396 -29.29821481718388 14.96986274490797 -30.332096250859053 17.230771823208546 -30.937528848645357 19.3812863776506 -31.54296144643166 21.531800932092654 -32.015285650475676 23.495755703371138 -32.4876098545197 25.459710474649626 -32.38305506798282 27.542568043140044 -32.27850028144595 29.62542561163046 -31.62690041137133 32.1065406841217 -30.975300541296708 34.58765575661293 -29.849764077725865 37.72803030112708 -28.724227614155026 40.86840484564123 -27.571302411780273 43.1343362568487 -26.41837720940552 45.40026766805616 -25.289143833349183 47.0187414334994 -24.159910457292845 48.63721519894264 -23.04285680892709 49.78870765611174 -21.92580316056134 50.94020011328083 -20.237418691066065 52.37342126802803 -18.54903422157079 53.806642422775234 -15.333159839344532 55.72026846841183 -12.117285457118275 57.63389451404843 -9.075726717453783 58.73259239429663 -6.034167977789291 59.83129027454483 -3.951732080580312 60.47934126058637 -1.8692961833713322 61.1273922466279 0.31194516305282627 61.71716868105837 2.4931865094769847 62.306945115488844 4.589052453817548 62.77757043592809 6.684918398158111 63.24819575636734 9.225558223149896 63.27102759287338 11.766198048141682 63.29385942937942 14.349898761042228 63.29518750097198 16.933599473942774 63.29651557256453 19.87764154300389 63.295884613702796 22.82168361206501 63.29525365484106 25.776092923221334 63.166150172117156 28.730502234377656 63.03704668939324 31.377642755673335 62.63443479093277 34.02478327696901 62.2318228924723 36.10320975510111 62.01945706314854 38.18163623323321 61.807091233824785 39.91398071854213 61.014320266379514 41.64632520385104 60.221549298934235 42.902108508761486 58.756202164058806 44.157891813671924 57.29085502918337 45.75157755893335 55.591019507976654 47.34526330419477 53.89118398676993 48.36820395822966 52.13657798805457 49.39114461226454 50.38197198933921 49.97100747594049 48.24893985289934 50.55087033961644 46.11590771645946 51.029376818455276 43.774178771352126 51.50788329729412 41.43244982624479 51.68931042227179 39.135634801020885 51.87073754724946 36.838819775796985 52.16636007530279 34.48638827164953 52.46198260335612 32.13395676750207 51.95206712177086 30.37273616354414 51.4421516401856 28.611515559586213 50.75869546840885 26.274265532988554 50.075239296632105 23.937015506390896 49.07633785011274 21.179985654223614 48.07743640359338 18.42295580205633 47.28567722194997 16.087866586121933 46.49391804030656 13.752777370187538 45.30007191913237 11.973664028424082 44.10622579795818 10.194550686660625 42.502838815562775 8.009719342853266 40.89945183316737 5.824887999045908 39.40288105875612 4.001115133121648 37.90631028434488 2.1773422671973894 35.8660146081725 0.5283091512515795 33.825718932000115 -1.1207239646942304 31.98190467216345 -2.657488188699044 30.138090412326783 -4.194252412703857 28.667430510340616 -4.605780938744083 27.19677060835445 -5.017309464784309 25.61418678861718 -5.04123530352788 24.03160296887991 -5.06516114227145 22.235318576047515 -5.063234807654202 20.43903418321512 -5.061308473036953 18.63923059538214 -5.05879460144799 16.839427007549162 -5.056280729859027 14.908328459055433 -5.052338899627242 12.977229910561705 -5.048397069395457 10.730549798193103 -4.899796068039246 8.483869685824502 -4.751195066683035 6.52071348263021 -4.148069615555881 4.55755727943592 -3.5449441644287276 6.291109965350287 -0.8841782019424769 8.024662651264656 1.7765877605437739 7.457342893993613 2.195375644212241 6.89002313672257 2.6141635278807085 6.2177544351383975 2.4013495448628657 5.545485733554225 2.188535561845023 5.322506234087294 1.5195698367775377 5.099526734620364 0.8506041117100525 5.509667313504099 0.2770017197602779 5.919807892387834 -0.2966006721894967 6.624936559123879 -0.3019450004575409 7.330065225859923 -0.3072893287255851 7.74885310952839 0.26003042854545755 8.167640993196859 0.8273501858165002 7.954827010179016 1.4996188874006733 7.742013027161173 2.1718875889848466 7.073047302093689 2.394867088451777 6.404081577026204 2.617846587918707 5.830479185076428 2.207706009034972 5.2568767931266525 1.797565430151237 5.251532464858608 1.0924367634151937 5.246188136590563 0.38730809667915034 2.234937131421279 -2.3187282027603446 -0.7763138737480044 -5.024764502199839 0.6720945767161807 -5.440151380266036 2.1205030271803658 -5.855538258332233 3.6806081834920157 -6.458025564627494 5.240713339803666 -7.0605128709227545 6.929431335530301 -7.713421994536123 8.618149331256937 -8.36633111814949 10.797689648914053 -8.521712115355374 12.97722996657117 -8.677093112561256 14.908330270073408 -8.67315083749462 16.839430573575648 -8.669208562427983 18.639346310543594 -8.66666622140856 20.43926204751154 -8.664123880389138 22.242697390927987 -8.660375502222445 24.046132734344436 -8.656627124055753 26.06329498351908 -8.563942175634976 28.080457232693725 -8.471257227214199 30.21122869005926 -7.719204181708801 32.3420001474248 -6.9671511362034035 34.20747583508194 -5.429127926978435 36.07295152273907 -3.891104717753465 38.34538662818076 -1.9386788541521418 40.61782173362246 0.013747009449181169 42.15730601370261 1.901031783529291 43.696790293782755 3.7883165576094004 45.31582632066832 6.029348316096801 46.934862347553896 8.270380074584201 48.29197072825116 10.468281503900773 49.64907910894843 12.666182933217343 50.43101533478092 14.97952305649263 51.21295156061342 17.292863179767917 52.23825154998041 20.158069647290667 53.263551539347404 23.023276114813417 53.99050547353845 25.485968854425998 54.7174594077295 27.94866159403858 55.21534826253594 30.26328511207676 55.71323711734238 32.57790863011493 55.46137858650966 34.81290699674092 55.20952005567694 37.04790536336691 55.0153624952915 39.550688482270594 54.82120493490606 42.05347160117428 54.360490509405366 44.509601145552324 53.89977608390466 46.965730689930375 53.164916601595095 49.51921914587102 52.43005711928552 52.07270760181166 51.204382120891985 54.17850558773785 49.97870712249845 56.28430357366405 48.350021134724564 58.069315866578265 46.72133514695068 59.854328159492475 45.452546668959755 61.13405998507601 44.18375819096884 62.413791810659546 42.759531520808835 63.27356933458832 41.33530485064884 64.1333468585171 39.69974747550498 64.79258662560702 38.06419010036112 65.45182639269692 36.31372402386551 65.65481369845563 34.563257947369905 65.85780100421435 31.735852527536498 66.27953888430137 28.90844710770309 66.7012767643884 25.865064301102226 66.83465238393168 22.821681494501362 66.96802800347496 19.877556445456698 66.96736943778579 16.933431396412033 66.96671087209663 14.345456161922227 66.96627210673392 11.757480927432422 66.96583334137124 8.785481813022573 66.87558761274099 5.813482698612724 66.78534188411072 3.6732771737345646 66.3185118427998 1.5330716488564053 65.85168180148887 -0.7150548728809295 65.23973061565319 -2.9631813946182644 64.62777942981751 -5.082065283963878 63.95936840249688 -7.200949173309493 63.29095737517625 -10.564323149279838 62.029700890891256 -13.927697125250184 60.768444406606264 -17.45895289740877 58.63352995147827 -20.990208669567355 56.49861549635028 -22.751555206567346 55.005269419047714 -24.512901743567333 53.511923341745145 -25.79566053584798 52.14870461892339 -27.078419328128625 50.785485896101626 -28.348970786103546 48.95016431644299 -29.619522244078468 47.11484273678435 -30.86461505236166 44.62100776752926 -32.10970786064485 42.12717279827417 -33.269112711838204 38.81924918988727 -34.428517563031555 35.51132558150037 -35.124459277494395 32.66959505255025 -35.82040099195723 29.827864523600123 -35.86522058719655 27.222406638381077 -35.91004018243588 24.61694875316203 -35.44314347520324 22.605628414746185 -34.976246767970615 20.594308076330336 -34.26695657579085 18.207731620247564 -33.557666383611085 15.82115516416479 -32.34290375010066 13.285972151633239 -31.128141116590243 10.75078913910169 -29.426352695742622 8.370196998545996 -27.724564274895002 5.989604857990302 -26.368578913398487 4.504726326910729 -25.012593551901976 3.019847795831158 -23.658073551121824 1.740102944313345 -22.303553550341675 0.46035809279553197 -20.447440020036964 -0.7854806527412241 -18.591326489732257 -2.0313193982779802 -16.484751626716136 -2.7625436550739453 -14.378176763700013 -3.4937679118699108 -12.09957120943585 -3.628815454552284 -9.820965655171685 -3.7638629972346576 -7.889023444568961 -3.7579632803471084 -5.957081233966237 -3.7520635634595587 -4.103295151560597 -3.753626205830338 -2.249509069154957 -3.755188848201117 0.7685394575516982 -3.293213965822294 3.7865879842583534 -2.8312390834434704 5.620528303595772 -2.2191564600638634 7.45446862293319 -1.6070738366842563 8.274389729982623 -0.42493414724883144 9.094310837032054 0.7572055421865934 9.1886009112507 1.246404968782453 9.282890985469347 1.7356043953783127 9.071629049530127 2.1867973601961257 8.860367113590906 2.6379903250139387 8.424248046493497 2.8788364509781363 7.988128979396088 3.1196825769423335 7.493735441629807 3.05818682999333 6.999341903863526 2.996691083044327 5.815594315987353 1.474203058917655 Z"></path></g><g transform="translate(217.0058126625089 598.4118409331759) rotate(0.40961479081828156 -28.313406003769785 53.61535083689955)" stroke="none" fill="#FFFFFF"><path d="M NaN NaN Q NaN NaN NaN NaN 18.880678305458986 -2.3997085929740956 NaN NaN NaN NaN NaN NaN 18.880678305458986 -2.3997085929740956 19.202533951274887 -1.9709619078172658 19.524389597090785 -1.542215222660436 19.532765305786903 -1.0061698661089808 19.541141014483017 -0.4701245095575255 19.232837550017305 -0.0315315883025451 18.924534085551592 0.4070613329524353 18.663101462684796 0.4533189168331644 18.401668839818 0.49957650071389353 17.081601643695386 1.4000373237938346 15.761534447572767 2.3004981468737755 13.29316043655015 5.44848303502655 10.82478642552753 8.596467923179326 7.487784818618611 12.070570340787981 4.150783211709692 15.544672758396638 0.7330887392319894 19.37873298307603 -2.6846057332457134 23.21279320775542 -7.09037517204878 27.68368855425522 -11.496144610851847 32.154583900755014 -15.207868802026725 35.864962454832956 -18.919592993201604 39.5753410089109 -22.537278175062468 43.05767793441714 -26.154963356923332 46.54001485992338 -29.67165866823092 49.50862680560988 -33.188353979538505 52.47723875129638 -36.23749185805751 55.05841935733075 -39.28662973657652 57.63959996336512 -42.23232233768178 60.5345974943118 -45.178014938787044 63.42959502525847 -48.01728344322848 66.5257731295639 -50.85655194766992 69.62195123386934 -53.36187678933767 73.20229295890772 -55.86720163100542 76.7826346839461 -58.39944303163108 80.63422100023982 -60.931684432256745 84.48580731653352 -62.362999128390065 87.49332504104856 -63.794313824523385 90.5008427655636 -65.43880540630784 93.5644470602522 -67.08329698809229 96.62805135494082 -68.1692565487434 99.15393148433165 -69.25521610939452 101.67981161372248 -69.95871081811818 103.13219186968878 -70.66220552684183 104.58457212565509 -71.82584136295026 106.39933591810393 -72.98947719905868 108.21409971055276 -73.30404550460018 108.82846430531282 -73.61861381014168 109.44282890007287 -74.30054381888075 109.54945224332866 -74.98247382761984 109.65607558658446 -75.46956232654337 109.16705424925617 -75.9566508254669 108.67803291192787 -75.84732768918487 107.99653050839623 -75.73800455290284 107.3150281048646 -75.12239899949743 107.00289531779737 -74.50679344609203 106.69076253073013 -73.89242885133197 107.00533083627163 -73.27806425657192 107.31989914181312 -73.17144091331613 108.0018291505522 -73.06481757006033 108.68375915929128 -73.55383890738862 109.17084765821481 -74.04286024471692 109.65793615713834 -74.72436264824856 109.54861302085631 -75.4058650517802 109.43928988457428 -75.71799783884742 108.82368433116888 -76.03013062591467 108.20807877776348 -75.0668606975409 105.66028248362502 -74.10359076916714 103.11248618948656 -73.36523933805324 101.67859070259752 -72.62688790693936 100.24469521570849 -71.46412143632205 97.55842697351292 -70.30135496570475 94.87215873131736 -68.7164105686933 91.93272520705072 -67.13146617168186 88.99329168278409 -65.56299631699221 85.77691741251809 -63.994526462302574 82.56054314225207 -61.42598455044717 78.65258782485986 -58.85744263859177 74.74463250746764 -56.18758463707208 70.97616035147483 -53.51772663555238 67.20768819548202 -50.61991486957637 64.0435933607737 -47.72210310360036 60.87949852606538 -44.66649666441532 57.886246530411384 -41.61089022523028 54.892994534757385 -38.547417943528345 52.29722504972767 -35.48394566182642 49.70145556469795 -32.06362794432064 46.81988337586567 -28.64331022681487 43.938311187033385 -25.05810551471711 40.4802105767389 -21.47290080261935 37.02210996644442 -17.764305882466537 33.31043017937458 -14.055710962313722 29.59875039230473 -9.724708992113943 25.22156362131718 -5.393707021914162 20.84437685032963 -1.9149700628056827 16.957629107384975 1.5637668963027969 13.070881364440318 4.932269229803302 9.575288259988357 8.300771563303808 6.079695155536396 10.670670733575006 3.7016857672584114 13.040569903846205 1.3236763789804264 14.588413474500877 -0.3258550129285289 16.13625704515555 -1.9753864048374843 17.25251705114115 -2.2298222122645024 18.368777057126753 -2.4842580196915205 18.62472768129287 -2.441983306332808 18.88067830545899 -2.3997085929740956 19.202533951274887 -1.9709619078172658 19.524389597090785 -1.542215222660436 19.532765305786903 -1.0061698661089808 19.541141014483017 -0.4701245095575256 19.232837550017305 -0.03153158830254493 18.924534085551592 0.40706133295243574 NaN NaN NaN NaN NaN NaN NaN NaN NaN NaN NaN NaN NaN NaN NaN NaN NaN NaN NaN NaN NaN NaN NaN NaN NaN NaN Z"></path></g><g transform="translate(217.18430548609 596.2613667598189) rotate(0.40961479081828156 -24.348091977668616 63.595041289437404)" stroke="none" fill="#FFFFFF"><path d="M 11.940836051968652 2.958145061867254 Q 11.940836051968652 2.958145061867254 9.492569095382734 5.69705389668879 7.044302138796815 8.435962731510326 9.492569095382734 5.69705389668879 11.940836051968652 2.958145061867254 9.492569095382734 5.69705389668879 7.044302138796815 8.435962731510326 3.8414475332742875 11.771637104929834 0.6385929277517595 15.107311478349342 -2.233321303555697 18.38539682986967 -5.105235534863153 21.66348218139 -9.034146021847606 26.028804817324037 -12.963056508832059 30.394127453258072 -17.082541022730375 35.860329835592324 -21.20202553662869 41.32653221792657 -26.36519534573364 47.34463252076467 -31.52836515483859 53.36273282360277 -34.628791329944946 57.47759967501972 -37.7292175050513 61.59246652643666 -40.04924176988466 64.83091001223902 -42.369266034718024 68.06935349804137 -44.15582577286835 71.3774940865822 -45.94238551101867 74.68563467512305 -47.61727440342419 77.87037716766201 -49.29216329582971 81.05511966020096 -50.4948902654893 84.23230407794182 -51.69761723514889 87.40948849568267 -52.918887765907755 90.12708677463625 -54.14015829666661 92.84468505358984 -55.18381594069914 95.46257224026361 -56.22747358473167 98.08045942693738 -56.72892174842704 99.89722338029216 -57.23036991212242 101.71398733364694 -57.3946416339598 103.3063061615203 -57.55891335579718 104.89862498939364 -58.15771248543933 106.66520650982278 -58.75651161508148 108.43178803025191 -59.16032740270205 110.72735853363653 -59.564143190322625 113.02292903702117 -59.78050319190167 115.31979287123275 -59.99686319348071 117.61665670544433 -60.77420916893673 118.7026874687055 -61.551555144392744 119.78871823196667 -61.52719093868323 119.74605011872526 -61.502826732973716 119.70338200548387 -59.279485224053715 120.59002508572492 -57.05614371513371 121.47666816596596 -55.61012391415268 122.8508384720528 -54.16410411317166 124.22500877813964 -54.1056253174596 125.90049875972545 -54.04714652174753 127.57598874131126 -54.87139710850749 127.61211510004773 -55.695647695267446 127.6482414587842 -56.36540121549976 127.3069850016229 -57.03515473573207 126.9657285444616 -57.152743704311916 126.22330105178223 -57.27033267289176 125.48087355910286 -56.738813275786484 124.94935415407733 -56.2072938786812 124.41783474905179 -55.46486638424962 124.53542370656862 -54.72243888981803 124.65301266408544 -54.38118242267663 125.32276617923263 -54.03992595553524 125.99251969437982 -54.38118241269653 126.66227321461213 -54.72243886985783 127.33202673484445 -55.46486636253721 127.44961570342429 -56.207293855216584 127.56720467200414 -56.73881326024211 127.03568527489887 -57.270332665267645 126.50416587779358 -57.15274370775082 125.761738383362 -57.035154750234 125.01931088893042 -56.36540123508681 124.67805442178903 -55.69564771993961 124.33679795464762 -56.50561820792066 124.74558369905037 -57.31558869590171 125.1543694434531 -59.44735778778855 124.35605043214781 -61.579126879675385 123.55773142084253 -62.883522325249466 122.09637561836641 -64.18791777082355 120.63501981589029 -63.98048353395896 119.10752058415851 -63.77304929709438 117.58002135242673 -63.58761387525375 115.00095234272055 -63.402178453413114 112.42188333301439 -62.973149857640536 110.50798160641575 -62.544121261867964 108.59407987981712 -61.94644303138439 106.80644802556279 -61.34876480090082 105.01881617130844 -61.0885043345274 102.92250240072104 -60.82824386815398 100.82618863013366 -60.278592527665026 98.78010403510237 -59.728941187176076 96.73401944007108 -58.63523787241351 93.98690413925857 -57.54153455765095 91.23978883844605 -56.361224940940275 88.6708672258046 -55.180915324229595 86.10194561316315 -53.87072422317662 82.7159874693789 -52.56053312212365 79.33002932559465 -50.89638566324041 76.14139287172497 -49.23223820435716 72.95275641785531 -47.304098359115756 69.43337181349935 -45.37595851387435 65.9139872091434 -43.03703529961918 62.65725349267466 -40.69811208536401 59.400519776205925 -37.50314098853093 55.1922818664983 -34.30816989169785 50.98404395679067 -29.235296597972987 45.08283425738772 -24.162423304248122 39.18162455798476 -19.924720086219974 33.55337109561744 -15.687016868191824 27.925117633250128 -11.814816028586554 23.59058005123179 -7.942615188981285 19.256042469213448 -5.004927731397963 15.90017634738486 -2.067240273814641 12.544310225556275 1.1729024052651469 9.17450783382656 4.413045084344935 5.8047054420968465 6.9022205176734115 3.310277442694657 9.391395951001888 0.8158494432924679 10.87983793785558 -0.26630591622831645 12.368279924709274 -1.3484612757491008 13.315457972479042 -1.750882222278639 14.26263602024881 -2.1533031688081774 14.875067314530853 -1.88486971206278 15.487498608812897 -1.6164362553173828 15.82518470667728 -1.0392909441301668 16.162870804541665 -0.46214563294295097 16.096827094132518 0.20326164026020221 16.03078338372337 0.8686689134633554 15.586236317673832 1.368175186680228 15.141689251624292 1.8676814598971005 13.541262651796472 2.4129132608821773 Z"></path></g><g transform="translate(273.2315816632829 597.0033972711503) rotate(0.40961479081828156 23.398175568755278 62.995088069725625)" stroke="none" fill="#FFFFFF"><path d="M 3.502410396402919 -0.8988925115357318 Q 3.502410396402919 -0.8988925115357318 6.479779691185567 1.093466160142865 9.457148985968216 3.085824831821462 6.479779691185567 1.093466160142865 3.502410396402919 -0.8988925115357318 6.479779691185567 1.093466160142865 9.457148985968216 3.085824831821462 12.900149780541504 6.578532064024305 16.34315057511479 10.071239296227148 19.53642953806576 15.013279344068387 22.729708501016727 19.955319391909626 25.80682576774708 24.1722957244521 28.883943034477426 28.38927205699457 32.23057094820768 34.289573677605034 35.57719886193793 40.189875298215505 38.13000310025558 46.9743047813359 40.68280733857322 53.75873426445631 42.723274515629484 61.93260233018093 44.763741692685755 70.10647039590555 45.554395683664026 76.08753406798284 46.345049674642304 82.06859774006014 46.94804001326713 86.55140468618603 47.55103035189197 91.03421163231191 48.02572791991152 95.29347072022766 48.50042548793106 99.55272980814341 48.563324174482645 102.13003089230281 48.62622286103423 104.7073319764622 48.48642588347855 107.00020291783959 48.34662890592288 109.29307385921697 47.618047466616915 112.52611410804738 46.889466027310945 115.7591543568778 45.79358707344777 118.03175365570178 44.6977081195846 120.30435295452577 44.03296944740461 122.04779228315712 43.36823077522462 123.79123161178846 42.80735923127072 124.32647387285792 42.24648768731684 124.86171613392739 42.206086488771305 124.15915826757511 42.165685290225774 123.45660040122283 41.86691832322857 123.39813561943694 41.56815135623136 123.33967083765106 42.0254775114286 123.5280299400687 42.482803666625834 123.71638904248637 42.1464338458974 124.4028580766936 41.81006402516896 125.08932711090083 41.05698569044272 125.22069458399912 40.30390735571648 125.35206205709743 39.754980498498796 124.82002474952643 39.206053641281116 124.28798744195542 39.31382975348774 123.53117260273785 39.42160586569437 122.7743577635203 40.09723114152099 122.41670586867494 40.77285641734761 122.05905397382958 41.45932545155483 122.39542379455801 42.14579448576206 122.73179361528645 42.27716195886036 123.48487195001269 42.40852943195867 124.23795028473893 41.87649212438767 124.78687714195661 41.34445481681667 125.33580399917429 40.58763997759911 125.22802788696767 39.83082513838154 125.12025177476104 39.47317324353618 124.44462649893441 39.11552134869081 123.7690012231078 39.865793411950406 125.00316806274836 40.61606547521 126.23733490238894 40.02200903288758 125.28012122922738 39.427952590565155 124.32290755606581 40.28770785057662 123.2923861223498 41.14746311058809 122.26186468863376 40.888230122420254 122.58757272132681 40.62899713425241 122.91328075401984 40.5490895184096 121.89515725445445 40.469181902566795 120.87703375488906 41.052150825556225 119.45361969443559 41.63511974854565 118.03020563398212 42.557389173761955 116.43010528499573 43.47965859897826 114.83000493600935 44.100358405172614 111.98839966444082 44.721058211366966 109.1467943928723 44.84197391720412 106.93238925404498 44.96288962304128 104.71798411521765 44.91270989480687 102.30751238004189 44.86253016657247 99.89704064486614 44.39971799526132 95.71460710597552 43.93690582395017 91.53217356708488 43.334688377155985 87.00522845229204 42.7324709303618 82.47828333749922 41.98393233819577 76.69117146931907 41.23539374602974 70.90405960113894 39.26016770644116 62.95722350617878 37.284941666852575 55.01038741121861 34.813732318799524 48.49034107107733 32.34252297074647 41.970294730936054 29.127721705377997 36.31865125914253 25.912920440009522 30.667007787349 22.726315235618777 26.302519814854485 19.53971003122803 21.938031842359973 16.62396941271391 17.32427749848355 13.708228794199792 12.710523154607127 10.44401360033475 9.38523478624596 7.17979840646971 6.05994641788479 5.062270777351419 4.266858065581832 2.9447431482331274 2.473769713278873 1.3329547620741158 2.0800504128430877 -0.27883362408489587 1.6863311124073026 -0.7478076614638528 1.4433536742038275 -1.2167816988428097 1.2003762360003525 -1.4533711101872093 0.7281473363646427 -1.6899605215316087 0.2559184367289328 -1.6037961930862201 -0.2651865351481336 -1.5176318646408316 -0.7862915070252 -1.1416256412539842 -1.1572281635931414 -0.765619417867137 -1.5281648201610827 1.3683954892678911 -1.2135286658484072 Z"></path></g><g transform="translate(170.21234523323778 629.455568023759) rotate(0.40961479081828156 -23.20677516621538 -20.924141543308906)" stroke="none" fill="#FFFFFF"><path d="M -61.47142344640353 -52.48377971538489 Q -61.47142344640353 -52.48377971538489 -61.38210306177904 -52.99656199035881 -61.292782677154555 -53.509344265332736 -61.38210306177904 -52.99656199035881 -61.47142344640353 -52.48377971538489 -61.38210306177904 -52.99656199035881 -61.292782677154555 -53.509344265332736 -60.919115109182584 -53.87169263538952 -60.54544754121061 -54.234041005446315 -60.03016110036294 -54.307550708992395 -59.514874659515264 -54.381060412538474 -58.535657658307265 -54.83879421953648 -57.556440657099266 -55.29652802653448 -56.939586333365455 -54.98222509850292 -56.322732009631636 -54.66792217047136 -56.214430545487396 -53.98413391366775 -56.106129081343155 -53.30034565686413 -56.59566739822563 -52.81080727881581 -57.08520571510811 -52.321268900767485 -57.76899398544355 -52.42957027947513 -58.45278225577899 -52.53787165818278 -58.767085260884016 -53.1547259426457 -59.08138826598904 -53.77158022710862 -58.76708533795748 -54.38843455084243 -58.452782409925916 -55.005288874576244 -57.76899415312231 -55.113590338720485 -57.08520589631869 -55.22189180286473 -56.59566751827037 -54.73235348598226 -56.106129140222045 -54.242815169099785 -56.21443051892969 -53.559026898764344 -56.32273189763734 -52.875238628428896 -56.93958618210026 -52.56093562332387 -57.55644046656318 -52.24663261821885 -59.17425444190512 -52.2043230116912 -60.79206841724705 -52.16201340516356 -61.13174593182529 -52.32289656027423 -61.47142344640353 -52.48377971538489 -61.38210306177904 -52.99656199035881 -61.292782677154555 -53.509344265332736 -60.919115109182584 -53.87169263538952 -60.54544754121061 -54.234041005446315 -60.03016110036294 -54.307550708992395 -59.514874659515264 -54.381060412538474 -22.573114514937217 -21.628207610141086 14.368645629640833 11.1246451922563 14.554027140959356 11.502739915351409 14.739408652277877 11.880834638446519 14.667146943172561 12.295684213314669 14.594885234067245 12.71053378818282 14.292581821331165 13.003679777442823 13.990278408595085 13.296825766702824 13.573402920978335 13.35629636612307 13.156527433361585 13.415766965543316 -24.157448006520973 -19.534006374920786 Z"></path></g><g transform="translate(313.1316561000881 635.284816756573) rotate(0.40961479081828156 37.197099622123744 -17.500191108949366)" stroke="none" fill="#FFFFFF"><path d="M 1.8498331991265462 7.544180466214704 Q 1.8498331991265462 7.544180466214704 3.748915577369816 5.783300108023562 5.647997955613086 4.02241974983242 3.748915577369816 5.783300108023562 1.8498331991265462 7.544180466214704 3.748915577369816 5.783300108023562 5.647997955613086 4.02241974983242 8.866276015952439 0.5499172860824832 12.084554076291791 -2.922585177667454 16.64693607574562 -8.585229895881884 21.209318075199455 -14.247874614096313 26.5601485456335 -20.39923106732136 31.910979016067543 -26.550587520546408 38.891300921615176 -32.43914770839707 45.87162282716281 -38.32770789624773 52.39704989776543 -41.2955770742286 58.92247696836805 -44.26344625220948 63.48930096594556 -45.030993668467204 68.05612496352308 -45.798541084724924 71.41781552737444 -46.54333656399679 74.7795060912258 -47.28813204326865 75.38636514400622 -46.965754753326635 75.99322419678663 -46.64337746338462 76.29469486697434 -46.02586595577648 76.59616553716204 -45.408354448168346 76.47709627535654 -44.73157713035621 76.35802701355105 -44.05479981254407 75.98130759507433 -43.91423014603252 75.6045881765976 -43.77366047952098 74.02475970060465 -43.39655360974221 72.44493122461168 -43.01944673996345 70.49494200250558 -43.17355877455708 68.54495278039948 -43.32767080915071 67.82882373822369 -43.6925568342147 67.11269469604791 -44.05744285927869 66.98696360160534 -44.851278048864586 66.86123250716275 -45.645113238450485 67.42955578320267 -46.21343644776528 67.99787905924259 -46.78175965708008 68.79171423406677 -46.65602846943571 69.58554940889096 -46.530297281791334 69.95043534987639 -45.814168196775384 70.31532129086182 -45.098039111759434 69.95043526579784 -44.38191006958364 69.58554924073385 -43.66578102740785 68.79171405114795 -43.540049932965275 67.99787886156204 -43.4143188385227 67.42955565224725 -43.98264211456262 66.86123244293246 -44.550965390602535 66.98696363057684 -45.34480056542672 67.1126948182212 -46.138635740250905 67.82882390323715 -46.503521681236336 68.5449529882531 -46.868407622221774 71.18288701248142 -47.05812168992426 73.82082103670972 -47.24783575762676 74.30016356396776 -47.2679839004477 74.7795060912258 -47.28813204326865 75.38636514400622 -46.965754753326635 75.99322419678663 -46.64337746338462 76.29469486697434 -46.02586595577648 76.59616553716204 -45.408354448168346 76.47709627535654 -44.73157713035621 76.35802701355105 -44.05479981254407 74.3818172757226 -43.09097260283009 72.40560753789416 -42.127145393116116 70.43246005508448 -41.94021560451832 68.4593125722748 -41.75328581592053 64.39839497824615 -41.12052450491653 60.337477384217486 -40.487763193912535 54.34536372267726 -37.82932458677843 48.35325006113704 -35.170885979644325 41.64956598111331 -29.548568572617466 34.94588190108959 -23.926251165590607 29.652872119189148 -17.82495434850101 24.359862337288703 -11.72365753141141 19.664074264411536 -5.95623993812531 14.968286191534366 -0.18882234483920968 11.517998671140374 3.4191503255987237 8.067711150746382 7.027122996036657 5.245686429216638 9.05168966182707 2.4236617076868945 11.076256327617482 1.3552879809835343 11.469975628053266 0.28691425428017414 11.863694928489052 -0.2595091443670715 11.77937529613164 -0.8059325430143172 11.69505566377423 -1.1984365222656463 11.305660033005257 -1.5909405015169757 10.916264402236282 -1.6796018820179646 10.370528668938787 -1.7682632625189534 9.824792935641293 -1.519216410407711 9.331169601059573 -1.270169558296469 8.837546266477853 0.28983182041503863 8.190863366346278 Z"></path></g><g stroke-linecap="round" transform="translate(43.98085803671438 284.80428136857427) rotate(0 191.61534986308976 71.61811260148602)"><path d="M0.39 0.51 C83.2 0.58, 165.55 -0.18, 383.26 -0.79 M0.56 0.45 C129.23 0.8, 259.61 1.37, 383.24 0.21 M383.25 -1.89 C383.4 51.01, 383.75 98.91, 385.22 144.23 M383.4 -0.9 C383.14 55.76, 383.84 112.37, 382.23 143.31 M382.07 142.71 C278.57 146.03, 174.23 146.03, -1.04 142.08 M382.78 143.79 C263.61 144.7, 143.75 144.48, 0.18 143.08 M-1.3 142.27 C-1.02 100.52, -2.05 61.11, -0.54 -1.56 M0.8 142.77 C-0.47 114.18, 1.1 84.3, 0.9 -0.79" stroke="#FFFFFF" stroke-width="2" fill="none"></path></g><g transform="translate(77.39514433228737 365.07945059153735) rotate(0 162.23048909505206 3.671981512331513)" stroke="none" fill="#FFFFFF"><path d="M -1.15356659240379 7.303090333430809 Q -1.15356659240379 7.303090333430809 -1.7842164644117569 7.041911261115092 -2.414866336419724 6.780732188799375 -1.7842164644117569 7.041911261115092 -1.15356659240379 7.303090333430809 -1.7842164644117569 7.041911261115092 -2.414866336419724 6.780732188799375 -2.771555593459947 6.198747186594456 -3.1282448505001703 5.616762184389539 -3.0747303198052314 4.936269742195018 -3.0212157891102924 4.255777300000496 -2.2560787151686483 4.083389749931558 -1.4909416412270042 3.9110021998626205 1.8538589701442798 3.236680804452955 5.198659581515564 2.5623594090432897 11.537283227546565 1.4446192246420744 17.875906873577566 0.326879040240859 27.83182220896991 -1.6903687616865195 37.78773754436226 -3.707616563613898 41.043343546519694 -4.265545021739669 44.298949548677136 -4.82347347986544 53.49104780987981 -5.839984456598447 62.68314607108248 -6.856495433331454 74.82156346684027 -6.373606008973583 86.95998086259806 -5.890716584615713 97.7868289165832 -3.9244453477320667 108.61367697056835 -1.9581741108484203 112.38687722513625 -1.0889242048110765 116.16007747970414 -0.2196742987737328 126.33070150580242 1.7735283992315136 136.5013255319007 3.76673109723676 147.33458391829197 3.4215468942673573 158.16784230468323 3.0763626912979545 170.0654333113385 1.1641990437762415 181.96302431799376 -0.7479646037454715 184.94590285248154 -1.0086615966045511 187.92878138696935 -1.2693585894636308 195.1053988808247 -1.1968106635816493 202.28201637468007 -1.124262737699668 212.980848524382 -0.6491074145251805 223.6796806740839 -0.17395209135069323 235.6476936315021 -0.10713843177649612 247.61570658892032 -0.04032477220229902 251.06288232485468 -0.04605628152801189 254.51005806078905 -0.05178779085372476 262.3117665973068 0.9354494348388391 270.1134751338245 1.922686660531403 276.66663250566427 5.164856767847815 283.219789877504 8.407026875164227 292.5185858434261 8.327434392624644 301.8173818093481 8.24784191008506 312.7854090829949 5.092671300728965 323.7534363566416 1.9375006913728692 324.29716235010295 1.3544984561031304 324.8408883435643 0.7714962208333918 325.6321411799007 0.8686996738819249 326.4233940162372 0.9659031269304581 326.8098415188422 1.6631748745478605 327.1962890214471 2.360446622165263 326.8593324707436 3.082935269296146 326.5223759200401 3.8054239164270287 325.73981223510134 3.9574885122741743 324.9572485501626 4.10955310812132 324.37424631489284 3.565827114659972 323.79124407962314 3.022101121198624 323.88844753267165 2.2308482848621702 323.98565098572016 1.4395954485257159 324.6829227333376 1.0531479459207487 325.38019448095497 0.6667004433157815 326.10268312808586 1.003656994019322 326.82517177521675 1.3406135447228626 326.9772363710639 2.1231772296615925 327.12930096691105 2.9057409146003224 325.28177712671084 5.349531406030575 323.43425328651057 7.793321897460828 312.6192363850407 10.30841506611675 301.80421948357093 12.823508234772671 291.27505558475923 12.529771653459381 280.7458916859476 12.23603507214609 275.0334033545861 9.27518236751158 269.32091502322453 6.314329662877071 261.9143172809183 5.425777564241719 254.50771953861204 4.537225465606367 251.0601681994277 4.529587911013049 247.61261686024335 4.521950356419731 235.51629688925829 4.4564082326114605 223.4199769182732 4.3908661088031895 212.81823644336686 3.8925713291794777 202.21649596846052 3.3942765495557663 195.34829800101443 3.2155759362972303 188.4801000335683 3.036875323038694 185.58812643487082 3.2644816702102664 182.69615283617333 3.492088017381839 170.51600441894257 5.478910263329293 158.33585600171182 7.465732509276747 147.01003180394247 7.832385053317921 135.6842076061731 8.199037597359094 125.4520011337334 6.203957143399485 115.2197946612937 4.208876689439876 111.47034218522468 3.3393970559068684 107.72088970915566 2.469917422373861 97.23213759108918 0.5330631271145108 86.7433854730227 -1.4037911681448394 74.97204169549474 -1.8978279793371633 63.20069791796677 -2.391864790529487 54.17593299862865 -1.383311487245891 45.15116807929053 -0.37475818396229466 41.92316837354324 0.1828290055815306 38.695168667795954 0.7404161951253558 28.65338662633151 2.7630491004352074 18.611604584867067 4.785682005745059 11.98993566490569 5.900041418797811 5.368266744944314 7.014400831850564 2.6390308381132925 7.161517609719958 -0.09020506871772938 7.308634387589352 -0.6218858305607597 7.305862360510081 -1.1535665924037901 7.303090333430809 -1.784216464411757 7.041911261115092 -2.414866336419724 6.780732188799375 -2.771555593459947 6.198747186594456 -3.12824485050017 5.616762184389539 -3.074730319805231 4.936269742195018 -3.0212157891102924 4.255777300000496 -0.13613225427861342 2.487555956421373 2.7489512805530656 0.7193346128422506 3.285915009855366 0.5903866998234883 3.8228787391576664 0.46143878680472605 4.333085203112497 0.6727370948832248 4.843291667067328 0.8840354029617234 5.131859337723842 1.354871160216843 5.420427008380357 1.825706917471963 5.377132843602151 2.376236867751042 5.3338386788239465 2.9267668180301216 2.0901360432100784 5.114928575730465 Z"></path></g><g transform="translate(74.22765189585971 324.7647054552017) rotate(0 164.32399495442712 6.662643133425263)" stroke="none" fill="#FFFFFF"><path d="M -0.8562724558890203 10.795504181493557 Q -0.8562724558890203 10.795504181493557 -1.5162839087848867 10.62138166449575 -2.176295361680753 10.447259147497942 -1.5162839087848867 10.62138166449575 -0.8562724558890203 10.795504181493557 -1.5162839087848867 10.62138166449575 -2.176295361680753 10.447259147497942 -2.607909195972252 9.918446073787056 -3.039523030263751 9.38963300007617 -3.0778774312661947 8.708117990114461 -3.1162318322686384 8.026602980152752 -2.3326755197215414 7.819000365713578 -1.549119207174444 7.611397751274403 1.8513646439164164 6.779319269483756 5.251848495007277 5.94724078769311 11.62876120597742 4.449223391778679 18.005673916947565 2.9512059958642487 28.07757732808252 0.23476322926228566 38.14948073921747 -2.4816795373396774 41.45064141813146 -3.235897138906138 44.75180209704545 -3.990114740472599 54.08604278469096 -5.367444707396895 63.42028347233647 -6.7447746743211905 75.77030808750294 -6.094830070608452 88.1203327026694 -5.444885466895715 99.13667997884497 -2.7856258476384093 110.15302725502053 -0.12636622838110312 113.9776233606813 1.0478869053370126 117.80221946634208 2.222140039055128 128.09295253166476 4.910327507936119 138.38368559698745 7.598514976817109 149.28374649770964 7.114605245300128 160.18380739843184 6.630695513783147 172.19158004086455 4.047248757194782 184.1993526832973 1.4638020006064174 187.2354749744834 1.1147817540068679 190.27159726566953 0.7657615074073183 197.5855909319332 0.8742591407439586 204.8995845981969 0.9827567740805989 215.7510058336132 1.6289242371829298 226.60242706902952 2.2750917002852606 238.70368414888281 2.36311276413172 250.80494122873608 2.4511338279781794 254.29627399559578 2.445734690247508 257.7876067624555 2.440335552516837 265.716284026553 3.785154730224936 273.6449612906506 5.129973907933035 280.34392742374143 9.515616627244027 287.0428935568322 13.901259346555019 296.3749754532155 13.775347948913183 305.7070573495987 13.649436551271346 316.80940600462515 9.127937467938501 327.9117546596516 4.606438384605655 328.4151138759447 3.988248234516011 328.9184730922378 3.3700580844263675 329.7144665533581 3.4139211913475673 330.5104600144784 3.457784298268767 330.9428472329208 4.127538623094429 331.3752344513632 4.7972929479200905 331.08754265080336 5.540773270582143 330.79985085024344 6.2842535932441965 330.02926163665194 6.488512806479344 329.25867242306043 6.692772019714491 328.64048227297076 6.189412803421404 328.02229212288114 5.686053587128317 328.06615522980235 4.890060126008022 328.1100183367235 4.094066664887727 328.77977266154915 3.6616794464453113 329.44952698637485 3.2292922280028957 330.1930073090369 3.5169840285627587 330.9364876316989 3.8046758291226217 331.1407468449341 4.575265042714145 331.34500605816925 5.345854256305669 331.14929453749164 7.347063814862436 330.9535830168141 9.348273373419202 329.34345725192475 10.40780026675774 327.7333314870354 11.467327160096275 316.7078401329492 14.829394787469779 305.682348778863 18.191462414843283 294.93213758323094 17.776711694757196 284.1819263875989 17.361960974671113 278.4579153886541 13.380915485574175 272.73390438970927 9.399869996477236 265.2591984410085 8.214609099181407 257.78449249230766 7.02934820188558 254.2926595246907 7.021378174614661 250.80082655707375 7.013408147343743 238.529077526925 6.922906641515433 226.2573284967762 6.832405135687123 215.53495467746436 6.165575090403116 204.8125808581525 5.498745045119108 197.9016062250408 5.268356581542372 190.99063159192912 5.037968117965636 188.07654502573703 5.347575434251953 185.16245845954495 5.657182750538269 172.78364653138476 8.33272024865676 160.40483460322454 11.008257746775248 148.86157838301705 11.484479276753937 137.31832216280952 11.960700806732627 126.94451763709591 9.269459143892991 116.57071311138232 6.578217481053358 112.77616342510515 5.407257905202462 108.98161373882799 4.236298329351566 98.4089456544915 1.6309901151970232 87.83627757015503 -0.9743180989575198 75.9698505222315 -1.6420596400892926 64.10342347430795 -2.3098011812210655 54.98713329016952 -0.955707784645877 45.87084310603109 0.39838561192931143 42.60523287117135 1.1487846946139855 39.339622636311624 1.8991837772986593 29.15731822035921 4.631765349523174 18.97501380440679 7.364346921747688 12.225392285728315 8.877003829018129 5.475770767049842 10.389660736288569 2.8108103296608338 10.594940900611267 0.14584989227182532 10.800221064933966 -0.35521128180859796 10.797862623213762 -0.8562724558890212 10.795504181493557 -1.5162839087848874 10.62138166449575 -2.1762953616807534 10.447259147497942 -2.6079091959722525 9.918446073787056 -3.0395230302637515 9.389633000076168 -3.077877431266195 8.70811799011446 -3.116231832268639 8.02660298015275 -0.25181059421356466 5.6886807633089385 2.6126106438415095 3.3507585464651264 3.127393925215144 3.150869116838839 3.6421772065887783 2.9509796872125524 4.176137688463634 3.09184776256712 4.71009817033849 3.2327158379216874 5.059281097287645 3.660534601401446 5.4084640242368005 4.088353364881205 5.439493386456849 4.6397105898618385 5.470522748676897 5.191067814842473 2.3071251463939384 7.993285998168015 Z"></path></g><g transform="translate(79.68001216125481 400.580157282905) rotate(0 156.76407398897055 2.3677439970128944)" stroke="none" fill="#FFFFFF"><path d="M 1.5936331027612403 4.092875071986551 Q 1.5936331027612403 4.092875071986551 1.10117339120954 4.450667995758114 0.6087136796578398 4.8084609195296775 1.10117339120954 4.450667995758114 1.5936331027612403 4.092875071986551 1.10117339120954 4.450667995758114 0.6087136796578398 4.8084609195296775 -1.1102230246251565e-16 4.8084609195296775 -0.6087136796578401 4.8084609195296775 -1.10117339120954 4.450667995758114 -1.59363310276124 4.092875071986551 -1.6507640161525226 3.823561796987482 -1.707894929543805 3.554248521988413 -1.7063214251257877 2.5235554667026303 -1.7047479207077703 1.4928624114168476 0.9279996952811429 0.3910507723872152 3.560747311270056 -0.7107608666424172 13.337668596855764 -2.3239852199379434 23.11458988244147 -3.9372095732334693 33.81981973139296 -4.906436933162145 44.52504958034445 -5.875664293090821 50.02009595260968 -4.857579613607017 55.51514232487491 -3.839494934123213 68.93326916871511 -0.361476234405655 82.35139601255531 3.116542465311903 87.05979384478289 3.7926888180238443 91.76819167701046 4.468835170735785 101.56439373780935 5.27022500254059 111.36059579860824 6.071614834345394 118.24386373249473 5.202900040148396 125.12713166638123 4.334185245951399 142.9382806745663 1.3014118546360738 160.74942968275138 -1.7313615366792519 165.0916644420923 -2.3828736392104197 169.43389920143323 -3.0343857417415876 178.91120792698794 -3.9152880567118156 188.38851665254265 -4.7961903716820435 200.67458571684426 -5.062759479666536 212.96065478114585 -5.329328587651028 223.78551068372985 -5.718742196090745 234.6103665863139 -6.108155804530463 237.95111293017766 -6.037839079728846 241.29185927404146 -5.967522354927229 249.62381734507335 -5.472997859139488 257.95577541610527 -4.978473363351746 265.8105538507882 -4.655487214865563 273.6653322854711 -4.332501066379378 281.76744295164957 -4.7977048414450945 289.86955361782805 -5.26290861651081 294.52409459474825 -5.738555291629095 299.17863557166845 -6.21420196674738 302.34371159445016 -6.095511684075378 305.5087876172319 -5.976821401403376 305.9713271696645 -5.345118439611796 306.43386672209704 -4.713415477820217 306.43676339581503 -3.9304831188120066 306.43966006953303 -3.1475507598037966 305.9818074336305 -2.512442553827958 305.52395479772787 -1.877334347852119 305.9954071798869 -2.02645416950106 306.46685956204595 -2.175573991150001 308.12590741443023 -2.178026837243713 309.78495526681456 -2.180479683337425 310.2119174133104 -0.9818613744462847 310.63887955980624 0.21675693444485544 310.23589040988685 -0.17379693965128795 309.83290125996746 -0.5643508137474313 312.3150198619019 -0.2568617684341341 314.7971384638363 0.05062727687916313 315.18801298670985 0.5929647751173359 315.57888750958335 1.1353022733555087 315.57633365802667 1.8038128061588992 315.57377980646993 2.4723233389622896 315.1787730649754 3.011658604637304 314.7837663234809 3.5509938703123183 314.4132658752414 2.955825773437879 314.0427654270019 2.36065767656344 312.9318349078816 -0.13618891878729822 311.8209043887612 -2.6330355141380366 312.1746439195923 -3.322671044522012 312.52838345042346 -4.012306574905987 313.29423319380425 -4.131482877097998 314.06008293718503 -4.250659179290009 314.60665377561634 -3.7011237946084643 315.15322461404764 -3.15158840992692 315.02990742699296 -2.386394518277543 314.9065902399383 -1.621200626628166 314.2150513536971 -1.2711966419981335 313.52351246745593 -0.9211926573681013 312.833876937072 -1.2749321881992093 312.14424140668797 -1.6286717190303173 312.025065104496 -2.3945214624111175 311.90588880230393 -3.160371205791918 312.4554241869855 -3.706942044223229 313.00495957166703 -4.253512882654539 313.77015346331643 -4.130195695599853 314.5353473549658 -4.006878508545166 314.8853513395958 -3.3153396223039824 315.23535532422585 -2.6238007360627984 315.01624689403104 -1.2865867295918174 314.7971384638363 0.05062727687916335 315.18801298670985 0.5929647751173359 315.57888750958335 1.1353022733555085 315.57633365802667 1.803812806158899 315.57377980646993 2.4723233389622896 315.1787730649754 3.011658604637304 314.7837663234809 3.5509938703123183 312.2923080489988 3.8394828005563912 309.8008497745167 4.127971730800464 308.6474254500787 3.150428119083518 307.49400112564075 2.1728845073665717 305.18827494744846 0.1801936116888283 302.8825487692561 -1.812497283988915 303.6928169557088 -3.5126396086611926 304.50308514216147 -5.21278193333347 305.00593637969666 -5.594801667368422 305.5087876172319 -5.976821401403376 305.9713271696645 -5.345118439611796 306.43386672209704 -4.713415477820217 306.43676339581503 -3.9304831188120066 306.43966006953303 -3.1475507598037966 305.9818074336305 -2.512442553827958 305.52395479772787 -1.8773343478521185 302.5650254970812 -1.6437151944358388 299.6060961964345 -1.410096041019559 294.9104781356871 -0.9957412092811603 290.2148600749396 -0.5813863775427615 281.8340366833911 -0.11855164082281883 273.45321329184264 0.3442830958971238 265.5560055194933 0.02738621969392907 257.6587977471439 -0.28951065650926566 249.50889556522944 -0.8184535431998357 241.35899338331495 -1.3473964298904055 238.07546905633495 -1.4294599857593453 234.79194472935495 -1.511523541628285 223.90179270983026 -1.1157206603457226 213.0116406903056 -0.7199177790631601 200.9056725510914 -0.5109818361743665 188.79970441187726 -0.30204589328557296 179.46102705540187 0.48605348056454223 170.12234969892646 1.2741528544146574 165.8039815119331 1.9013567787385224 161.48561332493972 2.5285607030623876 143.26492415405087 5.723225674655839 125.04423498316203 8.91789064624929 118.00992696515513 9.841204532143955 110.97561894714822 10.764518418038618 100.87692321969922 9.892978282850523 90.77822749225022 9.021438147662428 85.96587728069383 8.32101432022599 81.15352706913745 7.620590492789551 68.2851476501057 4.088337603251669 55.41676823107395 0.556084713713787 50.13767684996343 -0.47709031977031136 44.85858546885291 -1.5102653532544097 34.31795038376713 -0.5963951210232248 23.777315298681362 0.31747511120796 14.26490716765559 1.5735812979227168 4.752499036629816 2.8296874846374735 3.2286234786687933 2.575635659329331 1.7047479207077703 2.321583834021188 1.7063214251257877 2.9379161780048006 1.707894929543805 3.554248521988413 1.6507640161525226 3.823561796987482 1.59363310276124 4.092875071986551 1.10117339120954 4.450667995758114 0.6087136796578401 4.8084609195296775 1.1102230246251565e-16 4.8084609195296775 -0.6087136796578398 4.8084609195296775 -1.10117339120954 4.450667995758114 -1.5936331027612403 4.092875071986551 -1.5936331027612403 2.3726759948000904 -1.5936331027612403 0.6524769176136295 -1.4414546828467802 0.1841198999295533 -1.2892762629323204 -0.28423711775452287 -0.8908679872420103 -0.5736976735528174 -0.4924597115517002 -0.8631582293511121 1.1102230246251565e-16 -0.8631582293511121 0.49245971155170043 -0.8631582293511121 0.8908679872420103 -0.5736976735528176 1.2892762629323202 -0.2842371177545231 1.4414546828467802 1.904318977116014 Z"></path></g></svg>
