<?xml version="1.0" encoding="UTF-8"?>
<!DOCTYPE svg PUBLIC "-//W3C//DTD SVG 1.1//EN" "http://www.w3.org/Graphics/SVG/1.1/DTD/svg11.dtd">
<svg version="1.1" xmlns="http://www.w3.org/2000/svg" xmlns:xlink="http://www.w3.org/1999/xlink" x="0" y="0" width="256" height="256" viewBox="0, 0, 256, 256">
  <g id="Layer_1">
    <g>
      <path d="M37.206,24.5 L227.794,24.5 C234.811,24.5 240.5,29.873 240.5,36.5 L240.5,192.5 C240.5,199.127 234.811,204.5 227.794,204.5 L37.206,204.5 C30.189,204.5 24.5,199.127 24.5,192.5 L24.5,36.5 C24.5,29.873 30.189,24.5 37.206,24.5 z" fill-opacity="0" stroke="currentColor" stroke-width="3" stroke-linejoin="round"/>
      <path d="M60.5,48.5 L84.5,48.5 C91.127,48.5 96.5,53.873 96.5,60.5 L96.5,168.5 C96.5,175.127 91.127,180.5 84.5,180.5 L60.5,180.5 C53.873,180.5 48.5,175.127 48.5,168.5 L48.5,60.5 C48.5,53.873 53.873,48.5 60.5,48.5 z" fill-opacity="0" stroke="currentColor" stroke-width="3" stroke-linejoin="round"/>
      <path d="M120.5,48.5 L144.5,48.5 C151.127,48.5 156.5,53.873 156.5,60.5 L156.5,168.5 C156.5,175.127 151.127,180.5 144.5,180.5 L120.5,180.5 C113.873,180.5 108.5,175.127 108.5,168.5 L108.5,60.5 C108.5,53.873 113.873,48.5 120.5,48.5 z" fill-opacity="0" stroke="currentColor" stroke-width="3" stroke-linejoin="round"/>
      <path d="M180.5,48.5 L204.5,48.5 C211.127,48.5 216.5,53.873 216.5,60.5 L216.5,168.5 C216.5,175.127 211.127,180.5 204.5,180.5 L180.5,180.5 C173.873,180.5 168.5,175.127 168.5,168.5 L168.5,60.5 C168.5,53.873 173.873,48.5 180.5,48.5 z" fill-opacity="0" stroke="currentColor" stroke-width="3" stroke-linejoin="round"/>
    </g>
  </g>
</svg>
