<svg version="1.1" xmlns="http://www.w3.org/2000/svg" viewBox="0 0 877.7538900569994 521.9380116706819" width="877.7538900569994" height="521.9380116706819">
  <!-- svg-source:excalidraw -->

  <defs>
    <style>
      @font-face {
        font-family: "Virgil";
        src: url("https://excalidraw.com/Virgil.woff2");
      }
      @font-face {
        font-family: "Cascadia";
        src: url("https://excalidraw.com/Cascadia.woff2");
      }
    </style>
  </defs>
  <rect x="0" y="0" width="877.7538900569994" height="521.9380116706819" fill="#111111"></rect><g stroke-linecap="round" transform="translate(704.284687898597 10) rotate(0 81.73460107920118 223.22077910754157)"><path d="M55.88 11.48 C55.88 11.48, 55.88 11.48, 55.88 11.48 M55.88 11.48 C55.88 11.48, 55.88 11.48, 55.88 11.48 M37.62 45.64 C48.95 29.8, 60.5 15.9, 75.46 2.14 M38.53 44.08 C46.14 33.24, 56.22 21.91, 73.2 2.83 M29.51 65.55 C41.88 50.38, 55.87 36.59, 84.81 3.11 M29.44 65.48 C45.51 49.75, 58.71 32.34, 82.81 4.35 M19.33 93.21 C43.06 59.75, 69.09 30.96, 91.28 6.03 M18.28 91.61 C44.7 61.18, 73.25 29.14, 91.64 7.45 M15.59 106.85 C48.18 69.51, 79.25 30.98, 101.66 10.42 M15.34 105.9 C39.99 78.22, 64.38 50.76, 99.43 9.84 M14.09 123.77 C33.87 94.54, 59.74 68.59, 108.43 13.19 M11.62 122.04 C46.97 82.35, 82.01 43.07, 107.9 12.97 M10.12 139.05 C47.93 93.47, 86.91 44.55, 113.22 17.66 M8.96 138.89 C47.02 95.63, 83.32 53.78, 114.14 17.22 M8.03 153.41 C28.2 124.29, 54.32 98.41, 117.36 25.22 M7.43 152.44 C46.35 108.92, 81.45 67.01, 119.01 23.64 M7.37 163.72 C53.01 113.51, 97.87 60.89, 125.49 29.45 M7.4 164.42 C43.43 125.23, 78.02 85.09, 124.64 30.19 M4.95 176.48 C42.15 137.94, 77.01 96.29, 128.91 40.03 M7.43 177.96 C52.19 124.46, 98.11 71.13, 127.6 37.81 M4.16 190.08 C39.37 154.1, 72.29 115.15, 132.3 44.03 M5.5 189.92 C50.42 140.49, 94.13 89.11, 131.6 45.83 M4.59 205.84 C44.58 159.41, 80.06 115.62, 135.28 52.72 M4.49 204.26 C55.89 145.96, 105.38 87.92, 136.66 52.87 M4.3 217.79 C34.55 181.19, 65.07 147.34, 138.77 62.4 M2.51 218.93 C51.44 162.88, 98.95 109.66, 140.05 61.92 M4.86 230.18 C44.93 185.16, 88.01 136.4, 142.28 70.46 M3.03 229.96 C32.78 197.51, 61.3 164.75, 142.58 70.14 M2.2 241.61 C52.72 187.17, 100.79 131.03, 147.32 78.44 M2.5 242.36 C45.1 193.82, 89.56 143.7, 146.28 78.59 M2.72 253.02 C43.72 203.94, 87.9 154.95, 147.8 87.43 M2.79 254.98 C49.05 200.17, 96.23 144.95, 148.19 89.26 M3.41 266.61 C35.35 230.34, 65.44 193.02, 149.8 99.14 M3.43 266.81 C37.1 226.78, 71.64 187.6, 149.66 97.65 M5.58 279.58 C60.85 214.13, 117.67 146.81, 151.79 108.18 M4.76 277.7 C36 244.29, 64.84 209.85, 152.1 107.58 M6.53 288.17 C58.13 229.54, 107.81 169.01, 154.58 119.62 M6.35 287.18 C58.7 228.88, 108.4 169.69, 154.69 117.78 M7.95 297.89 C63.85 234.5, 121.75 169.42, 158.18 127.88 M8.52 296.4 C51.8 248.24, 94.59 199.89, 158.01 126.77 M11.59 305.83 C64.16 247.18, 115.2 189.97, 158.19 138.37 M11.24 305.83 C46.25 265.01, 82.7 221.79, 158.62 137.4 M12.93 317.96 C70.65 250.96, 126.95 184.38, 161.47 146.93 M12.93 317.37 C45.08 278.3, 79.43 238.2, 161.18 146.66 M13.73 325.89 C61.33 271.14, 112.73 214.6, 160.67 159.49 M14.25 326.54 C63.87 270.86, 112.37 215, 161.48 158.67 M16.99 336.46 C46.63 298.75, 81.6 262.57, 162.6 166.85 M16.4 336.84 C56.2 291.11, 95.78 244.66, 162.63 168.06 M16.22 348.06 C65.17 296.04, 113.61 240.13, 162.45 180.91 M17.2 348.09 C72.33 284.07, 128.68 220.64, 164.7 179.15 M20.09 355.62 C51.33 323.24, 82.01 285.52, 166.63 190.62 M20.1 356.46 C57.13 313.35, 93.62 271.09, 166.8 189.57 M24.67 367.13 C59.51 325.64, 94.04 287.5, 166.64 203.18 M23.55 365.86 C76.18 302.71, 131.27 241.88, 166.57 202.27 M26.02 375.03 C79.16 311.76, 134.05 250.38, 165.6 212.23 M26.64 375.03 C53.85 341.92, 82.43 309.96, 166.11 212.78 M27.78 384.09 C76.46 333.63, 121 280.8, 166.72 224.73 M29.59 384.78 C73.01 334.28, 115.12 285.13, 167.06 225.81 M31.03 393.74 C71.38 347.77, 109.99 302.8, 167.71 238.09 M32.12 392.39 C78.01 339.29, 124.19 286.4, 166.7 237.65 M35.28 400.45 C78.25 348.95, 124.01 302.3, 167.57 247.54 M36.22 399.65 C81.64 348.48, 125.51 298.4, 168.25 249.12 M41.03 405.81 C89.67 351.85, 135.35 298.02, 167.06 259.17 M39.57 406.95 C76.85 364.62, 113.07 323.8, 168.92 259.01 M46.82 412.6 C78.31 375.27, 114.07 336.66, 166.36 273.12 M45.61 414.28 C73.82 381.08, 104.05 346.59, 167.32 272.48 M48.13 421.58 C90.56 376.73, 130.73 327.37, 167.56 288.83 M48.97 422.13 C79.15 386.39, 110.38 353.38, 165.17 286.65 M51.24 429.58 C90.94 387.76, 128.08 344.57, 162.8 302.82 M52.78 430.02 C91.43 385.26, 132.38 339.66, 164.92 301.48 M57.03 436.74 C90.21 398.19, 119.9 362.63, 159.19 320.52 M58.51 435.79 C82.28 406.22, 106.11 377.59, 158.51 319.99 M64.73 441.18 C96.17 402.7, 128.97 364.34, 155.2 337.15 M65.5 440.35 C86.79 412.81, 108.11 388.05, 153.73 337.22 M71.73 445.11 C89.25 426.72, 104.86 406.13, 149.1 356.14 M72.75 443.96 C92.82 421.63, 113.4 397.1, 150.47 354.79 M80.41 448.64 C100.78 427.43, 120.14 403.14, 144.22 374.8 M79.54 448.11 C96.15 429.25, 112.31 409.69, 143.9 374.65 M90.81 448.19 C102.6 432.25, 116.12 418.7, 131.09 398.32 M92 446.11 C102.91 433.55, 113.66 419.84, 132.46 399.3" stroke="#4c6ef5" stroke-width="1" fill="none"></path><path d="M120.51 27.25 C128.11 34.08, 135.43 51.88, 140.96 67.75 C146.49 83.61, 150.25 102.8, 153.68 122.44 C157.1 142.09, 159.96 163.68, 161.52 185.63 C163.07 207.58, 163.83 232.11, 163 254.12 C162.17 276.12, 159.94 297.78, 156.52 317.67 C153.09 337.55, 147.99 356.97, 142.43 373.41 C136.88 389.84, 130.38 404.95, 123.18 416.28 C115.98 427.61, 107.25 436.4, 99.24 441.38 C91.23 446.35, 83.12 447.96, 75.13 446.15 C67.15 444.34, 58.82 439.08, 51.33 430.52 C43.84 421.96, 36.44 408.98, 30.19 394.77 C23.94 380.57, 18.51 364.07, 13.85 345.31 C9.18 326.55, 4.36 303.65, 2.2 282.22 C0.04 260.8, 0.37 239.02, 0.89 216.76 C1.4 194.5, 2.66 169.87, 5.3 148.66 C7.93 127.45, 11.85 107.28, 16.71 89.5 C21.56 71.71, 27.88 55, 34.43 41.97 C40.99 28.94, 48.51 18.18, 56.04 11.3 C63.57 4.42, 71.61 1.07, 79.63 0.68 C87.64 0.28, 96.71 3.65, 104.14 8.91 C111.58 14.18, 120.51 26.76, 124.24 32.25 C127.97 37.73, 127.25 38.75, 126.51 41.82 M113.57 16.96 C121.53 21.57, 128.87 36.53, 134.87 50.74 C140.87 64.95, 145.45 83.8, 149.57 102.22 C153.69 120.65, 157.06 140.12, 159.59 161.29 C162.13 182.46, 164.74 206.88, 164.79 229.26 C164.85 251.65, 162.98 274.37, 159.9 295.61 C156.81 316.84, 151.47 338.53, 146.31 356.67 C141.14 374.81, 135.5 391.68, 128.9 404.45 C122.31 417.21, 114.11 426.27, 106.75 433.25 C99.39 440.23, 92.82 445.49, 84.74 446.33 C76.66 447.16, 66.26 444.26, 58.26 438.26 C50.27 432.25, 43.25 422.59, 36.78 410.29 C30.32 397.98, 24.46 381.73, 19.46 364.41 C14.45 347.09, 9.98 327.2, 6.75 306.36 C3.53 285.51, 0.96 261.6, 0.12 239.35 C-0.73 217.09, -0.14 194.37, 1.67 172.83 C3.48 151.29, 6.61 129.42, 10.99 110.11 C15.37 90.8, 22.01 71.77, 27.92 56.96 C33.84 42.16, 39 30.64, 46.48 21.3 C53.96 11.96, 64.69 3.73, 72.78 0.91 C80.88 -1.91, 88.45 2.02, 95.06 4.36 C101.67 6.69, 109.43 12.12, 112.45 14.93 C115.47 17.75, 113.82 17.77, 113.2 21.24" stroke="#FFFFFF" stroke-width="2" fill="none"></path></g><g transform="translate(728.9082946777344 178.46657826949132) rotate(0 62 45)"><text x="0" y="32" font-family="Virgil, Segoe UI Emoji" font-size="36px" fill="#FFFFFF" text-anchor="start" style="white-space: pre;" direction="ltr">Caf.js </text><text x="0" y="77" font-family="Virgil, Segoe UI Emoji" font-size="36px" fill="#FFFFFF" text-anchor="start" style="white-space: pre;" direction="ltr">Cloud</text></g><g stroke-linecap="round" transform="translate(343.58264576415155 204.0952979500856) rotate(0 36.114654541015625 28.18804931640625)"><path d="M3.75 3.26 C3.75 3.26, 3.75 3.26, 3.75 3.26 M3.75 3.26 C3.75 3.26, 3.75 3.26, 3.75 3.26 M4.54 14.55 C6.82 9.54, 11.71 7, 15.69 1.72 M4.54 14.55 C6.67 12.21, 9.86 8.63, 15.69 1.72 M4.67 26.59 C13.51 18.89, 20.03 10.17, 26.32 1.68 M4.67 26.59 C10.26 18.86, 16.59 13, 26.32 1.68 M4.81 38.63 C11.22 32.52, 18.33 22.77, 36.95 1.65 M4.81 38.63 C11.47 29.1, 20.25 21.27, 36.95 1.65 M5.6 49.92 C20.38 36.43, 32.06 20.38, 47.58 1.61 M5.6 49.92 C19.67 33.28, 32.88 17.01, 47.58 1.61 M9.67 57.43 C24.84 42.4, 39.28 26.81, 58.87 0.82 M9.67 57.43 C28.59 37.51, 46.36 16.2, 58.87 0.82 M18.33 59.66 C36.09 39.01, 56.4 16.5, 67.53 3.05 M18.33 59.66 C38.25 36.93, 56.55 15.32, 67.53 3.05 M28.96 59.62 C43.84 42.45, 60.7 23.55, 72.91 9.06 M28.96 59.62 C44.74 42.27, 59.75 25.97, 72.91 9.06 M39.59 59.59 C51.93 45.31, 62.25 29.61, 76.33 17.32 M39.59 59.59 C45.8 51.52, 54.73 41.78, 76.33 17.32 M50.22 59.55 C61.02 47.7, 72.01 36.4, 75.8 30.12 M50.22 59.55 C58.42 51.92, 65.27 42.62, 75.8 30.12 M64.13 55.75 C65.65 53.88, 70.46 50.37, 72.66 45.93 M64.13 55.75 C65.8 53.41, 68.94 50.51, 72.66 45.93" stroke="#868e96" stroke-width="1" fill="none"></path><path d="M14.09 0 M14.09 0 C23.56 0.29, 32.66 1.85, 58.14 0 M14.09 0 C28.88 -1.17, 42.95 -0.71, 58.14 0 M58.14 0 C67.57 1.3, 70.91 6.58, 72.23 14.09 M58.14 0 C68.21 -0.63, 70.91 6.44, 72.23 14.09 M72.23 14.09 C72.58 21.66, 72.06 25.69, 72.23 42.28 M72.23 14.09 C71.35 25.27, 73 35.32, 72.23 42.28 M72.23 42.28 C72.8 50.53, 67.94 55.48, 58.14 56.38 M72.23 42.28 C73.26 50.91, 66.03 56.19, 58.14 56.38 M58.14 56.38 C45.71 57.05, 35.13 55.22, 14.09 56.38 M58.14 56.38 C44.52 55.73, 33.3 55.71, 14.09 56.38 M14.09 56.38 C6.69 55.32, 1.62 52.6, 0 42.28 M14.09 56.38 C4.06 58.43, 1.71 52.69, 0 42.28 M0 42.28 C1.63 35.17, 1.33 27.08, 0 14.09 M0 42.28 C-0.33 34.91, 0.63 24.88, 0 14.09 M0 14.09 C0.1 4.21, 5.17 0.22, 14.09 0 M0 14.09 C0.07 4.04, 4.65 2.03, 14.09 0" stroke="#FFFFFF" stroke-width="2" fill="none"></path></g><g stroke-linecap="round"><g transform="translate(379.64731856420747 204.8654689103308) rotate(0 1.0354582525002343 26.983942059465946)"><path d="M1.05 -0.07 C1.31 8.99, 1.8 44.96, 1.92 54.16 M0.15 -1.16 C0.19 8.03, 0.78 45.54, 0.91 55.13" stroke="#FFFFFF" stroke-width="4" fill="none"></path></g></g><g stroke-linecap="round"><g transform="translate(344.96003398248155 232.05011080104478) rotate(0 35.37042411811461 0.2675000251927031)"><path d="M-0.28 0.98 C11.5 0.74, 59.2 -0.4, 71.02 -0.44 M1.78 0.44 C13.38 0.25, 58.81 0.35, 70.14 0.64" stroke="#FFFFFF" stroke-width="4" fill="none"></path></g></g><g stroke-linecap="round" transform="translate(485.77456034099987 262.91816057274787) rotate(0 56.930693069306926 42.0792079207921)"><path d="M4.94 5.62 C4.94 5.62, 4.94 5.62, 4.94 5.62 M4.94 5.62 C4.94 5.62, 4.94 5.62, 4.94 5.62 M3.77 19.17 C8.92 15.11, 11.27 8.05, 16.23 4.83 M3.77 19.17 C7.85 14.59, 10.92 9.14, 16.23 4.83 M3.9 31.21 C11.46 19.85, 23.05 10.9, 26.86 4.8 M3.9 31.21 C10.92 23.95, 16.87 17.01, 26.86 4.8 M4.03 43.25 C15.11 32.7, 27.31 16.39, 37.49 4.76 M4.03 43.25 C11.36 34.72, 18.86 27.01, 37.49 4.76 M3.51 56.05 C15.92 41.71, 28.17 27.61, 48.12 4.73 M3.51 56.05 C14.16 44.26, 24.89 32.36, 48.12 4.73 M2.33 69.6 C22.45 45.89, 43.29 19.71, 58.75 4.7 M2.33 69.6 C14.51 57.09, 25.05 43.27, 58.75 4.7 M5.74 77.87 C20.18 60.66, 33.97 45.63, 69.38 4.66 M5.74 77.87 C24.39 55.89, 44.34 34.72, 69.38 4.66 M11.78 83.12 C29.37 63.95, 47.67 40.38, 80.01 4.63 M11.78 83.12 C31.94 61.08, 52.13 38.65, 80.01 4.63 M21.1 84.59 C43.66 61.28, 63.76 33.36, 93.92 0.82 M21.1 84.59 C41.99 60.14, 63.28 36.91, 93.92 0.82 M31.73 84.56 C50.66 63.11, 64.52 43.92, 103.24 2.29 M31.73 84.56 C49.77 61.97, 68.36 41.57, 103.24 2.29 M42.36 84.52 C68.03 52.74, 94.7 26.58, 109.93 6.79 M42.36 84.52 C64.05 59.55, 85.98 32.92, 109.93 6.79 M52.99 84.49 C69.39 63.85, 87.85 44.44, 114.66 13.55 M52.99 84.49 C72.32 62.48, 89.42 41.6, 114.66 13.55 M63.62 84.45 C79.09 64.69, 96.53 49.41, 116.76 23.32 M63.62 84.45 C83.73 63.07, 102.23 39.31, 116.76 23.32 M74.25 84.42 C88.82 68.85, 102.05 53.34, 116.24 36.12 M74.25 84.42 C84.47 73.59, 92.36 62.7, 116.24 36.12 M84.88 84.38 C95.52 75.38, 103.7 62.46, 116.37 48.16 M84.88 84.38 C91.4 77.15, 98.67 68.73, 116.37 48.16 M94.2 85.86 C103.5 76.93, 110.57 64.56, 116.5 60.2 M94.2 85.86 C103.19 76.3, 112.27 64.74, 116.5 60.2" stroke="#868e96" stroke-width="1" fill="none"></path><path d="M21.04 0 M21.04 0 C46.67 0.5, 68.96 -0.62, 92.82 0 M21.04 0 C42.36 -0.28, 63.31 -1.24, 92.82 0 M92.82 0 C106.38 1.87, 113.59 8.61, 113.86 21.04 M92.82 0 C105.89 -0.29, 114.3 5.06, 113.86 21.04 M113.86 21.04 C114.72 31.66, 115.68 39.81, 113.86 63.12 M113.86 21.04 C113.57 32.2, 113.3 44.07, 113.86 63.12 M113.86 63.12 C115.76 78.34, 106.39 82.21, 92.82 84.16 M113.86 63.12 C112.13 77.03, 106.85 83.91, 92.82 84.16 M92.82 84.16 C72.82 83.75, 54.48 85.15, 21.04 84.16 M92.82 84.16 C64.41 83.33, 36 83.68, 21.04 84.16 M21.04 84.16 C6.83 84.15, 1.9 76.06, 0 63.12 M21.04 84.16 C5.68 82.43, -1.25 76.62, 0 63.12 M0 63.12 C-0.11 51.67, 0.62 42.13, 0 21.04 M0 63.12 C-0.84 50.55, 0.39 38.48, 0 21.04 M0 21.04 C1.62 5.73, 7.71 0.59, 21.04 0 M0 21.04 C1.27 8.7, 7.56 0.67, 21.04 0" stroke="#FFFFFF" stroke-width="2" fill="none"></path></g><g transform="translate(494.9998779296875 287.5626476054288) rotate(0 48 17.5)"><text x="0" y="24" font-family="Virgil, Segoe UI Emoji" font-size="28px" fill="#FFFFFF" text-anchor="start" style="white-space: pre;" direction="ltr">WebApp</text></g><g stroke-linecap="round" transform="translate(469.7337951660156 123.9024608378507) rotate(0 59.60089111328125 37.288970947265625)"><path d="M4.96 4.31 C4.96 4.31, 4.96 4.31, 4.96 4.31 M4.96 4.31 C4.96 4.31, 4.96 4.31, 4.96 4.31 M3.78 17.86 C10.07 13.46, 14.86 8.73, 18.87 0.51 M3.78 17.86 C7.82 14.26, 9.38 10.14, 18.87 0.51 M3.92 29.91 C10.24 22.53, 17.49 14.94, 29.5 0.47 M3.92 29.91 C10.94 22.78, 17.34 14.98, 29.5 0.47 M4.05 41.95 C16.87 27.8, 29.8 10.58, 40.13 0.44 M4.05 41.95 C13.24 30.4, 22.06 21.07, 40.13 0.44 M4.18 53.99 C24.12 32.16, 41.44 12.18, 50.76 0.4 M4.18 53.99 C12.99 43.73, 24.11 31.94, 50.76 0.4 M3 67.54 C13.31 52.34, 28.82 38.71, 61.39 0.37 M3 67.54 C15.43 53.99, 27.44 40.35, 61.39 0.37 M8.39 73.54 C23.16 53.53, 41.12 34.02, 72.02 0.33 M8.39 73.54 C30.03 47.35, 54.5 19.37, 72.02 0.33 M17.7 75.02 C38.66 50.95, 61.5 24.7, 82.65 0.3 M17.7 75.02 C35.87 52.74, 55.83 31.09, 82.65 0.3 M24.4 79.51 C48.02 52.56, 73.75 23.8, 93.28 0.26 M24.4 79.51 C50.1 50.65, 76.81 18.7, 93.28 0.26 M35.03 79.47 C49.95 62.96, 65.24 44.47, 102.6 1.74 M35.03 79.47 C53.6 56.95, 74.2 35, 102.6 1.74 M45.66 79.44 C65.14 58.94, 81.25 35.9, 111.92 3.21 M45.66 79.44 C59.66 63.34, 73.03 48.46, 111.92 3.21 M56.29 79.41 C67.89 63.97, 81.38 51.26, 117.96 8.46 M56.29 79.41 C68.54 65.51, 81.63 49.18, 117.96 8.46 M66.92 79.37 C83.49 61.98, 101.57 41.19, 121.37 16.73 M66.92 79.37 C81.09 62.2, 96.38 45.6, 121.37 16.73 M77.55 79.34 C91.66 63.53, 107.07 45.15, 121.5 28.77 M77.55 79.34 C86.81 68.83, 95.08 57.39, 121.5 28.77 M88.18 79.3 C97.37 69.39, 104.82 57.87, 121.64 40.81 M88.18 79.3 C97.67 65.89, 109.95 55.43, 121.64 40.81 M102.09 75.49 C108.65 66.17, 116.08 59.7, 121.77 52.85 M102.09 75.49 C108.39 69.02, 113.17 62.84, 121.77 52.85" stroke="#868e96" stroke-width="1" fill="none"></path><path d="M18.64 0 M18.64 0 C37.53 -0.49, 58.49 0.75, 100.56 0 M18.64 0 C47.58 0.44, 75.58 -1.37, 100.56 0 M100.56 0 C114.22 1.84, 119.1 7.09, 119.2 18.64 M100.56 0 C112.1 0.35, 118.84 4.24, 119.2 18.64 M119.2 18.64 C120.31 31.85, 117.57 46.76, 119.2 55.93 M119.2 18.64 C120.09 27.47, 118.78 37.96, 119.2 55.93 M119.2 55.93 C118.83 67.79, 113.45 74.68, 100.56 74.58 M119.2 55.93 C119.73 69.57, 112.6 75.93, 100.56 74.58 M100.56 74.58 C79.07 73.45, 59.69 74.35, 18.64 74.58 M100.56 74.58 C70.77 73.08, 40.89 73.83, 18.64 74.58 M18.64 74.58 C5.63 75.97, 1.36 67.74, 0 55.93 M18.64 74.58 C7.56 76.22, 0.24 70.1, 0 55.93 M0 55.93 C-1.93 47.18, 1.88 38.7, 0 18.64 M0 55.93 C0.33 46.41, -0.39 38.15, 0 18.64 M0 18.64 C0.49 5.73, 7.12 1.47, 18.64 0 M0 18.64 C1.5 6.17, 4.11 -2.02, 18.64 0" stroke="#FFFFFF" stroke-width="2" fill="none"></path></g><g transform="translate(498.5229187011719 140.09511830855382) rotate(0 33.5 35)"><text x="0" y="25" font-family="Virgil, Segoe UI Emoji" font-size="28px" fill="#FFFFFF" text-anchor="start" style="white-space: pre;" direction="ltr">Video</text><text x="0" y="60" font-family="Virgil, Segoe UI Emoji" font-size="28px" fill="#FFFFFF" text-anchor="start" style="white-space: pre;" direction="ltr"></text></g><g stroke-linecap="round"><g transform="translate(600.14005412695 312.0881843358555) rotate(0 50.28420155250353 0.9959314898606806)"><path d="M0.59 -0.96 C17.55 -0.57, 84.39 2.56, 101.13 2.95 M-0.57 1.16 C16.34 1.18, 83.61 1.17, 100.46 1.38" stroke="#FFFFFF" stroke-width="2" fill="none"></path></g><g transform="translate(600.14005412695 312.0881843358555) rotate(0 50.28420155250353 0.9959314898606806)"><path d="M27.57 -9.23 C23.94 -6.96, 14.27 -7.01, 0.35 -1.33 M29.12 -10.07 C23.33 -8.52, 18.54 -7.15, -0.28 -0.52" stroke="#FFFFFF" stroke-width="2" fill="none"></path></g><g transform="translate(600.14005412695 312.0881843358555) rotate(0 50.28420155250353 0.9959314898606806)"><path d="M26.75 11.27 C23.22 8.5, 13.75 3.4, 0.35 -1.33 M28.31 10.44 C22.88 7.88, 18.25 5.14, -0.28 -0.52" stroke="#FFFFFF" stroke-width="2" fill="none"></path></g><g transform="translate(600.14005412695 312.0881843358555) rotate(0 50.28420155250353 0.9959314898606806)"><path d="M70.62 12.35 C80.87 9.62, 85.17 4.83, 100.22 1.01 M72.17 11.52 C77.95 8.96, 84.54 6.47, 99.59 1.82" stroke="#FFFFFF" stroke-width="2" fill="none"></path></g><g transform="translate(600.14005412695 312.0881843358555) rotate(0 50.28420155250353 0.9959314898606806)"><path d="M70.72 -8.17 C81.06 -5.86, 85.33 -5.6, 100.22 1.01 M72.28 -9.01 C77.84 -7.45, 84.41 -5.83, 99.59 1.82" stroke="#FFFFFF" stroke-width="2" fill="none"></path></g></g><g stroke-linecap="round"><g transform="translate(466.2110290527344 168.5170848612882) rotate(0 -25.592606121911672 19.784163272618315)"><path d="M0.13 0.98 C-8.45 7.39, -41.97 32.86, -50.41 39.12 M-1.26 0.45 C-10.09 6.48, -42.99 31.51, -51.31 37.49" stroke="#FFFFFF" stroke-width="2" fill="none"></path></g><g transform="translate(466.2110290527344 168.5170848612882) rotate(0 -25.592606121911672 19.784163272618315)"><path d="M-33.14 12.6 C-39.48 22.25, -46.93 32.21, -50.11 36.78 M-34.91 11.99 C-40.73 20.94, -45.37 29.48, -51.93 36.59" stroke="#FFFFFF" stroke-width="2" fill="none"></path></g><g transform="translate(466.2110290527344 168.5170848612882) rotate(0 -25.592606121911672 19.784163272618315)"><path d="M-20.92 29.08 C-32.11 32.33, -44.31 35.88, -50.11 36.78 M-22.69 28.47 C-32.87 31.73, -41.7 34.62, -51.93 36.59" stroke="#FFFFFF" stroke-width="2" fill="none"></path></g></g><g stroke-linecap="round"><g transform="translate(484.4220275878906 302.3886363749601) rotate(0 -32.901797862402134 -25.218431932800456)"><path d="M0.74 -0.28 C-10.17 -8.42, -54.44 -40.34, -65.45 -48.48 M-0.33 -1.47 C-11.43 -9.97, -55.58 -42.46, -66.55 -50.16" stroke="#FFFFFF" stroke-width="2" fill="none"></path></g><g transform="translate(484.4220275878906 302.3886363749601) rotate(0 -32.901797862402134 -25.218431932800456)"><path d="M-38.15 -42.44 C-45.06 -44.51, -54.87 -47.02, -67.86 -52.14 M-38.68 -42.09 C-45.84 -43.17, -51.36 -45.69, -66.99 -49.54" stroke="#FFFFFF" stroke-width="2" fill="none"></path></g><g transform="translate(484.4220275878906 302.3886363749601) rotate(0 -32.901797862402134 -25.218431932800456)"><path d="M-50.16 -25.8 C-53.48 -32.99, -59.64 -40.55, -67.86 -52.14 M-50.69 -25.45 C-54.96 -30.77, -57.46 -37.49, -66.99 -49.54" stroke="#FFFFFF" stroke-width="2" fill="none"></path></g></g><g stroke-linecap="round" transform="translate(10 21.755617881307728) rotate(0 42.573394775390625 28.770641326904297)"><path d="M1.97 5.68 C1.97 5.68, 1.97 5.68, 1.97 5.68 M1.97 5.68 C1.97 5.68, 1.97 5.68, 1.97 5.68 M4.72 14.71 C8.46 12.72, 8.25 7.65, 15.88 1.88 M4.72 14.71 C7.04 11.66, 10.83 8.24, 15.88 1.88 M4.86 26.75 C10.51 19.89, 16.47 16.78, 26.51 1.84 M4.86 26.75 C8.99 21.23, 14.64 15.7, 26.51 1.84 M4.33 39.54 C15.72 23.97, 28.66 13.58, 37.14 1.81 M4.33 39.54 C13.16 29.44, 23.3 17.04, 37.14 1.81 M5.12 50.83 C18.04 34.99, 29.95 21.87, 47.77 1.77 M5.12 50.83 C15.37 39.44, 26.16 25.98, 47.77 1.77 M9.85 57.59 C23.29 40.66, 35.82 26.83, 58.4 1.74 M9.85 57.59 C28.42 37.61, 46.65 15.82, 58.4 1.74 M17.85 60.57 C32.24 47.4, 46.26 31.84, 69.03 1.7 M17.85 60.57 C31.04 45.71, 43.98 29.45, 69.03 1.7 M28.48 60.54 C43.15 44.95, 55.3 30.98, 79 2.42 M28.48 60.54 C39.08 46.71, 51.96 34.58, 79 2.42 M39.11 60.5 C49.21 49.9, 56.71 40.88, 84.38 8.43 M39.11 60.5 C53.16 43.66, 69.01 27.07, 84.38 8.43 M49.74 60.47 C61.03 48.01, 70.22 36.98, 87.8 16.69 M49.74 60.47 C58.71 50.2, 68.53 39.57, 87.8 16.69 M60.37 60.43 C65.51 51.62, 72.32 47.75, 87.93 28.74 M60.37 60.43 C66.92 52.79, 71.42 46.15, 87.93 28.74 M72.32 58.89 C76.15 54.32, 81.04 49.25, 87.41 41.53 M72.32 58.89 C76.55 52.65, 81.04 48.47, 87.41 41.53" stroke="#fa5252" stroke-width="1" fill="none"></path><path d="M14.39 0 M14.39 0 C26.64 1.87, 39.76 -0.65, 70.76 0 M14.39 0 C28.55 -0.59, 42.2 -0.49, 70.76 0 M70.76 0 C78.6 -0.84, 83.44 5.21, 85.15 14.39 M70.76 0 C79.63 0.14, 83.96 6.71, 85.15 14.39 M85.15 14.39 C86.14 24.57, 85.25 37.62, 85.15 43.16 M85.15 14.39 C84.68 23.05, 85.02 31.97, 85.15 43.16 M85.15 43.16 C84.09 51.64, 78.98 56.33, 70.76 57.54 M85.15 43.16 C86.9 50.54, 79.42 55.74, 70.76 57.54 M70.76 57.54 C54.97 55.9, 39.77 58.67, 14.39 57.54 M70.76 57.54 C58.24 57.56, 46.05 58.24, 14.39 57.54 M14.39 57.54 C4.53 58.32, -0.09 54.08, 0 43.16 M14.39 57.54 C6.13 56.02, -1.3 51.58, 0 43.16 M0 43.16 C-1.6 38.78, -0.31 29.7, 0 14.39 M0 43.16 C-0.13 34.14, 0.02 22.68, 0 14.39 M0 14.39 C1.85 2.84, 5.04 1.79, 14.39 0 M0 14.39 C0.6 5.79, 4.41 0.29, 14.39 0" stroke="#FFFFFF" stroke-width="2" fill="none"></path></g><g transform="translate(14.573394775390625 33.026259208212025) rotate(0 38 17.5)"><text x="38" y="24" font-family="Virgil, Segoe UI Emoji" font-size="28px" fill="#FFFFFF" text-anchor="middle" style="white-space: pre;" direction="ltr">Client</text></g><g stroke-linecap="round" transform="translate(10 138.83203389693273) rotate(0 42.573394775390625 28.770641326904297)"><path d="M1.97 5.68 C1.97 5.68, 1.97 5.68, 1.97 5.68 M1.97 5.68 C1.97 5.68, 1.97 5.68, 1.97 5.68 M4.72 14.71 C7.51 11.35, 11.21 7.56, 15.88 1.88 M4.72 14.71 C7.81 9.99, 11.12 7.02, 15.88 1.88 M4.86 26.75 C8.9 22.61, 13.98 14.32, 26.51 1.84 M4.86 26.75 C10.69 20.03, 15.97 14.13, 26.51 1.84 M4.33 39.54 C11.88 31.17, 18.56 22.75, 37.14 1.81 M4.33 39.54 C16.38 26, 28.61 11.09, 37.14 1.81 M5.12 50.83 C18.72 33.11, 34.33 17.17, 47.77 1.77 M5.12 50.83 C19.89 32.99, 36.52 15.16, 47.77 1.77 M9.85 57.59 C21 42.53, 35.74 27.21, 58.4 1.74 M9.85 57.59 C26.4 37.67, 43.69 18.52, 58.4 1.74 M17.85 60.57 C31.48 45.12, 45.46 30.93, 69.03 1.7 M17.85 60.57 C29.26 46.97, 43.05 32.47, 69.03 1.7 M28.48 60.54 C48.85 37.02, 66.89 15.53, 79 2.42 M28.48 60.54 C48.99 37.54, 67.66 17.02, 79 2.42 M39.11 60.5 C53.9 45.26, 67.46 27.89, 84.38 8.43 M39.11 60.5 C50.16 48.3, 61.22 35.27, 84.38 8.43 M49.74 60.47 C62.21 43.43, 75.8 26.51, 87.8 16.69 M49.74 60.47 C62.29 45.48, 76.29 31.3, 87.8 16.69 M60.37 60.43 C67.08 53.98, 74.71 45.9, 87.93 28.74 M60.37 60.43 C65.35 52.9, 71.7 45.88, 87.93 28.74 M72.32 58.89 C77.63 51.99, 83.45 45.48, 87.41 41.53 M72.32 58.89 C76.76 52.09, 82.87 47.34, 87.41 41.53" stroke="#fa5252" stroke-width="1" fill="none"></path><path d="M14.39 0 M14.39 0 C24.38 1.25, 37.94 0.71, 70.76 0 M14.39 0 C33.4 -0.47, 50.86 -1.05, 70.76 0 M70.76 0 C78.94 -0.8, 86.61 5.94, 85.15 14.39 M70.76 0 C79.58 -0.85, 87.41 4.06, 85.15 14.39 M85.15 14.39 C86.79 25.43, 86.65 34.22, 85.15 43.16 M85.15 14.39 C85.04 21.07, 85.96 27.83, 85.15 43.16 M85.15 43.16 C85.31 52.86, 81.42 59.41, 70.76 57.54 M85.15 43.16 C85.03 50.7, 80.38 59.58, 70.76 57.54 M70.76 57.54 C54.12 59, 36.96 58.28, 14.39 57.54 M70.76 57.54 C55.18 56.46, 40.05 56.58, 14.39 57.54 M14.39 57.54 C4.46 57.74, 0.36 52.37, 0 43.16 M14.39 57.54 C4.92 55.25, 1.86 53.89, 0 43.16 M0 43.16 C0.03 32.76, 0.59 25.26, 0 14.39 M0 43.16 C-0.53 35.57, -0.82 28.63, 0 14.39 M0 14.39 C1.94 6.11, 5.37 1.26, 14.39 0 M0 14.39 C0.98 3.86, 3.12 0.05, 14.39 0" stroke="#FFFFFF" stroke-width="2" fill="none"></path></g><g transform="translate(14.573394775390625 150.10267522383702) rotate(0 38 17.5)"><text x="38" y="24" font-family="Virgil, Segoe UI Emoji" font-size="28px" fill="#FFFFFF" text-anchor="middle" style="white-space: pre;" direction="ltr">Client</text></g><g stroke-linecap="round" transform="translate(10 255.90844991255773) rotate(0 42.573394775390625 28.770641326904297)"><path d="M1.97 5.68 C1.97 5.68, 1.97 5.68, 1.97 5.68 M1.97 5.68 C1.97 5.68, 1.97 5.68, 1.97 5.68 M4.72 14.71 C8.74 10.33, 12.15 6.17, 15.88 1.88 M4.72 14.71 C8.03 10.76, 11.4 7.08, 15.88 1.88 M4.86 26.75 C9.19 19.82, 13.72 14.85, 26.51 1.84 M4.86 26.75 C11.06 19.66, 15.26 13.36, 26.51 1.84 M4.33 39.54 C11.42 30.51, 20 25.25, 37.14 1.81 M4.33 39.54 C10.86 31.49, 18.74 23.24, 37.14 1.81 M5.12 50.83 C19.19 35.11, 33.56 18.81, 47.77 1.77 M5.12 50.83 C16.66 38.12, 25.94 26.28, 47.77 1.77 M9.85 57.59 C24.46 40.38, 39.14 27.24, 58.4 1.74 M9.85 57.59 C20.18 46.03, 30.63 34.66, 58.4 1.74 M17.85 60.57 C33.64 44.87, 45.66 25.7, 69.03 1.7 M17.85 60.57 C32.07 45.11, 44.75 31.07, 69.03 1.7 M28.48 60.54 C39.51 46.67, 53.5 33.43, 79 2.42 M28.48 60.54 C39.47 48.81, 51.01 35.23, 79 2.42 M39.11 60.5 C50.92 46.65, 63.41 30.37, 84.38 8.43 M39.11 60.5 C51.74 45.8, 63.82 32.82, 84.38 8.43 M49.74 60.47 C62.14 43.03, 77.97 27.19, 87.8 16.69 M49.74 60.47 C59.64 50.21, 66.98 40.82, 87.8 16.69 M60.37 60.43 C67.56 53.89, 73.08 45.66, 87.93 28.74 M60.37 60.43 C70.77 47.9, 82.5 36.18, 87.93 28.74 M72.32 58.89 C77.5 52.47, 84.33 48.03, 87.41 41.53 M72.32 58.89 C77.43 54.05, 80.69 48.98, 87.41 41.53" stroke="#fa5252" stroke-width="1" fill="none"></path><path d="M14.39 0 M14.39 0 C35.98 0.66, 57.06 1.37, 70.76 0 M14.39 0 C34.8 -0.6, 55.56 -0.36, 70.76 0 M70.76 0 C81.81 1.15, 84.47 4.06, 85.15 14.39 M70.76 0 C82.61 -0.74, 86.19 3.21, 85.15 14.39 M85.15 14.39 C87.12 24.69, 84.4 36.89, 85.15 43.16 M85.15 14.39 C85.59 20.45, 85.12 28.36, 85.15 43.16 M85.15 43.16 C86.21 54.62, 80.25 55.77, 70.76 57.54 M85.15 43.16 C85.18 54.79, 80.13 56.68, 70.76 57.54 M70.76 57.54 C51.74 58.56, 34.27 56.05, 14.39 57.54 M70.76 57.54 C56.83 56.45, 42.88 57.2, 14.39 57.54 M14.39 57.54 C5.15 57.17, 0.11 50.76, 0 43.16 M14.39 57.54 C6.66 58.68, -0.18 51.69, 0 43.16 M0 43.16 C0.47 30.94, -0.62 22.81, 0 14.39 M0 43.16 C-0.47 33.85, 1.04 23.41, 0 14.39 M0 14.39 C0.58 6.05, 5.65 -0.81, 14.39 0 M0 14.39 C-1.67 4.85, 3.59 0.43, 14.39 0" stroke="#FFFFFF" stroke-width="2" fill="none"></path></g><g transform="translate(14.573394775390625 267.179091239462) rotate(0 38 17.5)"><text x="38" y="24" font-family="Virgil, Segoe UI Emoji" font-size="28px" fill="#FFFFFF" text-anchor="middle" style="white-space: pre;" direction="ltr">Client</text></g><g stroke-linecap="round" transform="translate(10 372.9848659281827) rotate(0 42.573394775390625 28.770641326904297)"><path d="M1.97 5.68 C1.97 5.68, 1.97 5.68, 1.97 5.68 M1.97 5.68 C1.97 5.68, 1.97 5.68, 1.97 5.68 M4.72 14.71 C8.19 10.68, 12.01 6.2, 15.88 1.88 M4.72 14.71 C6.48 12.63, 8.74 9.11, 15.88 1.88 M4.86 26.75 C11.86 17.25, 20.41 9.4, 26.51 1.84 M4.86 26.75 C8.6 20.98, 13.39 16.12, 26.51 1.84 M4.33 39.54 C14.78 31.38, 20.19 19.08, 37.14 1.81 M4.33 39.54 C16.8 25.77, 28.48 11.7, 37.14 1.81 M5.12 50.83 C16.77 37.65, 25.14 25.15, 47.77 1.77 M5.12 50.83 C14.55 38.71, 25.02 26.8, 47.77 1.77 M9.85 57.59 C23.92 44.27, 34.14 27.25, 58.4 1.74 M9.85 57.59 C22.03 44.19, 34.63 29.41, 58.4 1.74 M17.85 60.57 C31.27 41.75, 46.7 23.69, 69.03 1.7 M17.85 60.57 C33.07 43.66, 46.47 27.11, 69.03 1.7 M28.48 60.54 C41.63 47.33, 49.73 36.58, 79 2.42 M28.48 60.54 C38.88 48.78, 48.66 36.73, 79 2.42 M39.11 60.5 C55.43 40, 73.4 20.9, 84.38 8.43 M39.11 60.5 C52.73 45.69, 66.01 29.56, 84.38 8.43 M49.74 60.47 C60.42 47.64, 68.12 37.54, 87.8 16.69 M49.74 60.47 C57.28 51.15, 65.61 41.22, 87.8 16.69 M60.37 60.43 C69.35 49.85, 83.27 34.29, 87.93 28.74 M60.37 60.43 C68.47 52.22, 75.49 43.87, 87.93 28.74 M72.32 58.89 C77.61 55.74, 81.29 47.63, 87.41 41.53 M72.32 58.89 C74.54 55.68, 79.49 50.6, 87.41 41.53" stroke="#fa5252" stroke-width="1" fill="none"></path><path d="M14.39 0 M14.39 0 C36.54 1.52, 59 0.71, 70.76 0 M14.39 0 C30.2 -0.04, 48.17 0.94, 70.76 0 M70.76 0 C79.68 -0.74, 87.11 4.15, 85.15 14.39 M70.76 0 C81.4 -1.59, 86.51 6.92, 85.15 14.39 M85.15 14.39 C84.38 26.43, 84.23 34.08, 85.15 43.16 M85.15 14.39 C85.39 21.68, 85.84 29.8, 85.15 43.16 M85.15 43.16 C85.05 50.97, 80.38 59.32, 70.76 57.54 M85.15 43.16 C84.93 51.88, 80.78 57.24, 70.76 57.54 M70.76 57.54 C49.47 55.85, 28.23 57.2, 14.39 57.54 M70.76 57.54 C58.07 57.27, 45.9 56.99, 14.39 57.54 M14.39 57.54 C4.91 55.55, 1.62 53.74, 0 43.16 M14.39 57.54 C4.61 56.48, 1.99 52.63, 0 43.16 M0 43.16 C-0.7 39.29, 1.03 31.1, 0 14.39 M0 43.16 C1.12 34.82, 0.44 25.8, 0 14.39 M0 14.39 C0.85 3.99, 3.34 0.04, 14.39 0 M0 14.39 C-1.21 5.22, 5.49 0.68, 14.39 0" stroke="#FFFFFF" stroke-width="2" fill="none"></path></g><g transform="translate(14.573394775390625 384.255507255087) rotate(0 38 17.5)"><text x="38" y="24" font-family="Virgil, Segoe UI Emoji" font-size="28px" fill="#FFFFFF" text-anchor="middle" style="white-space: pre;" direction="ltr">Client</text></g><g stroke-linecap="round"><g transform="translate(337.6238098144531 229.5812938456632) rotate(0 -119.72064997853245 -86.46031343489886)"><path d="M1.12 0.19 C-38.77 -28.49, -199.51 -144.2, -239.39 -173.11 M0.25 -0.76 C-39.84 -29.14, -200.76 -142.98, -240.56 -171.52" stroke="#FFFFFF" stroke-width="2" fill="none"></path></g><g transform="translate(337.6238098144531 229.5812938456632) rotate(0 -119.72064997853245 -86.46031343489886)"><path d="M-211.33 -164.25 C-220.08 -164.38, -229 -167.27, -241.96 -172.71 M-211.29 -163.14 C-219.69 -165.26, -229.64 -169.16, -241.08 -171.66" stroke="#FFFFFF" stroke-width="2" fill="none"></path></g><g transform="translate(337.6238098144531 229.5812938456632) rotate(0 -119.72064997853245 -86.46031343489886)"><path d="M-223.23 -147.53 C-228.27 -152.78, -233.62 -160.68, -241.96 -172.71 M-223.18 -146.42 C-228.05 -153.64, -234.39 -162.61, -241.08 -171.66" stroke="#FFFFFF" stroke-width="2" fill="none"></path></g></g><g stroke-linecap="round"><g transform="translate(336.4495544433594 235.45284535933507) rotate(0 -118.36291174377315 -32.22100201100112)"><path d="M-0.61 0.28 C-40 -10.53, -197.73 -54.03, -237.5 -64.72 M1.27 -0.63 C-38.1 -11.29, -198.32 -53.26, -237.99 -63.56" stroke="#FFFFFF" stroke-width="2" fill="none"></path></g><g transform="translate(336.4495544433594 235.45284535933507) rotate(0 -118.36291174377315 -32.22100201100112)"><path d="M-207.67 -64.91 C-215.35 -67.36, -219.9 -67.38, -237.38 -61.95 M-208.77 -66.25 C-214.1 -66.82, -220.78 -64.59, -238.48 -64.23" stroke="#FFFFFF" stroke-width="2" fill="none"></path></g><g transform="translate(336.4495544433594 235.45284535933507) rotate(0 -118.36291174377315 -32.22100201100112)"><path d="M-212.85 -45.05 C-219.5 -51.49, -223.01 -55.51, -237.38 -61.95 M-213.96 -46.39 C-218.28 -51.27, -223.84 -53.35, -238.48 -64.23" stroke="#FFFFFF" stroke-width="2" fill="none"></path></g></g><g stroke-linecap="round"><g transform="translate(335.8623962402344 237.21431996871007) rotate(0 -117.90034157591873 24.25633078732993)"><path d="M-0.38 -0.75 C-39.96 7.15, -197.23 39.82, -236.53 47.87 M1.63 1.47 C-38.2 9.52, -197.72 41.42, -237.43 49.26" stroke="#FFFFFF" stroke-width="2" fill="none"></path></g><g transform="translate(335.8623962402344 237.21431996871007) rotate(0 -117.90034157591873 24.25633078732993)"><path d="M-213.03 33.85 C-222 40.39, -232.37 46.37, -238.19 47.79 M-211.74 33.09 C-219.49 38.78, -228.86 44.71, -236.57 48.67" stroke="#FFFFFF" stroke-width="2" fill="none"></path></g><g transform="translate(335.8623962402344 237.21431996871007) rotate(0 -117.90034157591873 24.25633078732993)"><path d="M-209.03 53.97 C-219.6 52.8, -231.5 51.08, -238.19 47.79 M-207.73 53.22 C-216.7 52.44, -227.36 51.91, -236.57 48.67" stroke="#FFFFFF" stroke-width="2" fill="none"></path></g></g><g stroke-linecap="round"><g transform="translate(335.8623962402344 237.21431996871007) rotate(0 -118.6801477721846 83.21858357936144)"><path d="M0.18 -0.62 C-39.47 27.31, -197.65 139.17, -237.21 167.06 M-1.18 1.66 C-40.95 29.26, -198.19 137.38, -237.54 165.1" stroke="#FFFFFF" stroke-width="2" fill="none"></path></g><g transform="translate(335.8623962402344 237.21431996871007) rotate(0 -118.6801477721846 83.21858357936144)"><path d="M-221.29 142.53 C-226.07 151.43, -232.9 157.57, -238.19 164.6 M-220.56 141.25 C-224.21 146.41, -229.73 153.46, -238.39 164.91" stroke="#FFFFFF" stroke-width="2" fill="none"></path></g><g transform="translate(335.8623962402344 237.21431996871007) rotate(0 -118.6801477721846 83.21858357936144)"><path d="M-209.58 159.39 C-218.5 162.23, -229.55 162.3, -238.19 164.6 M-208.85 158.1 C-215.6 158.62, -224.31 161.07, -238.39 164.91" stroke="#FFFFFF" stroke-width="2" fill="none"></path></g></g><g transform="translate(528.5354208709497 432.23274851278717) rotate(0 14.180476833108344 -5.454071075123721)" stroke="none" fill="#FFFFFF"><path d="M -5.6026600819756 -9.697144878480502 Q -5.6026600819756 -9.697144878480502 -5.455242402931518 -10.226843115529496 -5.307824723887435 -10.75654135257849 -5.455242402931518 -10.226843115529496 -5.6026600819756 -9.697144878480502 -5.455242402931518 -10.226843115529496 -5.307824723887435 -10.75654135257849 -4.8772125043667405 -11.098426290572277 -4.446600284846045 -11.440311228566065 -3.897272756734612 -11.463794441432672 -3.3479452286231792 -11.487277654299278 -3.0034909228735307 -11.712469929423495 -2.6590366171238826 -11.93766220454771 -0.2928294898120989 -12.93593048032881 2.073377637499685 -13.934198756109911 7.215454615788685 -14.991216243640087 12.357531594077685 -16.048233731170264 16.664561400867154 -16.2671536644242 20.971591207656623 -16.486073597678136 24.422558564355537 -16.049859255981303 27.87352592105445 -15.613644914284468 30.880162121267837 -14.178825713846535 33.88679832148122 -12.744006513408605 35.68337583418485 -10.499910413626491 37.47995334688848 -8.255814313844377 37.94105921028412 -6.033581584157733 38.40216507367977 -3.811348854471088 37.847519114496954 -1.8805507567535644 37.29287315531414 0.050247340963959 35.61686449667488 1.5342903016736096 33.94085583803561 3.01833326238326 31.604006018232575 3.8849843530166246 29.26715619842954 4.751635443649989 26.242995558868316 5.0430205102205345 23.21883491930709 5.33440557679108 20.42331712110481 4.933014220249181 17.627799322902533 4.53162286370728 15.089244290350871 3.862683261523387 12.55068925779921 3.1937436593394937 9.8381543561539 2.530931977882154 7.125619454508589 1.8681202964248147 4.71694068773701 1.542986980792901 2.30826192096543 1.2178536651609875 -0.3782287070701311 0.6902659703730976 -3.0647193351056923 0.16267827558520764 -4.818745619201979 -0.37687435919541035 -6.572771903298267 -0.9164269939760283 -7.882415777657483 -2.026314321562156 -9.192059652016699 -3.1362016491482843 -9.473374644145979 -5.040350099108576 -9.754689636275259 -6.944498549068868 -8.622261515711774 -8.678712637636488 -7.489833395148288 -10.412926726204109 -6.006953000907771 -11.274190063702012 -4.5240726066672545 -12.135453401199914 -2.021708547318636 -12.473006641197479 0.4806555120299827 -12.810559881195042 1.1892020543100967 -12.878422167352802 1.8977485965902108 -12.946284453510565 2.369123547484052 -12.41294671049073 2.8404984983778934 -11.879608967470894 2.6860864449687565 -11.184770561637109 2.5316743915596196 -10.489932155803322 1.8787771851256019 -10.206438363472135 1.2258799786915844 -9.922944571140945 0.612765333690981 -10.284516036477257 -0.0003493113096224576 -10.646087501813568 -0.06821159746738437 -11.354634044093682 -0.13607388362514627 -12.063180586373797 0.397263859394689 -12.534555537267638 0.9306016024145243 -13.005930488161479 1.6254400082483098 -12.851518434752343 2.3202784140820953 -12.697106381343207 2.603772206413284 -12.044209174909188 2.887265998744473 -11.39131196847517 2.5256945334081635 -10.778197323474568 2.1641230680718535 -10.165082678473965 -0.7746508895003188 -9.184359627402864 -3.713424847072491 -8.203636576331764 -4.346358056124828 -6.553741231699904 -4.979291265177164 -4.903845887068044 -3.6362978751941486 -4.131154371726486 -2.2933044852111335 -3.358462856384927 0.2214540708576873 -2.814543398868455 2.736212626926508 -2.2706239413519835 5.321525205848138 -1.886669929856759 7.906837784769767 -1.5027159183615346 10.681245288140085 -0.825530106677236 13.455652791510403 -0.14834429499293744 15.852184952794069 0.46933928961910454 18.248717114077735 1.0870228742311465 20.609639181393632 1.4442723077374762 22.970561248709526 1.801521741243806 25.511958744733334 1.5503728114962003 28.053356240757143 1.2992238817485946 29.950728405548865 0.6553911158532041 31.848100570340584 0.011558349957813518 33.085930105056065 -1.5902999427028208 34.32375963977154 -3.192158235363455 34.374578416039455 -4.771573292593981 34.42539719230737 -6.350988349824507 33.27165883341499 -7.9837432571262745 32.11792047452261 -9.616498164428041 29.73704379440221 -10.822420620338786 27.35616711428181 -12.02834307624953 24.210356104829113 -12.375155294673725 21.064545095376417 -12.721967513097917 17.047795390673194 -12.515056130006258 13.031045685969975 -12.3081447469146 8.234437198887365 -11.381723570371989 3.4378287118047552 -10.45530239382938 -0.26338561652629866 -10.100329182647375 -3.9645999448573526 -9.745355971465369 -4.783630013416476 -9.721250424972936 -5.6026600819756 -9.697144878480504 -5.455242402931518 -10.226843115529498 -5.307824723887435 -10.75654135257849 -4.8772125043667405 -11.098426290572277 -4.446600284846045 -11.440311228566065 -3.897272756734612 -11.463794441432672 -3.347945228623179 -11.487277654299278 -2.700353032451388 -10.671619864359194 -2.052760836279597 -9.855962074419109 -1.8973604798418544 -9.439168805189327 -1.741960123404112 -9.022375535959545 -1.8612235310220862 -8.593840660296461 -1.9804869386400605 -8.165305784633375 -2.3288595422178187 -7.888715059675575 -2.6772321457955766 -7.612124334717775 -3.1216474515157073 -7.593126016426166 -3.566062757235838 -7.574127698134557 -4.5843614196057185 -8.63563628830753 Z"></path></g><g transform="translate(529.342618351831 433.5689608384734) rotate(0 -7.613855150697248 18.23283850652271)" stroke="none" fill="#FFFFFF"><path d="M -8.802853916770909 -3.7005107336316128 Q -8.802853916770909 -3.7005107336316128 -8.469031062064401 -4.176104510414637 -8.135208207357893 -4.651698287197663 -8.469031062064401 -4.176104510414637 -8.802853916770909 -3.7005107336316128 -8.469031062064401 -4.176104510414637 -8.135208207357893 -4.651698287197663 -7.585592836714429 -4.840245584159438 -7.035977466070966 -5.028792881121213 -6.480503970336978 -4.858275039309259 -5.925030474602989 -4.687757197497304 -5.80129389493316 -4.05944821622874 -5.677557315263331 -3.431139234960176 -5.292221810231972 -0.29973958082124175 -4.906886305200613 2.8316600733176926 -4.949871043148414 8.313922995114154 -4.992855781096214 13.796185916910614 -5.313061056689756 20.432871452529685 -5.633266332283298 27.069556988148754 -5.847421610229301 31.76077271724039 -6.0615768881753045 36.451988446332024 -6.342293677229732 38.67166443388602 -6.623010466284159 40.89134042144001 -7.181172525433114 41.294152864526225 -7.7393345845820685 41.69696530761244 -8.427664389534865 41.69476799285792 -9.11599419448766 41.6925706781034 -9.671573155221914 41.28620290506039 -10.227152115956166 40.87983513201739 -10.16594876980394 39.71771426014322 -10.104745423651714 38.555593388269045 -9.721547591852499 37.80298878345131 -9.338349760053285 37.050384178633585 -8.50424181046887 36.918027849247515 -7.670133860884455 36.785671519861445 -7.072778989512402 37.38268192775778 -6.47542411814035 37.979692335654114 -6.607299300169647 38.813876491493346 -6.739174482198943 39.64806064733258 -7.491557927851407 40.031692528432934 -8.243941373503871 40.41532440953329 -8.996545978321603 40.032126577734076 -9.749150583139333 39.64892874593487 -9.881506912525403 38.814820796350446 -10.013863241911473 37.98071284676603 -9.416852834015138 37.38335797539398 -8.819842426118802 36.78600310402193 -7.985658270279569 36.91787828605123 -7.151474114440337 37.049753468080524 -6.76784223333998 37.80213691373298 -6.384210352239624 38.55452035938544 -6.503610409261892 39.72293039041273 -6.62301046628416 40.89134042144001 -7.181172525433114 41.294152864526225 -7.7393345845820685 41.69696530761244 -8.427664389534863 41.69476799285792 -9.115994194487659 41.6925706781034 -9.671573155221912 41.28620290506039 -10.227152115956166 40.87983513201739 -10.44559999030223 38.566692933461034 -10.664047864648293 36.25355073490468 -10.387407148034765 31.53637138070851 -10.110766431421238 26.819192026512336 -9.743982171263973 20.2767808656885 -9.377197911106705 13.734369704864669 -9.24331569883579 8.281781886073134 -9.109433486564875 2.8291940672815974 -8.990910457576238 0.06883466259182791 -8.872387428587599 -2.6915247420979416 -8.837620672679254 -3.196017737864777 -8.802853916770907 -3.7005107336316128 -8.4690310620644 -4.176104510414637 -8.135208207357893 -4.651698287197663 -7.585592836714429 -4.840245584159437 -7.035977466070967 -5.028792881121211 -6.4805039703369784 -4.858275039309257 -5.92503047460299 -4.687757197497303 -5.646388211667281 -3.3140082534015294 -5.367745948731571 -1.9402593093057554 -5.3600775634329 -1.4702369405633458 -5.352409178134229 -1.0002145718209363 -5.622477540702553 -0.6154511239845037 -5.892545903270876 -0.23068767614807117 -6.337194078491124 -0.07814970866253568 -6.781842253711372 0.07438825882299982 -7.231229751685028 -0.0635635730470101 -7.680617249658685 -0.20151540491702002 -8.241735583214798 -1.9510130692743164 Z"></path></g><g transform="translate(562.0886372452187 432.7617633575914) rotate(0 9.282771030139486 19.040035987404337)" stroke="none" fill="#FFFFFF"><path d="M 0.7286315546765049 -4.870867460299275 Q 0.7286315546765049 -4.870867460299275 1.3174255025676744 -4.966838428183392 1.9062194504588441 -5.06280939606751 1.3174255025676744 -4.966838428183392 0.7286315546765049 -4.870867460299275 1.3174255025676744 -4.966838428183392 1.9062194504588441 -5.06280939606751 2.4389740800584363 -4.794367140842882 2.971728709658029 -4.525924885618252 3.2449498601228606 -3.995605224764011 3.518171010587692 -3.4652855639097693 3.616619531216672 -3.1358870451290155 3.715068051845652 -2.8064885263482617 4.746802712733383 0.8712865659961708 5.7785373736211145 4.549061658340603 8.698889704485318 14.26671089170981 11.61924203534952 23.984360125079018 14.153121223434816 29.628674917218298 16.68700041152011 35.272989709357574 18.24067388941063 38.26402586981217 19.794347367301153 41.255062030266764 19.56681437541121 41.859517876977776 19.339281383521264 42.46397372368879 18.799913093942628 42.8192482389844 18.26054480436399 43.17452275428002 17.615361571261808 43.144913148653956 16.970178338159624 43.1153035430279 17.02969992336368 42.64197237894446 17.089221508567732 42.168641214861026 17.3206380650335 40.3506805937846 17.552054621499266 38.53271997270817 18.243245169903947 38.369356404375125 18.934435718308627 38.205992836042086 19.47287123222801 38.66915503982477 20.011306746147394 39.13231724360747 19.95308510652738 39.840160637546006 19.894863466907363 40.54800403148454 19.287984310722116 40.916961643481294 18.681105154536866 41.28591925547805 18.0258975582981 41.011811547644996 17.370689962059338 40.73770383981194 17.207326393726294 40.046513291407265 17.04396282539325 39.35532274300258 17.50712502917594 38.81688722908319 17.97028723295863 38.27845171516381 18.678130626897165 38.33667335478383 19.3859740208357 38.39489499440384 19.75493163283246 39.00177415058909 20.123889244829215 39.60865330677434 19.84978153699616 40.26386090301311 19.57567382916311 40.91906849925187 19.685010598232132 41.08706526475932 19.794347367301153 41.255062030266764 19.56681437541121 41.859517876977776 19.339281383521264 42.46397372368879 18.799913093942628 42.8192482389844 18.26054480436399 43.17452275428002 17.615361571261808 43.144913148653956 16.970178338159624 43.1153035430279 14.835431871116068 40.19862037712433 12.700685404072512 37.281937211220765 10.046172956515116 31.297408166218837 7.39166050895772 25.312879121216906 4.564529805113398 15.446061239090287 1.7373991012690748 5.579243356963668 1.1838396388416235 0.9837319737907526 0.6302801764141721 -3.611779409382163 0.6794558655453387 -4.241323434840719 0.7286315546765052 -4.870867460299276 1.3174255025676747 -4.966838428183394 1.9062194504588443 -5.062809396067511 2.4389740800584367 -4.794367140842882 2.9717287096580294 -4.525924885618252 3.244949860122861 -3.9956052247640104 3.518171010587692 -3.465285563909769 2.809306126604834 -2.144097860110927 2.100441242621976 -0.8229101563120848 1.3931730432973557 0.23238310074223129 0.6859048439727355 1.2876763577965473 0.02557435833707017 1.2959859705387797 -0.6347561272985952 1.3042955832810121 -1.1738589799038563 0.9228856801103817 -1.7129618325091174 0.5414757769397512 -1.9249180858207895 -0.08396802277836735 -2.1368743391324614 -0.7094118224964859 -1.9407239085135681 -1.339991245322653 -1.7445734778946749 -1.9705706681488202 -0.5079709616090851 -3.4207190642240475 Z"></path></g><g transform="translate(523.3431581628965 483.47341427976875) rotate(0 27.444714349977573 -9.070085470085417)" stroke="none" fill="#FFFFFF"><path d="M 56.26507984096201 -11.113482383393277 Q 56.26507984096201 -11.113482383393277 56.69274535589783 -10.52090247177194 57.12041087083365 -9.928322560150605 56.69274535589783 -10.52090247177194 56.26507984096201 -11.113482383393277 56.69274535589783 -10.52090247177194 57.12041087083365 -9.928322560150605 57.11808980746905 -9.197539858530398 57.115768744104436 -8.466757156910193 56.68434766975464 -7.876905818919563 56.25292659540484 -7.2870544809289335 55.15618967260748 -7.513675414997326 54.05945274981013 -7.740296349065719 53.4818517411494 -8.160526138801508 52.90425073248867 -8.580755928537299 52.9047184193275 -9.295049833492602 52.90518610616633 -10.009343738447907 53.483336913680176 -10.428816794982376 54.06148772119402 -10.848289851516846 54.740677070870426 -10.627116099291557 55.41986642054683 -10.405942347066269 55.64015057954081 -9.72646395102737 55.860434738534785 -9.046985554988472 55.44020494879899 -8.469384546327744 55.01997515906321 -7.891783537667016 54.3056812541079 -7.892251224505848 53.5913873491526 -7.892718911344679 53.171914292618126 -8.47086971885852 52.75244123608366 -9.04902052637236 52.97361498830895 -9.72820987604877 53.194788740534236 -10.407399225725179 53.87426713657314 -10.627683384719155 54.553745532612034 -10.847967543713132 55.40941268678702 -10.980724963553204 56.26507984096201 -11.113482383393277 56.69274535589783 -10.52090247177194 57.12041087083365 -9.928322560150605 57.11808980746905 -9.197539858530398 57.115768744104436 -8.466757156910193 56.68434766975464 -7.876905818919563 56.25292659540484 -7.2870544809289335 28.123424986313125 -7.020163629670689 -0.006076622778586227 -6.7532727784124456 -0.567775829444675 -6.9377543284439955 -1.1294750361107637 -7.122235878475546 -1.4754637056019542 -7.601643097502412 -1.8214523750931444 -8.081050316529277 -1.8195745953861553 -8.67226594133526 -1.8176968156791662 -9.263481566141243 -1.4686698347986828 -9.740681322730463 -1.1196428539181995 -10.217881079319683 27.572718493521904 -10.66568173135648 Z"></path></g><g transform="translate(540.294305261413 480.4573099162956) rotate(0 1.6143949617633666 15.336752136752153)" stroke="none" fill="#FFFFFF"><path d="M 2.1336147301914044 4.626319428053781 Q 2.1336147301914044 4.626319428053781 2.54099110197411 9.993731662024572 2.9483674737568153 15.361143895995362 2.54099110197411 9.993731662024572 2.1336147301914044 4.626319428053781 2.54099110197411 9.993731662024572 2.9483674737568153 15.361143895995362 3.0998152357456767 20.769624449213236 3.251262997734538 26.17810500243111 3.4959367797652057 27.648919754261 3.740610561795873 29.119734506090893 4.069769546226679 29.659421794263153 4.398928530657486 30.19910908243541 4.348003514075836 30.82920006692289 4.297078497494186 31.45929105141037 3.8855211053566183 31.93911239214374 3.473963713219051 32.418933732877115 3.0962406549013557 32.10854318632359 2.7185175965836605 31.79815263977006 1.939285408815394 30.464234233165556 1.1600532210471273 29.130315826561056 1.578281837019206 28.340763656967113 1.9965104529912847 27.551211487373173 2.8811001886934737 27.425478424025655 3.7656899243956627 27.299745360678134 4.3873589103736705 27.94148944954962 5.009027896351679 28.583233538421112 4.855253884180469 29.46338202413769 4.7014798720092585 30.34353050985427 3.8990386929510894 30.736463020446298 3.09659751389292 31.129395531038327 2.3070453442989787 30.71116691506625 1.5174931747050373 30.29293829909417 1.391760111357518 29.408348563391982 1.2660270480099989 28.523758827689793 1.9077711368814851 27.902089841711785 2.5495152257529714 27.280420855733777 3.4296637114695523 27.434194867904985 4.309812197186133 27.587968880076197 4.702744707778162 28.390410059134364 5.0956772183701915 29.19285123819253 4.418143890083032 29.156292872141712 3.740610561795873 29.119734506090893 4.069769546226679 29.659421794263153 4.398928530657486 30.19910908243541 4.348003514075836 30.82920006692289 4.297078497494186 31.45929105141037 3.8855211053566183 31.93911239214374 3.4739637132190504 32.418933732877115 1.7321068531398593 31.761546237272725 -0.009750006939331701 31.104158741668336 -0.6479231491252959 28.74961774467713 -1.2860962913112601 26.395076747685927 -1.3861033048799454 20.995984408894522 -1.4861103184486306 15.596892070103117 -1.6332880753771424 10.150714339187061 -1.7804658323056541 4.704536608271004 -1.8687530567770918 2.371822599189808 -1.9570402812485292 0.03910859010861145 -1.7816532899793547 -0.5397856556638386 -1.6062662987101801 -1.1186799014362887 -1.1241097418791068 -1.4839252973000987 -0.6419531850480334 -1.8491706931639087 -0.037194479465911034 -1.8612559121335137 0.5675642261162114 -1.8733411311031187 1.0639278099094025 -1.5276500302936147 1.5602913937025935 -1.1819589294841104 1.846953061946999 1.7221802492848355 Z"></path></g><g transform="translate(544.5757267638858 479.0174538659141) rotate(0 6.615744489428721 13.54781826360778)" stroke="none" fill="#FFFFFF"><path d="M -2.6713625773723146 -2.6887099594638064 Q -2.6713625773723146 -2.6887099594638064 -2.3395586922615337 -3.1098526454538598 -2.0077548071507527 -3.530995331443913 -2.3395586922615337 -3.1098526454538598 -2.6713625773723146 -2.6887099594638064 -2.3395586922615337 -3.1098526454538598 -2.0077548071507527 -3.530995331443913 -1.4917783653607046 -3.676677491145115 -0.9758019235706566 -3.822359650846317 -0.47273838847090904 -3.6369356508072985 0.030325146628838562 -3.45151165076828 0.6318395526366446 -3.565040616278318 1.2333539586444506 -3.6785695817883557 3.429802061646967 -4.191244024266887 5.626250164649484 -4.703918466745419 7.49934634002833 -5.577766414891896 9.372442515407176 -6.451614363038374 10.04986096127187 -6.293333784255541 10.727279407136564 -6.135053205472708 11.1822874522113 -5.608824955247739 11.637295497286036 -5.0825967050227705 11.69609553350691 -4.38942208910122 11.754895569727784 -3.69624747317967 11.840754998131949 -2.7369664658100454 11.926614426536112 -1.7776854584404211 12.333372396225595 2.7084873083898247 12.740130365915078 7.194660075220071 13.394406142411714 13.349123985896583 14.048681918908349 19.503587896573094 15.07339939110079 25.51338280365688 16.09811686329323 31.523177710740672 15.848955894579706 32.037754822691454 15.599794925866183 32.55233193464223 15.095758630270096 32.82218042027007 14.591722334674008 33.09202890589792 14.025335445549477 33.01407581550568 13.458948556424943 32.93612272511344 13.36334759905926 32.50149568351094 13.267746641693577 32.06686864190844 12.982104727277036 30.636620198953302 12.696462812860494 29.206371755998163 13.029583240182664 28.567171844296965 13.362703667504835 27.92797193259577 14.075630533291406 27.821759738108234 14.788557399077979 27.7155475436207 15.293532767100693 28.229887532255113 15.798508135123408 28.744227520889524 15.679215417526267 29.45508263534423 15.559922699929126 30.165937749798935 14.91471033168743 30.48725806675083 14.269497963445737 30.808578383702724 13.630298051744541 30.475457956380552 12.991098140043345 30.142337529058384 12.88488594555581 29.429410663271813 12.778673751068276 28.716483797485242 13.293013739702687 28.211508429462526 13.807353728337098 27.706533061439814 14.518208842791804 27.825825779036954 15.229063957246508 27.945118496634095 15.550384274198404 28.59033086487579 15.8717045911503 29.23554323311748 15.984910727221767 30.379360471929076 16.09811686329323 31.523177710740672 15.848955894579706 32.037754822691454 15.599794925866183 32.55233193464223 15.095758630270096 32.82218042027007 14.591722334674008 33.09202890589792 14.025335445549477 33.01407581550568 13.458948556424943 32.93612272511344 12.219452644241517 31.06338241676361 10.979956732058092 29.19064210841378 10.075441818000332 24.607392316274876 9.170926903942572 20.024142524135975 8.572871257358312 13.787224898570999 7.974815610774052 7.550307273006023 7.688161535511004 3.0798483951483835 7.401507460247954 -1.3906104827092565 8.127306715262556 -3.5260378100146297 8.853105970277156 -5.661465137320003 9.112774242842166 -6.056539750179188 9.372442515407176 -6.451614363038373 10.049860961271868 -6.293333784255541 10.727279407136562 -6.135053205472708 11.182287452211298 -5.60882495524774 11.637295497286036 -5.082596705022771 11.69609553350691 -4.38942208910122 11.754895569727784 -3.69624747317967 8.785011940053788 -1.921512075909133 5.815128310379792 -0.14677667863859623 3.7135301637241027 -0.0843698040178601 1.6119320170684137 -0.021962929397123965 -0.12892801745101068 -1.0277936992985957 -1.869788051970435 -2.0336244692000673 -2.2705753146713747 -2.361167214331937 -2.6713625773723146 -2.6887099594638073 -2.3395586922615337 -3.10985264545386 -2.0077548071507523 -3.530995331443913 -1.4917783653607044 -3.676677491145115 -0.9758019235706565 -3.822359650846317 -0.4727383884709089 -3.6369356508072985 0.030325146628838784 -3.45151165076828 0.4592062559324277 -1.932502396764142 0.8880873652360166 -0.41349314276000354 0.8711841509316359 0.019930447282170805 0.8542809366272552 0.45335403732434515 0.5858459547730007 0.7940656273470102 0.31741097291874626 1.1347772173696753 -0.1000227371865183 1.2526365603451928 -0.5174564472917829 1.3704959033207103 -0.9244433964378165 1.2204847361241635 -1.33143034558385 1.0704735689276168 -2.001396461478082 -0.8091181952680948 Z"></path></g><g transform="translate(542.7158977040573 512.1834457687473) rotate(0 9.282771030139429 -0.649032838506372)" stroke="none" fill="#FFFFFF"><path d="M 19.98761149902976 -2.0725276284805947 Q 19.98761149902976 -2.0725276284805947 20.371040701599817 -1.438021768277609 20.75446990416987 -0.8035159080746237 20.371040701599817 -1.438021768277609 19.98761149902976 -2.0725276284805947 20.371040701599817 -1.438021768277609 20.75446990416987 -0.8035159080746237 20.69171745806821 -0.06481585357097319 20.628965011966557 0.6738842009326773 20.144000218726823 1.2346201364079978 19.659035425487094 1.7953560718833184 19.11462333642381 1.7261487565406202 18.570211247360533 1.656941441197922 16.539989746925123 1.3999836521954303 14.509768246489717 1.1430258631929386 12.779106851015552 0.9885195797021868 11.048445455541389 0.8340132962114352 10.49489190035763 0.43737737661464726 9.941338345173872 0.04074145701785936 9.936852928616128 -0.6402295204909265 9.932367512058384 -1.3212004979997123 10.480648143836081 -1.725093974040632 11.028928775613778 -2.1289874500815515 11.677956731124583 -1.9228217300007573 12.326984686635388 -1.716656009919963 12.541682176007264 -1.0704001942955457 12.75637966537914 -0.4241443786711285 12.359743745782351 0.12940917651263004 11.963107826185563 0.6829627316963885 11.282136848676778 0.6874481482541328 10.601165871167993 0.6919335648118771 10.197272395127072 0.14365293303418053 9.793378919086154 -0.404627698743516 9.999544639166947 -1.0536556542543218 10.20571035924774 -1.7026836097651277 10.851966174872157 -1.9173810991370037 11.498221990496573 -2.1320785885088798 13.269977181040204 -2.248569039163117 15.041732371583837 -2.3650594898173543 16.99895354494119 -2.2645916585347567 18.956174718298545 -2.1641238272521597 19.471893108664155 -2.118325727866377 19.98761149902976 -2.0725276284805942 20.371040701599817 -1.438021768277609 20.75446990416987 -0.8035159080746241 20.69171745806821 -0.06481585357097353 20.628965011966557 0.6738842009326771 20.144000218726823 1.2346201364079978 19.659035425487094 1.7953560718833188 9.74737369435788 1.5401325417794565 -0.16428803677133352 1.2849090116755941 -0.7169711744100062 1.051950955478545 -1.269654312048679 0.8189928992814958 -1.5798550530674864 0.30566687534678594 -1.8900557940862939 -0.2076591485879239 -1.8392879987514554 -0.8052800464270771 -1.788520203416617 -1.4029009442662304 -1.396175444012143 -1.8565458454224988 -1.003830684607669 -2.310190746578767 9.491890407211045 -2.191359187529681 Z"></path></g><g stroke-linecap="round"><g transform="translate(539.6015477265496 346.9695906180504) rotate(0 1.8096335526164467 34.27384992345776)"><path d="M0.54 -0.08 C0.86 11.18, 2.58 57.25, 3.08 68.63" stroke="#FFFFFF" stroke-width="1.5" fill="none" stroke-dasharray="8 9"></path></g></g></svg>
