<?xml version="1.0" encoding="UTF-8"?>
<!DOCTYPE svg PUBLIC "-//W3C//DTD SVG 1.1//EN" "http://www.w3.org/Graphics/SVG/1.1/DTD/svg11.dtd">
<svg version="1.1" xmlns="http://www.w3.org/2000/svg" xmlns:xlink="http://www.w3.org/1999/xlink" x="0" y="0" width="260" height="220" viewBox="0, 0, 260, 220">
  <g id="Layer_1">
    <g>
      <path d="M52.259,106.722 L82.259,106.722 L82.259,148.722 L52.259,148.722 L52.259,109.722 L52.259,106.722 z M45.79,176.494 C51.029,175.774 52.04,171.039 51.652,164.978 L83.012,164.978 C82.675,172.192 84.217,176.185 88.874,176.01 L93.663,176.01 L93.663,207.914 L40.511,207.914 L40.511,176.494 L45.79,176.494 L45.79,176.494 z M98.452,209.427 L98.452,174.631" fill="currentColor"/>
      <path d="M31.259,207.369 L31.259,172.573 C31.259,171.009 32.535,169.722 34.088,169.722 L34.088,169.722 C35.64,169.722 36.916,171.009 36.916,172.573 L36.916,207.369 C36.916,208.933 35.64,210.22 34.088,210.22 L34.088,210.22 C32.525,210.22 31.259,208.933 31.259,207.369 L31.259,207.369 z" fill="currentColor"/>
      <path d="M109.072,176.669 L129.741,176.669" fill="currentColor"/>
      <path d="M129.741,176.669 L129.741,205.722" fill="currentColor"/>
      <path d="M129.741,205.722 L129.741,208.007" fill="currentColor"/>
      <path d="M129.741,208.007 L109.072,208.007 L109.072,208.007 M4.259,207.904 L4.259,176.566 L25.081,176.566 L25.081,207.904 L4.259,207.904 L4.259,207.904 M49.793,154.666 L84.319,154.666 C85.871,154.666 87.148,155.952 87.148,157.516 L87.148,157.516 C87.148,159.081 85.871,160.367 84.319,160.367 L49.793,160.367 C48.241,160.367 46.965,159.081 46.965,157.516 L46.965,157.516 C46.965,155.942 48.231,154.666 49.793,154.666 L49.793,154.666 z" fill="currentColor"/>
      <path d="M82.259,109.722 L52.259,109.722 L52.259,70.722 L82.389,70.47 L82.259,109.722 L82.259,109.722 z M88.21,43.506 C82.971,44.226 81.96,48.961 82.348,55.022 L50.988,55.022 C51.325,47.808 49.783,43.815 45.126,43.99 L40.337,43.99 L40.337,12.086 L93.489,12.086 L93.489,43.506 L88.21,43.506 L88.21,43.506 z M35.548,10.573 L35.548,45.369 C35.548,46.933 34.271,48.22 32.719,48.22 L32.719,48.22 C31.167,48.22 29.89,46.933 29.89,45.369 L29.89,10.573 C29.89,9.009 31.167,7.722 32.719,7.722 L32.719,7.722 C34.282,7.722 35.548,9.009 35.548,10.573 L35.548,10.573 z M103.967,10.573 L103.967,45.369 C103.967,46.933 102.69,48.22 101.138,48.22 L101.138,48.22 C99.586,48.22 98.309,46.933 98.309,45.369 L98.309,10.573 C98.309,9.009 99.586,7.722 101.138,7.722 L101.138,7.722 C102.7,7.722 103.967,9.009 103.967,10.573 L103.967,10.573 z M24.928,11.993 L24.928,43.331 L4.259,43.331 L4.259,11.993 L24.928,11.993 L24.928,11.993 z M130.259,10.722 L130.259,43.722 L109.259,43.722 L109.259,10.722 L130.259,10.722 L130.259,10.722 z M84.207,65.334 L49.681,65.334 C48.129,65.334 46.852,64.048 46.852,62.484 L46.852,62.484 C46.852,60.919 48.129,59.633 49.681,59.633 L84.207,59.633 C85.759,59.633 87.035,60.919 87.035,62.484 L87.035,62.484 C87.035,64.058 85.769,65.334 84.207,65.334 L84.207,65.334 z" fill="currentColor"/>
      <path d="M178.259,106.722 L208.259,106.722 L208.259,148.722 L178.259,148.722 L178.259,109.722 L178.259,106.722 z M171.79,176.494 C177.029,175.774 178.04,171.039 177.652,164.978 L209.012,164.978 C208.675,172.192 210.217,176.185 214.874,176.01 L219.663,176.01 L219.663,207.914 L166.511,207.914 L166.511,176.494 L171.79,176.494 L171.79,176.494 z M224.452,209.427 L224.452,174.631 C224.452,173.067 225.729,171.78 227.281,171.78 L227.281,171.78 C228.833,171.78 230.11,173.067 230.11,174.631 L230.11,209.427 C230.11,210.991 228.833,212.278 227.281,212.278 L227.281,212.278 C225.718,212.278 224.452,210.991 224.452,209.427 L224.452,209.427 z" fill="currentColor"/>
      <path d="M235.072,208.007 L235.072,176.669 L255.741,176.669 L255.741,208.007 L235.072,208.007 L235.072,208.007 z" fill="currentColor"/>
      <path d="M130.259,176.566 L151.081,176.566" fill="currentColor"/>
      <path d="M151.081,176.566 L151.081,207.904" fill="currentColor"/>
      <path d="M151.081,207.904 L130.259,207.904 L130.259,207.904 M175.793,154.666 L210.319,154.666 C211.871,154.666 213.148,155.952 213.148,157.516 L213.148,157.516 C213.148,159.081 211.871,160.367 210.319,160.367 L175.793,160.367 C174.241,160.367 172.965,159.081 172.965,157.516 L172.965,157.516 C172.965,155.942 174.231,154.666 175.793,154.666 L175.793,154.666 z" fill="currentColor"/>
      <path d="M208.259,109.722 L178.259,109.722 L178.259,70.722 L208.259,70.722 L208.259,109.722 L208.259,109.722 z M214.21,43.506 C208.971,44.226 207.96,48.961 208.348,55.022 L176.988,55.022 C177.325,47.808 175.783,43.815 171.126,43.99 L166.337,43.99 L166.337,12.086 L219.489,12.086 L219.489,43.506 L214.21,43.506 L214.21,43.506 z M161.548,10.573 L161.548,45.369 C161.548,46.933 160.271,48.22 158.719,48.22 L158.719,48.22 C157.167,48.22 155.89,46.933 155.89,45.369 L155.89,10.573 C155.89,9.009 157.167,7.722 158.719,7.722 L158.719,7.722 C160.282,7.722 161.548,9.009 161.548,10.573 L161.548,10.573 z M229.967,10.573 L229.967,45.369 C229.967,46.933 228.69,48.22 227.138,48.22 L227.138,48.22 C225.586,48.22 224.309,46.933 224.309,45.369 L224.309,10.573 C224.309,9.009 225.586,7.722 227.138,7.722 L227.138,7.722 C228.7,7.722 229.967,9.009 229.967,10.573 L229.967,10.573 z M151.259,10.722 L151.259,43.722 L127.259,43.722 L127.259,10.722 L151.259,10.722 L151.259,10.722 z M255.741,12.096 L255.741,43.434 L234.919,43.434 L234.919,12.096 L255.741,12.096 L255.741,12.096 z M210.207,65.334 L175.681,65.334 C174.129,65.334 172.852,64.048 172.852,62.484 L172.852,62.484 C172.852,60.919 174.129,59.633 175.681,59.633 L210.207,59.633 C211.759,59.633 213.035,60.919 213.035,62.484 L213.035,62.484 C213.035,64.058 211.769,65.334 210.207,65.334 L210.207,65.334 z" fill="currentColor"/>
      <path d="M130.259,208.722 L130.259,208.722 L130.259,208.722 z" fill="currentColor"/>
    </g>
  </g>
</svg>
