<svg version="1.1" xmlns="http://www.w3.org/2000/svg" viewBox="0 0 1548.7142857142856 766" width="1548.7142857142856" height="766">
  <!-- svg-source:excalidraw -->

  <defs>
    <style>
      @font-face {
        font-family: "Virgil";
        src: url("https://excalidraw.com/Virgil.woff2");
      }
      @font-face {
        font-family: "Cascadia";
        src: url("https://excalidraw.com/Cascadia.woff2");
      }
    </style>
  </defs>
  <rect x="0" y="0" width="1548.7142857142856" height="766" fill="#111111"></rect><g transform="translate(283 346) rotate(0 337.5 23)"><text x="0" y="32" font-family="Virgil, Segoe UI Emoji" font-size="36px" fill="#FFFFFF" text-anchor="start" style="white-space: pre;" direction="ltr">Framework + Platform -&gt; Caf.js Cloud</text></g><g stroke-linecap="round" transform="translate(10 481) rotate(0 232.5 137.5)"><path d="M300.13 6.42 C321 7.89, 341.02 14.78, 359.22 21.6 C377.43 28.41, 395.09 37.39, 409.34 47.31 C423.58 57.23, 435.67 69.12, 444.71 81.1 C453.75 93.08, 460.75 106.31, 463.58 119.2 C466.41 132.08, 464.99 145.59, 461.69 158.39 C458.39 171.18, 452.92 184.42, 443.78 195.99 C434.63 207.55, 421.23 218.12, 406.81 227.77 C392.38 237.41, 375.36 247.04, 357.23 253.87 C339.09 260.7, 318.94 265.23, 298.02 268.74 C277.09 272.25, 253.49 274.9, 231.68 274.94 C209.87 274.98, 187.98 272.63, 167.16 268.98 C146.34 265.33, 125.11 259.77, 106.74 253.03 C88.37 246.28, 71.15 238.4, 56.92 228.54 C42.68 218.68, 30.53 205.66, 21.34 193.87 C12.14 182.07, 4.79 170.27, 1.76 157.78 C-1.27 145.29, -0.03 131.67, 3.17 118.92 C6.36 106.17, 12.11 93.16, 20.93 81.26 C29.76 69.36, 42.13 57.29, 56.15 47.52 C70.16 37.76, 86.64 29.7, 105.03 22.65 C123.42 15.61, 145.37 9.17, 166.5 5.25 C187.63 1.33, 210.19 -0.81, 231.81 -0.87 C253.42 -0.94, 284.28 3.6, 296.2 4.86 C308.13 6.12, 301.6 5.95, 303.36 6.7 C305.12 7.44, 307.86 7.09, 306.75 9.33 M188.58 3.65 C207.95 -0.76, 232.23 -0.71, 254.03 0.36 C275.83 1.42, 299 5.35, 319.41 10.05 C339.81 14.75, 359.4 20.86, 376.45 28.58 C393.5 36.3, 408.88 45.88, 421.7 56.35 C434.52 66.82, 446.12 78.86, 453.38 91.39 C460.64 103.92, 464.43 118.34, 465.25 131.54 C466.07 144.74, 463.45 158.1, 458.32 170.61 C453.19 183.13, 445.36 195.89, 434.47 206.63 C423.57 217.37, 408.4 226.16, 392.94 235.04 C377.48 243.92, 360.74 253.74, 341.71 259.92 C322.68 266.11, 300.34 269.55, 278.76 272.16 C257.19 274.76, 234.11 276.76, 212.27 275.54 C190.43 274.32, 168.09 269.8, 147.71 264.84 C127.33 259.88, 107.01 253.43, 89.97 245.79 C72.94 238.14, 58.42 229.15, 45.48 218.97 C32.55 208.79, 19.83 197.06, 12.35 184.7 C4.87 172.33, 1.9 157.67, 0.59 144.76 C-0.72 131.84, -0.26 119.65, 4.47 107.19 C9.2 94.73, 17.82 81.55, 28.95 69.99 C40.09 58.43, 55.49 47.04, 71.26 37.84 C87.02 28.64, 104.63 20.59, 123.54 14.81 C142.45 9.03, 173.9 5.42, 184.71 3.15 C195.51 0.88, 187.84 0.72, 188.37 1.18 C188.89 1.65, 186.97 3.46, 187.87 5.95" stroke="#d9480f" stroke-width="4" fill="none"></path></g><g transform="translate(43 537) rotate(0 206.5 69)"><text x="0" y="32" font-family="Virgil, Segoe UI Emoji" font-size="36px" fill="#FFFFFF" text-anchor="start" style="white-space: pre;" direction="ltr">* Open Source</text><text x="0" y="78" font-family="Virgil, Segoe UI Emoji" font-size="36px" fill="#FFFFFF" text-anchor="start" style="white-space: pre;" direction="ltr">* Cloud Assistants</text><text x="0" y="124" font-family="Virgil, Segoe UI Emoji" font-size="36px" fill="#FFFFFF" text-anchor="start" style="white-space: pre;" direction="ltr">* Three-way Isomorphic</text></g><g transform="translate(86 57) rotate(0 285.5 92)"><text x="0" y="32" font-family="Virgil, Segoe UI Emoji" font-size="36px" fill="#FFFFFF" text-anchor="start" style="white-space: pre;" direction="ltr">* Partly Open Source</text><text x="0" y="78" font-family="Virgil, Segoe UI Emoji" font-size="36px" fill="#FFFFFF" text-anchor="start" style="white-space: pre;" direction="ltr">* Efficient Autonomous Compute</text><text x="0" y="124" font-family="Virgil, Segoe UI Emoji" font-size="36px" fill="#FFFFFF" text-anchor="start" style="white-space: pre;" direction="ltr">* Redis Checkpointing</text><text x="0" y="170" font-family="Virgil, Segoe UI Emoji" font-size="36px" fill="#FFFFFF" text-anchor="start" style="white-space: pre;" direction="ltr">* Access Control</text></g><g stroke-linecap="round" transform="translate(14 10) rotate(0 339 141)"><path d="M289.18 0.61 C313.98 -3.07, 344.02 0.03, 371.35 1.16 C398.68 2.29, 427.28 3.77, 453.17 7.38 C479.06 10.98, 504.06 16.31, 526.67 22.8 C549.29 29.29, 570.37 37.85, 588.87 46.31 C607.37 54.77, 624.51 63.55, 637.68 73.53 C650.84 83.51, 661 95.19, 667.87 106.21 C674.74 117.22, 678.76 128.32, 678.89 139.61 C679.03 150.91, 675.27 162.93, 668.68 173.99 C662.1 185.04, 652 195.96, 639.38 205.96 C626.76 215.96, 611.06 225.35, 592.99 233.99 C574.92 242.63, 553.51 251.16, 530.96 257.78 C508.42 264.4, 483.53 269.98, 457.72 273.72 C431.91 277.46, 403.59 278.99, 376.11 280.23 C348.64 281.47, 319.89 282.68, 292.87 281.17 C265.84 279.66, 239.1 275.54, 213.96 271.17 C188.83 266.8, 164.41 261.38, 142.06 254.94 C119.71 248.5, 97.6 241.25, 79.86 232.53 C62.11 223.81, 47.49 212.76, 35.59 202.63 C23.68 192.5, 14.35 182.61, 8.43 171.75 C2.51 160.89, -0.58 148.83, 0.06 137.48 C0.7 126.13, 4.85 114.64, 12.27 103.65 C19.68 92.65, 30.95 81.63, 44.56 71.52 C58.18 61.41, 74.93 51.29, 93.95 43.01 C112.98 34.74, 135.66 27.89, 158.72 21.87 C181.77 15.85, 209.89 10.2, 232.29 6.9 C254.69 3.59, 281.93 2.68, 293.12 2.05 C304.31 1.42, 298.55 0.79, 299.44 3.14 M465.69 11.41 C491.79 13.04, 515.04 19.95, 537.13 26.2 C559.22 32.45, 580.7 39.94, 598.21 48.91 C615.73 57.89, 630.06 69.51, 642.22 80.04 C654.38 90.56, 665.39 101.39, 671.18 112.08 C676.96 122.76, 678.09 133.06, 676.95 144.17 C675.82 155.28, 671.83 167.41, 664.35 178.74 C656.87 190.07, 645.53 202.38, 632.09 212.15 C618.65 221.92, 602.32 229.13, 583.72 237.36 C565.12 245.59, 543.93 255.15, 520.51 261.54 C497.08 267.94, 469.48 272.42, 443.18 275.75 C416.89 279.07, 389.75 280.55, 362.73 281.48 C335.71 282.41, 307.9 283.32, 281.06 281.31 C254.22 279.3, 226.63 274.28, 201.7 269.4 C176.77 264.53, 152.89 258.76, 131.47 252.06 C110.04 245.35, 90.03 237.9, 73.17 229.2 C56.31 220.5, 41.53 210.62, 30.32 199.85 C19.1 189.08, 10.74 176.06, 5.88 164.57 C1.01 153.08, -0.82 142.03, 1.1 130.89 C3.02 119.75, 8.87 108.41, 17.4 97.73 C25.94 87.04, 37.8 76.57, 52.32 66.78 C66.85 56.98, 84.93 46.79, 104.54 38.96 C124.14 31.13, 146.23 25.14, 169.95 19.79 C193.67 14.45, 220.83 9.96, 246.86 6.89 C272.9 3.82, 299.21 1.79, 326.16 1.37 C353.11 0.94, 385.19 3.02, 408.56 4.34 C431.93 5.66, 457.15 7.66, 466.37 9.29 C475.58 10.92, 466.34 11.57, 463.87 14.11" stroke="#1864ab" stroke-width="4" fill="none"></path></g><g stroke-linecap="round"><g transform="translate(348 409) rotate(0 -21.163410400226695 35.929893529522246)"><path d="M1.07 0.13 C-6.05 12.08, -36.21 59.44, -43.4 71.41 M0.17 -0.85 C-6.5 11.3, -33.94 60.36, -41.05 72.71" stroke="#d9480f" stroke-width="4" fill="none"></path></g><g transform="translate(348 409) rotate(0 -21.163410400226695 35.929893529522246)"><path d="M-35.88 41.96 C-38.12 51.42, -38.47 58.06, -41.57 73.6 M-35.3 42.82 C-37.52 50.09, -39.25 55.99, -41.34 73.15" stroke="#d9480f" stroke-width="4" fill="none"></path></g><g transform="translate(348 409) rotate(0 -21.163410400226695 35.929893529522246)"><path d="M-18.02 52.07 C-24.58 59.23, -29.27 63.41, -41.57 73.6 M-17.44 52.93 C-23.73 57.76, -29.52 61.36, -41.34 73.15" stroke="#d9480f" stroke-width="4" fill="none"></path></g></g><g stroke-linecap="round"><g transform="translate(583.1482788784992 340) rotate(0 -24.777774182249914 -33.22363499014952)"><path d="M-0.53 0.33 C-8.87 -10.63, -41.91 -53.8, -50 -64.79 M1.39 -0.54 C-7.12 -11.98, -42.5 -56.1, -50.95 -66.78" stroke="#1864ab" stroke-width="4" fill="none"></path></g><g transform="translate(583.1482788784992 340) rotate(0 -24.777774182249914 -33.22363499014952)"><path d="M-24.81 -51.14 C-32.89 -54.45, -42.1 -60.11, -50.5 -68.08 M-25.85 -51.98 C-31.63 -55.36, -36.35 -57.13, -51.54 -66.67" stroke="#1864ab" stroke-width="4" fill="none"></path></g><g transform="translate(583.1482788784992 340) rotate(0 -24.777774182249914 -33.22363499014952)"><path d="M-40.86 -38.35 C-44.13 -45.51, -48.42 -55.09, -50.5 -68.08 M-41.9 -39.2 C-44.26 -45.24, -45.56 -49.72, -51.54 -66.67" stroke="#1864ab" stroke-width="4" fill="none"></path></g></g><g transform="translate(766 54) rotate(0 355 92)"><text x="0" y="32" font-family="Virgil, Segoe UI Emoji" font-size="36px" fill="#FFFFFF" text-anchor="start" style="white-space: pre;" direction="ltr">* Hybrid hosting+App Store</text><text x="0" y="78" font-family="Virgil, Segoe UI Emoji" font-size="36px" fill="#FFFFFF" text-anchor="start" style="white-space: pre;" direction="ltr">* Profit-as-you-go not pay-as-you-go</text><text x="0" y="124" font-family="Virgil, Segoe UI Emoji" font-size="36px" fill="#FFFFFF" text-anchor="start" style="white-space: pre;" direction="ltr">* Manages resources, subscriptions, and</text><text x="0" y="170" font-family="Virgil, Segoe UI Emoji" font-size="36px" fill="#FFFFFF" text-anchor="start" style="white-space: pre;" direction="ltr"> pays our bill first</text></g><g stroke-linecap="round" transform="translate(733 38) rotate(0 402.8571428571428 108.64285714285717)"><path d="M-0.76 0.04 C236.14 0.46, 473.51 0.77, 805.14 -0.4 M-0.1 -0.37 C176.88 -0.05, 353.1 -0.05, 806.04 0.05 M805.87 -0.22 C802.47 73.02, 803.59 148.6, 807.19 215.99 M805.41 -0.53 C805.49 65.2, 805.21 132.1, 805.54 217.1 M805.94 218.07 C498.83 217.66, 190.51 217.5, -0.3 218.02 M805.89 217.41 C625.23 216.92, 444.63 217.46, 0.11 217.21 M-1.43 217 C-0.06 161.85, -0.03 107.58, 0.13 0.28 M-0.6 217.08 C2.42 157.46, 1.85 98.13, 0.64 0.16" stroke="#087f5b" stroke-width="4" fill="none"></path></g><g transform="translate(724.5714285714284 516.5714285714286) rotate(0 393.5 92)"><text x="0" y="32" font-family="Virgil, Segoe UI Emoji" font-size="36px" fill="#FFFFFF" text-anchor="start" style="white-space: pre;" direction="ltr">* $0.85 per year/CA vs $144 per year/CA</text><text x="0" y="78" font-family="Virgil, Segoe UI Emoji" font-size="36px" fill="#FFFFFF" text-anchor="start" style="white-space: pre;" direction="ltr"> on Google Cloud Run + Firestore</text><text x="0" y="124" font-family="Virgil, Segoe UI Emoji" font-size="36px" fill="#FFFFFF" text-anchor="start" style="white-space: pre;" direction="ltr">* Bootstrap App with ZERO Financing or CC</text><text x="0" y="170" font-family="Virgil, Segoe UI Emoji" font-size="36px" fill="#FFFFFF" text-anchor="start" style="white-space: pre;" direction="ltr">* No App Pre-approval or Fixed Store Tax </text></g><g stroke-linecap="round" transform="translate(689.2857142857142 482.2857142857142) rotate(0 421.3571428571429 132.28571428571422)"><path d="M0.34 0.24 C189.1 -0.35, 377.99 0.72, 842.93 -0.16 M-0.33 -0.07 C215.75 -0.24, 431.63 0.08, 842.74 0.07 M841.62 -0.37 C841.75 72.63, 840.71 146.16, 843.89 264.86 M843.08 0.53 C844.46 81.16, 843.75 163.52, 843.43 264.09 M843.34 264.6 C642.48 263.85, 443.93 264.02, -0.06 264.02 M842.54 264.91 C555.67 261.93, 268.78 261.54, 0.24 264.2 M0.15 263.33 C0.67 174.14, 2.35 85.43, 0.37 -0.83 M-0.62 264.9 C1.15 172.13, 1.54 78.08, 0.79 -0.58" stroke="#087f5b" stroke-width="4" fill="none"></path></g><g stroke-linecap="round"><g transform="translate(921.7888348113786 337.80228635770044) rotate(0 106.6619365410761 -39.7159193274768)"><path d="M1.01 -0.8 C36.39 -14.12, 177.73 -67.46, 213.25 -80.83 M0.08 1.4 C35.24 -11.72, 176.75 -66.16, 212.38 -79.77" stroke="#087f5b" stroke-width="4" fill="none"></path></g><g transform="translate(921.7888348113786 337.80228635770044) rotate(0 106.6619365410761 -39.7159193274768)"><path d="M188.4 -59.84 C196.92 -66.06, 205.2 -74.98, 212.76 -81.18 M190.26 -60.32 C198.46 -67.24, 205.16 -74.37, 213.2 -78.81" stroke="#087f5b" stroke-width="4" fill="none"></path></g><g transform="translate(921.7888348113786 337.80228635770044) rotate(0 106.6619365410761 -39.7159193274768)"><path d="M181.05 -79 C192.2 -78.05, 203.26 -79.74, 212.76 -81.18 M182.91 -79.48 C193.64 -79.62, 202.96 -79.91, 213.2 -78.81" stroke="#087f5b" stroke-width="4" fill="none"></path></g></g><g stroke-linecap="round"><g transform="translate(933.2257721296426 406.2733108283288) rotate(0 100.10783084247089 36.47139546902207)"><path d="M-0.31 -0.8 C33.14 11.34, 167.21 60.12, 200.53 72.43 M1.73 1.39 C35.09 13.73, 167.08 61.56, 199.9 73.75" stroke="#087f5b" stroke-width="4" fill="none"></path></g><g transform="translate(933.2257721296426 406.2733108283288) rotate(0 100.10783084247089 36.47139546902207)"><path d="M168.56 74.71 C177.75 73.25, 187.32 72.45, 200.28 75.44 M169.92 73.79 C181.12 72.84, 191.2 73.63, 200.5 73.44" stroke="#087f5b" stroke-width="4" fill="none"></path></g><g transform="translate(933.2257721296426 406.2733108283288) rotate(0 100.10783084247089 36.47139546902207)"><path d="M175.62 55.44 C182.73 59.45, 190.3 64.14, 200.28 75.44 M176.98 54.52 C185.89 60.3, 193.53 67.75, 200.5 73.44" stroke="#087f5b" stroke-width="4" fill="none"></path></g></g><g stroke-linecap="round" transform="translate(267 341) rotate(0 101 32)"><path d="M0.88 -0.44 C64.46 -0.64, 127.15 -0.48, 200.43 -0.42 M0.48 0.39 C80.09 -0.78, 159.73 -2.25, 202.48 -0.38 M202.55 1.63 C202.49 15.17, 201.8 30.9, 203.23 64.29 M202.04 0.85 C202.91 16.69, 201.68 32.26, 201.96 63.27 M203.55 64.58 C144.32 61.45, 85.34 61.44, -0.69 63.06 M201.42 63.2 C155.8 64.33, 109.34 64.74, -0.44 63.86 M-1.54 65.2 C-0.05 47.73, 1.51 30.21, -0.32 0.99 M0.84 64.22 C-0.89 43.1, 0.49 20.29, 0 0.18" stroke="#d9480f" stroke-width="4" fill="none"></path></g><g stroke-linecap="round" transform="translate(515 340) rotate(0 82.5 32)"><path d="M1.36 0.31 C59.76 2.44, 120.32 1.55, 163.49 -0.66 M-0.73 -0.84 C49.7 0.55, 97.73 -0.34, 164.41 -0.58 M165.56 1.3 C163.38 14.95, 165.41 31.59, 165.91 63.02 M164.4 -0.16 C164.13 16.63, 164.68 31.95, 165.56 63.16 M164.89 65.82 C119.79 65.01, 69.38 65.51, 0.92 62.07 M165.75 63.53 C115.32 62.12, 66.45 62.53, -0.61 63.48 M0.84 64.74 C-0.52 42.96, -1.25 19.65, 1.23 -1.14 M-0.69 64.59 C-0.37 42.76, -1.3 23.83, 0.58 0.25" stroke="#1864ab" stroke-width="4" fill="none"></path></g><g stroke-linecap="round" transform="translate(735 341) rotate(0 119.5 31)"><path d="M1.52 1.4 C83.85 -1.44, 167.74 0.88, 237.39 0 M-0.4 -0.14 C75.52 -1.08, 151.88 -2, 238.57 0.46 M239.74 -0.34 C241.29 19.28, 240.71 41.92, 237.86 62.41 M239.59 0.17 C238.38 23.09, 239.98 48.27, 239.25 62.11 M240.61 62.19 C174.75 61.75, 106.36 62.01, 0.7 62.41 M238.51 62.27 C175.56 60.35, 113.07 60.68, 0.21 61.62 M1.29 60.64 C0.42 49.5, -2.5 36.08, -0.33 -1.9 M-0.2 62.57 C-0.03 48.07, 0.42 36.09, 0.66 0.11" stroke="#087f5b" stroke-width="4" fill="none"></path></g></svg>
