<svg version="1.1" xmlns="http://www.w3.org/2000/svg" viewBox="0 0 758.5871887207031 595.434814453125" width="758.5871887207031" height="595.434814453125">
  <!-- svg-source:excalidraw -->

  <defs>
    <style>
      @font-face {
        font-family: "Virgil";
        src: url("https://excalidraw.com/Virgil.woff2");
      }
      @font-face {
        font-family: "Cascadia";
        src: url("https://excalidraw.com/Cascadia.woff2");
      }
    </style>
  </defs>
  <rect x="0" y="0" width="758.5871887207031" height="595.434814453125" fill="#111111"></rect><g stroke-linecap="round" transform="translate(100.41290283203125 121.50370788574219) rotate(0 320.29808044433594 179.3807144165039)"><path d="M0.45 -0.98 C228.64 1.24, 458.05 -1.49, 641.33 -1.14 M0 0.33 C249.41 -4.58, 499.01 -4.48, 641.05 0.21 M642.72 -2.07 C643.54 113.42, 645.17 226.83, 642.78 359.27 M640.42 0.72 C642.45 79.47, 641.92 160.67, 640.61 358.23 M640.79 358.23 C454.03 359.89, 268.05 358.27, -0.27 360.18 M640.1 359.1 C476.01 358.87, 311.88 358.45, -0.76 359.04 M-0.79 357.46 C-1.29 276.34, -3.27 192.18, 1.12 -1.04 M-0.67 358.95 C-1.1 281.35, -2.81 205.02, -1.19 0.59" stroke="#FFFFFF" stroke-width="1" fill="none"></path></g><g stroke-linecap="round" transform="translate(382.8440856933594 188.43948364257812) rotate(0 37.577972412109375 34.64678955078125)"><path d="M29.65 -1.51 C36.8 -2.39, 46.88 2.39, 54.09 6.05 C61.3 9.71, 69.48 14.65, 72.91 20.46 C76.35 26.26, 76.87 34.12, 74.69 40.9 C72.51 47.68, 65.86 56.5, 59.84 61.16 C53.81 65.82, 45.82 68.7, 38.54 68.86 C31.25 69.02, 22.1 65.88, 16.13 62.12 C10.16 58.37, 5.27 52.95, 2.73 46.34 C0.19 39.74, -1.45 29.65, 0.88 22.49 C3.21 15.34, 9.68 7.26, 16.7 3.41 C23.72 -0.43, 37.61 -0.7, 43 -0.6 C48.39 -0.49, 49.59 3.42, 49.05 4.05 M26.06 2.88 C32.85 -0.42, 43.45 -2.72, 50.77 -1.2 C58.09 0.33, 65.58 5.96, 69.96 12.02 C74.35 18.07, 78.15 27.72, 77.1 35.11 C76.05 42.51, 69.27 50.76, 63.65 56.38 C58.03 62, 50.16 67.54, 43.39 68.82 C36.62 70.09, 29.62 66.9, 23.03 64.02 C16.44 61.14, 8.07 57.09, 3.85 51.53 C-0.38 45.98, -3.54 37.39, -2.33 30.7 C-1.11 24, 6.52 16.08, 11.12 11.38 C15.72 6.68, 22.96 4.17, 25.28 2.49 C27.59 0.81, 25.1 0.96, 25.03 1.28" stroke="#FFFFFF" stroke-width="2" fill="none"></path></g><g stroke-linecap="round"><g transform="translate(415.86950935046127 226.11327487568792) rotate(0 7.221791743387541 -11.577433272422411)"><path d="M0.36 -1.19 C3.11 -4.83, 13.02 -18.62, 15.35 -22.37 M-0.91 0.81 C1.81 -3.11, 11.57 -20.07, 14.53 -23.96" stroke="#FFFFFF" stroke-width="1" fill="none"></path></g></g><g stroke-linecap="round"><g transform="translate(416.37061583369564 228.84646516556109) rotate(359.9680418032372 7.899289379691368 -1.1484448116031416)"><path d="M0.21 -0.36 C3.15 -0.56, 14.28 -1.89, 16.94 -1.94 M-1.14 -1.59 C1.77 -1.57, 13.63 -0.51, 16.39 -0.66" stroke="#FFFFFF" stroke-width="1" fill="none"></path></g></g><g stroke-linecap="round"><g transform="translate(118.49735308688287 156.57856408581185) rotate(0 19.478353727915703 0.32460316257780164)"><path d="M-0.45 -0.62 C5.97 -0.83, 32.84 -1.03, 39.41 -1.01 M1.51 1.66 C7.81 1.64, 32.9 1.23, 39.08 0.51" stroke="#ff0000" stroke-width="1" fill="none"></path></g></g><g stroke-linecap="round"><g transform="translate(119.67382367511823 171.48052487012558) rotate(0 19.27035124407095 -0.9064700001595014)"><path d="M-0.71 0.33 C5.9 -0.19, 32.91 -1.86, 39.25 -2.14 M1.12 -0.54 C7.7 -1.05, 32.4 -1.26, 38.83 -1.21" stroke="#ff0000" stroke-width="1" fill="none"></path></g></g><g stroke-linecap="round"><g transform="translate(119.86990210649071 184.42170134071384) rotate(0 19.10923723170481 -0.44867181719517646)"><path d="M0.33 1.01 C6.35 0.81, 30.82 -1.68, 37.07 -1.91 M-0.96 0.5 C5.32 0.48, 32.87 -0.38, 39.18 -0.86" stroke="#ff0000" stroke-width="1" fill="none"></path></g></g><g transform="translate(432.2228432829613 324.22562290934127) rotate(0 1.9607843137255259 22.54901960784315)" stroke="none" fill="#FFFFFF"><path d="M -2.74942988245839 -1.1389999062041463 Q -2.74942988245839 -1.1389999062041463 -3.7907084669387148 -1.3347317945660255 -4.8319870514190395 -1.5304636829279048 -3.7907084669387148 -1.3347317945660255 -2.74942988245839 -1.1389999062041463 -3.7907084669387148 -1.3347317945660255 -4.8319870514190395 -1.5304636829279048 -6.473778028640698 -1.3897602290903937 -8.115569005862357 -1.2490567752528827 -9.6710018089863 -1.2506441200733194 -11.226434612110246 -1.252231464893756 -12.886646109446195 -1.2463321355681307 -14.546857606782144 -1.2404328062425054 -16.481606992437705 -0.933007481677502 -18.41635637809327 -0.6255821571124986 -20.78697732978937 0.739782711906861 -23.15759828148547 2.1051475809262206 -24.905853414980566 3.9318206005368186 -26.654108548475662 5.758493620147417 -27.881589154446495 7.533030681816372 -29.109069760417324 9.307567743485329 -29.93726453681461 11.129771486176756 -30.765459313211892 12.951975228868182 -31.250632355534783 14.687475643305225 -31.735805397857675 16.422976057742268 -32.122217735054846 18.023306785089066 -32.508630072252025 19.623637512435863 -32.41773877195509 21.277648226944322 -32.32684747165815 22.931658941452778 -31.798509138663235 24.925885788749234 -31.27017080566832 26.920112636045687 -30.353641160014295 29.47065221665582 -29.437111514360268 32.021191797265956 -28.503536415411062 33.851740637035 -27.569961316461853 35.682289476804044 -26.415720837320734 37.229505543131054 -25.26148035817961 38.77672160945806 -23.23562708369736 40.61904792702712 -21.209773809215108 42.46137424459618 -18.611068977264193 44.00467455722398 -16.012364145313278 45.54797486985177 -13.556673671593419 46.43080438228988 -11.10098319787356 47.313633894727985 -9.402847971305372 47.841266236079036 -7.704712744737183 48.368898577430095 -5.928631949932248 48.84875128458948 -4.152551155127313 49.328603991748864 -2.4441646670549697 49.713478942656764 -0.735778178982627 50.09835389356467 1.3006127554123479 50.110842365051134 3.3370036898073225 50.1233308365376 5.447643879850396 50.124497293051725 7.558284069893469 50.12566374956585 9.96372715404161 50.12503026546852 12.369170238189751 50.12439678137118 14.77495301046783 50.019302633845534 17.180735782745906 49.914208486319886 19.32711183394276 49.58700102951897 21.47348788513961 49.25979357271805 23.19504124114965 49.08499597055327 24.91659459715969 48.91019836838849 26.656448919071394 47.92550878666322 28.3963032409831 46.94081920493795 30.28087750718706 44.74930264600734 32.16545177339102 42.55778608707672 32.9827083692861 41.156296707807925 33.799964965181175 39.75480732853912 34.259568314005236 38.05045786757364 34.7191716628293 36.34610840660815 35.11176627545585 34.44324637209628 35.504360888082395 32.54038433758442 35.651432749999785 30.682595351629747 35.798504611917174 28.824806365675073 35.93323529450787 26.449478107925145 36.06796597709857 24.074149850175218 35.20660480105381 21.2300754763107 34.34524362500905 18.38600110244618 33.53149875043469 16.143245168458733 32.71775387586034 13.900489234471284 32.06994284175209 11.990598433140217 31.422131807643833 10.08070763180915 30.46162510732989 8.665377463267975 29.501118407015948 7.2500472947268 28.19249102076415 5.470055916641508 26.88386363451236 3.6900645385562165 25.665005115492235 2.2057473704354034 24.446146596472108 0.72143020231459 22.800342512435023 -0.5981723605096552 21.154538428397938 -1.9177749233339003 19.35440201954419 -3.177897712798473 17.554265610690443 -4.438020502263045 15.414490265884432 -4.7517635608868956 13.27471492107842 -5.065506619510746 11.358355874474555 -5.061945951010708 9.441996827870687 -5.05838528251067 6.883842704322056 -5.0533911765989314 4.325688580773425 -5.048397070687193 2.4906505031797024 -4.927181761661089 0.6556124255859792 -4.805966452634985 -0.9471411241608886 -4.312490853371695 -2.5498946739077564 -3.819015254108404 -1.00829283347201 -1.7479260689311833 0.5333090069637363 0.3231631162460372 -0.03401075030730605 0.7419509999145053 -0.6013305075783484 1.1607388835829733 -1.2735992091625217 0.9479249005651312 -1.945867910746695 0.7351109175472892 -2.1688474102136257 0.06614519247980405 -2.3918269096805567 -0.6028205325876811 -1.9816863307968222 -1.1764229245374562 -1.571545751913088 -1.7500253164872313 -0.8664170851770432 -1.7553696447552762 -0.1612884184409985 -1.7607139730233212 0.2574994652274695 -1.193394215752279 0.6762873488959376 -0.6260744584812367 0.4634733658780956 0.04619424310293668 0.2506593828602537 0.71846294468711 -0.4183063422072303 0.9414424441540412 -1.0872720672747143 1.1644219436209724 -1.6608744592244906 0.7542813647372378 -2.234476851174267 0.3441407858535033 -2.2398211794423126 -0.3609878808825401 -2.2451655077103583 -1.0661165476185834 -3.9309706562209197 -3.544877466875305 -5.616775804731481 -6.023638386132027 -3.97485638468968 -6.717100707146276 -2.3329369646478786 -7.410563028160526 -0.8024979901275648 -7.912456447820166 0.727940984392749 -8.414349867479807 2.5268148105878194 -8.545721490666399 4.32568863678289 -8.67709311385299 6.883956082534901 -8.672096073304846 9.442223528286913 -8.667099032756704 11.365734107414806 -8.662035817025878 13.289244686542697 -8.656972601295049 15.017982738946461 -8.57495077847518 16.746720791350228 -8.492928955655312 18.548064222052584 -7.84731036432341 20.34940765275494 -7.2016917729915075 21.87558933594591 -5.944923724692321 23.401771019136884 -4.688155676393135 25.27971453244328 -3.0651603659133793 27.15765804574967 -1.4421650554336236 28.41943007043871 0.10566402084304372 29.68120209512775 1.653493097119711 31.00547852586971 3.4896848898850434 32.329754956611666 5.325876682650376 33.45352391644868 7.159994938744668 34.577292876285696 8.99411319483896 35.21528095458304 10.882254903510917 35.85326903288038 12.770396612182875 36.69341245030236 15.121329161525788 37.533555867724345 17.4722617108687 38.127064029106705 19.482098220620863 38.720572190489065 21.491934730373025 39.12923146412224 23.442934126182728 39.537890737755426 25.39393352199243 39.33758892905004 27.213912737618713 39.13728712034465 29.033891953245 38.977484823019495 31.09764903287946 38.81768252569434 33.161406112513916 38.442879966405926 35.17866874629648 38.06807740711752 37.19593138007905 37.453477439659835 39.32073716054532 36.83887747220216 41.44554294101158 35.81888653194842 43.19822430749121 34.79889559169469 44.95090567397084 33.464964509753614 46.41715400220574 32.13103342781254 47.883402330440646 30.293004780594956 49.44886421502811 28.454976133377368 51.01432609961558 26.866815858841015 51.7815337907512 25.278655584304662 52.54874148188681 23.69642303062645 52.71474669906673 22.11419047694823 52.88075191624665 19.73643556650979 53.229595238780846 17.358680656071346 53.57843856131503 14.863924388348728 53.687804845660054 12.369168120626108 53.79717113000507 9.963642056494418 53.796515089551505 7.55811599236273 53.79585904909795 5.443201280730399 53.79558189881368 3.3282865690980685 53.79530474852942 0.8605363452850313 53.71540238491874 -1.607213878528006 53.63550002130806 -3.3599399471379527 53.25442034952847 -5.1126660157479 52.873340677748885 -6.955631985866004 52.37131321918429 -8.798597955984109 51.86928576061969 -10.53318117468893 51.32129337798955 -12.267764393393755 50.773300995359406 -15.045270103419472 49.7279128788845 -17.82277581344519 48.6825247624096 -20.65317410910238 47.00127788850798 -23.48357240475957 45.32003101460636 -24.98515911202235 44.03882095437824 -26.486745819285133 42.75761089415012 -27.57788634449666 41.59663574813712 -28.669026869708194 40.435660602124116 -29.720066610421497 38.91626257382818 -30.771106351134797 37.39686454553223 -31.79684905599245 35.33841214771556 -32.8225917608501 33.27995974989889 -33.77298979412664 30.561871105416003 -34.72338782740317 27.843782460933113 -35.2960680047863 25.488940157177773 -35.868748182169426 23.134097853422432 -35.89990429116882 20.957486822185356 -35.931060400168214 18.78087579094828 -35.55007555978242 17.133179496464116 -35.16909071939663 15.48548320197995 -34.580060082680276 13.513920885902188 -33.99102944596393 11.542358569824426 -32.981953469731394 9.445880892902021 -31.972877493498864 7.349403215979618 -30.648303545712558 5.469524484981386 -29.32372959792625 3.589645753983154 -28.156567398667242 2.3173833346201542 -26.989405199408235 1.0451209152571543 -25.83731421718536 -0.042730971104604554 -24.685223234962486 -1.1305828574663634 -23.134530843648506 -2.167412259234792 -21.583838452334522 -3.2042416610032207 -19.81671676067264 -3.8120427262224745 -18.04959506901076 -4.419843791441728 -16.298226312904447 -4.530881962474166 -14.546857556798138 -4.641920133506604 -12.886644500000394 -4.636020453879523 -11.226431443202648 -4.6301207742524415 -9.670922423920187 -4.631685902806677 -8.115413404637726 -4.633251031360911 -6.390771415234752 -4.628571554396618 -4.6661294258317785 -4.623892077432327 -3.4738846834259616 -4.247362854033982 -2.2816399410201447 -3.870833630635638 -1.131662412267802 -3.3084260887597923 0.01831511648454076 -2.7460185468839464 0.701093807978003 -1.7747639336119234 1.3838724994714653 -0.8035093203399002 1.487869899083679 -0.3200710846955462 1.5918672986958928 0.16336715094880783 1.3918450970469314 0.6156050370845567 1.1918228953979702 1.0678429232203057 0.7641827750131519 1.3161409583439987 0.3365426546283336 1.5644389934676914 -0.15537139345843762 1.5139557675018924 -0.6472854415452088 1.4634725415360936 -1.6983576620017995 0.16223631766597368 Z"></path></g><g transform="translate(644.967941322177 60.50013271326283) rotate(0 0.00004999999998744897 0.00005#FFFFFF000165983)" stroke="none" fill="#000000"><path d="M 1.0606601717798212 -1.0606601717798212 Q 1.0606601717798212 -1.0606601717798212 1.2710963413362637 -0.6476559346700838 1.4815325108927064 -0.23465169756034632 1.2710963413362637 -0.6476559346700838 1.0606601717798212 -1.0606601717798212 1.2710963413362637 -0.6476559346700838 1.4815325108927064 -0.23465169756034632 1.409021148587629 0.22316702602448685 1.3365097862825515 0.68098574960932 1.0087477679459358 1.0087477679459358 0.6809857496093199 1.3365097862825517 0.2231670260244869 1.409021148587629 -0.2346516975603461 1.4815325108927064 -0.6476559346700835 1.271096341336264 -1.060660171779821 1.0606601717798214 -1.2710963413362637 0.6476559346700839 -1.4815325108927064 0.23465169756034643 -1.409021148587629 -0.22316702602448674 -1.3365097862825517 -0.6809857496093199 -1.008747767945936 -1.0087477679459358 -0.6809857496093205 -1.3365097862825515 -0.2231670260244879 -1.4090211485876292 0.23465169756034465 -1.4815325108927069 0.647655934670083 -1.2710963413362641 Z"></path></g><g transform="translate(422.4189217143338 376.18640722306674) rotate(0 -36.76470588235293 43.627450980392155)" stroke="none" fill="#FFFFFF"><path d="M NaN NaN Q NaN NaN NaN NaN 1.9780793856731171 -2.3997086060582404 NaN NaN NaN NaN NaN NaN 1.9780793856731171 -2.3997086060582404 2.2999350314890474 -1.970961920901434 2.6217906773049773 -1.5422152357446275 2.6301663860011337 -1.0061698791931728 2.63854209469729 -0.470124522641718 2.330238630231609 -0.03153160138671485 2.021935165765928 0.4070613198682883 1.7845118259656907 0.45331890518009715 1.5470884861654532 0.499576490491906 0.4259013910323066 1.249228433517343 -0.69528570410084 1.9988803765427796 -2.625487859313279 4.536771580531289 -4.555690014525718 7.0746627845197985 -7.279329679901239 9.911237282482386 -10.00296934527676 12.747811780444973 -12.789837468218181 15.875638766382986 -15.576705591159602 19.003465752321 -19.183310176465877 22.66501449718453 -22.789914761772152 26.326563242048056 -25.822891855433074 29.358035608797344 -28.855868949093995 32.389507975546636 -31.81469559186943 35.23699325084415 -34.773522234644865 38.084478526141666 -37.65567914024754 40.517965844214096 -40.53783604585021 42.951453162286526 -43.02784481654545 45.059090812072526 -45.51785358724069 47.166728461858526 -47.91459886629721 49.5231194698705 -50.31134414535374 51.87951047788248 -52.62583379280426 54.403052550873014 -54.940323440254765 56.92659462386355 -56.972266978340144 59.83472993606643 -59.00421051642553 62.74286524826931 -61.06987604390458 65.88467530253368 -63.13554157138363 69.02648535679805 -64.29246172646143 71.4646948664886 -65.44938188153921 73.90290437617915 -66.798472380927 76.41740230027213 -68.14756288031478 78.93190022436511 -69.15114612108923 81.22731360739687 -70.15472936186369 83.52272699042864 -71.57210328129193 85.8805139135173 -72.98947720072016 88.23830083660597 -73.30404550626166 88.85266543136603 -73.61861381180316 89.46703002612608 -74.30054382054223 89.57365336938187 -74.98247382928132 89.68027671263768 -75.46956232820484 89.19125537530938 -75.95665082712837 88.70223403798109 -75.84732769084634 88.02073163444945 -75.73800455456431 87.33922923091781 -75.12239900115891 87.02709644385058 -74.50679344775351 86.71496365678334 -73.89242885299345 87.02953196232484 -73.2780642582334 87.34410026786634 -73.17144091497761 88.02603027660541 -73.0648175717218 88.7079602853445 -73.5538389090501 89.19504878426802 -74.0428602463784 89.68213728319155 -74.72436264991003 89.57281414690952 -75.40586505344167 89.4634910106275 -75.7179978405089 88.84788545722209 -76.03013062757614 88.23227990381669 -75.69603725477333 87.08410627817833 -75.36194388197052 85.93593265253996 -74.44312096584616 84.01081213294493 -73.52429804972179 82.08569161334991 -72.44495945382454 79.63084960704577 -71.36562085792727 77.17600760074166 -70.07607754331248 74.78568044707063 -68.78653422869769 72.39535329339961 -67.49245891506357 69.7482872379581 -66.19838360142946 67.1012211825166 -64.09641756272066 63.903042127153725 -61.99445152401187 60.704863071790854 -59.79797482607455 57.60859732863355 -57.60149812813722 54.51233158547624 -55.22846521915214 51.92087278208281 -52.85543231016707 49.32941397868939 -50.34877319303075 46.87476850597009 -47.84211407589444 44.42012303325079 -45.33777090201628 42.297896504469435 -42.83342772813812 40.17566997568809 -40.04764841633725 37.82922241446988 -37.261869104536395 35.48277485325168 -34.33552293152407 32.65952589316591 -31.409176758511734 29.83627693308015 -28.37932893587288 26.80350333333896 -25.349481113234027 23.77072973359777 -21.81764399653104 20.202889564246487 -18.285806879828048 16.635049394895205 -15.437896270255852 13.454534890691928 -12.589985660683656 10.274020386488653 -9.834845268716546 7.41595520168276 -7.079704876749437 4.557890016876867 -5.165820522029512 2.6459180654364833 -3.2519361673095872 0.7339461139961003 -1.885716208617315 -0.6687388953473347 -0.5194962499250428 -2.0714239046907696 0.4973502267745027 -2.277840967302138 1.5141967034740482 -2.484258029913506 1.7461380445735828 -2.4419833179858728 1.9780793856731171 -2.39970860605824 2.2999350314890474 -1.9709619209014337 2.6217906773049773 -1.5422152357446277 2.6301663860011337 -1.006169879193173 2.63854209469729 -0.47012452264171833 2.330238630231609 -0.031531601386715014 2.021935165765928 0.4070613198682883 NaN NaN NaN NaN NaN NaN NaN NaN NaN NaN NaN NaN NaN NaN NaN NaN NaN NaN NaN NaN NaN NaN NaN NaN NaN NaN Z"></path></g><g transform="translate(420.4581374006084 374.22562290934127) rotate(0 -31.372549019607845 51.96078431372547)" stroke="none" fill="#FFFFFF"><path d="M -1.6622968334379167 2.7112986786948605 Q -1.6622968334379167 2.7112986786948605 -3.572390210419309 4.92232366261033 -5.482483587400702 7.1333486465258 -3.572390210419309 4.92232366261033 -1.6622968334379167 2.7112986786948605 -3.572390210419309 4.92232366261033 -5.482483587400702 7.1333486465258 -8.09598810694941 9.855663564171445 -10.709492626498117 12.577978481817091 -13.049994363964554 15.24924689729619 -15.390496101430994 17.92051531277529 -18.605827887706624 21.490049414130276 -21.821159673982255 25.059583515485265 -25.176200390879302 29.510960310117717 -28.531241107776353 33.96233710475017 -32.75810555833314 38.89016124196623 -36.984970008889924 43.817985379182296 -39.50954728020679 47.17152605120437 -42.03412455152366 50.52506672322643 -43.927988292603544 53.169387152090394 -45.82185203368343 55.81370758095436 -47.268622940311076 58.497324771194485 -48.715393846938724 61.18094196143462 -50.08485635566337 63.78270245598543 -51.454318864388014 66.38446295053623 -52.42718565941135 68.96130742367754 -53.400052454434686 71.53815189681883 -54.401647048069265 73.77218471470049 -55.40324164170385 76.00621753258214 -56.25139185197828 78.13336034399346 -57.09954206225272 80.26050315540478 -57.6363175766479 82.07358053325294 -58.17309309104307 83.8866579111011 -58.670597870844986 86.31232893206104 -59.168102650646894 88.73799995302099 -59.486225911349834 90.58420020017908 -59.804349172052774 92.43040044733716 -59.986515603291735 94.29552342672304 -60.168682034530704 96.1606464061089 -60.870410834416155 97.06537679960424 -61.57213963430161 97.97010719309958 -61.61631743251961 97.72855048814098 -61.66049523073761 97.48699378318238 -59.75591998379817 98.24549807064622 -57.851344736858735 99.00400235811004 -56.65565343510666 100.15876723619867 -55.45996213335458 101.3135321142873 -55.41209717523286 102.82079318428686 -55.36423221711114 104.3280542542864 -56.17476316121106 104.46343365268714 -56.98529410531098 104.59881305108789 -57.65504762554329 104.2575565939266 -58.32480114577561 103.9163001367653 -58.44239011435546 103.17387264408593 -58.55997908293531 102.43144515140656 -58.02845968583003 101.89992574638103 -57.49694028872476 101.36840634135548 -56.75451279429318 101.4859952988723 -56.01208529986159 101.60358425638911 -55.67082883272019 102.2733377715363 -55.329572365578784 102.9430912866835 -55.67082882274008 103.61284480691582 -56.01208527990137 104.28259832714814 -56.75451277258074 104.40018729572799 -57.496940265260115 104.51777626430784 -58.02845967028565 103.98625686720257 -58.55997907531118 103.45473747009729 -58.442390117794375 102.7123099756657 -58.32480116027756 101.96988248123411 -57.65504764513037 101.6286260140927 -56.98529412998317 101.28736954695131 -57.705923646563406 101.8440165967096 -58.426553163143645 102.40066364646786 -60.13312219592317 101.84361772792812 -61.8396912287027 101.28657180938836 -63.00776341118295 100.33750730162971 -64.17583559366321 99.38844279387106 -64.05490742139224 97.85156592628917 -63.93397924912129 96.31468905870726 -63.444468559356196 93.11897772310459 -62.954957869591105 89.92326638750191 -62.45374965822413 87.86413889215659 -61.95254144685716 85.80501139681127 -61.73028133608737 84.05228165055196 -61.508021225317584 82.29955190429266 -61.054515445007354 80.60680753641557 -60.60100966469712 78.91406316853848 -59.70281378369266 76.65769224298842 -58.80461790268819 74.40132131743836 -57.84398422310179 72.31596516586885 -56.88335054351539 70.23060901429932 -55.80301961709867 67.44499081511462 -54.722688690681956 64.65937261592993 -53.36396761547958 62.053718160048405 -52.005246540277206 59.44806370416688 -50.41689552655848 56.55320249811163 -48.828544512839755 53.65834129205639 -46.91578182233806 50.99573063252605 -45.00301913183637 48.333119972995696 -42.38389693879277 44.88620824268295 -39.76477474574918 41.4392965123702 -35.628206810572486 36.62836297858928 -31.49163887539579 31.81742944480836 -28.018379454368905 27.204001570142843 -24.545120033342016 22.59057369547732 -21.38649789444557 19.05182464803803 -18.227875755549125 15.513075600598738 -15.821600791806821 12.76402641481138 -13.415325828064518 10.014977229024021 -10.76453323495855 7.25853429306817 -8.113740641852583 4.502091357112319 -6.080421246186106 2.463519084651002 -4.047101850519628 0.42494681218968455 -2.7403913255766508 -0.48576660643477315 -1.433680800633674 -1.3964800250592309 -0.6596863921157764 -1.725184688468138 0.11430801640212129 -2.0538893518770456 0.7070155075693005 -1.8241660879256745 1.2997229987364798 -1.5944428239743034 1.6442054851249597 -1.060208077203023 1.9886879715134396 -0.5259733304317427 1.9533648518518938 0.10871338386401092 1.918041732190348 0.7434000981597645 1.5164052376008077 1.2361100273270067 1.1147687430112672 1.728819956494249 -0.27376404521332476 2.2200593175945547 Z"></path></g><g transform="translate(454.7718628908044 374.22562290934127) rotate(0 19.117647058823536 51.470588235294116)" stroke="none" fill="#FFFFFF"><path d="M 2.91268013143786 -1.0429487594661266 Q 2.91268013143786 -1.0429487594661266 5.424011989373426 0.6031497121089434 7.9353438473089914 2.2492481836840135 5.424011989373426 0.6031497121089434 2.91268013143786 -1.0429487594661266 5.424011989373426 0.6031497121089434 7.9353438473089914 2.2492481836840135 10.764826096891133 5.118303702892295 13.594308346473275 7.987359222100577 16.228786636924124 12.055317224343904 18.863264927374974 16.123275226587232 21.36743062920346 19.555292866373254 23.871596331031945 22.987310506159275 26.618041025679616 27.83093934970006 29.364485720327288 32.674568193240844 31.457736321064285 38.242018431466235 33.55098692180128 43.809468669691626 35.224132953444375 50.5087530962514 36.89727898508747 57.208037522811175 37.54714085073391 62.11264951253551 38.19700271638035 67.01726150225984 38.689750992099064 70.67593366807239 39.18249926781779 74.33460583388492 39.57144149231169 77.8216913423918 39.96038371680559 81.30877685089868 40.01293896061894 83.42983929176111 40.065494204432284 85.55090173262354 39.949544985238894 87.43148574789518 39.833595766045505 89.3120697631668 39.22843499307117 91.98945358354217 38.62327422009683 94.66683740391754 37.71587784844132 96.5486922052708 36.808481476785815 98.43054700662405 36.24668343057209 99.82768374893159 35.684885384358374 101.22482049123913 35.15154815604213 101.74095711927086 34.61821092772589 102.2570937473026 34.660034334754585 101.5246581081268 34.70185774178328 100.792222468951 34.376251198989834 100.65136557459243 34.0506446561964 100.51050868023387 34.53476698846433 100.79452929741254 35.01888932073226 101.07854991459122 34.682519500003814 101.76501894879844 34.34614967927537 102.45148798300566 33.59307134454913 102.58285545610397 32.83999300982289 102.71422292920226 32.29106615260521 102.18218562163125 31.74213929538754 101.65014831406025 31.849915407594168 100.89333347484268 31.957691519800797 100.13651863562512 32.63331679562742 99.77886674077976 33.30894207145405 99.4212148459344 33.99541110566127 99.75758466666284 34.68188013986849 100.09395448739129 34.81324761296679 100.84703282211754 34.94461508606509 101.60011115684378 34.41257777849408 102.14903801406146 33.88054047092308 102.69796487127913 33.12372563170551 102.5901887590725 32.36691079248795 102.48241264686587 32.009258897642596 101.80678737103923 31.651607002797235 101.13116209521262 32.37508288898674 102.26966742009276 33.09855877517624 103.40817274497289 32.531683850031186 102.53298662698145 31.964808924886135 101.65780050899004 32.74211161840215 100.65739988636545 33.519414311918155 99.65699926374089 33.23253302765216 100.00193444860571 32.945651743386165 100.34686963347053 33.30335816988956 98.65070114230724 33.66106459639296 96.95453265114396 34.437265694078555 95.34611031709653 35.21346679176415 93.73768798304909 35.71074593162687 91.4517391399356 36.20802507148959 89.16579029682212 36.30509301896446 87.36367208410056 36.40216096643934 85.561553871379 36.36232468094317 83.60732077950021 36.322488395446996 81.65308768762142 35.94543156766149 78.24282772813966 35.568374739875985 74.8325677686579 35.07639935598792 71.1297574341784 34.58442397209984 67.42694709969892 33.976677505265656 62.71628691387174 33.36893103843146 58.00562672804457 31.76102614425605 51.53337427224925 30.153121250080638 45.061121816453934 28.141465539608234 39.758054721207664 26.12980982913583 34.454987625961394 23.515191782849936 29.860016931237546 20.90057373656404 25.2650462365137 18.286920097075157 21.685516956775643 15.673266457586275 18.105987677037582 13.316326511572274 14.366315378759069 10.959386565558274 10.626643080480555 8.30868991668438 7.925006425113948 5.657993267810485 5.223369769747341 4.0065030755392765 3.7765416175479096 2.3550128832680683 2.329713465348478 1.0380896295915862 2.00802228887789 -0.27883362408489587 1.6863311124073022 -0.7478076614638527 1.443353674203827 -1.2167816988428095 1.200376236000352 -1.4533711101872089 0.7281473363646424 -1.6899605215316083 0.25591843672893266 -1.6037961930862197 -0.2651865351481336 -1.517631864640831 -0.7862915070251999 -1.141625641253984 -1.1572281635931412 -0.7656194178671367 -1.5281648201610822 1.0735303567853616 -1.2855567898136044 Z"></path></g><g transform="translate(381.24245112609856 411.4805248701256) rotate(0 -29.901960784313758 -26.960784313725497)" stroke="none" fill="#FFFFFF"><path d="M -61.47142345986644 -52.70329401281315 Q -61.47142345986644 -52.70329401281315 -61.382103074887105 -53.21607628772526 -61.29278268990777 -53.72885856263737 -61.382103074887105 -53.21607628772526 -61.47142345986644 -52.70329401281315 -61.382103074887105 -53.21607628772526 -61.29278268990777 -53.72885856263737 -60.91911512168505 -54.091206932435576 -60.54544755346233 -54.45355530223378 -60.03016111256379 -54.52706500542328 -59.51487467166524 -54.600574708612776 -58.74123793487925 -54.96227101024706 -57.967601198093256 -55.32396731188134 -57.350746874359444 -55.00966438384978 -56.733892550625626 -54.69536145581822 -56.62559108648138 -54.011573199014606 -56.51728962233713 -53.327784942211 -57.006827939219605 -52.838246564162674 -57.496366256102085 -52.348708186114344 -58.180154526437526 -52.45700956482199 -58.86394279677297 -52.56531094352963 -59.17824580187799 -53.182165227992556 -59.492548806983024 -53.79901951245547 -59.178245878951465 -54.41587383618929 -58.863942950919906 -55.0327281599231 -58.1801546941163 -55.14102962406735 -57.49636643731268 -55.2493310882116 -57.00682805926435 -54.759792771329124 -56.51728968121603 -54.27025445444665 -56.62559105992367 -53.5864661841112 -56.733892438631315 -52.90267791377576 -57.35074672309423 -52.58837490867073 -57.96760100755716 -52.274071903565705 -59.7195122337118 -52.48868295818943 -61.47142345986644 -52.70329401281315 -61.382103074887105 -53.21607628772526 -61.29278268990777 -53.72885856263737 -60.91911512168505 -54.091206932435576 -60.54544755346233 -54.45355530223378 -60.03016111256379 -54.52706500542328 -59.51487467166524 -54.600574708612776 -29.26830013878232 -27.774607528256293 0.9782743941006018 -0.9486403478998114 1.1636559051574769 -0.5705456246764165 1.349037416214352 -0.19245090145302135 1.276775706821955 0.22239867336512242 1.204513997429558 0.6372482481832662 0.9022105844906171 0.9303942372340704 0.5999071715516762 1.2235402262848747 0.1830316838937724 1.2830108254166366 -0.23384380376413139 1.3424814245483985 -30.852633631815287 -25.68040629413238 Z"></path></g><g transform="translate(487.124804067275 413.44130918385105) rotate(0 30.392156862745082 -22.54901960784312)" stroke="none" fill="#FFFFFF"><path d="M 1.4589305680237543 -2.4094202836425644 Q 1.4589305680237543 -2.4094202836425644 2.926166593981221 -3.8240404417301797 4.393402619938687 -5.238660599817795 2.926166593981221 -3.8240404417301797 1.4589305680237543 -2.4094202836425644 2.926166593981221 -3.8240404417301797 4.393402619938687 -5.238660599817795 7.001697542815048 -8.063501975918106 9.609992465691409 -10.888343352018417 13.325516537526962 -15.505464083738607 17.041040609362515 -20.122584815458797 21.418263938474887 -25.15317372226184 25.795487267587255 -30.18376262906488 31.524113766815844 -35.01940654200298 37.252740266044434 -39.855050454941086 42.633170158967104 -42.30827329203384 48.01360005188978 -44.76149612912659 51.79123230777204 -45.400955323032605 55.5688645636543 -46.040414516938625 58.369243425903555 -46.664273698904395 61.16962228815281 -47.28813288087017 61.77648134093325 -46.96575559092821 62.383340393713695 -46.64337830098625 62.68481106390145 -46.025866793378135 62.98628173408921 -45.40835528577002 62.867212472283775 -44.731577967957875 62.74814321047834 -44.05480065014572 62.39543297900367 -43.91423089202149 62.04272274752901 -43.773661133897264 60.60357146372237 -43.3965539761946 59.16442017991572 -43.01944681849194 57.58477924315876 -43.17355881382777 56.00513830640181 -43.3276708091636 55.289010635118885 -43.69255952474343 54.57288296383596 -44.05744824032326 54.44715485185703 -44.85128390227907 54.3214267398781 -45.64511956423488 54.88975215112144 -46.21344063833797 55.45807756236479 -46.78176171244106 56.25191226480751 -46.656027542334876 57.045746967250224 -46.53029337222869 57.4106302177145 -45.814162916330304 57.77551346817878 -45.09803246043192 57.41062475259895 -44.38190478914899 57.04573603701912 -43.665777117866064 56.25190037506331 -43.540049005887134 55.4580647131075 -43.414320893908204 54.88974363900441 -43.98264630515155 54.321422564901326 -44.55097171639489 54.44715673500751 -45.34480641883761 54.57289090511369 -46.13864112128033 55.289021361012075 -46.503524371744604 56.005151816910455 -46.868407622208885 58.18692640522568 -47.05812200401695 60.3687009935409 -47.24783638582501 60.76916164084686 -47.267984633347595 61.169622288152816 -47.28813288087017 61.77648134093326 -46.96575559092821 62.383340393713695 -46.64337830098625 62.68481106390145 -46.025866793378135 62.98628173408921 -45.40835528577002 62.867212472283775 -44.731577967957875 62.74814321047834 -44.05480065014572 60.97577929262131 -43.176895469112814 59.20341537476429 -42.29899028807991 57.587733773585164 -42.14707476810707 55.97205217240604 -41.99515924813423 52.700326320072634 -41.49048615948194 49.42860046773923 -40.98581307082965 44.58148398387895 -38.84202080458367 39.734367500018664 -36.69822853833768 34.28237882631398 -32.12882740622338 28.8303901526093 -27.559426274109086 24.510987512030532 -22.57889700344149 20.19158487145176 -17.598367732773895 16.342654726192873 -12.876474125982034 12.493724580933984 -8.154580519190173 9.653420198002983 -5.194268936401866 6.813115815071983 -2.23395735361356 4.422937445828043 -0.5556508879266733 2.0327590765841026 1.1226555777602134 1.1598366654321384 1.4443467542308013 0.28691425428017414 1.766037930701389 -0.2595091443670715 1.6817182983439785 -0.8059325430143172 1.5973986659865682 -1.1984365222656466 1.2080030352175937 -1.590940501516976 0.8186074044486191 -1.6796018820179648 0.2728716711511241 -1.7682632625189536 -0.2728640621463709 -1.5192164104077115 -0.7664873967280905 -1.2701695582964692 -1.26011073130981 0.09438050486364258 -1.8347655074761873 Z"></path></g><g stroke-linecap="round" transform="translate(619.4777452437456 176.18640722306674) rotate(0 46.56862745098039 68.62745098039215)"><path d="M0.13 1.1 C23.67 0.01, 46.15 1.97, 95.04 0.01 M0.25 0.52 C34.37 1.51, 69.96 1.56, 93.33 0.45 M92.57 -0.8 C95.85 53.83, 96.25 108.97, 94.83 135.33 M93.26 0.04 C95.17 29.3, 94.63 57.64, 93.41 136.66 M94.61 136.62 C62.85 136.32, 27.32 136.02, -0.16 138.69 M93.91 137.36 C69.75 136.77, 46.36 136.73, -0.06 136.57 M-1.33 138.91 C0.4 95.15, -1.16 56.15, 0.11 0.32 M0.54 137.02 C0.94 83.77, 0.54 30.28, 0.08 -0.11" stroke="#FFFFFF" stroke-width="2" fill="none"></path></g><g transform="translate(636.1444119104124 251.67660330149818) rotate(0 33.333333333333314 0.9803921568627629)" stroke="none" fill="#FFFFFF"><path d="M 0.03734825009553122 3.9212749470406223 Q 0.03734825009553122 3.9212749470406223 -0.6360112817391506 4.033170924478341 -1.3093708135738322 4.145066901916061 -0.6360112817391506 4.033170924478341 0.03734825009553122 3.9212749470406223 -0.6360112817391506 4.033170924478341 -1.3093708135738322 4.145066901916061 -1.919900923481191 3.8398018469623816 -2.53043103338855 3.5345367920087023 -2.844929970539183 2.9287115800783257 -3.1594289076898163 2.3228863681479486 -2.7798186492183468 1.9995867435727797 -2.400208390746877 1.676287118997611 -0.5152997996574015 0.19702068046992682 1.3696087914320743 -1.2822457580577573 4.158312397164705 -3.1005513078658153 6.947016002897336 -4.918856857673873 9.321164462229815 -5.850860750993263 11.695312921562294 -6.782864644312653 14.740235217131177 -6.492819558578002 17.78515751270006 -6.202774472843353 21.06562168521041 -4.277843855212533 24.346085857720755 -2.3529132375817117 27.30479316254132 -1.2240990060842067 30.263500467361883 -0.0952847745867017 33.84162481940085 -1.3366120224669182 37.41974917143981 -2.5779392703471347 39.63494740073834 -2.7910103644855435 41.85014563003688 -3.0040814586239524 44.2439833166862 -2.66683785747142 46.63782100333551 -2.3295942563188885 49.40384309243153 -2.3127696448586734 52.169865181527555 -2.295945033398458 54.33241252478301 -1.4769865448120272 56.49495986803846 -0.6580280562255967 58.87238002958642 1.4135262208291683 61.249800191134376 3.4850804978839336 63.57380788085696 1.7269450780972357 65.89781557057954 -0.031190341689462053 66.32053793925633 -0.7070863109889771 66.7432603079331 -1.3829822802884921 67.53854160764828 -1.438274382964725 68.33382290736348 -1.493566485640958 68.84600977747985 -0.8826702813841045 69.35819664759623 -0.2717740771272509 69.16502712522554 0.5016695846362391 68.97185760285484 1.2751132463997292 68.2325863398547 1.5734545978702108 67.49331507685457 1.8717959493406924 66.81741910755505 1.449073580663911 66.14152313825555 1.0263512119871296 66.08623103557932 0.23106991227194035 66.03093893290308 -0.564211387443249 66.64183513715994 -1.0763982575596243 67.25273134141679 -1.5885851276759997 68.02617500318027 -1.3954156053053026 68.79961866494376 -1.2022460829346056 69.09796001641425 -0.46297481993447787 69.39630136788473 0.2762964430656498 69.07329194313392 1.9222484443216608 68.75028251838312 3.5682004455776717 65.66552216885266 5.6895550636273144 62.58076181932221 7.810909681676957 59.62433333477483 7.248217935549784 56.66790485022746 6.68552618942261 56.017988584494354 4.958519294461066 55.36807231876125 3.231512399499521 53.765153154052385 2.7622865247440624 52.16223398934352 2.293060649988604 48.98741917656814 2.2190271840384064 45.812604363792765 2.144993718088209 42.82409456558139 1.853292442045045 39.83558476737001 1.561591166001881 36.2857715279426 2.8858357605103615 32.7359582885152 4.210080355018842 29.749638111722277 4.333935144655662 26.763317934929358 4.4577899342924825 24.26828638070316 2.913287206883041 21.773254826476958 1.3687844794735995 19.479617217884993 -0.2553603911443476 17.185979609293025 -1.8795052617622947 15.204074188822903 -2.259703188655518 13.22216876835278 -2.6399011155487413 11.281304185501286 -1.8596146797976307 9.340439602649791 -1.0793282440465204 6.734250973050529 0.5621167666289114 4.128062343451267 2.203561777304343 2.4176350128807558 2.962839289203013 0.707207682310244 3.7221168011016825 0.3722779662028875 3.8216958740711524 0.037348250095531 3.9212749470406223 -0.6360112817391503 4.033170924478341 -1.3093708135738318 4.145066901916061 -1.9199009234811906 3.8398018469623816 -2.5304310333885494 3.5345367920087023 -2.844929970539183 2.9287115800783257 -3.1594289076898168 2.3228863681479486 -2.3789087432912455 0.7618460393508059 -1.598388578892674 -0.7991942894463369 -1.2108787428893748 -1.192632642760836 -0.8233689068860757 -1.5860709960753352 -0.2786096023074598 -1.6765967434246458 0.2661497022711561 -1.7671224907739564 0.7600789367638139 -1.5201578735276275 1.2540081712564717 -1.2731932562812986 1.5084431561241924 -0.7830703642088198 1.7628781409919134 -0.292947472136341 0.9001131955437223 1.8141637374521407 Z"></path></g><g transform="translate(635.3600981849222 218.53934839953743) rotate(0 33.333333333333314 0.9803921568627629)" stroke="none" fill="#FFFFFF"><path d="M 0.03734825009553122 3.9212749470406223 Q 0.03734825009553122 3.9212749470406223 -0.6360112817391506 4.033170924478341 -1.3093708135738322 4.145066901916061 -0.6360112817391506 4.033170924478341 0.03734825009553122 3.9212749470406223 -0.6360112817391506 4.033170924478341 -1.3093708135738322 4.145066901916061 -1.919900923481191 3.8398018469623816 -2.53043103338855 3.5345367920087023 -2.844929970539183 2.9287115800783257 -3.1594289076898163 2.3228863681479486 -2.7798186492183468 1.9995867435727797 -2.400208390746877 1.676287118997611 -0.5152997996574015 0.19702068046992682 1.3696087914320743 -1.2822457580577573 4.158312397164705 -3.1005513078658153 6.947016002897336 -4.918856857673873 9.321164462229815 -5.850860750993263 11.695312921562294 -6.782864644312653 14.740235217131177 -6.492819558578002 17.78515751270006 -6.202774472843353 21.06562168521041 -4.277843855212533 24.346085857720755 -2.3529132375817117 27.30479316254132 -1.2240990060842067 30.263500467361883 -0.0952847745867017 33.84162481940085 -1.3366120224669182 37.41974917143981 -2.5779392703471347 39.63494740073834 -2.7910103644855435 41.85014563003688 -3.0040814586239524 44.2439833166862 -2.66683785747142 46.63782100333551 -2.3295942563188885 49.40384309243153 -2.3127696448586734 52.169865181527555 -2.295945033398458 54.33241252478301 -1.4769865448120272 56.49495986803846 -0.6580280562255967 58.87238002958642 1.4135262208291683 61.249800191134376 3.4850804978839336 63.57380788085696 1.7269450780972357 65.89781557057954 -0.031190341689462053 66.32053793925633 -0.7070863109889771 66.7432603079331 -1.3829822802884921 67.53854160764828 -1.438274382964725 68.33382290736348 -1.493566485640958 68.84600977747985 -0.8826702813841045 69.35819664759623 -0.2717740771272509 69.16502712522554 0.5016695846362391 68.97185760285484 1.2751132463997292 68.2325863398547 1.5734545978702108 67.49331507685457 1.8717959493406924 66.81741910755505 1.449073580663911 66.14152313825555 1.0263512119871296 66.08623103557932 0.23106991227194035 66.03093893290308 -0.564211387443249 66.64183513715994 -1.0763982575596243 67.25273134141679 -1.5885851276759997 68.02617500318027 -1.3954156053053026 68.79961866494376 -1.2022460829346056 69.09796001641425 -0.46297481993447787 69.39630136788473 0.2762964430656498 69.07329194313392 1.9222484443216608 68.75028251838312 3.5682004455776717 65.66552216885266 5.6895550636273144 62.58076181932221 7.810909681676957 59.62433333477483 7.248217935549784 56.66790485022746 6.68552618942261 56.017988584494354 4.958519294461066 55.36807231876125 3.231512399499521 53.765153154052385 2.7622865247440624 52.16223398934352 2.293060649988604 48.98741917656814 2.2190271840384064 45.812604363792765 2.144993718088209 42.82409456558139 1.853292442045045 39.83558476737001 1.561591166001881 36.2857715279426 2.8858357605103615 32.7359582885152 4.210080355018842 29.749638111722277 4.333935144655662 26.763317934929358 4.4577899342924825 24.26828638070316 2.913287206883041 21.773254826476958 1.3687844794735995 19.479617217884993 -0.2553603911443476 17.185979609293025 -1.8795052617622947 15.204074188822903 -2.259703188655518 13.22216876835278 -2.6399011155487413 11.281304185501286 -1.8596146797976307 9.340439602649791 -1.0793282440465204 6.734250973050529 0.5621167666289114 4.128062343451267 2.203561777304343 2.4176350128807558 2.962839289203013 0.707207682310244 3.7221168011016825 0.3722779662028875 3.8216958740711524 0.037348250095531 3.9212749470406223 -0.6360112817391503 4.033170924478341 -1.3093708135738318 4.145066901916061 -1.9199009234811906 3.8398018469623816 -2.5304310333885494 3.5345367920087023 -2.844929970539183 2.9287115800783257 -3.1594289076898168 2.3228863681479486 -2.3789087432912455 0.7618460393508059 -1.598388578892674 -0.7991942894463369 -1.2108787428893748 -1.192632642760836 -0.8233689068860757 -1.5860709960753352 -0.2786096023074598 -1.6765967434246458 0.2661497022711561 -1.7671224907739564 0.7600789367638139 -1.5201578735276275 1.2540081712564717 -1.2731932562812986 1.5084431561241924 -0.7830703642088198 1.7628781409919134 -0.292947472136341 0.9001131955437223 1.8141637374521407 Z"></path></g><g transform="translate(631.2424511260986 285.9903287916942) rotate(0 32.35294117647055 1.470588235294116)" stroke="none" fill="#FFFFFF"><path d="M 1.5936331027612403 3.114796880055959 Q 1.5936331027612403 3.114796880055959 1.10117339120954 3.472589803827522 0.6087136796578398 3.830382727599085 1.10117339120954 3.472589803827522 1.5936331027612403 3.114796880055959 1.10117339120954 3.472589803827522 0.6087136796578398 3.830382727599085 -1.1102230246251565e-16 3.830382727599085 -0.6087136796578401 3.830382727599085 -1.10117339120954 3.472589803827522 -1.59363310276124 3.1147968800559593 -1.6507640161525226 2.86325507871931 -1.707894929543805 2.611713277382661 -1.3552887994021496 1.3064757075913804 -1.0026826692604942 0.0012381378001000698 1.3466577350291455 -1.9560964043403388 3.6959981393187853 -3.9134309464807777 7.2811481080658 -3.831441789177352 10.866298076812814 -3.7494526318739254 15.27193204532077 -0.48702463217689407 19.677566013828727 2.7754033675201373 22.63365774678509 2.809187036471646 25.58974947974145 2.842970705423154 29.268100462456005 0.1764535980581412 32.94645144517056 -2.4900635093068715 35.55062424208697 -3.6556888230925724 38.15479703900338 -4.821314136878273 41.003058985880344 -5.1356861825227025 43.85132093275732 -5.450058228167131 46.5121181901039 -5.668982038803 49.17291544745048 -5.887905849438868 51.4878535719628 -5.488116700906782 53.80279169647513 -5.088327552374697 55.391068447587585 -4.810874021744548 56.979345198700045 -4.5334204911143985 58.504624451179 -5.010570491452144 60.02990370365796 -5.487720491789889 62.11626521912133 -5.740845326096887 64.20262673458471 -5.993970160403883 64.6725058483899 -5.3677073657957095 65.1423849621951 -4.741444571187537 65.15441711583517 -3.9585993139498306 65.16644926947527 -3.1757540567121243 64.71603858921759 -2.5353466171780346 64.26562790895991 -1.8949391776439448 64.49650102806886 -1.5510906496459607 64.72737414717781 -1.2072421216479765 65.13100658901902 -0.4556836273810203 65.53463903086025 0.2958748668859359 65.76890530403955 -0.22678066503450572 66.00317157721884 -0.7494361969549473 66.3874834964015 -0.2024286984679603 66.77179541558415 0.34457880001902674 66.76118734883971 1.0130100407213092 66.75057928209529 1.6814412814235915 66.34910315036521 2.215978249535159 65.94762701863515 2.7505152176467265 65.57897509746047 2.207419247412788 65.21032317628578 1.6643232771788494 64.10448521964523 -0.5748356193087728 62.99864726300466 -2.813994515796395 63.350969840577235 -3.5043550171094493 63.703292418149815 -4.194715518422504 64.46889581110412 -4.3154642871013555 65.23449920405841 -4.4362130557802075 65.78219739345306 -3.887801245390962 66.32989558284773 -3.339389435001716 66.20815002676036 -2.573943917663236 66.086404470673 -1.8084984003247553 65.39558579647775 -1.4570750376641173 64.7047671222825 -1.1056516750034793 64.01440662096945 -1.4579742525760553 63.324046119656394 -1.8102968301486313 63.20329735097754 -2.5759002231029315 63.08254858229869 -3.3415036160572313 63.63096039268794 -3.8892018054518886 64.17937220307718 -4.436899994846546 64.94481772041567 -4.315154438759185 65.71026323775415 -4.193408882671824 66.06168660041479 -3.5025902084765743 66.41310996307541 -2.8117715342813243 66.20814077014712 -1.7806038656181358 66.00317157721884 -0.7494361969549471 66.3874834964015 -0.20242869846796036 66.77179541558415 0.3445788000190264 66.76118734883971 1.0130100407213087 66.75057928209529 1.681441281423591 66.34910315036521 2.215978249535159 65.94762701863515 2.750515217646727 63.92572389181741 1.7536170451437427 61.90382076499967 0.7567188726407584 61.19354293617148 -0.7824591901395317 60.4832651073433 -2.321637252919822 61.843092025631975 -3.7915131086525857 63.20291894392064 -5.2613889643853495 63.702772839252674 -5.627679562394617 64.20262673458471 -5.993970160403883 64.6725058483899 -5.3677073657957095 65.1423849621951 -4.741444571187537 65.15441711583517 -3.9585993139498306 65.16644926947527 -3.1757540567121243 64.71603858921759 -2.5353466171780346 64.26562790895991 -1.8949391776439448 62.416472538385946 -1.3720619716094822 60.56731716781198 -0.8491847655750197 58.30392893175435 -0.43961232940721523 56.04054069569672 -0.03003989323941081 54.325095576945266 -0.2885179786440874 52.60965045819381 -0.546996064048764 51.03416351360447 -0.9442145583454382 49.45867656901512 -1.3414330526421123 46.75972038424524 -1.0982577690243391 44.06076419947537 -0.8550824854065661 41.87500192932957 -0.7617791654851229 39.68923965918378 -0.6684758455636797 37.51782335095609 0.23751439372899397 35.3464070427284 1.1435046330216676 30.200780786419323 4.09959860894791 25.055154530110244 7.055692584874152 20.874742181240027 6.64246793740637 16.69432983236981 6.229243289938588 13.873506485545 3.187060607429619 11.05268313872019 0.14487792492064955 8.666428292370007 -0.19711330036464503 6.280173446019825 -0.5391045256499396 4.549042643758691 0.12047763332683503 2.8179118414975557 0.7800597923036097 2.2629033855206804 1.6958865348431353 1.707894929543805 2.611713277382661 1.6507640161525226 2.86325507871931 1.59363310276124 3.1147968800559593 1.10117339120954 3.472589803827522 0.6087136796578401 3.830382727599085 1.1102230246251565e-16 3.830382727599085 -0.6087136796578398 3.830382727599085 -1.10117339120954 3.472589803827522 -1.5936331027612403 3.114796880055959 -1.5936331027612403 1.5573984400279794 -1.5936331027612403 0 -1.4414546828467802 -0.46835701768407617 -1.2892762629323204 -0.9367140353681523 -0.8908679872420103 -1.226174591166447 -0.4924597115517002 -1.5156351469647416 1.1102230246251565e-16 -1.5156351469647416 0.49245971155170043 -1.5156351469647416 0.8908679872420103 -1.226174591166447 1.2892762629323202 -0.9367140353681526 1.4414546828467802 1.089041422343903 Z"></path></g><g transform="translate(166.5365687731574 85.00993663483146) rotate(0 -34.313725490196106 78.92156862745098)" stroke="none" fill="#0b7285"><path d="M -9.805080198810423 0.9578474793114913 Q -9.805080198810423 0.9578474793114913 -20.0798940174451 1.7551764862009294 -30.354707836079776 2.5525054930903677 -20.0798940174451 1.7551764862009294 -9.805080198810423 0.9578474793114913 -20.0798940174451 1.7551764862009294 -30.354707836079776 2.5525054930903677 -41.04746898642158 5.095357686968484 -51.74023013676338 7.638209880846601 -61.931980107696546 11.474922240493651 -72.12373007862972 15.311634600140701 -75.93362227162453 17.78026936521222 -79.74351446461932 20.24890413028374 -88.1115021079361 26.582332486484 -96.47948975125287 32.91576084268426 -98.98160383164057 36.21715629032016 -101.48371791202828 39.518551737956074 -106.79252490831863 50.88034037922347 -112.10133190460897 62.24212902049086 -114.68281539246593 73.84878538506494 -117.2642988803229 85.45544174963902 -116.56358836651799 90.77893356306018 -115.86287785271308 96.10242537648134 -112.89135391599501 108.74897827615901 -109.91982997927694 121.39553117583668 -107.43578130677125 126.03114757630868 -104.95173263426555 130.6667639767807 -98.29769311519476 140.35898343433422 -91.64365359612397 150.05120289188778 -88.45585969609564 152.2618972473109 -85.26806579606733 154.472591602734 -75.25262831159296 158.1002916203864 -65.23719082711858 161.7279916380388 -54.41542521450805 162.94263000677597 -43.59365960189751 164.15726837551315 -33.30822123687638 162.77348561509342 -23.022782871855256 161.3897028546737 -12.93465699326278 157.28102469737303 -2.846531114670304 153.1723465400724 5.441815454374866 147.25050632589853 13.730162023420036 141.32866611172463 19.95944340017281 135.78369233072928 26.18872477692558 130.23871854973393 30.788427994376093 125.91681457145745 35.38813121182661 121.59491059318097 38.21404214976813 118.16058923653151 41.03995308770966 114.72626787988206 42.989650437245665 110.8931192920087 44.93934778678167 107.05997070413535 46.508593540440415 101.68864457250041 48.077839294099164 96.31731844086548 48.56834724809049 90.84398900827436 49.05885520208181 85.37065957568325 48.88379919357134 79.07892849203992 48.708743185060875 72.7871974083966 47.724546063016234 66.41964688121563 46.740348940971586 60.05209635403467 45.22207813549372 54.401472052209535 43.70380733001585 48.7508477503844 41.68392740160625 42.624311230235264 39.664047473196646 36.497774710086134 37.15994505911016 30.315332292014855 34.65584264502367 24.132889873943576 31.584060846001755 17.6248039647808 28.512279046979845 11.116718055618025 24.708562504218015 6.780122785818504 20.90484596145619 2.4435275160189827 16.80791645654839 -0.75669171692727 12.710986951640592 -3.9569109498735227 9.082836048384474 -4.930124283115694 5.454685145128355 -5.903337616357865 1.422554750272117 -5.903966800672595 -2.609575644584121 -5.904595984987326 -6.982382392649558 -4.439629710731676 -11.355189140714995 -2.9746634364760274 -14.71618738552909 -1.7031931509297387 -18.077185630343184 -0.43172286538345017 -18.809484516233034 -0.5255433563305704 -19.54178340212289 -0.6193638472776906 -19.896315515922332 -1.2669523918659775 -20.250847629721772 -1.9145409364542645 -19.9353262397427 -2.582006437632228 -19.619804849763625 -3.249471938810191 -18.89435509633914 -3.3865361502347264 -18.168905342914652 -3.5236003616592617 -17.631609400209477 -3.017263504666177 -17.094313457504306 -2.510926647673093 -17.188133948451426 -1.7786277617832416 -17.281954439398547 -1.0463288758933902 -17.929542983986835 -0.6917967620939479 -18.57713152857512 -0.33726464829450564 -19.24459702975308 -0.6527860382735785 -19.912062530931046 -0.9683074282526514 -20.049126742355583 -1.6937571816771373 -20.18619095378012 -2.419206935101623 -19.679854096787036 -2.9565028778067965 -19.173517239793952 -3.4937988205119694 -15.932606972153446 -5.100677210899355 -12.691696704512939 -6.7075556012867406 -7.62964287137333 -8.271704702832452 -2.5675890382337214 -9.835853804378164 1.8882205091300508 -9.827318020372182 6.344030056493823 -9.818782236366202 10.649917808260234 -8.489751322573191 14.955805560026647 -7.160720408780182 19.372644094207054 -3.7035823412785356 23.789482628387464 -0.2464442737768897 27.857116665702186 4.576062979206818 31.92475070301691 9.398570232190526 35.07038642105001 16.033830094879697 38.21602213908311 22.669089957568872 40.73448395377227 28.9843063497877 43.25294576846142 35.29952274200653 45.275215697380496 41.52315008042399 47.29748562629957 47.746777418841454 48.83955078789565 53.58507143782792 50.381615949491724 59.423365456814395 51.38637170057201 66.04266589294807 52.39112745165231 72.66196632908174 52.5482710094134 79.14634395639797 52.70541456717448 85.63072158371419 52.152773193917554 91.45580063292726 51.600131820660636 97.28087968214032 49.888212787292844 102.99789246440457 48.176293753925044 108.71490524666882 46.013797674939 112.81976087383413 43.851301595952954 116.92461650099942 40.849774284954776 120.5421727499606 37.848246973956606 124.15972899892178 33.217392455344964 128.51093295619552 28.586537936733322 132.86213691346924 22.24639871531201 138.52352198808018 15.9062594938907 144.18490706269114 7.2516877797947625 150.32297478379132 -1.4028839343011743 156.4610425048915 -11.936037980662014 160.70608004826903 -22.469192027022853 164.95111759164658 -33.17115905509276 166.34239457658987 -43.87312608316266 167.73367156153313 -55.166874255827885 166.40507480997354 -66.46062242849311 165.07647805841398 -77.0811691857604 161.0138566297777 -87.7017159430277 156.95123520114146 -91.13364832591039 154.53748023287383 -94.56558070879308 152.1237252646062 -101.4085671392848 141.97721287773197 -108.2515535697765 131.83070049085777 -110.80253602318251 127.02116801826048 -113.35351847658852 122.21163554566321 -116.34851805696798 109.05189942157105 -119.34351763734742 95.89216329747887 -120.05146584855805 90.35357821485891 -120.75941405976869 84.81499313223895 -118.59481102918308 73.75656101736398 -116.43020799859747 62.698128902489 -115.15272683958756 58.16960015242647 -113.87524568057763 53.641071402363934 -108.89372752810633 45.312197436112186 -103.91220937563503 36.98332346986043 -101.28046111970701 33.53147822328549 -98.64871286377901 30.07963297671055 -89.96540965970732 23.563606367459244 -81.28210645563561 17.047579758207934 -77.35814245775788 14.514692446725874 -73.43417845988013 11.981805135243816 -63.008523164074894 8.081451949991097 -52.58286786826966 4.181098764738377 -41.61007892224921 1.5811929023872673 -30.637289976228757 -1.0187129599638425 -20.003172137483702 -1.6618211203729636 -9.369054298738643 -2.3049292807820847 -4.5755206743513765 -1.9681588304144364 0.21801295003588983 -1.631388380046788 0.6766475810807757 -1.4115322535452917 1.1352822121256616 -1.191676127043795 1.37709723406613 -0.7442301120678526 1.6189122560065985 -0.2967840970919102 1.5515425494516921 0.20734263676836284 1.484172842896786 0.7114693706286359 1.1333513459383726 1.0797175456760875 0.7825298489799594 1.4479657207235388 -4.511275174915232 1.202906600017515 Z"></path></g><g transform="translate(507.7130393613927 59.51974055640008) rotate(0 -33.82352941176475 63.72549019607844)" stroke="none" fill="#0b7285"><path d="M -0.08145868100098119 -5.188640664734156 Q -0.08145868100098119 -5.188640664734156 0.3923262192096528 -5.379713655394349 0.8661111194202868 -5.570786646054541 0.3923262192096528 -5.379713655394349 -0.08145868100098119 -5.188640664734156 0.3923262192096528 -5.379713655394349 0.8661111194202868 -5.570786646054541 1.3617210413904073 -5.446884165562011 1.8573309633605277 -5.3229816850694815 2.1854597620592315 -4.931430269681954 2.513588560757935 -4.539878854294427 2.214705288699297 -4.248223783524214 1.915822016640658 -3.9565687127540015 0.09311708958911014 -1.758747897235258 -1.7295878374624378 0.4390729182834856 -6.45235998158994 7.1695386391408675 -11.175132125717443 13.900004359998249 -17.23835127313111 22.509666946523446 -23.30157042054477 31.119329533048646 -25.39413268046522 34.78700768269994 -27.486694940385668 38.45468583235123 -31.877602119830254 46.882130621473166 -36.26850929927484 55.30957541059511 -37.67694865030133 58.39110107451354 -39.08538800132782 61.47262673843197 -42.79945844711915 70.20166663716668 -46.513528892910486 78.93070653590141 -50.446970257404715 88.47909855440584 -54.38041162189894 98.02749057291027 -57.10425141458448 105.51526846272424 -59.82809120727002 113.00304635253819 -62.18859672275598 119.1636040972653 -64.54910223824194 125.32416184199242 -65.43625634312075 128.35214452930788 -66.32341044799955 131.38012721662335 -67.9339118320267 132.1827620713947 -69.54441321605385 132.98539692616606 -69.93073275027916 132.56130219900015 -70.31705228450448 132.13720747183424 -70.38031472674865 131.56703470544207 -70.44357716899282 130.9968619390499 -70.1596184165299 130.49839775073372 -69.87565966406697 129.99993356241757 -69.37346179049594 129.58502395621827 -68.8712639169249 129.170114350019 -68.12461963974474 128.926784960476 -67.37797536256458 128.683455570933 -66.74225125635834 129.14447805330184 -66.1065271501521 129.6055005356707 -66.10583291902259 130.39079435743704 -66.10513868789307 131.1760881792034 -66.74004667646008 131.63823395113585 -67.37495466502709 132.1003797230683 -68.12202800064134 131.8583708396044 -68.8691013362556 131.61636195614048 -69.11243072579859 130.8697176789603 -69.35576011534158 130.12307340178015 -68.89473763297273 129.48734929557392 -68.43371515060389 128.8516251893677 -67.64842132883754 128.85093095823817 -66.8631275070712 128.85023672710864 -66.40098173513874 129.48514471567566 -65.93883596320629 130.12005270424268 -66.1808448466702 130.86712603985694 -66.42285373013411 131.61419937547117 -67.59749601462275 132.1549245878242 -68.77213829911139 132.69564980017725 -69.15827575758263 132.84052336317166 -69.54441321605385 132.98539692616606 -69.93073275027916 132.56130219900015 -70.31705228450448 132.13720747183424 -70.38031472674865 131.56703470544207 -70.44357716899282 130.9968619390499 -70.1596184165299 130.49839775073372 -69.87565966406697 129.99993356241757 -68.98263942839567 127.03331413198991 -68.08961919272437 124.06669470156226 -65.72671252874188 117.90197866629998 -63.3638058647594 111.73726263103771 -60.602991661661314 104.1820284054532 -57.84217745856323 96.62679417986868 -53.89501799486942 87.04986179326238 -49.94785853117561 77.47292940665606 -46.203825623829694 68.63393640536525 -42.459792716483776 59.79494340407443 -41.04107046220351 56.67570966480442 -39.622348207923245 53.556475925534414 -35.121452740992254 44.97588470483512 -30.620557274061262 36.39529348413582 -28.490463068859484 32.67515414345251 -26.360368863657705 28.955014802769195 -20.300362288670108 20.387964193792886 -14.240355713682508 11.820913584816575 -8.444909986276482 4.755447312951297 -2.6494642588704567 -2.3100189589139806 -1.3654614699357188 -3.7493298118240683 -0.08145868100098097 -5.188640664734156 0.3923262192096528 -5.379713655394349 0.8661111194202866 -5.570786646054541 1.361721041390407 -5.446884165562011 1.8573309633605275 -5.3229816850694815 2.1854597620592315 -4.931430269681954 2.513588560757935 -4.539878854294427 1.9055560908186966 -2.107748974537281 1.297523620879458 0.3243809052198645 1.0782879842801685 0.6747379095237698 0.8590523476808791 1.025094913827675 0.47575231173223764 1.1796762104378167 0.09245227578359622 1.334257507047958 -0.30850457367107276 1.2340182946842908 -0.7094614231257418 1.1337790823206235 -0.9749231976168291 0.8170073331005498 -1.2403849721079165 0.5002355838804762 -0.6609218265544489 -2.34420254042684 Z"></path></g><g transform="translate(423.39931387119657 161.48052487012558) rotate(0 27.45098039215685 15.686274509803923)" stroke="none" fill="#0b7285"><path d="M -1.980828187137728 -0.7424206138613701 Q -1.980828187137728 -0.7424206138613701 -2.9089969978484054 -1.7039790267223516 -3.837165808559083 -2.665537439583333 -2.9089969978484054 -1.7039790267223516 -1.980828187137728 -0.7424206138613701 -2.9089969978484054 -1.7039790267223516 -3.837165808559083 -2.665537439583333 -3.7265031836882425 -3.2492089260004846 -3.6158405588174025 -3.8328804124176368 -3.1832391227551247 -4.240034705182145 -2.7506376866928464 -4.647188997946653 -2.1613364844329066 -4.722306995887901 -1.5720352821729668 -4.797424993829148 -0.8378113410791399 -3.038159744584194 -0.10358739998531297 -1.27889449533924 2.6106486535568605 5.622081672435211 5.324884707099034 12.523057840209663 7.231129524761396 18.31800628224768 9.137374342423758 24.112954724285693 10.484285448571256 27.281823385689563 11.831196554718755 30.450692047093433 12.817548504137816 32.42665303200688 13.803900453556878 34.40261401692033 13.580924932769562 34.99401347340132 13.357949411982249 35.5854129298823 12.829942547602396 35.93280341789851 12.301935683222545 36.28019390591472 11.670578151150005 36.25088406641237 11.039220619077465 36.22157422691002 11.162809837548057 35.58612582812452 11.286399056018647 34.950677429339024 11.91250689760561 32.660794643616164 12.538614739192571 30.3709118578933 14.208874073257617 28.42336664031221 15.879133407322662 26.475821422731123 19.906052709475823 23.220699074652984 23.93297201162898 19.96557672657484 28.884864321361157 16.633125231358147 33.83675663109334 13.30067373614145 38.18145066835778 10.225112517162907 42.52614470562223 7.149551298184365 46.96076113494208 4.257877052019056 51.395377564261935 1.3662028058537468 53.24787718415017 -0.7242825345348289 55.100376804038405 -2.8147678749234046 55.438355648278325 -3.478088705267161 55.776334492518245 -4.141409535610918 56.511631297220326 -4.257869108496077 57.24692810192241 -4.374328681381236 57.773342493405806 -3.8479142898978327 58.29975688488921 -3.3214998984144293 58.18329731200406 -2.5862030937123492 58.066837739118895 -1.8509062890102688 57.40351690877514 -1.5129274447703482 56.74019607843138 -1.1749486005304277 56.076875248087624 -1.512927444770348 55.41355441774387 -1.850906289010268 55.297094844858705 -2.586203093712349 55.18063527197355 -3.3214998984144293 55.70704966345696 -3.8479142898978322 56.233464054940356 -4.374328681381235 56.96876085964244 -4.257869108496077 57.70405766434452 -4.141409535610919 58.04203650858444 -3.4780887052671634 58.38001535282436 -2.814767874923408 57.66543198055179 -0.254455865994355 56.95084860827922 2.305856142934698 55.33419975505794 3.6376364939706796 53.71755090183666 4.969416845006661 49.35647283678958 7.77721258133659 44.9953947717425 10.585008317666519 40.58230783619222 13.697094605833634 36.169220900641946 16.80918089400075 31.358425067877036 20.02538554238086 26.547629235112126 23.241590190760974 22.439542939055713 26.57339186637224 18.331456642999303 29.90519354198351 16.39598651803546 31.80118269686799 14.460516393071618 33.69717185175247 14.132208423314248 34.0498929343364 13.803900453556878 34.40261401692033 13.580924932769562 34.99401347340132 13.357949411982249 35.5854129298823 12.829942547602396 35.93280341789851 12.301935683222545 36.28019390591472 11.670578151150005 36.25088406641237 11.039220619077465 36.22157422691002 9.553797273050463 34.23553475009965 8.06837392702346 32.249495273289284 6.594892462949986 28.85661746792523 5.121410998876511 25.463739662561174 3.2382175969074627 19.640247564785675 1.355024194938414 13.816755467010177 -0.7160793542097035 7.231848968308016 -2.787182903357821 0.6469424696058548 -3.312174355958452 -1.009297484988739 -3.8371658085590834 -2.665537439583333 -3.7265031836882434 -3.2492089260004846 -3.6158405588174034 -3.8328804124176363 -3.183239122755125 -4.240034705182145 -2.750637686692847 -4.647188997946653 -2.1613364844329066 -4.722306995887901 -1.5720352821729668 -4.797424993829148 -0.22452511614507809 -3.3410744939054693 1.1229850498828107 -1.88472399398179 1.33744583419654 -1.2279378420209999 1.5519066185102695 -0.5711516900602098 1.5715699934036744 -0.060517645194737374 1.5912333682970794 0.4501163996707351 1.3069982118622319 0.8747858616459631 1.022763055427384 1.299455323621191 0.5431975366247523 1.4759509022157686 0.06363201782212063 1.6524464808103463 -0.4280861349981664 1.5133528638652232 -0.9198042878184534 1.3742592469201003 -1.4503162374780907 0.31591931652936506 Z"></path></g><g transform="translate(505.7522550476672 58.539348399537346) rotate(0 62.25490196078431 78.92156862745097)" stroke="none" fill="#0b7285"><path d="M -1.4383908460836716 -3.0020067784361526 Q -1.4383908460836716 -3.0020067784361526 -0.9939036300904578 -3.324945644009927 -0.549416414097244 -3.647884509583702 -0.9939036300904578 -3.324945644009927 -1.4383908460836716 -3.0020067784361526 -0.9939036300904578 -3.324945644009927 -0.549416414097244 -3.647884509583702 1.1102230246251565e-16 -3.647884509583702 0.5494164140972442 -3.647884509583702 0.9939036300904578 -3.3249456440099276 1.4383908460836714 -3.002006778436153 1.4870992361225683 -2.764563739801978 1.5358076261614655 -2.527120701167802 3.2818196575925347 1.3072284598071593 5.027831689023604 5.141577620782121 10.028396183136543 14.909699670596542 15.028960677249483 24.67782172041096 18.433365263082422 29.977134881277813 21.837769848915357 35.276448042144665 30.594397866371715 48.07134182499556 39.35102588382807 60.86623560784644 43.54957172042218 66.09652578899056 47.748117557016286 71.32681597013469 57.57400379012766 82.8418565819612 67.39989002323904 94.3568971937877 72.05545405831263 99.44142783008826 76.71101809338623 104.5259584663888 87.56504832008656 116.06856281306757 98.41907854678688 127.61116715974634 101.61059351597217 131.09566496851184 104.80210848515748 134.58016277727734 111.58952260229623 142.12193096687562 118.376936719435 149.6636991564739 122.53476809908321 154.6260072409538 126.69259947873141 159.5883153254337 126.54752448786451 160.25041212956012 126.4024494969976 160.91250893368652 125.895910626872 161.36288356003809 125.3893717567464 161.81325818638967 124.71484963912711 161.87988283537067 124.04032752150782 161.94650748435163 123.70664293254403 161.45329893061307 123.37295834358024 160.96009037687452 122.629166690029 159.72444679888017 121.88537503647775 158.4888032208858 122.20394339540138 158.51213682885128 122.52251175432501 158.53547043681678 121.85211816977494 158.1803814183318 121.18172458522488 157.8252923998468 121.07495017346514 157.07421650870938 120.9681757617054 156.32314061757197 121.5130484971463 155.79528697173095 122.0579212325872 155.2674333258899 122.80523196088379 155.397980040239 123.55254268918038 155.52852675458809 123.88618640368483 156.20984726728835 124.2198301181893 156.89116777998865 123.8647410997043 157.5615613645387 123.50965208121931 158.2319549490888 122.7585761900819 158.33872936084853 122.00750029894446 158.44550377260828 121.47964665310344 157.9006310371674 120.95179300726242 157.35575830172647 121.0823397216115 156.60844757342988 121.2128864359606 155.8611368451333 121.8942069486609 155.52749313062884 122.57552746136118 155.19384941612438 124.25128284996892 156.91312979878433 125.92703823857666 158.6324101814443 126.30981885865404 159.110362753439 126.69259947873141 159.5883153254337 126.54752448786451 160.25041212956012 126.4024494969976 160.91250893368652 125.895910626872 161.36288356003809 125.3893717567464 161.81325818638967 124.71484963912711 161.87988283537067 124.04032752150782 161.94650748435163 119.59655170762701 157.2466615058406 115.1527758937462 152.54681552732956 108.432701845897 144.9976511844523 101.7126277980478 137.4484868415751 98.53905309178501 133.96463086534374 95.36547838552221 130.4807748891124 84.46545787530437 118.8745881715029 73.56543736508651 107.26840145389336 68.89447785775593 102.16260357588746 64.22351835042535 97.05680569788157 54.339177028617016 85.38255152858997 44.45483570680868 73.70829735929836 40.236266986398334 68.42422929149737 36.017698265987995 63.140161223696396 27.192311788193198 50.15352234831976 18.3669253103984 37.16688347294313 14.93874334598626 31.802170662107475 11.510561381574119 26.437457851271823 6.458276610981149 16.009341916260663 1.4059918403881781 5.581225981249501 -0.06490789288664367 1.5270526400408495 -1.5358076261614655 -2.527120701167802 -1.4870992361225683 -2.764563739801978 -1.4383908460836714 -3.002006778436153 -0.9939036300904578 -3.3249456440099276 -0.5494164140972442 -3.647884509583702 -1.1102230246251565e-16 -3.647884509583702 0.549416414097244 -3.647884509583702 0.9939036300904578 -3.324945644009927 1.4383908460836716 -3.0020067784361526 1.4383908460836716 -1.5010033892180763 1.4383908460836716 0 1.3010367425593605 0.42273246318023744 1.1636826390350496 0.8454649263604749 0.8040849275141317 1.106727956753825 0.44448721599321384 1.3679909871471752 -8.326672684688674e-17 1.3679909871471752 -0.444487215993214 1.3679909871471752 -0.8040849275141317 1.106727956753825 -1.1636826390350494 0.845464926360475 -1.3010367425593605 -1.0782709260378387 Z"></path></g><g transform="translate(602.8110785770789 211.48052487012558) rotate(0 12.254901960784366 -1.4705882352941302)" stroke="none" fill="#0b7285"><path d="M -1.2458270656547052 2.8554448377779362 Q -1.2458270656547052 2.8554448377779362 -2.402322458227322 3.9566176164698605 -3.5588178507999393 5.057790395161785 -2.402322458227322 3.9566176164698605 -1.2458270656547052 2.8554448377779362 -2.402322458227322 3.9566176164698605 -3.5588178507999393 5.057790395161785 -4.221617790011182 4.950188323483552 -4.884417729222426 4.842586251805319 -5.3573872330664205 4.36595031769896 -5.8303567369104154 3.8893143835926027 -5.93283753056093 3.225703313627193 -6.035318324211445 2.5620922436617835 -4.848497253957724 2.907627231979094 -3.661676183704004 3.2531622202964043 1.9016043281960484 5.290778232917654 7.464884840096101 7.328394245538903 14.34976006177767 10.66962851556642 21.23463528345924 14.010862785593936 23.69668135735844 14.416395386548308 26.15872743125764 14.82192798750268 25.556551899311007 12.350509988785136 24.954376367364375 9.879091990067593 24.53623528702162 6.6545336229301695 24.11809420667886 3.429975255792746 23.75395513938333 -1.4955905519989865 23.389816072087797 -6.421156359790719 23.134678518941715 -10.444246700287268 22.879540965795634 -14.467337040783818 21.855095152124058 -18.0152376614244 20.83064933845248 -21.563138282064987 21.208630551558908 -22.308542470211016 21.586611764665335 -23.053946658357045 22.411828203261308 -23.18629102218877 23.237044641857285 -23.31863538602049 23.829163533862918 -22.72881132844309 24.421282425868554 -22.13898727086569 24.292143491921923 -21.31326314205137 24.16300455797529 -20.487539013237043 23.419073744228456 -20.10666614005622 22.675142930481616 -19.7257932668754 21.929738742335587 -20.103774479981826 21.184334554189558 -20.481755693088253 21.051990190357834 -21.306972131684226 20.919645826526114 -22.132188570280203 21.50946988410351 -22.724307462285836 22.09929394168091 -23.316426354291472 22.925018070495234 -23.18728742034484 23.75074219930956 -23.05814848639821 24.131615072490384 -22.314217672651374 24.512487945671204 -21.570286858904538 25.879214162550735 -18.023050802364672 27.245940379430266 -14.475814745824808 27.512092651878717 -10.600343227236895 27.778244924327172 -6.724871708648983 28.178615479396633 -1.9758118683684698 28.57898603446609 2.7732479719120438 29.016527947430085 6.906613247023317 29.454069860394082 11.03997852213459 29.869730131125632 13.123118960540122 30.285390401857182 15.206259398945656 29.777604767586663 16.917942144520886 29.269819133316144 18.629624890096117 27.5831648686748 19.513693792758154 25.896510604033452 20.397762695420194 22.53284977720388 19.4502604732965 19.169188950374306 18.502758251172803 12.00982165545761 14.895604198962094 4.850454360540915 11.288450146751384 1.180069913639343 8.681733097987767 -2.490314533262229 6.075016049224152 -3.0245661920310845 5.566403222192968 -3.5588178507999393 5.057790395161785 -4.221617790011182 4.950188323483552 -4.884417729222426 4.842586251805319 -5.3573872330664205 4.36595031769896 -5.8303567369104154 3.8893143835926027 -5.93283753056093 3.225703313627193 -6.035318324211445 2.562092243661783 -4.5996705680037975 1.170246956618386 -3.164022811796149 -0.22159833042501131 -2.0615603424334354 -0.8800599572632425 -0.9590978730707218 -1.5385215841014737 -0.4153520270926509 -1.6734776385741397 0.12839381888542 -1.8084336930468057 0.6476186274290747 -1.598009645347779 1.1668434359727293 -1.3875855976487523 1.4632209780204488 -0.9121562819487319 1.759598520068168 -0.4367269662487115 1.7199226480598742 0.12210977810299842 1.6802467760515802 0.6809465224547083 0.2172098551984375 1.7681956801163223 Z"></path></g><g transform="translate(252.81107857707894 537.9511131054196) rotate(0 83.8235294117647 -56.37254901960782)" stroke="none" fill="#0b7285"><path d="M -1.31357230392158 1.7452388173151978 Q -1.31357230392158 1.7452388173151978 -2.637094226181672 1.5965906289487135 -3.9606161484417637 1.447942440582229 -2.637094226181672 1.5965906289487135 -1.31357230392158 1.7452388173151978 -2.637094226181672 1.5965906289487135 -3.9606161484417637 1.447942440582229 -4.285699480590936 1.0005036195655828 -4.6107828127401085 0.5530647985489364 -4.6107828127401085 -1.1102230246251565e-16 -4.6107828127401085 -0.5530647985489366 -4.285699480590936 -1.0005036195655828 -3.9606161484417637 -1.4479424405822288 -2.7341097173520903 -2.9290403832785774 -1.507603286262417 -4.410138325974926 5.796232371283576 -12.206910880028726 13.10006802882957 -20.003683434082525 24.404674762242067 -30.45594452373965 35.709281495654565 -40.908205613396774 41.58941360092223 -45.26201514593701 47.46954570618989 -49.61582467847725 61.7948940724169 -59.54576260829665 76.12024243864391 -69.47570053811604 82.96842906761384 -73.40213373516413 89.81661569658375 -77.32856693221221 105.87142883249442 -85.89482528388297 121.9262419684051 -94.4610836355537 126.20404081927964 -96.39660112524183 130.4818396701542 -98.33211861492995 139.5839051839567 -102.04444901651878 148.6859706977592 -105.75677941810761 155.78480660120613 -109.05034348036679 162.88364250465304 -112.34390754262598 167.0338548836209 -113.51761721312033 171.18406726258874 -114.69132688361466 171.69811566954112 -114.2945928682828 172.2121640764935 -113.89785885295095 172.3948435703545 -113.27474421972981 172.57752306421554 -112.65162958650868 172.35905628737788 -112.04014294640132 172.14058951054022 -111.42865630629395 171.57816530627858 -111.23509801346185 171.01574110201693 -111.04153972062977 169.02740151384018 -110.20633131600744 167.03906192566342 -109.3711229113851 166.57607079279603 -108.72910952789226 166.11307965992867 -108.08709614439941 165.33059216646905 -108.26820339353719 164.54810467300945 -108.44931064267496 164.23468890660754 -109.18880849289607 163.92127314020564 -109.9283063431172 164.3353183030113 -110.61653095490334 164.74936346581694 -111.3047555666895 165.54951851317924 -111.37431427061361 166.34967356054153 -111.44387297453771 166.87626707050975 -110.83741952342189 167.40286058047798 -110.23096607230607 167.2217533313402 -109.44847857884648 167.04064608220244 -108.66599108538686 166.30114823198133 -108.35257531898496 165.56165038176022 -108.03915955258306 164.87342576997406 -108.4532047153887 164.1852011581879 -108.86724987819434 164.11564245426382 -109.66740492555664 164.0460837503397 -110.46755997291892 164.65253720145552 -110.99415348288716 165.25899065257133 -111.5207469928554 165.65155439061732 -112.44589607052046 166.04411812866334 -113.37104514818552 168.0466773216398 -113.93054190141123 170.04923651461627 -114.49003865463696 170.61665188860252 -114.5906827691258 171.18406726258874 -114.69132688361466 171.69811566954112 -114.2945928682828 172.2121640764935 -113.89785885295095 172.3948435703545 -113.27474421972981 172.57752306421554 -112.65162958650868 172.35905628737788 -112.04014294640132 172.14058951054022 -111.42865630629395 168.34555089225947 -110.00436280406322 164.5505122739787 -108.5800693018325 157.39385115530735 -105.2926294547346 150.23719003663598 -102.00518960763668 141.26190336197925 -98.34556081895535 132.28661668732255 -94.68593203027402 128.0677382795618 -92.77286207229432 123.84885987180104 -90.85979211431463 107.95966670333522 -82.36284108072122 92.07047353486941 -73.86589004712782 85.27837443471002 -69.96311875029795 78.48627533455063 -66.0603474534681 64.326592769704 -56.248806295009075 50.1669102048574 -46.43726513655005 44.34326544977108 -42.12394784521621 38.51962069468476 -37.810630553882355 27.290432833351247 -27.55485989568413 16.06124497201773 -17.299089237485912 7.653214564530562 -9.44692643614763 -0.7548158429566048 -1.5947636348093477 -2.357715995699184 -0.07341059711355946 -3.9606161484417637 1.4479424405822288 -4.285699480590936 1.0005036195655828 -4.6107828127401085 0.5530647985489366 -4.6107828127401085 1.1102230246251565e-16 -4.6107828127401085 -0.5530647985489364 -4.285699480590936 -1.0005036195655828 -3.9606161484417637 -1.447942440582229 -2.637094226181672 -1.5965906289487135 -1.31357230392158 -1.7452388173151978 -0.65678615196079 -1.7452388173151978 0 -1.7452388173151978 0.5129128192731155 -1.5785833398830136 1.025825638546231 -1.4119278624508294 1.3428231941225484 -0.9756181581220299 1.659820749698866 -0.5393084537932304 1.659820749698866 1.1102230246251565e-16 1.659820749698866 0.5393084537932307 1.3428231941225486 0.9756181581220299 1.0258256385462312 1.4119278624508291 -0.14387333268767444 1.5785833398830134 Z"></path></g><g transform="translate(379.28166681237303 414.4217013407138) rotate(0 21.078431372549005 25)" stroke="none" fill="#0b7285"><path d="M 4.665068749015433 1.9226760524337108 Q 4.665068749015433 1.9226760524337108 10.990797795363664 2.368037311278384 17.316526841711894 2.8133985701230575 10.990797795363664 2.368037311278384 4.665068749015433 1.9226760524337108 10.990797795363664 2.368037311278384 17.316526841711894 2.8133985701230575 24.645231596911238 3.5664530659565172 31.973936352110584 4.319507561789977 36.239248932487484 5.530111397793615 40.504561512864385 6.740715233797252 41.82118247763652 7.529353274218393 43.137803442408654 8.317991314639535 43.504529126302565 9.568523952939266 43.871254810196476 10.819056591238995 43.40161212157375 12.452172791678805 42.93196943295103 14.085288992118617 41.656376468085966 17.264317785882675 40.38078350322091 20.443346579646732 38.33579674707366 27.04087337557506 36.29080999092641 33.63840017150339 34.75577695078647 39.48543000011233 33.220743910646526 45.33245982872126 31.247044604638184 47.849947637589146 29.27334529862984 50.36743544645703 28.774325541439758 50.97922516709167 28.275305784249674 51.59101488772632 27.487041049393447 51.54690039892385 26.698776314537216 51.502785910121396 26.27113529962584 50.83913649762574 25.843494284714467 50.17548708513008 26.129036855890114 49.43943489921752 26.41457942706576 48.70338271330495 27.177895866454573 48.50175088620652 27.941212305843386 48.30011905910809 28.55300202647803 48.799138816298175 29.164791747112673 49.29815857348826 29.120677258310213 50.08642330834449 29.076562769507753 50.87468804320072 28.412913357012094 51.30232905811209 27.749263944516436 51.729970073023466 27.01321175860387 51.44442750184782 26.277159572691303 51.15888493067217 26.075527745592876 50.39556849128336 25.873895918494448 49.632252051894554 27.34017754480766 47.00502733845643 28.80645917112087 44.377802625018305 30.393029089005424 38.35300170720947 31.97959900688998 32.32820078940063 34.1289662701918 25.45208922635535 36.27833353349362 18.57597766331007 37.90343263061575 14.746685602816402 39.52853172773787 10.917393542322733 39.19049005644391 10.58309080095776 38.852448385149955 10.248788059592787 35.15108110214095 9.395074607810246 31.44971381913195 8.541361156027705 24.12339896847032 7.79413320429515 16.797084117808687 7.0469052525625955 9.762901046606629 5.9512216819714 2.728717975404571 4.855538111380204 0.6195838937918222 3.5984856450966873 -1.4895501878209265 2.3414331788131704 -2.283429828119553 1.2754058710014502 -3.0773094684181794 0.2093785631897298 -2.8449873784542667 -0.715013871604083 -2.6126652884903536 -1.6394063063978959 -1.881368529038308 -2.2506999973551727 -1.1500717695862623 -2.8619936883124493 -0.19913084689410898 -2.9266952225958844 0.7518100757980444 -2.9913967568793196 1.5591680505550878 -2.4847923475169083 2.3665260253121314 -1.9781879381544965 3.515797387163782 -0.027755942860392846 Z"></path></g><g transform="translate(160.31198120117188 550.434814453125) rotate(0 285 17.5)"><text x="0" y="24" font-family="Virgil, Segoe UI Emoji" font-size="28px" fill="#FFFFFF" text-anchor="start" style="white-space: pre;" direction="ltr">Video iframe with transparent background</text></g><g transform="translate(10 12.659637451171875) rotate(0 86.5 17.5)"><text x="0" y="24" font-family="Virgil, Segoe UI Emoji" font-size="28px" fill="#FFFFFF" text-anchor="start" style="white-space: pre;" direction="ltr">Switch WABs</text></g><g transform="translate(357.5871887207031 10) rotate(0 195.5 17.5)"><text x="0" y="24" font-family="Virgil, Segoe UI Emoji" font-size="28px" fill="#FFFFFF" text-anchor="start" style="white-space: pre;" direction="ltr">Background iframe with WAB</text></g><g transform="translate(29.28166681237309 53.637387615223616) rotate(0 19.89791406369673 24.999184552361)" stroke="none" fill="#0b7285"><path d="M -4.5255449703146855 2.2942824566114632 Q -4.5255449703146855 2.2942824566114632 -4.924843198172919 1.9526951203534237 -5.324141426031153 1.6111077840953842 -4.924843198172919 1.9526951203534237 -4.5255449703146855 2.2942824566114632 -4.924843198172919 1.9526951203534237 -5.324141426031153 1.6111077840953842 -5.446400479569919 1.1000562143977712 -5.568659533108684 0.5890046447001582 -5.367180609308566 0.10369317118347449 -5.165701685508448 -0.38161830233320926 -4.396080890039727 0.37105147156548063 -3.6264600945710064 1.1237212454641705 -0.08964104371234694 5.239768554700079 3.4471780071463125 9.355815863935987 8.954880765527928 16.919289403296155 14.462583523909544 24.482762942656322 21.72466631533525 31.630199557922925 28.986749106760957 38.77763617318953 34.90715489005081 42.59968518201153 40.82756067334067 46.42173419083352 43.067593712488 47.761023726382035 45.307626751635325 49.10031326193055 45.40736914968318 49.666199588226895 45.50711154773102 50.23208591452324 45.25518520574048 50.7485246799822 45.00325886374994 51.26496344544116 44.49589108169997 51.534692594765446 43.988523299650005 51.80442174408974 43.75063433166663 51.483072443124684 43.512745363683266 51.16172314215962 42.80225593828543 50.15398891339416 42.09176651288758 49.1462546846287 42.47462560868169 48.51308255478324 42.8574847044758 47.879910424937776 43.59477064809917 47.81748069980046 44.33205659172254 47.75505097466315 44.81592910469715 48.314832561027835 45.29980161767175 48.87461414739252 45.13134192828072 49.59510659446994 44.962882238889684 50.31559904154735 44.28097348385545 50.6028071247431 43.599064728821205 50.89001520793885 42.96589259897574 50.50715611214474 42.33272046913028 50.12429701635063 42.270290743992966 49.38701107272726 42.20786101885565 48.64972512910389 42.76764260522034 48.165852616129285 43.327424191585024 47.681980103154686 44.04791663866244 47.850439792545714 44.768409085739854 48.01889948193675 45.055617168935605 48.700808236970985 45.342825252131355 49.38271699200523 45.32522600188334 49.24151512696789 45.307626751635325 49.10031326193055 45.40736914968318 49.666199588226895 45.50711154773102 50.23208591452324 45.25518520574048 50.7485246799822 45.00325886374994 51.26496344544116 44.49589108169997 51.534692594765446 43.988523299650005 51.80442174408974 41.49805535600349 50.68517298218865 39.00758741235697 49.565924220287556 32.78471091756333 45.480451138705604 26.56183442276969 41.39497805712365 19.06939013592674 33.98908539398891 11.576945849083785 26.583192730854165 5.980777804688907 18.8801792831698 0.3846097602940297 11.17716583548543 -1.7671688666357166 7.3749929438199375 -3.918947493565463 3.5728200521544444 -4.222246231940074 2.9335512543829534 -4.5255449703146855 2.294282456611463 -4.924843198172919 1.9526951203534235 -5.324141426031153 1.6111077840953842 -5.446400479569918 1.1000562143977715 -5.568659533108683 0.5890046447001585 -5.367180609308565 0.1036931711834746 -5.165701685508447 -0.38161830233320926 -3.1669335164944306 -0.8597843409027728 -1.1681653474804143 -1.3379503794723362 -0.7443868334192444 -1.3042561561346546 -0.32060831935807443 -1.2705619327969728 0.002430732803036406 -0.9942119727009491 0.32546978496414725 -0.7178620126049253 0.424379436993205 -0.30441260771756357 0.5232890890222628 0.1090367971697982 0.36028921565959227 0.5016620268099423 0.19728934229692174 0.8942872564500866 -2.1641278140088818 1.5942848565307748 Z"></path></g></svg>
